G04*
G04 #@! TF.GenerationSoftware,Altium Limited,Altium Designer,21.9.2 (33)*
G04*
G04 Layer_Color=16711935*
%FSAX43Y43*%
%MOMM*%
G71*
G04*
G04 #@! TF.SameCoordinates,8A3C4949-5F79-4682-B659-0E7BAC0626F8*
G04*
G04*
G04 #@! TF.FilePolarity,Negative*
G04*
G01*
G75*
%ADD11C,0.150*%
%ADD90R,8.000X3.000*%
%ADD97C,1.100*%
%ADD98C,1.000*%
%ADD142C,2.000*%
%ADD166C,1.900*%
%ADD167R,1.900X1.900*%
%ADD168R,1.900X1.900*%
%ADD169C,2.400*%
%ADD170C,0.100*%
%ADD171C,2.700*%
%ADD172C,1.700*%
%ADD173C,2.100*%
%ADD174C,1.800*%
G04:AMPARAMS|DCode=175|XSize=1mm|YSize=1.7mm|CornerRadius=0.5mm|HoleSize=0mm|Usage=FLASHONLY|Rotation=270.000|XOffset=0mm|YOffset=0mm|HoleType=Round|Shape=RoundedRectangle|*
%AMROUNDEDRECTD175*
21,1,1.000,0.700,0,0,270.0*
21,1,0.000,1.700,0,0,270.0*
1,1,1.000,-0.350,0.000*
1,1,1.000,-0.350,0.000*
1,1,1.000,0.350,0.000*
1,1,1.000,0.350,0.000*
%
%ADD175ROUNDEDRECTD175*%
%ADD176C,2.900*%
%ADD177C,4.400*%
%ADD178C,7.200*%
%ADD179C,0.350*%
%ADD180C,0.400*%
%ADD238C,1.300*%
D11*
X0220000Y0128500D02*
Y0127000D01*
Y0128500D02*
X0220643D01*
X0220857Y0128428D01*
X0220928Y0128357D01*
X0221000Y0128214D01*
Y0128071D01*
X0220928Y0127928D01*
X0220857Y0127857D01*
X0220643Y0127786D01*
X0220000D02*
X0220643D01*
X0220857Y0127714D01*
X0220928Y0127643D01*
X0221000Y0127500D01*
Y0127286D01*
X0220928Y0127143D01*
X0220857Y0127071D01*
X0220643Y0127000D01*
X0220000D01*
X0221764Y0128500D02*
X0221621Y0128428D01*
X0221478Y0128285D01*
X0221407Y0128143D01*
X0221335Y0127928D01*
Y0127571D01*
X0221407Y0127357D01*
X0221478Y0127214D01*
X0221621Y0127071D01*
X0221764Y0127000D01*
X0222050D01*
X0222192Y0127071D01*
X0222335Y0127214D01*
X0222407Y0127357D01*
X0222478Y0127571D01*
Y0127928D01*
X0222407Y0128143D01*
X0222335Y0128285D01*
X0222192Y0128428D01*
X0222050Y0128500D01*
X0221764D01*
X0223328D02*
Y0127000D01*
X0222828Y0128500D02*
X0223828D01*
X0224506D02*
Y0127000D01*
X0224006Y0128500D02*
X0225006D01*
X0225613D02*
X0225470Y0128428D01*
X0225327Y0128285D01*
X0225256Y0128143D01*
X0225185Y0127928D01*
Y0127571D01*
X0225256Y0127357D01*
X0225327Y0127214D01*
X0225470Y0127071D01*
X0225613Y0127000D01*
X0225899D01*
X0226042Y0127071D01*
X0226184Y0127214D01*
X0226256Y0127357D01*
X0226327Y0127571D01*
Y0127928D01*
X0226256Y0128143D01*
X0226184Y0128285D01*
X0226042Y0128428D01*
X0225899Y0128500D01*
X0225613D01*
X0226677D02*
Y0127000D01*
Y0128500D02*
X0227248Y0127000D01*
X0227820Y0128500D02*
X0227248Y0127000D01*
X0227820Y0128500D02*
Y0127000D01*
X0230426Y0128285D02*
X0230284Y0128428D01*
X0230069Y0128500D01*
X0229784D01*
X0229569Y0128428D01*
X0229427Y0128285D01*
Y0128143D01*
X0229498Y0128000D01*
X0229569Y0127928D01*
X0229712Y0127857D01*
X0230141Y0127714D01*
X0230284Y0127643D01*
X0230355Y0127571D01*
X0230426Y0127428D01*
Y0127214D01*
X0230284Y0127071D01*
X0230069Y0127000D01*
X0229784D01*
X0229569Y0127071D01*
X0229427Y0127214D01*
X0231190Y0128500D02*
X0231048Y0128428D01*
X0230905Y0128285D01*
X0230833Y0128143D01*
X0230762Y0127928D01*
Y0127571D01*
X0230833Y0127357D01*
X0230905Y0127214D01*
X0231048Y0127071D01*
X0231190Y0127000D01*
X0231476D01*
X0231619Y0127071D01*
X0231762Y0127214D01*
X0231833Y0127357D01*
X0231905Y0127571D01*
Y0127928D01*
X0231833Y0128143D01*
X0231762Y0128285D01*
X0231619Y0128428D01*
X0231476Y0128500D01*
X0231190D01*
X0232255D02*
Y0127000D01*
X0233111D01*
X0233276Y0128500D02*
Y0127000D01*
Y0128500D02*
X0233776D01*
X0233990Y0128428D01*
X0234133Y0128285D01*
X0234204Y0128143D01*
X0234276Y0127928D01*
Y0127571D01*
X0234204Y0127357D01*
X0234133Y0127214D01*
X0233990Y0127071D01*
X0233776Y0127000D01*
X0233276D01*
X0235540Y0128500D02*
X0234611D01*
Y0127000D01*
X0235540D01*
X0234611Y0127786D02*
X0235182D01*
X0235789Y0128500D02*
Y0127000D01*
Y0128500D02*
X0236432D01*
X0236646Y0128428D01*
X0236718Y0128357D01*
X0236789Y0128214D01*
Y0128071D01*
X0236718Y0127928D01*
X0236646Y0127857D01*
X0236432Y0127786D01*
X0235789D01*
X0236289D02*
X0236789Y0127000D01*
X0238303Y0128500D02*
Y0127000D01*
Y0128500D02*
X0238875Y0127000D01*
X0239446Y0128500D02*
X0238875Y0127000D01*
X0239446Y0128500D02*
Y0127000D01*
X0241017D02*
X0240446Y0128500D01*
X0239874Y0127000D01*
X0240089Y0127500D02*
X0240803D01*
X0242367Y0128285D02*
X0242224Y0128428D01*
X0242010Y0128500D01*
X0241724D01*
X0241510Y0128428D01*
X0241367Y0128285D01*
Y0128143D01*
X0241438Y0128000D01*
X0241510Y0127928D01*
X0241652Y0127857D01*
X0242081Y0127714D01*
X0242224Y0127643D01*
X0242295Y0127571D01*
X0242367Y0127428D01*
Y0127214D01*
X0242224Y0127071D01*
X0242010Y0127000D01*
X0241724D01*
X0241510Y0127071D01*
X0241367Y0127214D01*
X0242702Y0128500D02*
Y0127000D01*
X0243702Y0128500D02*
X0242702Y0127500D01*
X0243059Y0127857D02*
X0243702Y0127000D01*
X0220000Y0131500D02*
X0221000Y0130000D01*
Y0131500D02*
X0220000Y0130000D01*
X0221335Y0131500D02*
Y0130000D01*
Y0131500D02*
X0221907Y0130000D01*
X0222478Y0131500D02*
X0221907Y0130000D01*
X0222478Y0131500D02*
Y0130000D01*
X0223906Y0131285D02*
X0223763Y0131428D01*
X0223549Y0131500D01*
X0223264D01*
X0223049Y0131428D01*
X0222907Y0131285D01*
Y0131143D01*
X0222978Y0131000D01*
X0223049Y0130928D01*
X0223192Y0130857D01*
X0223621Y0130714D01*
X0223763Y0130643D01*
X0223835Y0130571D01*
X0223906Y0130428D01*
Y0130214D01*
X0223763Y0130071D01*
X0223549Y0130000D01*
X0223264D01*
X0223049Y0130071D01*
X0222907Y0130214D01*
X0224670Y0131500D02*
X0224456Y0131428D01*
X0224313Y0131214D01*
X0224242Y0130857D01*
Y0130643D01*
X0224313Y0130286D01*
X0224456Y0130071D01*
X0224670Y0130000D01*
X0224813D01*
X0225027Y0130071D01*
X0225170Y0130286D01*
X0225242Y0130643D01*
Y0130857D01*
X0225170Y0131214D01*
X0225027Y0131428D01*
X0224813Y0131500D01*
X0224670D01*
X0226006D02*
X0225792Y0131428D01*
X0225649Y0131214D01*
X0225577Y0130857D01*
Y0130643D01*
X0225649Y0130286D01*
X0225792Y0130071D01*
X0226006Y0130000D01*
X0226149D01*
X0226363Y0130071D01*
X0226506Y0130286D01*
X0226577Y0130643D01*
Y0130857D01*
X0226506Y0131214D01*
X0226363Y0131428D01*
X0226149Y0131500D01*
X0226006D01*
X0227341D02*
X0227127Y0131428D01*
X0226984Y0131214D01*
X0226913Y0130857D01*
Y0130643D01*
X0226984Y0130286D01*
X0227127Y0130071D01*
X0227341Y0130000D01*
X0227484D01*
X0227698Y0130071D01*
X0227841Y0130286D01*
X0227913Y0130643D01*
Y0130857D01*
X0227841Y0131214D01*
X0227698Y0131428D01*
X0227484Y0131500D01*
X0227341D01*
X0228962D02*
X0228248Y0130500D01*
X0229319D01*
X0228962Y0131500D02*
Y0130000D01*
X0230762Y0130857D02*
X0232047D01*
X0230762Y0130428D02*
X0232047D01*
X0233669Y0131214D02*
X0233811Y0131285D01*
X0234026Y0131500D01*
Y0130000D01*
X0234768Y0131500D02*
X0235340Y0130000D01*
X0235911Y0131500D02*
X0235340Y0130000D01*
X0236104Y0131214D02*
X0236247Y0131285D01*
X0236461Y0131500D01*
Y0130000D01*
X0238382Y0130857D02*
X0239667D01*
X0238382Y0130428D02*
X0239667D01*
X0241288Y0131214D02*
X0241431Y0131285D01*
X0241645Y0131500D01*
Y0130000D01*
X0243388Y0131500D02*
X0242674Y0130000D01*
X0242388Y0131500D02*
X0243388D01*
X0246044Y0130000D02*
X0245473Y0131500D01*
X0244902Y0130000D01*
X0245116Y0130500D02*
X0245830D01*
X0246394Y0131500D02*
Y0130428D01*
X0246466Y0130214D01*
X0246609Y0130071D01*
X0246823Y0130000D01*
X0246966D01*
X0247180Y0130071D01*
X0247323Y0130214D01*
X0247394Y0130428D01*
Y0131500D01*
X0248880Y0131143D02*
X0248808Y0131285D01*
X0248665Y0131428D01*
X0248522Y0131500D01*
X0248237D01*
X0248094Y0131428D01*
X0247951Y0131285D01*
X0247880Y0131143D01*
X0247808Y0130928D01*
Y0130571D01*
X0247880Y0130357D01*
X0247951Y0130214D01*
X0248094Y0130071D01*
X0248237Y0130000D01*
X0248522D01*
X0248665Y0130071D01*
X0248808Y0130214D01*
X0248880Y0130357D01*
Y0130571D01*
X0248522D02*
X0248880D01*
X0250472Y0131143D02*
Y0131214D01*
X0250543Y0131357D01*
X0250615Y0131428D01*
X0250758Y0131500D01*
X0251043D01*
X0251186Y0131428D01*
X0251258Y0131357D01*
X0251329Y0131214D01*
Y0131071D01*
X0251258Y0130928D01*
X0251115Y0130714D01*
X0250401Y0130000D01*
X0251400D01*
X0252165Y0131500D02*
X0251950Y0131428D01*
X0251807Y0131214D01*
X0251736Y0130857D01*
Y0130643D01*
X0251807Y0130286D01*
X0251950Y0130071D01*
X0252165Y0130000D01*
X0252307D01*
X0252522Y0130071D01*
X0252664Y0130286D01*
X0252736Y0130643D01*
Y0130857D01*
X0252664Y0131214D01*
X0252522Y0131428D01*
X0252307Y0131500D01*
X0252165D01*
X0253143Y0131143D02*
Y0131214D01*
X0253214Y0131357D01*
X0253286Y0131428D01*
X0253429Y0131500D01*
X0253714D01*
X0253857Y0131428D01*
X0253928Y0131357D01*
X0254000Y0131214D01*
Y0131071D01*
X0253928Y0130928D01*
X0253786Y0130714D01*
X0253071Y0130000D01*
X0254071D01*
X0254478Y0131143D02*
Y0131214D01*
X0254550Y0131357D01*
X0254621Y0131428D01*
X0254764Y0131500D01*
X0255050D01*
X0255192Y0131428D01*
X0255264Y0131357D01*
X0255335Y0131214D01*
Y0131071D01*
X0255264Y0130928D01*
X0255121Y0130714D01*
X0254407Y0130000D01*
X0255407D01*
D90*
X0359000Y0144500D02*
D03*
D97*
X0228260Y0146000D02*
D03*
X0233340Y0147016D02*
D03*
Y0144984D02*
D03*
D98*
X0285400Y0192100D02*
D03*
X0284500Y0198400D02*
D03*
X0285400Y0194000D02*
D03*
X0284500Y0197000D02*
D03*
D142*
X0230000Y0142000D02*
D03*
X0367000Y0144000D02*
D03*
X0224000Y0259000D02*
D03*
D166*
X0245590Y0218930D02*
D03*
X0334490Y0175750D02*
D03*
X0331950D02*
D03*
X0329410D02*
D03*
X0230350Y0206230D02*
D03*
Y0203690D02*
D03*
X0316710Y0226550D02*
D03*
X0314170Y0203690D02*
D03*
X0316710Y0206230D02*
D03*
X0314170D02*
D03*
X0316710Y0208770D02*
D03*
X0314170D02*
D03*
X0316710Y0211310D02*
D03*
X0314170D02*
D03*
X0316710Y0213850D02*
D03*
X0314170D02*
D03*
X0331950Y0193530D02*
D03*
X0329410D02*
D03*
X0331950Y0196070D02*
D03*
X0329410D02*
D03*
X0331950Y0198610D02*
D03*
X0329410D02*
D03*
X0331950Y0201150D02*
D03*
X0329410D02*
D03*
X0331950Y0203690D02*
D03*
X0329410D02*
D03*
X0331950Y0206230D02*
D03*
X0329410D02*
D03*
X0331950Y0208770D02*
D03*
X0329410D02*
D03*
X0331950Y0211310D02*
D03*
X0329410D02*
D03*
X0331950Y0213850D02*
D03*
X0329410D02*
D03*
X0331950Y0216390D02*
D03*
X0304010Y0168130D02*
D03*
Y0165590D02*
D03*
X0301470Y0168130D02*
D03*
Y0165590D02*
D03*
X0298930Y0168130D02*
D03*
Y0165590D02*
D03*
X0296390Y0168130D02*
D03*
Y0165590D02*
D03*
X0293850Y0168130D02*
D03*
Y0165590D02*
D03*
X0291310Y0168130D02*
D03*
Y0165590D02*
D03*
X0288770Y0168130D02*
D03*
Y0165590D02*
D03*
X0286230Y0168130D02*
D03*
X0240500Y0241000D02*
D03*
X0270990Y0201150D02*
D03*
X0268450Y0198610D02*
D03*
X0270990D02*
D03*
X0268450Y0196070D02*
D03*
X0270990D02*
D03*
X0268450Y0193530D02*
D03*
X0270990D02*
D03*
X0268450Y0190990D02*
D03*
X0270990D02*
D03*
X0331950Y0234170D02*
D03*
X0329410D02*
D03*
X0334490D02*
D03*
Y0183370D02*
D03*
X0331950D02*
D03*
X0329410D02*
D03*
X0331950Y0231630D02*
D03*
X0329410D02*
D03*
X0334490D02*
D03*
Y0180830D02*
D03*
X0331950D02*
D03*
X0329410D02*
D03*
X0331950Y0229090D02*
D03*
X0329410D02*
D03*
X0334490D02*
D03*
Y0178290D02*
D03*
X0331950D02*
D03*
X0329410D02*
D03*
X0331950Y0226550D02*
D03*
X0329410D02*
D03*
X0334490D02*
D03*
X0230350Y0196070D02*
D03*
Y0190990D02*
D03*
X0268450Y0213850D02*
D03*
X0243050Y0185910D02*
D03*
X0248130Y0231630D02*
D03*
X0344650Y0251950D02*
D03*
X0258290Y0193530D02*
D03*
X0253210Y0218930D02*
D03*
X0258290Y0185910D02*
D03*
Y0206230D02*
D03*
X0286230Y0152890D02*
D03*
X0288770Y0150350D02*
D03*
Y0152890D02*
D03*
X0291310Y0150350D02*
D03*
Y0152890D02*
D03*
X0293850Y0150350D02*
D03*
Y0152890D02*
D03*
X0296390Y0150350D02*
D03*
Y0152890D02*
D03*
X0316710Y0173210D02*
D03*
X0281150Y0239250D02*
D03*
X0278610Y0241790D02*
D03*
Y0239250D02*
D03*
X0276070Y0241790D02*
D03*
Y0239250D02*
D03*
X0273530Y0241790D02*
D03*
Y0239250D02*
D03*
X0270990Y0241790D02*
D03*
Y0239250D02*
D03*
X0311630D02*
D03*
X0314170Y0188450D02*
D03*
X0316710Y0190990D02*
D03*
X0314170D02*
D03*
X0316710Y0193530D02*
D03*
X0314170D02*
D03*
X0316710Y0196070D02*
D03*
X0314170D02*
D03*
X0316710Y0198610D02*
D03*
X0314170D02*
D03*
X0294300Y0221360D02*
D03*
X0291760Y0223900D02*
D03*
Y0221360D02*
D03*
X0289220Y0223900D02*
D03*
Y0221360D02*
D03*
X0286680Y0223900D02*
D03*
Y0221360D02*
D03*
X0284140Y0223900D02*
D03*
Y0221360D02*
D03*
X0301470Y0244330D02*
D03*
X0311630Y0236710D02*
D03*
X0243050Y0208770D02*
D03*
D167*
X0337030Y0175750D02*
D03*
X0314170Y0226550D02*
D03*
X0286230Y0165590D02*
D03*
X0337030Y0234170D02*
D03*
Y0183370D02*
D03*
Y0231630D02*
D03*
Y0180830D02*
D03*
Y0229090D02*
D03*
Y0178290D02*
D03*
Y0226550D02*
D03*
X0227810Y0196070D02*
D03*
Y0190990D02*
D03*
X0270990Y0213850D02*
D03*
X0286230Y0150350D02*
D03*
X0314170Y0173210D02*
D03*
X0281150Y0241790D02*
D03*
X0294300Y0223900D02*
D03*
D168*
X0230350Y0201150D02*
D03*
X0316710Y0203690D02*
D03*
X0329410Y0216390D02*
D03*
X0268450Y0201150D02*
D03*
X0243050Y0188450D02*
D03*
X0248130Y0234170D02*
D03*
X0316710Y0188450D02*
D03*
D169*
X0309500Y0257400D02*
D03*
X0317000D02*
D03*
X0324500D02*
D03*
X0312000Y0254900D02*
D03*
X0322000D02*
D03*
Y0267400D02*
D03*
X0319500D02*
D03*
X0314500D02*
D03*
X0312000D02*
D03*
X0332500D02*
D03*
X0335000D02*
D03*
X0340000D02*
D03*
X0342500D02*
D03*
X0345000Y0257400D02*
D03*
X0337500D02*
D03*
X0330000D02*
D03*
X0342500Y0254900D02*
D03*
X0332500D02*
D03*
D170*
X0324500Y0262400D02*
D03*
X0309500D02*
D03*
X0330000D02*
D03*
X0345000D02*
D03*
D171*
X0243630Y0237870D02*
D03*
Y0244130D02*
D03*
X0237370D02*
D03*
Y0237870D02*
D03*
D172*
X0251460Y0258900D02*
D03*
X0256540D02*
D03*
X0254000D02*
D03*
X0240540D02*
D03*
X0238000D02*
D03*
X0235460D02*
D03*
D173*
X0256540Y0261500D02*
D03*
X0251460D02*
D03*
X0240540D02*
D03*
X0235460D02*
D03*
D174*
X0256800Y0264000D02*
D03*
X0251200D02*
D03*
X0376500Y0154000D02*
D03*
X0369500D02*
D03*
X0376500Y0256000D02*
D03*
X0369500D02*
D03*
X0376500Y0228000D02*
D03*
X0369500D02*
D03*
X0376500Y0242000D02*
D03*
X0369500D02*
D03*
X0376500Y0214000D02*
D03*
X0369500D02*
D03*
X0376500Y0196000D02*
D03*
X0369500D02*
D03*
X0376500Y0182000D02*
D03*
X0369500D02*
D03*
X0376500Y0168000D02*
D03*
X0369500D02*
D03*
X0240800Y0264000D02*
D03*
X0235200D02*
D03*
D175*
X0222425Y0159300D02*
D03*
Y0152700D02*
D03*
X0222425Y0177700D02*
D03*
Y0184300D02*
D03*
Y0212700D02*
D03*
Y0219300D02*
D03*
D176*
X0286000Y0261500D02*
D03*
X0270000D02*
D03*
D177*
X0286000Y0266000D02*
D03*
X0281000Y0261500D02*
D03*
X0291000D02*
D03*
X0270000Y0266000D02*
D03*
X0265000Y0261500D02*
D03*
X0275000D02*
D03*
D178*
X0300000Y0266000D02*
D03*
X0224000Y0205000D02*
D03*
X0300000Y0144000D02*
D03*
X0376000Y0205000D02*
D03*
Y0266000D02*
D03*
Y0144000D02*
D03*
X0224000D02*
D03*
Y0266000D02*
D03*
D179*
X0242000Y0153500D02*
D03*
Y0152000D02*
D03*
Y0155000D02*
D03*
X0241000Y0152000D02*
D03*
X0238000D02*
D03*
X0239500D02*
D03*
Y0156000D02*
D03*
X0241000D02*
D03*
X0238000D02*
D03*
X0237000Y0153500D02*
D03*
Y0155000D02*
D03*
Y0152000D02*
D03*
X0239500Y0151000D02*
D03*
X0238000D02*
D03*
X0241000D02*
D03*
X0239500Y0153500D02*
D03*
X0238000D02*
D03*
X0241000D02*
D03*
X0239500Y0155000D02*
D03*
X0238000D02*
D03*
X0241000D02*
D03*
D180*
X0356500Y0254700D02*
D03*
X0351800Y0260500D02*
D03*
X0261200Y0214800D02*
D03*
X0251700Y0211400D02*
D03*
X0249800Y0210200D02*
D03*
X0249000Y0212800D02*
D03*
X0247100Y0210000D02*
D03*
X0246100D02*
D03*
X0245100D02*
D03*
X0247100Y0211000D02*
D03*
X0246100D02*
D03*
X0245100D02*
D03*
X0250600Y0217500D02*
D03*
Y0216000D02*
D03*
X0245100Y0215900D02*
D03*
X0246100D02*
D03*
X0247100D02*
D03*
Y0214900D02*
D03*
X0246100D02*
D03*
X0245100D02*
D03*
X0255000Y0215900D02*
D03*
X0259600Y0211400D02*
D03*
X0257700Y0210200D02*
D03*
X0256900Y0212800D02*
D03*
X0255000Y0210000D02*
D03*
X0254000D02*
D03*
X0253000D02*
D03*
X0255000Y0211000D02*
D03*
X0254000D02*
D03*
X0253000D02*
D03*
X0252300Y0204500D02*
D03*
X0252000Y0201700D02*
D03*
X0246100Y0196900D02*
D03*
X0248700Y0192700D02*
D03*
X0252300Y0192000D02*
D03*
Y0189100D02*
D03*
X0280000Y0185300D02*
D03*
X0246700Y0206200D02*
D03*
X0249700Y0243400D02*
D03*
X0245200Y0206200D02*
D03*
X0278000Y0166000D02*
D03*
X0285000Y0179000D02*
D03*
X0283000Y0170000D02*
D03*
X0289000Y0177000D02*
D03*
X0232500Y0212500D02*
D03*
X0222500Y0187500D02*
D03*
Y0200000D02*
D03*
X0237500Y0187500D02*
D03*
X0232500Y0180000D02*
D03*
X0237500Y0175000D02*
D03*
X0242500Y0180000D02*
D03*
X0247500Y0175000D02*
D03*
X0252500Y0180000D02*
D03*
X0262500Y0175000D02*
D03*
X0267500Y0180000D02*
D03*
X0272500Y0175000D02*
D03*
X0277500Y0180000D02*
D03*
X0282500Y0152500D02*
D03*
Y0145000D02*
D03*
X0295000D02*
D03*
X0305000D02*
D03*
X0315000D02*
D03*
X0325000D02*
D03*
X0335000D02*
D03*
X0292700Y0230000D02*
D03*
X0347200Y0239700D02*
D03*
X0345000Y0212600D02*
D03*
X0344900Y0225000D02*
D03*
X0323300Y0205000D02*
D03*
X0307200Y0185200D02*
D03*
X0315700Y0178000D02*
D03*
X0317300Y0180700D02*
D03*
X0332200Y0190400D02*
D03*
X0331400Y0189700D02*
D03*
X0329700Y0187000D02*
D03*
X0330700D02*
D03*
X0343000Y0188000D02*
D03*
Y0171000D02*
D03*
X0339700Y0177000D02*
D03*
X0324100Y0185700D02*
D03*
X0322500D02*
D03*
X0321000D02*
D03*
X0319400D02*
D03*
X0310352Y0201800D02*
D03*
X0324000Y0180800D02*
D03*
X0322500D02*
D03*
X0319500D02*
D03*
X0321000D02*
D03*
X0316100Y0182200D02*
D03*
X0310700Y0182200D02*
D03*
Y0181200D02*
D03*
X0228700Y0143400D02*
D03*
X0231800Y0147900D02*
D03*
X0228400Y0147500D02*
D03*
X0265700Y0250600D02*
D03*
X0268500Y0251200D02*
D03*
X0264700D02*
D03*
X0269500Y0248400D02*
D03*
X0296400Y0228400D02*
D03*
X0295400D02*
D03*
X0297100Y0230600D02*
D03*
X0301300D02*
D03*
X0299400Y0234200D02*
D03*
X0295400D02*
D03*
X0312100Y0250600D02*
D03*
X0257300Y0238400D02*
D03*
X0254700Y0158100D02*
D03*
X0255100Y0242600D02*
D03*
X0254500Y0244900D02*
D03*
X0244000Y0164500D02*
D03*
X0268500Y0165500D02*
D03*
X0279500Y0155500D02*
D03*
Y0160000D02*
D03*
X0278000Y0162500D02*
D03*
X0270000Y0170000D02*
D03*
X0342000Y0243900D02*
D03*
Y0245400D02*
D03*
X0345600Y0244675D02*
D03*
X0347200Y0214600D02*
D03*
X0347100Y0227000D02*
D03*
X0345500Y0237900D02*
D03*
X0344000Y0249000D02*
D03*
X0350000Y0261000D02*
D03*
X0369000Y0267000D02*
D03*
X0363000D02*
D03*
X0357000D02*
D03*
X0351000D02*
D03*
X0362000Y0219000D02*
D03*
Y0261000D02*
D03*
Y0247000D02*
D03*
Y0233000D02*
D03*
X0363000Y0205000D02*
D03*
X0370000D02*
D03*
X0347000Y0201000D02*
D03*
X0358000D02*
D03*
X0355300Y0177600D02*
D03*
X0356600Y0165700D02*
D03*
X0358400Y0168300D02*
D03*
X0357900Y0172100D02*
D03*
X0356500D02*
D03*
X0354500Y0176100D02*
D03*
X0358300Y0154800D02*
D03*
X0355100Y0158800D02*
D03*
Y0165700D02*
D03*
Y0172100D02*
D03*
X0353800Y0174700D02*
D03*
X0358300Y0182600D02*
D03*
X0354700Y0193700D02*
D03*
X0357700Y0185000D02*
D03*
X0356700Y0188700D02*
D03*
X0353800Y0191600D02*
D03*
X0358400Y0196000D02*
D03*
X0359000Y0254000D02*
D03*
X0354600Y0196000D02*
D03*
X0360000Y0190000D02*
D03*
X0366000D02*
D03*
X0372000D02*
D03*
X0343000Y0176000D02*
D03*
X0352000Y0185000D02*
D03*
X0356000Y0184000D02*
D03*
X0362000Y0176000D02*
D03*
X0374000Y0175000D02*
D03*
X0369000Y0164000D02*
D03*
X0364000Y0160000D02*
D03*
X0358000D02*
D03*
X0373000D02*
D03*
X0366000Y0154000D02*
D03*
X0373000D02*
D03*
X0343000Y0166000D02*
D03*
X0353000Y0168000D02*
D03*
X0348000Y0163000D02*
D03*
X0353000D02*
D03*
Y0158000D02*
D03*
X0348000D02*
D03*
Y0153000D02*
D03*
X0353000D02*
D03*
X0364000Y0148000D02*
D03*
X0358000D02*
D03*
X0343000D02*
D03*
X0348000D02*
D03*
X0353000D02*
D03*
X0370000D02*
D03*
Y0143000D02*
D03*
X0353000D02*
D03*
X0348000D02*
D03*
X0343000D02*
D03*
X0339300Y0221500D02*
D03*
Y0220500D02*
D03*
X0332500Y0167300D02*
D03*
X0333500D02*
D03*
X0335000Y0188800D02*
D03*
X0336000D02*
D03*
X0322700Y0202000D02*
D03*
Y0203000D02*
D03*
X0321000Y0219800D02*
D03*
X0322000D02*
D03*
X0294800Y0198800D02*
D03*
X0290600Y0198800D02*
D03*
X0298500Y0211700D02*
D03*
X0299500D02*
D03*
X0282500Y0211200D02*
D03*
X0283500D02*
D03*
X0283700Y0241000D02*
D03*
Y0240000D02*
D03*
X0280700Y0186700D02*
D03*
X0303800Y0172600D02*
D03*
X0268200Y0153900D02*
D03*
X0274500D02*
D03*
X0277000D02*
D03*
X0272200D02*
D03*
X0265100Y0155700D02*
D03*
X0269500Y0152900D02*
D03*
Y0153900D02*
D03*
X0261200Y0159250D02*
D03*
X0266300Y0161900D02*
D03*
X0267500D02*
D03*
X0272900Y0162600D02*
D03*
X0272000Y0163300D02*
D03*
X0270100Y0161900D02*
D03*
X0271300Y0158150D02*
D03*
Y0152000D02*
D03*
X0270000D02*
D03*
X0276900Y0202700D02*
D03*
X0276100Y0204000D02*
D03*
Y0205500D02*
D03*
X0276500Y0143500D02*
D03*
X0278000D02*
D03*
X0275000D02*
D03*
X0271500D02*
D03*
X0270000D02*
D03*
X0268500D02*
D03*
X0338400Y0186000D02*
D03*
X0278500Y0197700D02*
D03*
X0340900Y0183200D02*
D03*
X0258300Y0149000D02*
D03*
X0277800Y0211300D02*
D03*
X0289800Y0202300D02*
D03*
X0294900Y0209700D02*
D03*
X0280400Y0244500D02*
D03*
X0279500Y0248700D02*
D03*
Y0243300D02*
D03*
X0272300Y0244200D02*
D03*
X0271000Y0245500D02*
D03*
X0257200Y0241900D02*
D03*
X0258200D02*
D03*
X0258500Y0217500D02*
D03*
Y0216000D02*
D03*
X0253000Y0214900D02*
D03*
X0255000D02*
D03*
X0254000Y0215900D02*
D03*
Y0214900D02*
D03*
X0253000Y0215900D02*
D03*
X0316000Y0250000D02*
D03*
X0308600Y0251500D02*
D03*
Y0250500D02*
D03*
X0298000Y0256800D02*
D03*
Y0254500D02*
D03*
X0300000Y0251700D02*
D03*
X0299000D02*
D03*
X0323600Y0251100D02*
D03*
Y0252900D02*
D03*
X0287600Y0259000D02*
D03*
X0288500Y0258000D02*
D03*
X0324750Y0252000D02*
D03*
X0341500Y0184000D02*
D03*
Y0186000D02*
D03*
X0354500Y0182000D02*
D03*
X0348500Y0251500D02*
D03*
X0347600Y0252400D02*
D03*
X0348500D02*
D03*
X0347600Y0251500D02*
D03*
X0350200Y0256000D02*
D03*
Y0257000D02*
D03*
Y0258000D02*
D03*
X0351200Y0256000D02*
D03*
Y0257000D02*
D03*
Y0258000D02*
D03*
X0357900Y0256500D02*
D03*
Y0257500D02*
D03*
X0354600Y0264800D02*
D03*
X0351200Y0250700D02*
D03*
X0353000D02*
D03*
X0352100D02*
D03*
X0349300Y0253300D02*
D03*
X0355400Y0252000D02*
D03*
Y0253500D02*
D03*
Y0260500D02*
D03*
X0351400Y0263000D02*
D03*
X0350500Y0263900D02*
D03*
X0351400D02*
D03*
X0350500Y0263000D02*
D03*
X0239700Y0200000D02*
D03*
X0347800Y0191200D02*
D03*
X0308700Y0180800D02*
D03*
X0307200D02*
D03*
X0345800Y0188000D02*
D03*
X0242000Y0193300D02*
D03*
X0266300Y0144100D02*
D03*
X0272600D02*
D03*
X0248400Y0198200D02*
D03*
X0250600Y0189600D02*
D03*
Y0202100D02*
D03*
X0278100Y0201700D02*
D03*
X0276800Y0208200D02*
D03*
X0279800Y0207900D02*
D03*
X0276100Y0207000D02*
D03*
X0258700Y0197000D02*
D03*
X0256300Y0203300D02*
D03*
Y0202000D02*
D03*
X0258700D02*
D03*
X0259700Y0203300D02*
D03*
X0258000Y0199500D02*
D03*
X0248100Y0202900D02*
D03*
X0249000Y0202000D02*
D03*
X0252300Y0202600D02*
D03*
X0249900Y0199500D02*
D03*
Y0197300D02*
D03*
X0248400D02*
D03*
X0249900Y0196400D02*
D03*
X0248400D02*
D03*
X0252300Y0203500D02*
D03*
X0251100Y0197300D02*
D03*
X0252900D02*
D03*
X0252000D02*
D03*
X0251100Y0196400D02*
D03*
X0252000D02*
D03*
X0252900D02*
D03*
X0350700Y0170000D02*
D03*
X0340300Y0179500D02*
D03*
Y0184800D02*
D03*
X0264700Y0257100D02*
D03*
X0289000Y0253300D02*
D03*
X0288000Y0255500D02*
D03*
X0268500Y0257100D02*
D03*
X0273900Y0251800D02*
D03*
X0275400D02*
D03*
X0276700Y0252700D02*
D03*
X0284300Y0250000D02*
D03*
X0284100Y0252600D02*
D03*
X0267500Y0257100D02*
D03*
X0263700Y0257100D02*
D03*
X0237000Y0254200D02*
D03*
X0256600D02*
D03*
X0238000D02*
D03*
X0255600D02*
D03*
X0288000Y0256500D02*
D03*
X0242000Y0196700D02*
D03*
X0234500Y0193300D02*
D03*
X0239200Y0194000D02*
D03*
X0252300Y0191000D02*
D03*
X0248100Y0191200D02*
D03*
X0248400Y0183900D02*
D03*
X0249900D02*
D03*
X0248400Y0184800D02*
D03*
X0249900D02*
D03*
X0248400Y0186000D02*
D03*
X0249800Y0187000D02*
D03*
X0252300Y0190100D02*
D03*
X0249000Y0189500D02*
D03*
X0248100Y0190300D02*
D03*
X0252900Y0183900D02*
D03*
X0252000D02*
D03*
X0251100D02*
D03*
X0252000Y0184800D02*
D03*
X0252900D02*
D03*
X0251100D02*
D03*
X0255800Y0190500D02*
D03*
X0245800Y0190400D02*
D03*
X0246800D02*
D03*
X0241500Y0200700D02*
D03*
X0242400D02*
D03*
X0241500Y0199800D02*
D03*
X0242400D02*
D03*
X0243400Y0203600D02*
D03*
X0239700Y0202700D02*
D03*
X0234700D02*
D03*
X0238000D02*
D03*
X0226700Y0214400D02*
D03*
Y0213200D02*
D03*
X0223800Y0214300D02*
D03*
Y0217900D02*
D03*
X0227900Y0214400D02*
D03*
Y0213200D02*
D03*
X0228100Y0177800D02*
D03*
Y0179100D02*
D03*
X0226800Y0185100D02*
D03*
X0223800Y0182900D02*
D03*
Y0179300D02*
D03*
X0226800Y0177800D02*
D03*
Y0179100D02*
D03*
X0234300Y0184600D02*
D03*
X0234600Y0186200D02*
D03*
X0230900Y0185800D02*
D03*
X0231800D02*
D03*
X0230900Y0186700D02*
D03*
X0231800D02*
D03*
X0285800Y0190800D02*
D03*
Y0189800D02*
D03*
X0289400Y0189600D02*
D03*
Y0191300D02*
D03*
X0290600D02*
D03*
X0342900Y0237000D02*
D03*
X0344500D02*
D03*
X0307100Y0206400D02*
D03*
X0305869Y0206367D02*
D03*
X0304600Y0206400D02*
D03*
X0308400D02*
D03*
X0302500Y0207400D02*
D03*
X0302000Y0211000D02*
D03*
Y0212000D02*
D03*
X0294500Y0239700D02*
D03*
X0295500D02*
D03*
X0292000Y0238500D02*
D03*
X0303000Y0241200D02*
D03*
X0302000D02*
D03*
X0307100Y0242300D02*
D03*
X0304900Y0239800D02*
D03*
X0291700Y0209700D02*
D03*
X0301500Y0236500D02*
D03*
Y0237500D02*
D03*
X0292000Y0236500D02*
D03*
Y0237500D02*
D03*
X0309600Y0238100D02*
D03*
Y0237100D02*
D03*
X0300100Y0237800D02*
D03*
Y0236800D02*
D03*
X0304500Y0233700D02*
D03*
X0299400Y0228400D02*
D03*
X0300400D02*
D03*
X0303600Y0230200D02*
D03*
X0304600D02*
D03*
X0308700Y0228800D02*
D03*
X0309700D02*
D03*
X0306600Y0234000D02*
D03*
X0333250Y0252000D02*
D03*
X0320000Y0245400D02*
D03*
X0316800Y0245300D02*
D03*
X0316200Y0243000D02*
D03*
Y0244000D02*
D03*
X0299700Y0259500D02*
D03*
X0340900Y0198700D02*
D03*
X0342100D02*
D03*
X0340300Y0199500D02*
D03*
X0341500D02*
D03*
X0343700Y0206900D02*
D03*
X0323300Y0216400D02*
D03*
Y0213900D02*
D03*
Y0212600D02*
D03*
Y0215100D02*
D03*
X0343900Y0205300D02*
D03*
X0343400Y0193000D02*
D03*
X0342300Y0225600D02*
D03*
X0341600Y0226400D02*
D03*
Y0229100D02*
D03*
X0342300Y0228200D02*
D03*
X0344800Y0207500D02*
D03*
Y0220000D02*
D03*
Y0232500D02*
D03*
X0348500Y0205200D02*
D03*
Y0217700D02*
D03*
Y0230200D02*
D03*
Y0242700D02*
D03*
Y0232800D02*
D03*
Y0220300D02*
D03*
Y0207800D02*
D03*
X0359100Y0208100D02*
D03*
Y0211300D02*
D03*
Y0220600D02*
D03*
Y0225500D02*
D03*
Y0233100D02*
D03*
Y0239200D02*
D03*
X0358900Y0249700D02*
D03*
Y0245600D02*
D03*
X0354600Y0202500D02*
D03*
X0355600Y0204300D02*
D03*
X0351600Y0204500D02*
D03*
X0351500Y0208500D02*
D03*
X0350400Y0211700D02*
D03*
X0349400D02*
D03*
X0357400Y0208100D02*
D03*
X0356400Y0210800D02*
D03*
X0355100Y0209900D02*
D03*
X0357400Y0204300D02*
D03*
X0344400Y0203800D02*
D03*
Y0202800D02*
D03*
Y0201800D02*
D03*
X0348500Y0203900D02*
D03*
X0348500Y0209600D02*
D03*
X0345600Y0209800D02*
D03*
Y0205900D02*
D03*
Y0211100D02*
D03*
X0344800Y0206500D02*
D03*
X0354600Y0215000D02*
D03*
X0355600Y0216800D02*
D03*
X0351600Y0217000D02*
D03*
X0351500Y0221000D02*
D03*
X0350400Y0224200D02*
D03*
X0349400D02*
D03*
X0357400Y0220600D02*
D03*
X0356400Y0223300D02*
D03*
X0355100Y0222400D02*
D03*
X0357400Y0216800D02*
D03*
X0344400Y0216300D02*
D03*
Y0215300D02*
D03*
Y0214300D02*
D03*
X0348500Y0216400D02*
D03*
X0348500Y0222100D02*
D03*
X0345600Y0222300D02*
D03*
Y0223600D02*
D03*
X0344800Y0219000D02*
D03*
X0354600Y0227500D02*
D03*
X0355600Y0229300D02*
D03*
X0351600Y0229500D02*
D03*
X0351500Y0233500D02*
D03*
X0350400Y0236700D02*
D03*
X0349400D02*
D03*
X0357400Y0233100D02*
D03*
X0356400Y0235800D02*
D03*
X0355100Y0234900D02*
D03*
X0357400Y0229300D02*
D03*
X0344400Y0228800D02*
D03*
Y0227800D02*
D03*
Y0226800D02*
D03*
X0348500Y0228900D02*
D03*
X0348500Y0234600D02*
D03*
X0345600Y0234800D02*
D03*
Y0230900D02*
D03*
X0344800Y0231500D02*
D03*
X0345600Y0247300D02*
D03*
X0348500Y0247100D02*
D03*
X0348500Y0241400D02*
D03*
X0344400Y0239300D02*
D03*
Y0240300D02*
D03*
Y0241300D02*
D03*
X0357400Y0241800D02*
D03*
X0355100Y0247400D02*
D03*
X0356400Y0248300D02*
D03*
X0357400Y0245600D02*
D03*
X0349400Y0249200D02*
D03*
X0350400D02*
D03*
X0351500Y0246000D02*
D03*
X0351600Y0242000D02*
D03*
X0355600Y0241800D02*
D03*
X0354600Y0240000D02*
D03*
X0377000Y0159700D02*
D03*
X0378200D02*
D03*
X0377000Y0173700D02*
D03*
X0378200D02*
D03*
X0377000Y0187700D02*
D03*
X0378200D02*
D03*
X0378200Y0197700D02*
D03*
X0377000D02*
D03*
X0377000Y0219700D02*
D03*
X0378200D02*
D03*
X0377000Y0233700D02*
D03*
X0378200D02*
D03*
X0377000Y0247700D02*
D03*
X0378200D02*
D03*
X0363500Y0215200D02*
D03*
Y0212800D02*
D03*
X0365500Y0218000D02*
D03*
X0370500D02*
D03*
Y0210000D02*
D03*
X0365500D02*
D03*
X0363500Y0229200D02*
D03*
Y0226800D02*
D03*
X0365500Y0232000D02*
D03*
X0370500D02*
D03*
Y0224000D02*
D03*
X0365500D02*
D03*
X0363500Y0243200D02*
D03*
Y0240800D02*
D03*
X0365500Y0246000D02*
D03*
X0370500D02*
D03*
Y0238000D02*
D03*
X0365500D02*
D03*
Y0252000D02*
D03*
X0370500D02*
D03*
Y0260000D02*
D03*
X0365500D02*
D03*
X0378200Y0261700D02*
D03*
X0377000D02*
D03*
X0363500Y0254800D02*
D03*
Y0257200D02*
D03*
X0301400Y0192000D02*
D03*
Y0193000D02*
D03*
X0296700Y0202400D02*
D03*
X0344500Y0193600D02*
D03*
Y0176600D02*
D03*
X0347100Y0192500D02*
D03*
X0350500D02*
D03*
X0352300Y0190000D02*
D03*
Y0173000D02*
D03*
X0348200D02*
D03*
X0350500Y0175500D02*
D03*
X0347100D02*
D03*
X0344500Y0177600D02*
D03*
Y0194600D02*
D03*
X0354500Y0199000D02*
D03*
X0350135Y0180495D02*
D03*
X0351800Y0181900D02*
D03*
X0346800Y0181300D02*
D03*
X0344500Y0181300D02*
D03*
Y0198300D02*
D03*
X0346500D02*
D03*
X0351800Y0198900D02*
D03*
X0350135Y0197495D02*
D03*
X0350500Y0189400D02*
D03*
X0349700Y0190000D02*
D03*
X0350500Y0172400D02*
D03*
X0349700Y0173000D02*
D03*
X0347000Y0189400D02*
D03*
X0350000Y0167700D02*
D03*
X0346200Y0173000D02*
D03*
X0347000Y0172400D02*
D03*
X0363000Y0194800D02*
D03*
Y0197200D02*
D03*
Y0183200D02*
D03*
Y0180800D02*
D03*
Y0169200D02*
D03*
Y0166800D02*
D03*
Y0152800D02*
D03*
Y0155200D02*
D03*
X0305500Y0179400D02*
D03*
X0304500Y0180000D02*
D03*
X0303600Y0180600D02*
D03*
X0299900Y0181300D02*
D03*
X0298300D02*
D03*
X0340000Y0157000D02*
D03*
Y0151200D02*
D03*
X0341500Y0161500D02*
D03*
X0330000Y0157000D02*
D03*
Y0151200D02*
D03*
X0331500Y0161500D02*
D03*
X0321500D02*
D03*
X0320000Y0151200D02*
D03*
Y0157000D02*
D03*
X0314000Y0151300D02*
D03*
X0311000D02*
D03*
X0308000D02*
D03*
X0305000D02*
D03*
X0262586Y0147514D02*
D03*
X0263400Y0148100D02*
D03*
X0276500D02*
D03*
X0275200D02*
D03*
X0273900D02*
D03*
X0272600D02*
D03*
X0261500Y0152200D02*
D03*
X0266300Y0153400D02*
D03*
X0267500Y0152000D02*
D03*
X0266300D02*
D03*
X0282700Y0162000D02*
D03*
X0279600D02*
D03*
X0294800Y0201000D02*
D03*
Y0199900D02*
D03*
X0295700Y0192500D02*
D03*
X0292800Y0191900D02*
D03*
X0291800Y0191300D02*
D03*
X0286000Y0198000D02*
D03*
X0285600Y0198900D02*
D03*
X0286100Y0194600D02*
D03*
X0293000Y0202400D02*
D03*
X0295700D02*
D03*
X0294700D02*
D03*
X0295200Y0207900D02*
D03*
Y0205500D02*
D03*
X0294200Y0207900D02*
D03*
Y0205500D02*
D03*
X0291800Y0207900D02*
D03*
Y0205500D02*
D03*
X0290800D02*
D03*
Y0207900D02*
D03*
X0285600Y0201000D02*
D03*
Y0199900D02*
D03*
X0296600Y0207900D02*
D03*
Y0205500D02*
D03*
X0301200Y0200600D02*
D03*
X0303900Y0193000D02*
D03*
X0279900Y0198500D02*
D03*
X0281000Y0198400D02*
D03*
X0280100Y0200300D02*
D03*
X0282500D02*
D03*
X0303900Y0192000D02*
D03*
Y0194600D02*
D03*
X0301500D02*
D03*
X0298400Y0196600D02*
D03*
Y0198200D02*
D03*
X0298300Y0200800D02*
D03*
X0297400Y0200200D02*
D03*
X0298300Y0199600D02*
D03*
X0301500Y0196600D02*
D03*
X0303900D02*
D03*
X0301500Y0199400D02*
D03*
X0303900D02*
D03*
X0299000Y0186500D02*
D03*
Y0184100D02*
D03*
X0295800Y0189600D02*
D03*
X0294700D02*
D03*
X0298000Y0184100D02*
D03*
Y0186500D02*
D03*
X0295600Y0184100D02*
D03*
Y0186500D02*
D03*
X0294000Y0184100D02*
D03*
Y0186500D02*
D03*
X0288800Y0184100D02*
D03*
Y0186500D02*
D03*
X0286800Y0184100D02*
D03*
Y0186500D02*
D03*
X0285600Y0197100D02*
D03*
X0280100Y0197500D02*
D03*
X0282500D02*
D03*
X0285600Y0195400D02*
D03*
X0282500Y0201700D02*
D03*
X0280100D02*
D03*
X0282500Y0195100D02*
D03*
X0280100D02*
D03*
X0285600Y0193000D02*
D03*
X0280100Y0193900D02*
D03*
X0282500D02*
D03*
X0280100Y0192900D02*
D03*
X0282500D02*
D03*
Y0189700D02*
D03*
X0280100D02*
D03*
Y0190700D02*
D03*
X0282500D02*
D03*
X0290600Y0193200D02*
D03*
X0289200D02*
D03*
X0293400D02*
D03*
X0294800D02*
D03*
X0289200Y0194600D02*
D03*
X0294800D02*
D03*
X0289200Y0197400D02*
D03*
X0294800D02*
D03*
X0289200Y0198800D02*
D03*
X0293400D02*
D03*
X0292000Y0197400D02*
D03*
Y0198800D02*
D03*
Y0194600D02*
D03*
Y0193200D02*
D03*
X0289200Y0196000D02*
D03*
X0290600D02*
D03*
X0294800D02*
D03*
X0292000D02*
D03*
X0293400D02*
D03*
X0234500Y0144500D02*
D03*
X0235600Y0143200D02*
D03*
X0235700Y0144800D02*
D03*
X0232050Y0144550D02*
D03*
X0233900Y0158400D02*
D03*
X0232100Y0167300D02*
D03*
X0233600D02*
D03*
X0238500Y0168300D02*
D03*
X0237400D02*
D03*
X0238700Y0165300D02*
D03*
X0235300Y0162200D02*
D03*
X0238400Y0164100D02*
D03*
X0237400Y0163100D02*
D03*
X0235300D02*
D03*
X0236200D02*
D03*
Y0162200D02*
D03*
X0231200Y0163000D02*
D03*
X0232600D02*
D03*
X0232300Y0156800D02*
D03*
X0230600Y0151900D02*
D03*
X0230700Y0160500D02*
D03*
Y0159200D02*
D03*
X0234000Y0161800D02*
D03*
Y0163000D02*
D03*
X0235700Y0160900D02*
D03*
X0231200Y0161800D02*
D03*
Y0158000D02*
D03*
X0235700Y0159200D02*
D03*
X0257400Y0150500D02*
D03*
X0257190Y0147900D02*
D03*
X0257200Y0154400D02*
D03*
X0260100Y0155200D02*
D03*
X0247800Y0150300D02*
D03*
X0246800Y0145200D02*
D03*
X0244600D02*
D03*
X0255100Y0143600D02*
D03*
X0256700D02*
D03*
X0251700Y0159300D02*
D03*
X0248100Y0151600D02*
D03*
X0247100D02*
D03*
X0251700Y0152800D02*
D03*
Y0153900D02*
D03*
Y0151700D02*
D03*
Y0150600D02*
D03*
X0249300Y0146500D02*
D03*
Y0147500D02*
D03*
X0246800Y0144000D02*
D03*
X0244600Y0142800D02*
D03*
X0245700Y0143400D02*
D03*
X0245700Y0145200D02*
D03*
X0236000Y0146900D02*
D03*
X0232900Y0149600D02*
D03*
X0226700Y0164700D02*
D03*
X0230900Y0166100D02*
D03*
X0227800Y0166500D02*
D03*
X0246600Y0153100D02*
D03*
X0244200Y0153100D02*
D03*
X0245425Y0157250D02*
D03*
X0246550Y0159100D02*
D03*
X0241500Y0160100D02*
D03*
X0246550Y0158000D02*
D03*
X0239500Y0160600D02*
D03*
X0237600Y0160100D02*
D03*
X0239500Y0158200D02*
D03*
X0232400Y0155400D02*
D03*
X0234800Y0156600D02*
D03*
X0232400Y0153550D02*
D03*
Y0152100D02*
D03*
Y0151100D02*
D03*
X0234800Y0152100D02*
D03*
X0235300Y0149600D02*
D03*
X0237600Y0146900D02*
D03*
X0241400Y0146900D02*
D03*
X0239500Y0146400D02*
D03*
Y0148800D02*
D03*
X0235200Y0148600D02*
D03*
X0246100Y0155300D02*
D03*
X0246100Y0151600D02*
D03*
X0230600Y0152875D02*
D03*
X0231400Y0155400D02*
D03*
X0232900Y0148200D02*
D03*
X0230800Y0149600D02*
D03*
X0229500D02*
D03*
X0228200D02*
D03*
X0227000D02*
D03*
X0231300Y0151200D02*
D03*
X0230600Y0154500D02*
D03*
Y0156000D02*
D03*
X0224000Y0149600D02*
D03*
X0235100Y0147600D02*
D03*
X0226500Y0154100D02*
D03*
Y0153000D02*
D03*
X0223800Y0154200D02*
D03*
Y0157800D02*
D03*
X0226700Y0160000D02*
D03*
X0227600Y0154100D02*
D03*
X0248100Y0159900D02*
D03*
X0242900Y0158000D02*
D03*
X0230900Y0167500D02*
D03*
X0254800Y0147900D02*
D03*
X0255100Y0150400D02*
D03*
X0253700Y0149000D02*
D03*
Y0155500D02*
D03*
X0255400Y0156300D02*
D03*
X0256600D02*
D03*
X0258300Y0155500D02*
D03*
X0247400Y0166100D02*
D03*
Y0164900D02*
D03*
Y0167100D02*
D03*
Y0163900D02*
D03*
X0252700Y0169300D02*
D03*
X0248700Y0153100D02*
D03*
X0256500Y0160075D02*
D03*
X0255500D02*
D03*
X0258400Y0154400D02*
D03*
X0260800Y0148400D02*
D03*
X0258300Y0144600D02*
D03*
X0261800Y0146900D02*
D03*
X0261400Y0145700D02*
D03*
X0261000Y0144700D02*
D03*
X0258500Y0150500D02*
D03*
X0242400Y0146900D02*
D03*
X0243900Y0147800D02*
D03*
X0235000Y0142000D02*
D03*
X0240000D02*
D03*
X0245000D02*
D03*
X0250000D02*
D03*
X0255000D02*
D03*
X0260500D02*
D03*
X0267000D02*
D03*
X0273000D02*
D03*
X0262000Y0170000D02*
D03*
X0261500Y0165500D02*
D03*
X0249000Y0170000D02*
D03*
X0244000D02*
D03*
X0239000D02*
D03*
X0234000D02*
D03*
X0227500Y0170000D02*
D03*
X0222000D02*
D03*
Y0163500D02*
D03*
Y0149000D02*
D03*
X0256000Y0165500D02*
D03*
X0251500Y0161000D02*
D03*
X0225300Y0166600D02*
D03*
X0229900Y0163300D02*
D03*
X0227800D02*
D03*
X0228800D02*
D03*
Y0162400D02*
D03*
X0229900D02*
D03*
X0227100Y0168300D02*
D03*
X0223700Y0164400D02*
D03*
X0224600D02*
D03*
X0233000Y0168400D02*
D03*
X0233900D02*
D03*
X0229500Y0169100D02*
D03*
X0225500Y0164400D02*
D03*
X0240200Y0168300D02*
D03*
D238*
X0239240Y0143880D02*
D03*
X0236700Y0148960D02*
D03*
Y0143880D02*
D03*
X0229080Y0156580D02*
D03*
Y0151500D02*
D03*
X0226540D02*
D03*
X0229080Y0159120D02*
D03*
X0226540Y0161660D02*
D03*
X0231620Y0164200D02*
D03*
X0234160D02*
D03*
X0224000Y0161660D02*
D03*
X0251940Y0143880D02*
D03*
M02*
