G04*
G04 #@! TF.GenerationSoftware,Altium Limited,Altium Designer,21.9.2 (33)*
G04*
G04 Layer_Color=8388736*
%FSAX43Y43*%
%MOMM*%
G71*
G04*
G04 #@! TF.SameCoordinates,8A3C4949-5F79-4682-B659-0E7BAC0626F8*
G04*
G04*
G04 #@! TF.FilePolarity,Negative*
G04*
G01*
G75*
%ADD11C,0.150*%
%ADD87C,0.010*%
%ADD88R,0.750X0.850*%
%ADD89R,0.850X0.750*%
%ADD90R,8.000X3.000*%
%ADD91R,1.900X2.500*%
%ADD92R,5.300X1.100*%
%ADD93R,1.600X0.800*%
%ADD94R,1.010X0.370*%
%ADD95R,0.270X0.620*%
%ADD96R,0.400X0.620*%
%ADD97C,1.100*%
%ADD98C,1.000*%
%ADD99R,1.100X2.900*%
%ADD100R,0.690X1.310*%
%ADD101R,0.690X1.380*%
G04:AMPARAMS|DCode=102|XSize=1.19mm|YSize=0.5mm|CornerRadius=0.15mm|HoleSize=0mm|Usage=FLASHONLY|Rotation=90.000|XOffset=0mm|YOffset=0mm|HoleType=Round|Shape=RoundedRectangle|*
%AMROUNDEDRECTD102*
21,1,1.190,0.200,0,0,90.0*
21,1,0.890,0.500,0,0,90.0*
1,1,0.300,0.100,0.445*
1,1,0.300,0.100,-0.445*
1,1,0.300,-0.100,-0.445*
1,1,0.300,-0.100,0.445*
%
%ADD102ROUNDEDRECTD102*%
%ADD103R,0.500X1.190*%
G04:AMPARAMS|DCode=104|XSize=1.27mm|YSize=0.7mm|CornerRadius=0.2mm|HoleSize=0mm|Usage=FLASHONLY|Rotation=270.000|XOffset=0mm|YOffset=0mm|HoleType=Round|Shape=RoundedRectangle|*
%AMROUNDEDRECTD104*
21,1,1.270,0.300,0,0,270.0*
21,1,0.870,0.700,0,0,270.0*
1,1,0.400,-0.150,-0.435*
1,1,0.400,-0.150,0.435*
1,1,0.400,0.150,0.435*
1,1,0.400,0.150,-0.435*
%
%ADD104ROUNDEDRECTD104*%
%ADD105R,1.660X0.510*%
%ADD106R,1.590X0.550*%
%ADD107R,1.590X0.400*%
%ADD108R,0.400X1.020*%
G04:AMPARAMS|DCode=109|XSize=1.33mm|YSize=0.38mm|CornerRadius=0.12mm|HoleSize=0mm|Usage=FLASHONLY|Rotation=90.000|XOffset=0mm|YOffset=0mm|HoleType=Round|Shape=RoundedRectangle|*
%AMROUNDEDRECTD109*
21,1,1.330,0.140,0,0,90.0*
21,1,1.090,0.380,0,0,90.0*
1,1,0.240,0.070,0.545*
1,1,0.240,0.070,-0.545*
1,1,0.240,-0.070,-0.545*
1,1,0.240,-0.070,0.545*
%
%ADD109ROUNDEDRECTD109*%
%ADD110R,0.300X1.700*%
G04:AMPARAMS|DCode=111|XSize=0.89mm|YSize=0.37mm|CornerRadius=0.12mm|HoleSize=0mm|Usage=FLASHONLY|Rotation=0.000|XOffset=0mm|YOffset=0mm|HoleType=Round|Shape=RoundedRectangle|*
%AMROUNDEDRECTD111*
21,1,0.890,0.130,0,0,0.0*
21,1,0.650,0.370,0,0,0.0*
1,1,0.240,0.325,-0.065*
1,1,0.240,-0.325,-0.065*
1,1,0.240,-0.325,0.065*
1,1,0.240,0.325,0.065*
%
%ADD111ROUNDEDRECTD111*%
%ADD112R,0.700X1.710*%
%ADD113R,0.690X2.010*%
%ADD114R,0.940X0.540*%
%ADD115R,0.890X1.350*%
%ADD116R,0.970X0.510*%
%ADD117R,0.970X0.360*%
%ADD118R,1.070X1.830*%
%ADD119R,1.020X1.480*%
%ADD120R,1.030X0.890*%
%ADD121R,0.700X0.690*%
%ADD122C,1.500*%
%ADD123R,1.630X0.310*%
%ADD124R,0.310X1.630*%
%ADD125R,4.770X4.770*%
%ADD126R,1.120X1.370*%
%ADD127R,1.010X1.010*%
%ADD128R,1.030X1.010*%
%ADD129R,0.950X0.700*%
%ADD130R,2.300X1.000*%
%ADD131R,1.070X1.100*%
%ADD132R,0.690X0.700*%
G04:AMPARAMS|DCode=133|XSize=0.76mm|YSize=0.41mm|CornerRadius=0.131mm|HoleSize=0mm|Usage=FLASHONLY|Rotation=270.000|XOffset=0mm|YOffset=0mm|HoleType=Round|Shape=RoundedRectangle|*
%AMROUNDEDRECTD133*
21,1,0.760,0.149,0,0,270.0*
21,1,0.499,0.410,0,0,270.0*
1,1,0.261,-0.074,-0.249*
1,1,0.261,-0.074,0.249*
1,1,0.261,0.074,0.249*
1,1,0.261,0.074,-0.249*
%
%ADD133ROUNDEDRECTD133*%
%ADD134O,0.890X0.310*%
%ADD135O,0.310X0.890*%
%ADD136R,1.620X1.880*%
%ADD137O,0.940X0.360*%
%ADD138O,0.360X0.940*%
%ADD139R,1.250X2.250*%
%ADD140R,1.450X3.530*%
%ADD141R,1.050X1.620*%
%ADD142C,2.000*%
%ADD143C,0.900*%
%ADD144R,0.850X2.900*%
%ADD145R,1.450X0.500*%
%ADD146R,1.500X1.700*%
%ADD147R,1.700X2.000*%
%ADD148R,2.300X2.900*%
%ADD149R,2.900X2.900*%
%ADD150R,1.570X1.260*%
G04:AMPARAMS|DCode=151|XSize=1.03mm|YSize=1.02mm|CornerRadius=0.28mm|HoleSize=0mm|Usage=FLASHONLY|Rotation=180.000|XOffset=0mm|YOffset=0mm|HoleType=Round|Shape=RoundedRectangle|*
%AMROUNDEDRECTD151*
21,1,1.030,0.460,0,0,180.0*
21,1,0.470,1.020,0,0,180.0*
1,1,0.560,-0.235,0.230*
1,1,0.560,0.235,0.230*
1,1,0.560,0.235,-0.230*
1,1,0.560,-0.235,-0.230*
%
%ADD151ROUNDEDRECTD151*%
%ADD152R,1.020X1.030*%
G04:AMPARAMS|DCode=153|XSize=0.73mm|YSize=0.71mm|CornerRadius=0.203mm|HoleSize=0mm|Usage=FLASHONLY|Rotation=270.000|XOffset=0mm|YOffset=0mm|HoleType=Round|Shape=RoundedRectangle|*
%AMROUNDEDRECTD153*
21,1,0.730,0.305,0,0,270.0*
21,1,0.325,0.710,0,0,270.0*
1,1,0.405,-0.153,-0.163*
1,1,0.405,-0.153,0.163*
1,1,0.405,0.153,0.163*
1,1,0.405,0.153,-0.163*
%
%ADD153ROUNDEDRECTD153*%
%ADD154R,0.710X0.730*%
%ADD155R,0.730X0.710*%
%ADD156R,1.030X1.020*%
%ADD157R,1.100X1.070*%
%ADD158R,0.890X1.030*%
%ADD159R,1.830X1.070*%
G04:AMPARAMS|DCode=160|XSize=1.27mm|YSize=0.7mm|CornerRadius=0.2mm|HoleSize=0mm|Usage=FLASHONLY|Rotation=0.000|XOffset=0mm|YOffset=0mm|HoleType=Round|Shape=RoundedRectangle|*
%AMROUNDEDRECTD160*
21,1,1.270,0.300,0,0,0.0*
21,1,0.870,0.700,0,0,0.0*
1,1,0.400,0.435,-0.150*
1,1,0.400,-0.435,-0.150*
1,1,0.400,-0.435,0.150*
1,1,0.400,0.435,0.150*
%
%ADD160ROUNDEDRECTD160*%
G04:AMPARAMS|DCode=161|XSize=0.76mm|YSize=0.41mm|CornerRadius=0.131mm|HoleSize=0mm|Usage=FLASHONLY|Rotation=0.000|XOffset=0mm|YOffset=0mm|HoleType=Round|Shape=RoundedRectangle|*
%AMROUNDEDRECTD161*
21,1,0.760,0.149,0,0,0.0*
21,1,0.499,0.410,0,0,0.0*
1,1,0.261,0.249,-0.074*
1,1,0.261,-0.249,-0.074*
1,1,0.261,-0.249,0.074*
1,1,0.261,0.249,0.074*
%
%ADD161ROUNDEDRECTD161*%
%ADD162R,0.620X0.400*%
%ADD163R,1.010X1.010*%
%ADD164R,0.510X0.970*%
%ADD165R,0.360X0.970*%
%ADD166C,1.900*%
%ADD167R,1.900X1.900*%
%ADD168R,1.900X1.900*%
%ADD169C,2.400*%
%ADD170C,0.100*%
%ADD171C,2.700*%
%ADD172C,1.700*%
%ADD173C,2.100*%
%ADD174C,1.800*%
G04:AMPARAMS|DCode=175|XSize=1mm|YSize=1.7mm|CornerRadius=0.5mm|HoleSize=0mm|Usage=FLASHONLY|Rotation=270.000|XOffset=0mm|YOffset=0mm|HoleType=Round|Shape=RoundedRectangle|*
%AMROUNDEDRECTD175*
21,1,1.000,0.700,0,0,270.0*
21,1,0.000,1.700,0,0,270.0*
1,1,1.000,-0.350,0.000*
1,1,1.000,-0.350,0.000*
1,1,1.000,0.350,0.000*
1,1,1.000,0.350,0.000*
%
%ADD175ROUNDEDRECTD175*%
%ADD176C,2.900*%
%ADD177C,4.400*%
%ADD178C,7.200*%
%ADD179C,0.350*%
%ADD180C,0.400*%
G36*
X0239205Y0153364D02*
X0239245Y0153299D01*
X0239299Y0153245D01*
X0239364Y0153205D01*
X0239400Y0153191D01*
Y0152309D01*
Y0152309D01*
X0239352Y0152290D01*
X0239270Y0152230D01*
X0239210Y0152148D01*
X0239179Y0152051D01*
X0239175Y0152000D01*
Y0151775D01*
X0238325D01*
Y0152000D01*
X0238319Y0152063D01*
X0238270Y0152181D01*
X0238181Y0152270D01*
X0238063Y0152319D01*
X0238000Y0152325D01*
X0237775D01*
Y0153175D01*
X0238000D01*
X0238051Y0153179D01*
X0238148Y0153210D01*
X0238230Y0153270D01*
X0238290Y0153352D01*
X0238309Y0153400D01*
X0239191D01*
X0239205Y0153364D01*
D02*
G37*
G36*
X0239175Y0155000D02*
X0239179Y0154949D01*
X0239210Y0154852D01*
X0239270Y0154770D01*
X0239352Y0154710D01*
X0239400Y0154691D01*
Y0153809D01*
Y0153809D01*
X0239364Y0153795D01*
X0239299Y0153755D01*
X0239245Y0153701D01*
X0239205Y0153636D01*
X0239191Y0153600D01*
X0238309Y0153600D01*
X0238309Y0153600D01*
X0238290Y0153648D01*
X0238230Y0153730D01*
X0238148Y0153790D01*
X0238051Y0153821D01*
X0238000Y0153825D01*
X0237775D01*
Y0154675D01*
X0238000D01*
X0238063Y0154681D01*
X0238181Y0154730D01*
X0238270Y0154819D01*
X0238319Y0154937D01*
X0238325Y0155000D01*
Y0155225D01*
X0239175D01*
Y0155000D01*
D02*
G37*
G36*
X0240710Y0153352D02*
X0240770Y0153270D01*
X0240852Y0153210D01*
X0240949Y0153179D01*
X0241000Y0153175D01*
X0241225D01*
Y0152325D01*
X0241000D01*
X0240937Y0152319D01*
X0240819Y0152270D01*
X0240730Y0152181D01*
X0240681Y0152063D01*
X0240675Y0152000D01*
Y0151775D01*
X0239825D01*
Y0152000D01*
X0239821Y0152051D01*
X0239790Y0152148D01*
X0239730Y0152230D01*
X0239648Y0152290D01*
X0239600Y0152309D01*
X0239600Y0153191D01*
X0239600D01*
X0239636Y0153205D01*
X0239701Y0153245D01*
X0239755Y0153299D01*
X0239795Y0153364D01*
X0239809Y0153400D01*
X0240691D01*
X0240710Y0153352D01*
D02*
G37*
G36*
X0240675Y0155000D02*
X0240681Y0154937D01*
X0240730Y0154819D01*
X0240819Y0154730D01*
X0240937Y0154681D01*
X0241000Y0154675D01*
X0241225D01*
Y0153825D01*
X0241000D01*
X0240949Y0153821D01*
X0240852Y0153790D01*
X0240770Y0153730D01*
X0240710Y0153648D01*
X0240691Y0153600D01*
X0239809Y0153600D01*
X0239809Y0153600D01*
X0239795Y0153636D01*
X0239755Y0153701D01*
X0239701Y0153755D01*
X0239636Y0153795D01*
X0239600Y0153809D01*
X0239600Y0154691D01*
X0239600D01*
X0239648Y0154710D01*
X0239730Y0154770D01*
X0239790Y0154852D01*
X0239821Y0154949D01*
X0239825Y0155000D01*
Y0155225D01*
X0240675D01*
Y0155000D01*
D02*
G37*
G36*
X0354905Y0258050D02*
X0354910Y0258049D01*
X0354917Y0258047D01*
X0354919Y0258046D01*
X0354928Y0258042D01*
X0354936Y0258036D01*
X0355635Y0257336D01*
X0355636Y0257336D01*
X0355638Y0257332D01*
X0355642Y0257328D01*
X0355646Y0257319D01*
X0355649Y0257310D01*
X0355649Y0257309D01*
X0355650Y0257300D01*
X0355650Y0257300D01*
Y0256700D01*
X0355650Y0256700D01*
X0355650Y0256695D01*
X0355649Y0256690D01*
X0355647Y0256683D01*
X0355646Y0256681D01*
X0355642Y0256672D01*
X0355636Y0256664D01*
X0354936Y0255964D01*
X0354936Y0255964D01*
X0354932Y0255962D01*
X0354928Y0255958D01*
X0354919Y0255954D01*
X0354910Y0255951D01*
X0354909Y0255951D01*
X0354900Y0255950D01*
X0354900Y0255950D01*
X0354100D01*
X0354100Y0255950D01*
X0354095Y0255950D01*
X0354090Y0255951D01*
X0354083Y0255953D01*
X0354081Y0255954D01*
X0354072Y0255958D01*
X0354064Y0255964D01*
X0353365Y0256664D01*
X0353364Y0256664D01*
X0353362Y0256668D01*
X0353358Y0256672D01*
X0353354Y0256681D01*
X0353351Y0256690D01*
X0353351Y0256691D01*
X0353350Y0256700D01*
X0353350Y0256700D01*
Y0257300D01*
X0353350Y0257300D01*
X0353350Y0257305D01*
X0353351Y0257310D01*
X0353353Y0257317D01*
X0353354Y0257319D01*
X0353358Y0257328D01*
X0353364Y0257336D01*
X0354064Y0258036D01*
X0354064Y0258036D01*
X0354068Y0258038D01*
X0354072Y0258042D01*
X0354081Y0258046D01*
X0354090Y0258049D01*
X0354091Y0258049D01*
X0354100Y0258050D01*
X0354100Y0258050D01*
X0354900D01*
X0354900Y0258050D01*
X0354905Y0258050D01*
D02*
G37*
D11*
X0220500Y0128500D02*
Y0127000D01*
X0220000Y0128500D02*
X0221000D01*
X0221607D02*
X0221464Y0128428D01*
X0221321Y0128285D01*
X0221250Y0128143D01*
X0221178Y0127928D01*
Y0127571D01*
X0221250Y0127357D01*
X0221321Y0127214D01*
X0221464Y0127071D01*
X0221607Y0127000D01*
X0221892D01*
X0222035Y0127071D01*
X0222178Y0127214D01*
X0222250Y0127357D01*
X0222321Y0127571D01*
Y0127928D01*
X0222250Y0128143D01*
X0222178Y0128285D01*
X0222035Y0128428D01*
X0221892Y0128500D01*
X0221607D01*
X0222671Y0127714D02*
X0223314D01*
X0223528Y0127786D01*
X0223599Y0127857D01*
X0223671Y0128000D01*
Y0128214D01*
X0223599Y0128357D01*
X0223528Y0128428D01*
X0223314Y0128500D01*
X0222671D01*
Y0127000D01*
X0226184Y0128285D02*
X0226042Y0128428D01*
X0225827Y0128500D01*
X0225542D01*
X0225327Y0128428D01*
X0225185Y0128285D01*
Y0128143D01*
X0225256Y0128000D01*
X0225327Y0127928D01*
X0225470Y0127857D01*
X0225899Y0127714D01*
X0226042Y0127643D01*
X0226113Y0127571D01*
X0226184Y0127428D01*
Y0127214D01*
X0226042Y0127071D01*
X0225827Y0127000D01*
X0225542D01*
X0225327Y0127071D01*
X0225185Y0127214D01*
X0226949Y0128500D02*
X0226806Y0128428D01*
X0226663Y0128285D01*
X0226591Y0128143D01*
X0226520Y0127928D01*
Y0127571D01*
X0226591Y0127357D01*
X0226663Y0127214D01*
X0226806Y0127071D01*
X0226949Y0127000D01*
X0227234D01*
X0227377Y0127071D01*
X0227520Y0127214D01*
X0227591Y0127357D01*
X0227663Y0127571D01*
Y0127928D01*
X0227591Y0128143D01*
X0227520Y0128285D01*
X0227377Y0128428D01*
X0227234Y0128500D01*
X0226949D01*
X0228013D02*
Y0127000D01*
X0228870D01*
X0229034Y0128500D02*
Y0127000D01*
Y0128500D02*
X0229534D01*
X0229748Y0128428D01*
X0229891Y0128285D01*
X0229962Y0128143D01*
X0230034Y0127928D01*
Y0127571D01*
X0229962Y0127357D01*
X0229891Y0127214D01*
X0229748Y0127071D01*
X0229534Y0127000D01*
X0229034D01*
X0231298Y0128500D02*
X0230369D01*
Y0127000D01*
X0231298D01*
X0230369Y0127786D02*
X0230941D01*
X0231548Y0128500D02*
Y0127000D01*
Y0128500D02*
X0232190D01*
X0232404Y0128428D01*
X0232476Y0128357D01*
X0232547Y0128214D01*
Y0128071D01*
X0232476Y0127928D01*
X0232404Y0127857D01*
X0232190Y0127786D01*
X0231548D01*
X0232047D02*
X0232547Y0127000D01*
X0234061Y0128500D02*
Y0127000D01*
Y0128500D02*
X0234633Y0127000D01*
X0235204Y0128500D02*
X0234633Y0127000D01*
X0235204Y0128500D02*
Y0127000D01*
X0236775D02*
X0236204Y0128500D01*
X0235632Y0127000D01*
X0235847Y0127500D02*
X0236561D01*
X0238125Y0128285D02*
X0237982Y0128428D01*
X0237768Y0128500D01*
X0237482D01*
X0237268Y0128428D01*
X0237125Y0128285D01*
Y0128143D01*
X0237196Y0128000D01*
X0237268Y0127928D01*
X0237411Y0127857D01*
X0237839Y0127714D01*
X0237982Y0127643D01*
X0238053Y0127571D01*
X0238125Y0127428D01*
Y0127214D01*
X0237982Y0127071D01*
X0237768Y0127000D01*
X0237482D01*
X0237268Y0127071D01*
X0237125Y0127214D01*
X0238460Y0128500D02*
Y0127000D01*
X0239460Y0128500D02*
X0238460Y0127500D01*
X0238817Y0127857D02*
X0239460Y0127000D01*
X0220000Y0131500D02*
X0221000Y0130000D01*
Y0131500D02*
X0220000Y0130000D01*
X0221335Y0131500D02*
Y0130000D01*
Y0131500D02*
X0221907Y0130000D01*
X0222478Y0131500D02*
X0221907Y0130000D01*
X0222478Y0131500D02*
Y0130000D01*
X0223906Y0131285D02*
X0223763Y0131428D01*
X0223549Y0131500D01*
X0223264D01*
X0223049Y0131428D01*
X0222907Y0131285D01*
Y0131143D01*
X0222978Y0131000D01*
X0223049Y0130928D01*
X0223192Y0130857D01*
X0223621Y0130714D01*
X0223763Y0130643D01*
X0223835Y0130571D01*
X0223906Y0130428D01*
Y0130214D01*
X0223763Y0130071D01*
X0223549Y0130000D01*
X0223264D01*
X0223049Y0130071D01*
X0222907Y0130214D01*
X0224670Y0131500D02*
X0224456Y0131428D01*
X0224313Y0131214D01*
X0224242Y0130857D01*
Y0130643D01*
X0224313Y0130286D01*
X0224456Y0130071D01*
X0224670Y0130000D01*
X0224813D01*
X0225027Y0130071D01*
X0225170Y0130286D01*
X0225242Y0130643D01*
Y0130857D01*
X0225170Y0131214D01*
X0225027Y0131428D01*
X0224813Y0131500D01*
X0224670D01*
X0226006D02*
X0225792Y0131428D01*
X0225649Y0131214D01*
X0225577Y0130857D01*
Y0130643D01*
X0225649Y0130286D01*
X0225792Y0130071D01*
X0226006Y0130000D01*
X0226149D01*
X0226363Y0130071D01*
X0226506Y0130286D01*
X0226577Y0130643D01*
Y0130857D01*
X0226506Y0131214D01*
X0226363Y0131428D01*
X0226149Y0131500D01*
X0226006D01*
X0227341D02*
X0227127Y0131428D01*
X0226984Y0131214D01*
X0226913Y0130857D01*
Y0130643D01*
X0226984Y0130286D01*
X0227127Y0130071D01*
X0227341Y0130000D01*
X0227484D01*
X0227698Y0130071D01*
X0227841Y0130286D01*
X0227913Y0130643D01*
Y0130857D01*
X0227841Y0131214D01*
X0227698Y0131428D01*
X0227484Y0131500D01*
X0227341D01*
X0228962D02*
X0228248Y0130500D01*
X0229319D01*
X0228962Y0131500D02*
Y0130000D01*
X0230762Y0130857D02*
X0232047D01*
X0230762Y0130428D02*
X0232047D01*
X0233669Y0131214D02*
X0233811Y0131285D01*
X0234026Y0131500D01*
Y0130000D01*
X0234768Y0131500D02*
X0235340Y0130000D01*
X0235911Y0131500D02*
X0235340Y0130000D01*
X0236104Y0131214D02*
X0236247Y0131285D01*
X0236461Y0131500D01*
Y0130000D01*
X0238382Y0130857D02*
X0239667D01*
X0238382Y0130428D02*
X0239667D01*
X0241288Y0131214D02*
X0241431Y0131285D01*
X0241645Y0131500D01*
Y0130000D01*
X0243388Y0131500D02*
X0242674Y0130000D01*
X0242388Y0131500D02*
X0243388D01*
X0246044Y0130000D02*
X0245473Y0131500D01*
X0244902Y0130000D01*
X0245116Y0130500D02*
X0245830D01*
X0246394Y0131500D02*
Y0130428D01*
X0246466Y0130214D01*
X0246609Y0130071D01*
X0246823Y0130000D01*
X0246966D01*
X0247180Y0130071D01*
X0247323Y0130214D01*
X0247394Y0130428D01*
Y0131500D01*
X0248880Y0131143D02*
X0248808Y0131285D01*
X0248665Y0131428D01*
X0248522Y0131500D01*
X0248237D01*
X0248094Y0131428D01*
X0247951Y0131285D01*
X0247880Y0131143D01*
X0247808Y0130928D01*
Y0130571D01*
X0247880Y0130357D01*
X0247951Y0130214D01*
X0248094Y0130071D01*
X0248237Y0130000D01*
X0248522D01*
X0248665Y0130071D01*
X0248808Y0130214D01*
X0248880Y0130357D01*
Y0130571D01*
X0248522D02*
X0248880D01*
X0250472Y0131143D02*
Y0131214D01*
X0250543Y0131357D01*
X0250615Y0131428D01*
X0250758Y0131500D01*
X0251043D01*
X0251186Y0131428D01*
X0251258Y0131357D01*
X0251329Y0131214D01*
Y0131071D01*
X0251258Y0130928D01*
X0251115Y0130714D01*
X0250401Y0130000D01*
X0251400D01*
X0252165Y0131500D02*
X0251950Y0131428D01*
X0251807Y0131214D01*
X0251736Y0130857D01*
Y0130643D01*
X0251807Y0130286D01*
X0251950Y0130071D01*
X0252165Y0130000D01*
X0252307D01*
X0252522Y0130071D01*
X0252664Y0130286D01*
X0252736Y0130643D01*
Y0130857D01*
X0252664Y0131214D01*
X0252522Y0131428D01*
X0252307Y0131500D01*
X0252165D01*
X0253143Y0131143D02*
Y0131214D01*
X0253214Y0131357D01*
X0253286Y0131428D01*
X0253429Y0131500D01*
X0253714D01*
X0253857Y0131428D01*
X0253928Y0131357D01*
X0254000Y0131214D01*
Y0131071D01*
X0253928Y0130928D01*
X0253786Y0130714D01*
X0253071Y0130000D01*
X0254071D01*
X0254478Y0131143D02*
Y0131214D01*
X0254550Y0131357D01*
X0254621Y0131428D01*
X0254764Y0131500D01*
X0255050D01*
X0255192Y0131428D01*
X0255264Y0131357D01*
X0255335Y0131214D01*
Y0131071D01*
X0255264Y0130928D01*
X0255121Y0130714D01*
X0254407Y0130000D01*
X0255407D01*
D87*
X0241000Y0152325D02*
G03*
X0240675Y0152000I0000000J-0000325D01*
G01*
X0240691Y0153400D02*
G03*
X0241000Y0153175I0000309J0000100D01*
G01*
X0239600Y0153191D02*
G03*
X0239809Y0153400I-0000100J0000309D01*
G01*
X0239825Y0152000D02*
G03*
X0239600Y0152309I-0000325J0000000D01*
G01*
X0241225Y0152325D02*
Y0153175D01*
X0241000Y0152325D02*
X0241225D01*
X0240675Y0151775D02*
Y0152000D01*
X0241000Y0153175D02*
X0241225D01*
X0239809Y0153400D02*
X0240691D01*
X0239600Y0152309D02*
Y0153191D01*
X0239825Y0151775D02*
Y0152000D01*
Y0151775D02*
X0240675D01*
D88*
X0237000Y0152750D02*
D03*
Y0154250D02*
D03*
X0242000D02*
D03*
X0242000Y0152750D02*
D03*
D89*
X0238750Y0151000D02*
D03*
Y0156000D02*
D03*
X0240250D02*
D03*
Y0151000D02*
D03*
D90*
X0359000Y0144500D02*
D03*
D91*
X0297400Y0243000D02*
D03*
X0293600D02*
D03*
D92*
X0354500Y0257000D02*
D03*
D93*
X0356350Y0255500D02*
D03*
Y0258500D02*
D03*
X0352650D02*
D03*
Y0255500D02*
D03*
D94*
X0229500Y0166800D02*
D03*
D95*
X0229100Y0167400D02*
D03*
X0229500D02*
D03*
X0229900D02*
D03*
Y0166200D02*
D03*
X0229500D02*
D03*
X0229100D02*
D03*
D96*
X0310500Y0251385D02*
D03*
X0311000D02*
D03*
X0311500D02*
D03*
Y0250615D02*
D03*
X0311000D02*
D03*
X0310500D02*
D03*
D97*
X0255200Y0237300D02*
D03*
X0347000Y0185000D02*
D03*
X0345000D02*
D03*
X0347000Y0168000D02*
D03*
X0345000D02*
D03*
X0242600Y0145500D02*
D03*
X0297500Y0210500D02*
D03*
X0287500Y0250000D02*
D03*
X0280200Y0256300D02*
D03*
X0260200Y0252700D02*
D03*
X0228260Y0146000D02*
D03*
X0233340Y0147016D02*
D03*
Y0144984D02*
D03*
D98*
X0347100Y0213400D02*
D03*
X0282500Y0203000D02*
D03*
Y0204600D02*
D03*
X0340900Y0245400D02*
D03*
Y0243900D02*
D03*
X0343000Y0208100D02*
D03*
X0289400Y0206900D02*
D03*
X0345100Y0249200D02*
D03*
X0347100Y0225900D02*
D03*
Y0238400D02*
D03*
D99*
X0344000Y0158900D02*
D03*
Y0153100D02*
D03*
X0340000Y0158900D02*
D03*
Y0153100D02*
D03*
X0324000Y0158900D02*
D03*
Y0153100D02*
D03*
X0320000Y0158900D02*
D03*
Y0153100D02*
D03*
X0334000Y0158900D02*
D03*
Y0153100D02*
D03*
X0330000Y0158900D02*
D03*
Y0153100D02*
D03*
D100*
X0248050Y0214255D02*
D03*
X0249000D02*
D03*
X0249950D02*
D03*
Y0211745D02*
D03*
X0249000D02*
D03*
X0248050D02*
D03*
X0296350Y0230645D02*
D03*
X0295400D02*
D03*
X0294450D02*
D03*
Y0233155D02*
D03*
X0295400D02*
D03*
X0296350D02*
D03*
X0267550Y0254755D02*
D03*
X0268500D02*
D03*
X0269450D02*
D03*
Y0252245D02*
D03*
X0268500D02*
D03*
X0267550D02*
D03*
X0263750Y0254755D02*
D03*
X0264700D02*
D03*
X0265650D02*
D03*
Y0252245D02*
D03*
X0264700D02*
D03*
X0263750D02*
D03*
X0300350Y0233155D02*
D03*
X0299400D02*
D03*
X0298450D02*
D03*
Y0230645D02*
D03*
X0299400D02*
D03*
X0300350D02*
D03*
X0255950Y0214255D02*
D03*
X0256900D02*
D03*
X0257850D02*
D03*
Y0211745D02*
D03*
X0256900D02*
D03*
X0255950D02*
D03*
D101*
X0239000Y0196015D02*
D03*
X0238050Y0193985D02*
D03*
X0239950D02*
D03*
D102*
X0227450Y0182290D02*
D03*
X0228100D02*
D03*
X0228750D02*
D03*
Y0180360D02*
D03*
X0227450D02*
D03*
X0228100D02*
D03*
D103*
X0226950Y0155360D02*
D03*
X0227600D02*
D03*
X0228250D02*
D03*
Y0157290D02*
D03*
X0227600D02*
D03*
X0226950D02*
D03*
D104*
X0284050Y0253620D02*
D03*
X0285950Y0251380D02*
D03*
X0284050D02*
D03*
X0285000Y0253620D02*
D03*
X0285950D02*
D03*
X0257050Y0198380D02*
D03*
X0258950D02*
D03*
Y0200620D02*
D03*
X0258000Y0198380D02*
D03*
X0257050Y0200620D02*
D03*
D105*
X0352880Y0203275D02*
D03*
Y0203925D02*
D03*
Y0204575D02*
D03*
Y0205225D02*
D03*
Y0205875D02*
D03*
Y0206525D02*
D03*
Y0207175D02*
D03*
Y0207825D02*
D03*
Y0208475D02*
D03*
Y0209125D02*
D03*
Y0209775D02*
D03*
Y0210425D02*
D03*
Y0211075D02*
D03*
Y0211725D02*
D03*
X0347120D02*
D03*
Y0211075D02*
D03*
Y0210425D02*
D03*
Y0209775D02*
D03*
Y0209125D02*
D03*
Y0208475D02*
D03*
Y0207825D02*
D03*
Y0207175D02*
D03*
Y0206525D02*
D03*
Y0205875D02*
D03*
Y0205225D02*
D03*
Y0204575D02*
D03*
Y0203925D02*
D03*
Y0203275D02*
D03*
X0352880Y0240775D02*
D03*
Y0241425D02*
D03*
Y0242075D02*
D03*
Y0242725D02*
D03*
Y0243375D02*
D03*
Y0244025D02*
D03*
Y0244675D02*
D03*
Y0245325D02*
D03*
Y0245975D02*
D03*
Y0246625D02*
D03*
Y0247275D02*
D03*
Y0247925D02*
D03*
Y0248575D02*
D03*
Y0249225D02*
D03*
X0347120D02*
D03*
Y0248575D02*
D03*
Y0247925D02*
D03*
Y0247275D02*
D03*
Y0246625D02*
D03*
Y0245975D02*
D03*
Y0245325D02*
D03*
Y0244675D02*
D03*
Y0244025D02*
D03*
Y0243375D02*
D03*
Y0242725D02*
D03*
Y0242075D02*
D03*
Y0241425D02*
D03*
Y0240775D02*
D03*
X0352880Y0215775D02*
D03*
Y0216425D02*
D03*
Y0217075D02*
D03*
Y0217725D02*
D03*
Y0218375D02*
D03*
Y0219025D02*
D03*
Y0219675D02*
D03*
Y0220325D02*
D03*
Y0220975D02*
D03*
Y0221625D02*
D03*
Y0222275D02*
D03*
Y0222925D02*
D03*
Y0223575D02*
D03*
Y0224225D02*
D03*
X0347120D02*
D03*
Y0223575D02*
D03*
Y0222925D02*
D03*
Y0222275D02*
D03*
Y0221625D02*
D03*
Y0220975D02*
D03*
Y0220325D02*
D03*
Y0219675D02*
D03*
Y0219025D02*
D03*
Y0218375D02*
D03*
Y0217725D02*
D03*
Y0217075D02*
D03*
Y0216425D02*
D03*
Y0215775D02*
D03*
X0352880Y0228275D02*
D03*
Y0228925D02*
D03*
Y0229575D02*
D03*
Y0230225D02*
D03*
Y0230875D02*
D03*
Y0231525D02*
D03*
Y0232175D02*
D03*
Y0232825D02*
D03*
Y0233475D02*
D03*
Y0234125D02*
D03*
Y0234775D02*
D03*
Y0235425D02*
D03*
Y0236075D02*
D03*
Y0236725D02*
D03*
X0347120D02*
D03*
Y0236075D02*
D03*
Y0235425D02*
D03*
Y0234775D02*
D03*
Y0234125D02*
D03*
Y0233475D02*
D03*
Y0232825D02*
D03*
Y0232175D02*
D03*
Y0231525D02*
D03*
Y0230875D02*
D03*
Y0230225D02*
D03*
Y0229575D02*
D03*
Y0228925D02*
D03*
Y0228275D02*
D03*
D106*
X0317305Y0183475D02*
D03*
Y0182825D02*
D03*
Y0182175D02*
D03*
Y0181525D02*
D03*
X0313095D02*
D03*
Y0182175D02*
D03*
Y0182825D02*
D03*
Y0183475D02*
D03*
D107*
X0302895Y0237000D02*
D03*
Y0237500D02*
D03*
X0307105Y0238000D02*
D03*
X0302895Y0239000D02*
D03*
X0307105Y0237500D02*
D03*
X0302895Y0238500D02*
D03*
Y0238000D02*
D03*
X0307105Y0237000D02*
D03*
Y0238500D02*
D03*
Y0239000D02*
D03*
X0293395Y0237000D02*
D03*
Y0237500D02*
D03*
X0297605D02*
D03*
X0293395Y0238000D02*
D03*
X0297605Y0237000D02*
D03*
Y0238000D02*
D03*
Y0238500D02*
D03*
Y0239000D02*
D03*
X0293395D02*
D03*
Y0238500D02*
D03*
D108*
X0307250Y0233990D02*
D03*
X0308750Y0231010D02*
D03*
X0308250D02*
D03*
X0307750D02*
D03*
X0307250D02*
D03*
X0307750Y0233990D02*
D03*
X0308250D02*
D03*
X0308750D02*
D03*
D109*
X0353500Y0176820D02*
D03*
X0353000D02*
D03*
X0352500D02*
D03*
X0352000D02*
D03*
X0351500D02*
D03*
X0351000D02*
D03*
X0349500D02*
D03*
X0349000D02*
D03*
X0348500D02*
D03*
X0346500D02*
D03*
X0347500Y0171180D02*
D03*
X0348000D02*
D03*
X0348500D02*
D03*
X0349000D02*
D03*
X0349500D02*
D03*
X0352000D02*
D03*
X0352500D02*
D03*
X0353000D02*
D03*
X0353500D02*
D03*
X0351000D02*
D03*
X0347000Y0176820D02*
D03*
X0347500D02*
D03*
X0350000D02*
D03*
X0351500Y0171180D02*
D03*
X0348000Y0176820D02*
D03*
X0350500D02*
D03*
X0347000Y0171180D02*
D03*
X0350500D02*
D03*
X0350000D02*
D03*
X0346500D02*
D03*
Y0188180D02*
D03*
X0350000D02*
D03*
X0350500D02*
D03*
X0347000D02*
D03*
X0350500Y0193820D02*
D03*
X0348000D02*
D03*
X0351000Y0188180D02*
D03*
X0351500D02*
D03*
X0350000Y0193820D02*
D03*
X0347500D02*
D03*
X0347000D02*
D03*
X0353500Y0188180D02*
D03*
X0353000D02*
D03*
X0352500D02*
D03*
X0352000D02*
D03*
X0349500D02*
D03*
X0349000D02*
D03*
X0348500D02*
D03*
X0348000D02*
D03*
X0347500D02*
D03*
X0346500Y0193820D02*
D03*
X0348500D02*
D03*
X0349000D02*
D03*
X0349500D02*
D03*
X0351000D02*
D03*
X0351500D02*
D03*
X0352000D02*
D03*
X0352500D02*
D03*
X0353000D02*
D03*
X0353500D02*
D03*
D110*
X0246000Y0158000D02*
D03*
D111*
X0247370Y0158750D02*
D03*
Y0158250D02*
D03*
Y0157750D02*
D03*
Y0157250D02*
D03*
X0244630D02*
D03*
Y0157750D02*
D03*
Y0158250D02*
D03*
Y0158750D02*
D03*
D112*
X0304595Y0204895D02*
D03*
X0305865D02*
D03*
X0307135D02*
D03*
X0308405D02*
D03*
Y0212105D02*
D03*
X0307135D02*
D03*
X0305865D02*
D03*
X0304595D02*
D03*
D113*
Y0210005D02*
D03*
X0305865D02*
D03*
X0307135D02*
D03*
X0308405D02*
D03*
X0307135Y0204995D02*
D03*
X0305865D02*
D03*
X0304595D02*
D03*
X0308405D02*
D03*
D114*
X0252860Y0243300D02*
D03*
X0255140D02*
D03*
D115*
X0330250Y0242340D02*
D03*
Y0245660D02*
D03*
X0252900Y0237840D02*
D03*
Y0241160D02*
D03*
D116*
X0249580Y0166325D02*
D03*
Y0164675D02*
D03*
X0248420D02*
D03*
Y0166325D02*
D03*
X0260180Y0147325D02*
D03*
Y0145675D02*
D03*
X0259020D02*
D03*
Y0147325D02*
D03*
X0260180Y0153325D02*
D03*
Y0151675D02*
D03*
X0259020D02*
D03*
Y0153325D02*
D03*
D117*
X0249580Y0165750D02*
D03*
Y0165250D02*
D03*
X0248420D02*
D03*
Y0165750D02*
D03*
X0260180Y0146750D02*
D03*
Y0146250D02*
D03*
X0259020D02*
D03*
Y0146750D02*
D03*
X0260180Y0152750D02*
D03*
Y0152250D02*
D03*
X0259020D02*
D03*
Y0152750D02*
D03*
D118*
X0288980Y0256000D02*
D03*
X0286020D02*
D03*
X0299020Y0256800D02*
D03*
X0301980D02*
D03*
X0299020Y0254500D02*
D03*
X0301980D02*
D03*
X0316480Y0252000D02*
D03*
X0313520D02*
D03*
D119*
X0227945Y0186200D02*
D03*
X0229855D02*
D03*
D120*
X0251700Y0212180D02*
D03*
Y0213820D02*
D03*
X0281000Y0202980D02*
D03*
Y0204620D02*
D03*
Y0207620D02*
D03*
Y0205980D02*
D03*
X0305000Y0156180D02*
D03*
Y0157820D02*
D03*
X0308000Y0156180D02*
D03*
Y0157820D02*
D03*
X0311000Y0156180D02*
D03*
Y0157820D02*
D03*
X0314000Y0156180D02*
D03*
Y0157820D02*
D03*
X0302500Y0204880D02*
D03*
Y0206520D02*
D03*
X0308700Y0181680D02*
D03*
Y0183320D02*
D03*
X0307200Y0181680D02*
D03*
Y0183320D02*
D03*
X0281800Y0186680D02*
D03*
Y0188320D02*
D03*
X0242000Y0194180D02*
D03*
Y0195820D02*
D03*
X0236000D02*
D03*
Y0194180D02*
D03*
X0234500Y0195820D02*
D03*
Y0194180D02*
D03*
X0361000Y0253180D02*
D03*
Y0254820D02*
D03*
Y0225180D02*
D03*
Y0226820D02*
D03*
Y0258820D02*
D03*
Y0257180D02*
D03*
Y0230820D02*
D03*
Y0229180D02*
D03*
Y0239180D02*
D03*
Y0240820D02*
D03*
Y0211180D02*
D03*
Y0212820D02*
D03*
Y0244820D02*
D03*
Y0243180D02*
D03*
Y0216820D02*
D03*
Y0215180D02*
D03*
X0261200Y0212280D02*
D03*
Y0213920D02*
D03*
X0254200Y0213820D02*
D03*
Y0212180D02*
D03*
X0246700Y0203680D02*
D03*
Y0205320D02*
D03*
X0246500Y0189320D02*
D03*
Y0187680D02*
D03*
X0362000Y0194820D02*
D03*
Y0193180D02*
D03*
Y0197180D02*
D03*
Y0198820D02*
D03*
X0349000Y0186320D02*
D03*
Y0184680D02*
D03*
X0362000Y0183180D02*
D03*
Y0184820D02*
D03*
Y0180820D02*
D03*
Y0179180D02*
D03*
Y0165180D02*
D03*
Y0166820D02*
D03*
Y0170820D02*
D03*
Y0169180D02*
D03*
X0349000Y0167680D02*
D03*
Y0169320D02*
D03*
X0362000Y0156820D02*
D03*
Y0155180D02*
D03*
Y0151180D02*
D03*
Y0152820D02*
D03*
X0345000Y0174820D02*
D03*
Y0173180D02*
D03*
X0250700Y0240320D02*
D03*
Y0238680D02*
D03*
X0302100Y0233420D02*
D03*
Y0231780D02*
D03*
X0316800Y0246180D02*
D03*
Y0247820D02*
D03*
X0307000Y0250180D02*
D03*
Y0251820D02*
D03*
X0282000Y0251680D02*
D03*
Y0253320D02*
D03*
X0288000D02*
D03*
Y0251680D02*
D03*
X0272400Y0254320D02*
D03*
Y0252680D02*
D03*
X0282000Y0254680D02*
D03*
Y0256320D02*
D03*
X0280500Y0253320D02*
D03*
Y0251680D02*
D03*
X0275400Y0252680D02*
D03*
Y0254320D02*
D03*
X0273900Y0252680D02*
D03*
Y0254320D02*
D03*
X0262000D02*
D03*
Y0252680D02*
D03*
X0251400Y0254820D02*
D03*
Y0253180D02*
D03*
X0287800Y0208880D02*
D03*
Y0210520D02*
D03*
X0295800D02*
D03*
Y0208880D02*
D03*
X0315300Y0247820D02*
D03*
Y0246180D02*
D03*
X0290800Y0208880D02*
D03*
Y0210520D02*
D03*
X0289300Y0208880D02*
D03*
Y0210520D02*
D03*
X0278500Y0198580D02*
D03*
Y0200220D02*
D03*
X0263500Y0156820D02*
D03*
Y0155180D02*
D03*
X0262000D02*
D03*
Y0156820D02*
D03*
X0322500Y0181680D02*
D03*
Y0183320D02*
D03*
X0324000Y0181680D02*
D03*
Y0183320D02*
D03*
X0319500Y0181680D02*
D03*
Y0183320D02*
D03*
X0321000Y0181680D02*
D03*
Y0183320D02*
D03*
X0292700Y0231080D02*
D03*
Y0232720D02*
D03*
X0291100Y0231080D02*
D03*
Y0232720D02*
D03*
X0245200Y0205320D02*
D03*
Y0203680D02*
D03*
X0250700Y0243420D02*
D03*
Y0241780D02*
D03*
X0246400Y0200180D02*
D03*
Y0201820D02*
D03*
X0259600Y0212280D02*
D03*
Y0213920D02*
D03*
X0246300Y0212180D02*
D03*
Y0213820D02*
D03*
D121*
X0240700Y0166955D02*
D03*
Y0166045D02*
D03*
X0332500Y0248255D02*
D03*
Y0247345D02*
D03*
X0334200D02*
D03*
Y0248255D02*
D03*
X0234700Y0157945D02*
D03*
Y0158855D02*
D03*
Y0160755D02*
D03*
Y0159845D02*
D03*
X0248500Y0147455D02*
D03*
Y0146545D02*
D03*
X0238700Y0166045D02*
D03*
Y0166955D02*
D03*
X0237700D02*
D03*
Y0166045D02*
D03*
D122*
X0299680Y0188320D02*
D03*
X0284320Y0203680D02*
D03*
D123*
X0299680Y0202200D02*
D03*
Y0201800D02*
D03*
Y0201400D02*
D03*
Y0201000D02*
D03*
Y0200600D02*
D03*
Y0200200D02*
D03*
Y0199800D02*
D03*
Y0199400D02*
D03*
Y0199000D02*
D03*
Y0198600D02*
D03*
Y0198200D02*
D03*
Y0197800D02*
D03*
Y0197400D02*
D03*
Y0197000D02*
D03*
Y0196600D02*
D03*
Y0196200D02*
D03*
Y0195800D02*
D03*
Y0195400D02*
D03*
Y0195000D02*
D03*
Y0194600D02*
D03*
Y0194200D02*
D03*
Y0193800D02*
D03*
Y0193400D02*
D03*
Y0193000D02*
D03*
Y0192600D02*
D03*
Y0192200D02*
D03*
Y0191400D02*
D03*
Y0191000D02*
D03*
Y0190600D02*
D03*
Y0190200D02*
D03*
Y0189800D02*
D03*
X0284320D02*
D03*
Y0190200D02*
D03*
Y0191000D02*
D03*
Y0191400D02*
D03*
Y0191800D02*
D03*
Y0192200D02*
D03*
Y0192600D02*
D03*
Y0193400D02*
D03*
Y0193800D02*
D03*
Y0194200D02*
D03*
Y0194600D02*
D03*
Y0195000D02*
D03*
Y0195400D02*
D03*
Y0195800D02*
D03*
Y0196200D02*
D03*
Y0196600D02*
D03*
Y0197000D02*
D03*
Y0197400D02*
D03*
Y0197800D02*
D03*
Y0198200D02*
D03*
Y0199000D02*
D03*
Y0199400D02*
D03*
Y0199800D02*
D03*
Y0200200D02*
D03*
Y0200600D02*
D03*
Y0201000D02*
D03*
Y0201800D02*
D03*
Y0202200D02*
D03*
Y0198600D02*
D03*
Y0190600D02*
D03*
Y0193000D02*
D03*
Y0201400D02*
D03*
X0299680Y0191800D02*
D03*
D124*
X0298200Y0188320D02*
D03*
X0297800D02*
D03*
X0296600D02*
D03*
X0296200D02*
D03*
X0295800D02*
D03*
X0295400D02*
D03*
X0295000D02*
D03*
X0294600D02*
D03*
X0294200D02*
D03*
X0293800D02*
D03*
X0293400D02*
D03*
X0293000D02*
D03*
X0292600D02*
D03*
X0292200D02*
D03*
X0291800D02*
D03*
X0291400D02*
D03*
X0291000D02*
D03*
X0290600D02*
D03*
X0290200D02*
D03*
X0289800D02*
D03*
X0289400D02*
D03*
X0289000D02*
D03*
X0288600D02*
D03*
X0288200D02*
D03*
X0287800D02*
D03*
X0287400D02*
D03*
X0287000D02*
D03*
X0286600D02*
D03*
X0286200D02*
D03*
X0285800D02*
D03*
Y0203680D02*
D03*
X0286200D02*
D03*
X0287000D02*
D03*
X0287400D02*
D03*
X0288200D02*
D03*
X0288600D02*
D03*
X0289400D02*
D03*
X0290200D02*
D03*
X0291000D02*
D03*
X0291400D02*
D03*
X0291800D02*
D03*
X0292200D02*
D03*
X0292600D02*
D03*
X0293000D02*
D03*
X0293400D02*
D03*
X0293800D02*
D03*
X0294200D02*
D03*
X0294600D02*
D03*
X0295000D02*
D03*
X0295400D02*
D03*
X0295800D02*
D03*
X0296200D02*
D03*
X0296600D02*
D03*
X0297000D02*
D03*
X0297400D02*
D03*
X0297800D02*
D03*
X0298200D02*
D03*
X0286600D02*
D03*
X0287800D02*
D03*
X0289000D02*
D03*
X0289800D02*
D03*
X0297000Y0188320D02*
D03*
X0297400D02*
D03*
X0290600Y0203680D02*
D03*
D125*
X0292000Y0196000D02*
D03*
D126*
X0279345Y0204130D02*
D03*
Y0206470D02*
D03*
X0277455D02*
D03*
Y0204130D02*
D03*
D127*
X0231795Y0160505D02*
D03*
X0233405D02*
D03*
Y0159295D02*
D03*
X0231795D02*
D03*
D128*
X0314000Y0153760D02*
D03*
Y0152240D02*
D03*
X0305000Y0153760D02*
D03*
Y0152240D02*
D03*
X0308000Y0153760D02*
D03*
Y0152240D02*
D03*
X0311000Y0153760D02*
D03*
Y0152240D02*
D03*
D129*
X0252725Y0163425D02*
D03*
X0251275D02*
D03*
X0252725Y0162575D02*
D03*
X0251275D02*
D03*
X0252725Y0168425D02*
D03*
X0251275D02*
D03*
X0252725Y0167575D02*
D03*
X0251275D02*
D03*
D130*
X0233600Y0166100D02*
D03*
Y0164100D02*
D03*
X0253500Y0198500D02*
D03*
Y0200500D02*
D03*
Y0186000D02*
D03*
Y0188000D02*
D03*
D131*
X0224000Y0163035D02*
D03*
Y0161565D02*
D03*
X0242000Y0201965D02*
D03*
Y0203435D02*
D03*
D132*
X0231555Y0153600D02*
D03*
X0230645D02*
D03*
X0280755Y0199300D02*
D03*
X0279845D02*
D03*
X0304455Y0254500D02*
D03*
X0303545D02*
D03*
X0320255Y0252000D02*
D03*
X0319345D02*
D03*
X0253355Y0159300D02*
D03*
X0252445D02*
D03*
X0228755Y0164200D02*
D03*
X0227845D02*
D03*
X0252445Y0152800D02*
D03*
X0253355D02*
D03*
Y0151700D02*
D03*
X0252445D02*
D03*
X0260055Y0154400D02*
D03*
X0259145D02*
D03*
X0253355Y0150600D02*
D03*
X0252445D02*
D03*
X0225755Y0149600D02*
D03*
X0224845D02*
D03*
X0259145Y0148400D02*
D03*
X0260055D02*
D03*
X0245455Y0159900D02*
D03*
X0244545D02*
D03*
X0259145Y0144600D02*
D03*
X0260055D02*
D03*
X0253355Y0153900D02*
D03*
X0252445D02*
D03*
X0229845Y0164200D02*
D03*
X0230755D02*
D03*
D133*
X0236600Y0166935D02*
D03*
X0236100D02*
D03*
X0235600D02*
D03*
Y0165465D02*
D03*
X0236100D02*
D03*
X0236600D02*
D03*
D134*
X0242955Y0156300D02*
D03*
Y0155900D02*
D03*
Y0155500D02*
D03*
Y0155100D02*
D03*
Y0154700D02*
D03*
Y0154300D02*
D03*
Y0153900D02*
D03*
Y0153500D02*
D03*
Y0153100D02*
D03*
Y0152700D02*
D03*
Y0152300D02*
D03*
Y0151900D02*
D03*
Y0151500D02*
D03*
Y0151100D02*
D03*
Y0150700D02*
D03*
X0236045D02*
D03*
Y0151100D02*
D03*
Y0151500D02*
D03*
Y0151900D02*
D03*
Y0152300D02*
D03*
Y0152700D02*
D03*
Y0153100D02*
D03*
Y0153500D02*
D03*
Y0153900D02*
D03*
Y0154300D02*
D03*
Y0154700D02*
D03*
Y0155100D02*
D03*
Y0155500D02*
D03*
Y0155900D02*
D03*
Y0156300D02*
D03*
D135*
X0242300Y0150045D02*
D03*
X0241900D02*
D03*
X0241500D02*
D03*
X0241100D02*
D03*
X0240700D02*
D03*
X0240300D02*
D03*
X0239900D02*
D03*
X0239500D02*
D03*
X0239100D02*
D03*
X0238700D02*
D03*
X0238300D02*
D03*
X0237900D02*
D03*
X0237500D02*
D03*
X0237100D02*
D03*
X0236700D02*
D03*
Y0156955D02*
D03*
X0237100D02*
D03*
X0237500D02*
D03*
X0237900D02*
D03*
X0238300D02*
D03*
X0238700D02*
D03*
X0239100D02*
D03*
X0239500D02*
D03*
X0239900D02*
D03*
X0240300D02*
D03*
X0240700D02*
D03*
X0241100D02*
D03*
X0241500D02*
D03*
X0241900D02*
D03*
X0242300D02*
D03*
D136*
X0318750Y0245500D02*
D03*
Y0242960D02*
D03*
X0327750Y0248040D02*
D03*
Y0245500D02*
D03*
Y0242960D02*
D03*
X0318750Y0248040D02*
D03*
D137*
X0257195Y0144750D02*
D03*
Y0147250D02*
D03*
Y0146750D02*
D03*
Y0146250D02*
D03*
Y0145750D02*
D03*
Y0145250D02*
D03*
X0254805Y0144750D02*
D03*
Y0145250D02*
D03*
Y0145750D02*
D03*
Y0146250D02*
D03*
Y0146750D02*
D03*
Y0147250D02*
D03*
X0257195Y0151250D02*
D03*
Y0153750D02*
D03*
Y0153250D02*
D03*
Y0152750D02*
D03*
Y0152250D02*
D03*
Y0151750D02*
D03*
X0254805Y0151250D02*
D03*
Y0151750D02*
D03*
Y0152250D02*
D03*
Y0152750D02*
D03*
Y0153250D02*
D03*
Y0153750D02*
D03*
D138*
X0256250Y0144305D02*
D03*
X0255750Y0147695D02*
D03*
X0256250D02*
D03*
X0255750Y0144305D02*
D03*
X0256250Y0150805D02*
D03*
X0255750Y0154195D02*
D03*
X0256250D02*
D03*
X0255750Y0150805D02*
D03*
D139*
X0256000Y0146000D02*
D03*
Y0152500D02*
D03*
D140*
X0235900Y0206700D02*
D03*
X0240100D02*
D03*
D141*
X0225515Y0161800D02*
D03*
X0227485D02*
D03*
D142*
X0230000Y0142000D02*
D03*
X0224000Y0259000D02*
D03*
X0367000Y0144000D02*
D03*
D143*
X0232070Y0146635D02*
D03*
X0230800D02*
D03*
X0229530D02*
D03*
X0232070Y0145365D02*
D03*
X0230800D02*
D03*
X0229530D02*
D03*
D144*
X0277715Y0160000D02*
D03*
X0276445D02*
D03*
X0275175D02*
D03*
X0273905D02*
D03*
X0272635D02*
D03*
X0277715Y0156000D02*
D03*
X0276445D02*
D03*
X0275175D02*
D03*
X0273905D02*
D03*
X0272635D02*
D03*
X0266285D02*
D03*
X0267555D02*
D03*
X0268825D02*
D03*
X0270095D02*
D03*
X0271365D02*
D03*
X0266285Y0160000D02*
D03*
X0267555D02*
D03*
X0268825D02*
D03*
X0270095D02*
D03*
X0271365D02*
D03*
Y0150000D02*
D03*
X0270095D02*
D03*
X0268825D02*
D03*
X0267555D02*
D03*
X0266285D02*
D03*
X0271365Y0146000D02*
D03*
X0270095D02*
D03*
X0268825D02*
D03*
X0267555D02*
D03*
X0266285D02*
D03*
X0272635D02*
D03*
X0273905D02*
D03*
X0275175D02*
D03*
X0276445D02*
D03*
X0277715D02*
D03*
X0272635Y0150000D02*
D03*
X0273905D02*
D03*
X0275175D02*
D03*
X0276445D02*
D03*
X0277715D02*
D03*
D145*
X0225100Y0156000D02*
D03*
Y0156650D02*
D03*
Y0157300D02*
D03*
Y0155350D02*
D03*
Y0154700D02*
D03*
X0225100Y0179700D02*
D03*
Y0180350D02*
D03*
Y0181000D02*
D03*
Y0181650D02*
D03*
Y0182300D02*
D03*
Y0214700D02*
D03*
Y0215350D02*
D03*
Y0216000D02*
D03*
Y0216650D02*
D03*
Y0217300D02*
D03*
D146*
X0224875Y0159200D02*
D03*
X0224875Y0152800D02*
D03*
X0224875Y0177800D02*
D03*
X0224875Y0184200D02*
D03*
X0224875Y0212800D02*
D03*
X0224875Y0219200D02*
D03*
D147*
X0222425Y0157200D02*
D03*
Y0154800D02*
D03*
X0222425Y0179800D02*
D03*
Y0182200D02*
D03*
Y0214800D02*
D03*
Y0217200D02*
D03*
D148*
X0377600Y0157700D02*
D03*
X0375600Y0150300D02*
D03*
X0377600Y0259700D02*
D03*
X0375600Y0252300D02*
D03*
X0377600Y0231700D02*
D03*
X0375600Y0224300D02*
D03*
X0377600Y0245700D02*
D03*
X0375600Y0238300D02*
D03*
X0377600Y0217700D02*
D03*
X0375600Y0210300D02*
D03*
X0377600Y0199700D02*
D03*
X0375600Y0192300D02*
D03*
X0377600Y0185700D02*
D03*
X0375600Y0178300D02*
D03*
X0377600Y0171700D02*
D03*
X0375600Y0164300D02*
D03*
D149*
X0368200Y0157700D02*
D03*
Y0259700D02*
D03*
Y0231700D02*
D03*
Y0245700D02*
D03*
Y0217700D02*
D03*
Y0199700D02*
D03*
Y0185700D02*
D03*
Y0171700D02*
D03*
D150*
X0360000Y0151125D02*
D03*
Y0152875D02*
D03*
Y0193125D02*
D03*
Y0194875D02*
D03*
Y0198875D02*
D03*
Y0197125D02*
D03*
Y0184875D02*
D03*
Y0183125D02*
D03*
Y0179125D02*
D03*
Y0180875D02*
D03*
Y0165125D02*
D03*
Y0166875D02*
D03*
Y0170875D02*
D03*
Y0169125D02*
D03*
Y0156875D02*
D03*
Y0155125D02*
D03*
D151*
X0351500Y0178745D02*
D03*
Y0180255D02*
D03*
Y0197255D02*
D03*
Y0195745D02*
D03*
D152*
X0248145Y0216000D02*
D03*
X0249655D02*
D03*
X0352745Y0260500D02*
D03*
X0354255D02*
D03*
X0352745Y0253500D02*
D03*
X0354255D02*
D03*
X0251255Y0198500D02*
D03*
X0249745D02*
D03*
X0257555Y0216000D02*
D03*
X0256045D02*
D03*
X0251255Y0186000D02*
D03*
X0249745D02*
D03*
X0350555Y0198900D02*
D03*
X0349045D02*
D03*
X0346745Y0197000D02*
D03*
X0348255D02*
D03*
X0349045Y0181900D02*
D03*
X0350555D02*
D03*
X0348255Y0180000D02*
D03*
X0346745D02*
D03*
X0334245Y0252000D02*
D03*
X0335755D02*
D03*
X0325745D02*
D03*
X0327255D02*
D03*
X0235845Y0164100D02*
D03*
X0237355D02*
D03*
X0234845Y0168300D02*
D03*
X0236355D02*
D03*
X0350445Y0239000D02*
D03*
X0351955D02*
D03*
X0350445Y0214000D02*
D03*
X0351955D02*
D03*
X0356355Y0243100D02*
D03*
X0354845D02*
D03*
X0356355Y0218100D02*
D03*
X0354845D02*
D03*
X0350445Y0226500D02*
D03*
X0351955D02*
D03*
X0350445Y0201500D02*
D03*
X0351955D02*
D03*
X0356355Y0230600D02*
D03*
X0354845D02*
D03*
X0356355Y0205600D02*
D03*
X0354845D02*
D03*
D153*
X0348660Y0178500D02*
D03*
X0347740D02*
D03*
Y0195500D02*
D03*
X0348660D02*
D03*
D154*
X0281760Y0185300D02*
D03*
X0280840D02*
D03*
Y0189700D02*
D03*
X0281760D02*
D03*
Y0190700D02*
D03*
X0280840D02*
D03*
X0302240Y0192000D02*
D03*
X0303160D02*
D03*
X0302240Y0196600D02*
D03*
X0303160D02*
D03*
X0280840Y0200300D02*
D03*
X0281760D02*
D03*
Y0197500D02*
D03*
X0280840D02*
D03*
X0281760Y0195100D02*
D03*
X0280840D02*
D03*
X0281760Y0193900D02*
D03*
X0280840D02*
D03*
X0302240Y0194600D02*
D03*
X0303160D02*
D03*
X0302240Y0199400D02*
D03*
X0303160D02*
D03*
X0280840Y0201700D02*
D03*
X0281760D02*
D03*
X0280840Y0192900D02*
D03*
X0281760D02*
D03*
X0278860Y0202700D02*
D03*
X0277940D02*
D03*
Y0207900D02*
D03*
X0278860D02*
D03*
X0228095Y0184057D02*
D03*
X0227175D02*
D03*
X0232840Y0186200D02*
D03*
X0233760D02*
D03*
X0352740Y0264800D02*
D03*
X0353660D02*
D03*
X0351160Y0253300D02*
D03*
X0350240D02*
D03*
X0250560Y0205800D02*
D03*
X0249640D02*
D03*
X0256960Y0210200D02*
D03*
X0256040D02*
D03*
X0246140Y0191400D02*
D03*
X0247060D02*
D03*
X0250560Y0194800D02*
D03*
X0249640D02*
D03*
X0257040Y0197000D02*
D03*
X0257960D02*
D03*
Y0202000D02*
D03*
X0257040D02*
D03*
X0345840Y0195500D02*
D03*
X0346760D02*
D03*
X0345840Y0178500D02*
D03*
X0346760D02*
D03*
X0258160Y0241100D02*
D03*
X0257240D02*
D03*
X0304560Y0231000D02*
D03*
X0303640D02*
D03*
X0309660Y0229600D02*
D03*
X0308740D02*
D03*
X0300360Y0229200D02*
D03*
X0299440D02*
D03*
X0294460Y0240500D02*
D03*
X0293540D02*
D03*
X0295540D02*
D03*
X0296460D02*
D03*
X0296360Y0229200D02*
D03*
X0295440D02*
D03*
X0299960Y0252500D02*
D03*
X0299040D02*
D03*
X0285040Y0250000D02*
D03*
X0285960D02*
D03*
X0283540Y0256000D02*
D03*
X0284460D02*
D03*
X0267540Y0256300D02*
D03*
X0268460D02*
D03*
X0263740Y0256300D02*
D03*
X0264660D02*
D03*
X0237960Y0255000D02*
D03*
X0237040D02*
D03*
X0256560D02*
D03*
X0255640D02*
D03*
X0234560Y0149600D02*
D03*
X0233640D02*
D03*
X0257560Y0155500D02*
D03*
X0256640D02*
D03*
X0257560Y0149000D02*
D03*
X0256640D02*
D03*
X0255540Y0160800D02*
D03*
X0256460D02*
D03*
X0254440Y0155500D02*
D03*
X0255360D02*
D03*
X0227840Y0165200D02*
D03*
X0228760D02*
D03*
X0230460Y0168400D02*
D03*
X0229540D02*
D03*
X0234060Y0152100D02*
D03*
X0233140D02*
D03*
X0225340Y0163500D02*
D03*
X0226260D02*
D03*
X0233060Y0161800D02*
D03*
X0232140D02*
D03*
X0233060Y0158000D02*
D03*
X0232140D02*
D03*
X0233140Y0155400D02*
D03*
X0234060D02*
D03*
X0244440Y0155300D02*
D03*
X0245360D02*
D03*
X0247360Y0159900D02*
D03*
X0246440D02*
D03*
X0226740Y0159000D02*
D03*
X0227660D02*
D03*
X0233140Y0153550D02*
D03*
X0234060D02*
D03*
X0233140Y0151100D02*
D03*
X0234060D02*
D03*
X0245360Y0151600D02*
D03*
X0244440D02*
D03*
X0245860Y0153100D02*
D03*
X0244940D02*
D03*
X0233140Y0156600D02*
D03*
X0234060D02*
D03*
X0254440Y0149000D02*
D03*
X0255360D02*
D03*
X0230760Y0165200D02*
D03*
X0229840D02*
D03*
X0302040Y0240400D02*
D03*
X0302960D02*
D03*
X0302240Y0193000D02*
D03*
X0303160D02*
D03*
X0355560Y0240800D02*
D03*
X0354640D02*
D03*
X0355560Y0215800D02*
D03*
X0354640D02*
D03*
X0355560Y0228300D02*
D03*
X0354640D02*
D03*
X0355560Y0203300D02*
D03*
X0354640D02*
D03*
X0266340Y0143300D02*
D03*
X0267260D02*
D03*
X0272640D02*
D03*
X0273560D02*
D03*
X0298540Y0212500D02*
D03*
X0299460D02*
D03*
X0283460Y0212000D02*
D03*
X0282540D02*
D03*
X0333460Y0166500D02*
D03*
X0332540D02*
D03*
X0335960Y0188000D02*
D03*
X0335040D02*
D03*
X0321040Y0219000D02*
D03*
X0321960D02*
D03*
X0252840Y0244900D02*
D03*
X0253760D02*
D03*
X0248140Y0210200D02*
D03*
X0249060D02*
D03*
D155*
X0281800Y0198440D02*
D03*
Y0199360D02*
D03*
X0299000Y0185760D02*
D03*
Y0184840D02*
D03*
X0294000Y0185760D02*
D03*
Y0184840D02*
D03*
X0298000Y0185760D02*
D03*
Y0184840D02*
D03*
X0296600Y0206240D02*
D03*
Y0207160D02*
D03*
X0294200Y0206240D02*
D03*
Y0207160D02*
D03*
X0290800Y0206240D02*
D03*
Y0207160D02*
D03*
X0286800Y0184840D02*
D03*
Y0185760D02*
D03*
X0288800D02*
D03*
Y0184840D02*
D03*
X0295600Y0185760D02*
D03*
Y0184840D02*
D03*
X0295200Y0206240D02*
D03*
Y0207160D02*
D03*
X0291800Y0206240D02*
D03*
Y0207160D02*
D03*
X0302800Y0211960D02*
D03*
Y0211040D02*
D03*
X0235500Y0203560D02*
D03*
Y0202640D02*
D03*
X0240500Y0203560D02*
D03*
Y0202640D02*
D03*
X0243400Y0201940D02*
D03*
Y0202860D02*
D03*
X0227100Y0216460D02*
D03*
Y0215540D02*
D03*
X0349800Y0196460D02*
D03*
Y0195540D02*
D03*
Y0178540D02*
D03*
Y0179460D02*
D03*
X0299300Y0237760D02*
D03*
Y0236840D02*
D03*
X0308800Y0238060D02*
D03*
Y0237140D02*
D03*
X0317000Y0243960D02*
D03*
Y0243040D02*
D03*
X0271000Y0252740D02*
D03*
Y0253660D02*
D03*
X0276700Y0253440D02*
D03*
Y0254360D02*
D03*
X0239700Y0166040D02*
D03*
Y0166960D02*
D03*
X0239500Y0147140D02*
D03*
Y0148060D02*
D03*
X0236000Y0147640D02*
D03*
Y0148560D02*
D03*
X0237600Y0148560D02*
D03*
Y0147640D02*
D03*
X0237600Y0159360D02*
D03*
Y0158440D02*
D03*
X0241400Y0147640D02*
D03*
Y0148560D02*
D03*
X0239500Y0159860D02*
D03*
Y0158940D02*
D03*
X0241500Y0159360D02*
D03*
Y0158440D02*
D03*
X0236500Y0143840D02*
D03*
Y0144760D02*
D03*
X0345400Y0241240D02*
D03*
Y0242160D02*
D03*
Y0240260D02*
D03*
Y0239340D02*
D03*
X0354800Y0246360D02*
D03*
Y0245440D02*
D03*
X0345400Y0217160D02*
D03*
Y0216240D02*
D03*
Y0214340D02*
D03*
Y0215260D02*
D03*
X0354800Y0221360D02*
D03*
Y0220440D02*
D03*
X0345400Y0228740D02*
D03*
Y0229660D02*
D03*
Y0227760D02*
D03*
Y0226840D02*
D03*
X0354800Y0233860D02*
D03*
Y0232940D02*
D03*
X0345400Y0203740D02*
D03*
Y0204660D02*
D03*
Y0202760D02*
D03*
Y0201840D02*
D03*
X0354800Y0208860D02*
D03*
Y0207940D02*
D03*
X0309400Y0250540D02*
D03*
Y0251460D02*
D03*
X0338500Y0220540D02*
D03*
Y0221460D02*
D03*
X0284500Y0240040D02*
D03*
Y0240960D02*
D03*
X0323500Y0202960D02*
D03*
Y0202040D02*
D03*
X0311500Y0181240D02*
D03*
Y0182160D02*
D03*
D156*
X0362500Y0254755D02*
D03*
Y0253245D02*
D03*
Y0257245D02*
D03*
Y0258755D02*
D03*
Y0226755D02*
D03*
Y0225245D02*
D03*
Y0229245D02*
D03*
Y0230755D02*
D03*
Y0240755D02*
D03*
Y0239245D02*
D03*
Y0243245D02*
D03*
Y0244755D02*
D03*
Y0212755D02*
D03*
Y0211245D02*
D03*
Y0215245D02*
D03*
Y0216755D02*
D03*
X0248000Y0200245D02*
D03*
Y0201755D02*
D03*
Y0187745D02*
D03*
Y0189255D02*
D03*
X0344500Y0197055D02*
D03*
Y0195545D02*
D03*
Y0178545D02*
D03*
Y0180055D02*
D03*
X0356400Y0247155D02*
D03*
Y0245645D02*
D03*
Y0222155D02*
D03*
Y0220645D02*
D03*
Y0234655D02*
D03*
Y0233145D02*
D03*
Y0209655D02*
D03*
Y0208145D02*
D03*
D157*
X0351235Y0252000D02*
D03*
X0349765D02*
D03*
X0354235Y0263500D02*
D03*
X0352765D02*
D03*
D158*
X0324020Y0161500D02*
D03*
X0322380D02*
D03*
X0334020D02*
D03*
X0332380D02*
D03*
X0286920Y0182800D02*
D03*
X0285280D02*
D03*
X0286920Y0181300D02*
D03*
X0285280D02*
D03*
X0231780Y0184600D02*
D03*
X0233420D02*
D03*
X0342880Y0236100D02*
D03*
X0344520D02*
D03*
X0354320Y0262000D02*
D03*
X0352680D02*
D03*
Y0252000D02*
D03*
X0354320D02*
D03*
X0249680Y0204500D02*
D03*
X0251320D02*
D03*
X0246080Y0194300D02*
D03*
X0247720D02*
D03*
X0257620Y0217500D02*
D03*
X0255980D02*
D03*
X0249680Y0203000D02*
D03*
X0251320D02*
D03*
X0247720Y0192800D02*
D03*
X0246080D02*
D03*
X0249680Y0192000D02*
D03*
X0251320D02*
D03*
Y0193500D02*
D03*
X0249680D02*
D03*
Y0190500D02*
D03*
X0251320D02*
D03*
X0258820Y0203300D02*
D03*
X0257180D02*
D03*
X0343380Y0192000D02*
D03*
X0345020D02*
D03*
X0258680Y0237200D02*
D03*
X0260320D02*
D03*
X0294180Y0235300D02*
D03*
X0295820D02*
D03*
X0311820Y0231000D02*
D03*
X0310180D02*
D03*
X0311820Y0232500D02*
D03*
X0310180D02*
D03*
X0311820Y0234000D02*
D03*
X0310180D02*
D03*
X0300120Y0227400D02*
D03*
X0298480D02*
D03*
X0304180Y0235300D02*
D03*
X0305820D02*
D03*
X0299680Y0260500D02*
D03*
X0301320D02*
D03*
X0344020Y0161500D02*
D03*
X0342380D02*
D03*
X0342880Y0247300D02*
D03*
X0344520D02*
D03*
X0342880Y0234600D02*
D03*
X0344520D02*
D03*
X0342880Y0222100D02*
D03*
X0344520D02*
D03*
X0342880Y0209600D02*
D03*
X0344520D02*
D03*
X0354780Y0249400D02*
D03*
X0356420D02*
D03*
X0354780Y0224400D02*
D03*
X0356420D02*
D03*
X0354780Y0236900D02*
D03*
X0356420D02*
D03*
X0354780Y0211900D02*
D03*
X0356420D02*
D03*
X0237180Y0200000D02*
D03*
X0238820D02*
D03*
X0321980Y0252000D02*
D03*
X0323620D02*
D03*
X0285980Y0258000D02*
D03*
X0287620D02*
D03*
X0313480Y0250000D02*
D03*
X0315120D02*
D03*
X0342880Y0245400D02*
D03*
X0344520D02*
D03*
X0342880Y0243900D02*
D03*
X0344520D02*
D03*
X0314820Y0178000D02*
D03*
X0313180D02*
D03*
X0314820Y0179500D02*
D03*
X0313180D02*
D03*
X0319380Y0184800D02*
D03*
X0321020D02*
D03*
X0322480D02*
D03*
X0324120D02*
D03*
X0254080Y0196800D02*
D03*
X0255720D02*
D03*
X0249720Y0217500D02*
D03*
X0248080D02*
D03*
D159*
X0248500Y0238020D02*
D03*
Y0240980D02*
D03*
X0332750Y0242520D02*
D03*
Y0245480D02*
D03*
D160*
X0236880Y0203650D02*
D03*
X0239120Y0201750D02*
D03*
Y0203650D02*
D03*
X0236880Y0201750D02*
D03*
Y0202700D02*
D03*
D161*
X0249765Y0201500D02*
D03*
Y0200500D02*
D03*
X0251235D02*
D03*
Y0201000D02*
D03*
Y0201500D02*
D03*
X0249765Y0201000D02*
D03*
Y0189000D02*
D03*
Y0188000D02*
D03*
X0251235D02*
D03*
Y0188500D02*
D03*
Y0189000D02*
D03*
X0249765Y0188500D02*
D03*
D162*
X0258085Y0240000D02*
D03*
Y0239500D02*
D03*
Y0239000D02*
D03*
X0257315D02*
D03*
Y0239500D02*
D03*
Y0240000D02*
D03*
X0303715Y0232100D02*
D03*
Y0232600D02*
D03*
Y0233100D02*
D03*
X0304485D02*
D03*
Y0232600D02*
D03*
Y0232100D02*
D03*
X0256385Y0159100D02*
D03*
Y0158600D02*
D03*
Y0158100D02*
D03*
X0255615D02*
D03*
Y0158600D02*
D03*
Y0159100D02*
D03*
D163*
X0304895Y0240695D02*
D03*
X0306105Y0242305D02*
D03*
Y0240695D02*
D03*
X0304895Y0242305D02*
D03*
D164*
X0246725Y0146420D02*
D03*
X0245075D02*
D03*
Y0147580D02*
D03*
X0246725D02*
D03*
D165*
X0246150Y0146420D02*
D03*
X0245650D02*
D03*
Y0147580D02*
D03*
X0246150D02*
D03*
D166*
X0245590Y0218930D02*
D03*
X0334490Y0175750D02*
D03*
X0331950D02*
D03*
X0329410D02*
D03*
X0230350Y0206230D02*
D03*
Y0203690D02*
D03*
X0316710Y0226550D02*
D03*
X0314170Y0203690D02*
D03*
X0316710Y0206230D02*
D03*
X0314170D02*
D03*
X0316710Y0208770D02*
D03*
X0314170D02*
D03*
X0316710Y0211310D02*
D03*
X0314170D02*
D03*
X0316710Y0213850D02*
D03*
X0314170D02*
D03*
X0331950Y0193530D02*
D03*
X0329410D02*
D03*
X0331950Y0196070D02*
D03*
X0329410D02*
D03*
X0331950Y0198610D02*
D03*
X0329410D02*
D03*
X0331950Y0201150D02*
D03*
X0329410D02*
D03*
X0331950Y0203690D02*
D03*
X0329410D02*
D03*
X0331950Y0206230D02*
D03*
X0329410D02*
D03*
X0331950Y0208770D02*
D03*
X0329410D02*
D03*
X0331950Y0211310D02*
D03*
X0329410D02*
D03*
X0331950Y0213850D02*
D03*
X0329410D02*
D03*
X0331950Y0216390D02*
D03*
X0304010Y0168130D02*
D03*
Y0165590D02*
D03*
X0301470Y0168130D02*
D03*
Y0165590D02*
D03*
X0298930Y0168130D02*
D03*
Y0165590D02*
D03*
X0296390Y0168130D02*
D03*
Y0165590D02*
D03*
X0293850Y0168130D02*
D03*
Y0165590D02*
D03*
X0291310Y0168130D02*
D03*
Y0165590D02*
D03*
X0288770Y0168130D02*
D03*
Y0165590D02*
D03*
X0286230Y0168130D02*
D03*
X0240500Y0241000D02*
D03*
X0270990Y0201150D02*
D03*
X0268450Y0198610D02*
D03*
X0270990D02*
D03*
X0268450Y0196070D02*
D03*
X0270990D02*
D03*
X0268450Y0193530D02*
D03*
X0270990D02*
D03*
X0268450Y0190990D02*
D03*
X0270990D02*
D03*
X0331950Y0234170D02*
D03*
X0329410D02*
D03*
X0334490D02*
D03*
Y0183370D02*
D03*
X0331950D02*
D03*
X0329410D02*
D03*
X0331950Y0231630D02*
D03*
X0329410D02*
D03*
X0334490D02*
D03*
Y0180830D02*
D03*
X0331950D02*
D03*
X0329410D02*
D03*
X0331950Y0229090D02*
D03*
X0329410D02*
D03*
X0334490D02*
D03*
Y0178290D02*
D03*
X0331950D02*
D03*
X0329410D02*
D03*
X0331950Y0226550D02*
D03*
X0329410D02*
D03*
X0334490D02*
D03*
X0230350Y0196070D02*
D03*
Y0190990D02*
D03*
X0268450Y0213850D02*
D03*
X0243050Y0185910D02*
D03*
X0248130Y0231630D02*
D03*
X0344650Y0251950D02*
D03*
X0258290Y0193530D02*
D03*
X0253210Y0218930D02*
D03*
X0258290Y0185910D02*
D03*
Y0206230D02*
D03*
X0286230Y0152890D02*
D03*
X0288770Y0150350D02*
D03*
Y0152890D02*
D03*
X0291310Y0150350D02*
D03*
Y0152890D02*
D03*
X0293850Y0150350D02*
D03*
Y0152890D02*
D03*
X0296390Y0150350D02*
D03*
Y0152890D02*
D03*
X0316710Y0173210D02*
D03*
X0281150Y0239250D02*
D03*
X0278610Y0241790D02*
D03*
Y0239250D02*
D03*
X0276070Y0241790D02*
D03*
Y0239250D02*
D03*
X0273530Y0241790D02*
D03*
Y0239250D02*
D03*
X0270990Y0241790D02*
D03*
Y0239250D02*
D03*
X0311630D02*
D03*
X0314170Y0188450D02*
D03*
X0316710Y0190990D02*
D03*
X0314170D02*
D03*
X0316710Y0193530D02*
D03*
X0314170D02*
D03*
X0316710Y0196070D02*
D03*
X0314170D02*
D03*
X0316710Y0198610D02*
D03*
X0314170D02*
D03*
X0294300Y0221360D02*
D03*
X0291760Y0223900D02*
D03*
Y0221360D02*
D03*
X0289220Y0223900D02*
D03*
Y0221360D02*
D03*
X0286680Y0223900D02*
D03*
Y0221360D02*
D03*
X0284140Y0223900D02*
D03*
Y0221360D02*
D03*
X0301470Y0244330D02*
D03*
X0311630Y0236710D02*
D03*
X0243050Y0208770D02*
D03*
D167*
X0337030Y0175750D02*
D03*
X0314170Y0226550D02*
D03*
X0286230Y0165590D02*
D03*
X0337030Y0234170D02*
D03*
Y0183370D02*
D03*
Y0231630D02*
D03*
Y0180830D02*
D03*
Y0229090D02*
D03*
Y0178290D02*
D03*
Y0226550D02*
D03*
X0227810Y0196070D02*
D03*
Y0190990D02*
D03*
X0270990Y0213850D02*
D03*
X0286230Y0150350D02*
D03*
X0314170Y0173210D02*
D03*
X0281150Y0241790D02*
D03*
X0294300Y0223900D02*
D03*
D168*
X0230350Y0201150D02*
D03*
X0316710Y0203690D02*
D03*
X0329410Y0216390D02*
D03*
X0268450Y0201150D02*
D03*
X0243050Y0188450D02*
D03*
X0248130Y0234170D02*
D03*
X0316710Y0188450D02*
D03*
D169*
X0309500Y0257400D02*
D03*
X0317000D02*
D03*
X0324500D02*
D03*
X0312000Y0254900D02*
D03*
X0322000D02*
D03*
Y0267400D02*
D03*
X0319500D02*
D03*
X0314500D02*
D03*
X0312000D02*
D03*
X0332500D02*
D03*
X0335000D02*
D03*
X0340000D02*
D03*
X0342500D02*
D03*
X0345000Y0257400D02*
D03*
X0337500D02*
D03*
X0330000D02*
D03*
X0342500Y0254900D02*
D03*
X0332500D02*
D03*
D170*
X0324500Y0262400D02*
D03*
X0309500D02*
D03*
X0330000D02*
D03*
X0345000D02*
D03*
D171*
X0243630Y0237870D02*
D03*
Y0244130D02*
D03*
X0237370D02*
D03*
Y0237870D02*
D03*
D172*
X0251460Y0258900D02*
D03*
X0256540D02*
D03*
X0254000D02*
D03*
X0240540D02*
D03*
X0238000D02*
D03*
X0235460D02*
D03*
D173*
X0256540Y0261500D02*
D03*
X0251460D02*
D03*
X0240540D02*
D03*
X0235460D02*
D03*
D174*
X0256800Y0264000D02*
D03*
X0251200D02*
D03*
X0376500Y0154000D02*
D03*
X0369500D02*
D03*
X0376500Y0256000D02*
D03*
X0369500D02*
D03*
X0376500Y0228000D02*
D03*
X0369500D02*
D03*
X0376500Y0242000D02*
D03*
X0369500D02*
D03*
X0376500Y0214000D02*
D03*
X0369500D02*
D03*
X0376500Y0196000D02*
D03*
X0369500D02*
D03*
X0376500Y0182000D02*
D03*
X0369500D02*
D03*
X0376500Y0168000D02*
D03*
X0369500D02*
D03*
X0240800Y0264000D02*
D03*
X0235200D02*
D03*
D175*
X0222425Y0159300D02*
D03*
Y0152700D02*
D03*
X0222425Y0177700D02*
D03*
Y0184300D02*
D03*
Y0212700D02*
D03*
Y0219300D02*
D03*
D176*
X0286000Y0261500D02*
D03*
X0270000D02*
D03*
D177*
X0286000Y0266000D02*
D03*
X0281000Y0261500D02*
D03*
X0291000D02*
D03*
X0270000Y0266000D02*
D03*
X0265000Y0261500D02*
D03*
X0275000D02*
D03*
D178*
X0300000Y0266000D02*
D03*
X0224000Y0205000D02*
D03*
X0300000Y0144000D02*
D03*
X0376000Y0205000D02*
D03*
Y0266000D02*
D03*
Y0144000D02*
D03*
X0224000D02*
D03*
Y0266000D02*
D03*
D179*
X0242000Y0153500D02*
D03*
Y0152000D02*
D03*
Y0155000D02*
D03*
X0241000Y0152000D02*
D03*
X0238000D02*
D03*
X0239500D02*
D03*
Y0156000D02*
D03*
X0241000D02*
D03*
X0238000D02*
D03*
X0237000Y0153500D02*
D03*
Y0155000D02*
D03*
Y0152000D02*
D03*
X0239500Y0151000D02*
D03*
X0238000D02*
D03*
X0241000D02*
D03*
X0239500Y0153500D02*
D03*
X0238000D02*
D03*
X0241000D02*
D03*
X0239500Y0155000D02*
D03*
X0238000D02*
D03*
X0241000D02*
D03*
D180*
X0356500Y0254700D02*
D03*
X0351800Y0260500D02*
D03*
X0261200Y0214800D02*
D03*
X0251700Y0211400D02*
D03*
X0249800Y0210200D02*
D03*
X0249000Y0212800D02*
D03*
X0247100Y0210000D02*
D03*
X0246100D02*
D03*
X0245100D02*
D03*
X0247100Y0211000D02*
D03*
X0246100D02*
D03*
X0245100D02*
D03*
X0250600Y0217500D02*
D03*
Y0216000D02*
D03*
X0245100Y0215900D02*
D03*
X0246100D02*
D03*
X0247100D02*
D03*
Y0214900D02*
D03*
X0246100D02*
D03*
X0245100D02*
D03*
X0255000Y0215900D02*
D03*
X0259600Y0211400D02*
D03*
X0257700Y0210200D02*
D03*
X0256900Y0212800D02*
D03*
X0255000Y0210000D02*
D03*
X0254000D02*
D03*
X0253000D02*
D03*
X0255000Y0211000D02*
D03*
X0254000D02*
D03*
X0253000D02*
D03*
X0252300Y0204500D02*
D03*
X0252000Y0201700D02*
D03*
X0246100Y0196900D02*
D03*
X0248700Y0192700D02*
D03*
X0252300Y0192000D02*
D03*
Y0189100D02*
D03*
X0280000Y0185300D02*
D03*
X0246700Y0206200D02*
D03*
X0249700Y0243400D02*
D03*
X0245200Y0206200D02*
D03*
X0278000Y0166000D02*
D03*
X0285000Y0179000D02*
D03*
X0283000Y0170000D02*
D03*
X0289000Y0177000D02*
D03*
X0232500Y0212500D02*
D03*
X0222500Y0187500D02*
D03*
Y0200000D02*
D03*
X0237500Y0187500D02*
D03*
X0232500Y0180000D02*
D03*
X0237500Y0175000D02*
D03*
X0242500Y0180000D02*
D03*
X0247500Y0175000D02*
D03*
X0252500Y0180000D02*
D03*
X0262500Y0175000D02*
D03*
X0267500Y0180000D02*
D03*
X0272500Y0175000D02*
D03*
X0277500Y0180000D02*
D03*
X0282500Y0152500D02*
D03*
Y0145000D02*
D03*
X0295000D02*
D03*
X0305000D02*
D03*
X0315000D02*
D03*
X0325000D02*
D03*
X0335000D02*
D03*
X0292700Y0230000D02*
D03*
X0347200Y0239700D02*
D03*
X0345000Y0212600D02*
D03*
X0344900Y0225000D02*
D03*
X0323300Y0205000D02*
D03*
X0307200Y0185200D02*
D03*
X0315700Y0178000D02*
D03*
X0317300Y0180700D02*
D03*
X0332200Y0190400D02*
D03*
X0331400Y0189700D02*
D03*
X0329700Y0187000D02*
D03*
X0330700D02*
D03*
X0343000Y0188000D02*
D03*
Y0171000D02*
D03*
X0339700Y0177000D02*
D03*
X0324100Y0185700D02*
D03*
X0322500D02*
D03*
X0321000D02*
D03*
X0319400D02*
D03*
X0310352Y0201800D02*
D03*
X0324000Y0180800D02*
D03*
X0322500D02*
D03*
X0319500D02*
D03*
X0321000D02*
D03*
X0316100Y0182200D02*
D03*
X0310700Y0182200D02*
D03*
Y0181200D02*
D03*
X0228700Y0143400D02*
D03*
X0231800Y0147900D02*
D03*
X0228400Y0147500D02*
D03*
X0265700Y0250600D02*
D03*
X0268500Y0251200D02*
D03*
X0264700D02*
D03*
X0269500Y0248400D02*
D03*
X0296400Y0228400D02*
D03*
X0295400D02*
D03*
X0297100Y0230600D02*
D03*
X0301300D02*
D03*
X0299400Y0234200D02*
D03*
X0295400D02*
D03*
X0312100Y0250600D02*
D03*
X0257300Y0238400D02*
D03*
X0254700Y0158100D02*
D03*
X0255100Y0242600D02*
D03*
X0254500Y0244900D02*
D03*
X0244000Y0164500D02*
D03*
X0268500Y0165500D02*
D03*
X0279500Y0155500D02*
D03*
Y0160000D02*
D03*
X0278000Y0162500D02*
D03*
X0270000Y0170000D02*
D03*
X0342000Y0243900D02*
D03*
Y0245400D02*
D03*
X0345600Y0244675D02*
D03*
X0347200Y0214600D02*
D03*
X0347100Y0227000D02*
D03*
X0345500Y0237900D02*
D03*
X0344000Y0249000D02*
D03*
X0350000Y0261000D02*
D03*
X0369000Y0267000D02*
D03*
X0363000D02*
D03*
X0357000D02*
D03*
X0351000D02*
D03*
X0362000Y0219000D02*
D03*
Y0261000D02*
D03*
Y0247000D02*
D03*
Y0233000D02*
D03*
X0363000Y0205000D02*
D03*
X0370000D02*
D03*
X0347000Y0201000D02*
D03*
X0358000D02*
D03*
X0355300Y0177600D02*
D03*
X0356600Y0165700D02*
D03*
X0358400Y0168300D02*
D03*
X0357900Y0172100D02*
D03*
X0356500D02*
D03*
X0354500Y0176100D02*
D03*
X0358300Y0154800D02*
D03*
X0355100Y0158800D02*
D03*
Y0165700D02*
D03*
Y0172100D02*
D03*
X0353800Y0174700D02*
D03*
X0358300Y0182600D02*
D03*
X0354700Y0193700D02*
D03*
X0357700Y0185000D02*
D03*
X0356700Y0188700D02*
D03*
X0353800Y0191600D02*
D03*
X0358400Y0196000D02*
D03*
X0359000Y0254000D02*
D03*
X0354600Y0196000D02*
D03*
X0360000Y0190000D02*
D03*
X0366000D02*
D03*
X0372000D02*
D03*
X0343000Y0176000D02*
D03*
X0352000Y0185000D02*
D03*
X0356000Y0184000D02*
D03*
X0362000Y0176000D02*
D03*
X0374000Y0175000D02*
D03*
X0369000Y0164000D02*
D03*
X0364000Y0160000D02*
D03*
X0358000D02*
D03*
X0373000D02*
D03*
X0366000Y0154000D02*
D03*
X0373000D02*
D03*
X0343000Y0166000D02*
D03*
X0353000Y0168000D02*
D03*
X0348000Y0163000D02*
D03*
X0353000D02*
D03*
Y0158000D02*
D03*
X0348000D02*
D03*
Y0153000D02*
D03*
X0353000D02*
D03*
X0364000Y0148000D02*
D03*
X0358000D02*
D03*
X0343000D02*
D03*
X0348000D02*
D03*
X0353000D02*
D03*
X0370000D02*
D03*
Y0143000D02*
D03*
X0353000D02*
D03*
X0348000D02*
D03*
X0343000D02*
D03*
X0339300Y0221500D02*
D03*
Y0220500D02*
D03*
X0332500Y0167300D02*
D03*
X0333500D02*
D03*
X0335000Y0188800D02*
D03*
X0336000D02*
D03*
X0322700Y0202000D02*
D03*
Y0203000D02*
D03*
X0321000Y0219800D02*
D03*
X0322000D02*
D03*
X0294800Y0198800D02*
D03*
X0290600Y0198800D02*
D03*
X0298500Y0211700D02*
D03*
X0299500D02*
D03*
X0282500Y0211200D02*
D03*
X0283500D02*
D03*
X0283700Y0241000D02*
D03*
Y0240000D02*
D03*
X0280700Y0186700D02*
D03*
X0303800Y0172600D02*
D03*
X0268200Y0153900D02*
D03*
X0274500D02*
D03*
X0277000D02*
D03*
X0272200D02*
D03*
X0265100Y0155700D02*
D03*
X0269500Y0152900D02*
D03*
Y0153900D02*
D03*
X0261200Y0159250D02*
D03*
X0266300Y0161900D02*
D03*
X0267500D02*
D03*
X0272900Y0162600D02*
D03*
X0272000Y0163300D02*
D03*
X0270100Y0161900D02*
D03*
X0271300Y0158150D02*
D03*
Y0152000D02*
D03*
X0270000D02*
D03*
X0276900Y0202700D02*
D03*
X0276100Y0204000D02*
D03*
Y0205500D02*
D03*
X0276500Y0143500D02*
D03*
X0278000D02*
D03*
X0275000D02*
D03*
X0271500D02*
D03*
X0270000D02*
D03*
X0268500D02*
D03*
X0338400Y0186000D02*
D03*
X0278500Y0197700D02*
D03*
X0340900Y0183200D02*
D03*
X0258300Y0149000D02*
D03*
X0277800Y0211300D02*
D03*
X0289800Y0202300D02*
D03*
X0294900Y0209700D02*
D03*
X0280400Y0244500D02*
D03*
X0279500Y0248700D02*
D03*
Y0243300D02*
D03*
X0272300Y0244200D02*
D03*
X0271000Y0245500D02*
D03*
X0257200Y0241900D02*
D03*
X0258200D02*
D03*
X0258500Y0217500D02*
D03*
Y0216000D02*
D03*
X0253000Y0214900D02*
D03*
X0255000D02*
D03*
X0254000Y0215900D02*
D03*
Y0214900D02*
D03*
X0253000Y0215900D02*
D03*
X0316000Y0250000D02*
D03*
X0308600Y0251500D02*
D03*
Y0250500D02*
D03*
X0298000Y0256800D02*
D03*
Y0254500D02*
D03*
X0300000Y0251700D02*
D03*
X0299000D02*
D03*
X0323600Y0251100D02*
D03*
Y0252900D02*
D03*
X0287600Y0259000D02*
D03*
X0288500Y0258000D02*
D03*
X0324750Y0252000D02*
D03*
X0341500Y0184000D02*
D03*
Y0186000D02*
D03*
X0354500Y0182000D02*
D03*
X0348500Y0251500D02*
D03*
X0347600Y0252400D02*
D03*
X0348500D02*
D03*
X0347600Y0251500D02*
D03*
X0350200Y0256000D02*
D03*
Y0257000D02*
D03*
Y0258000D02*
D03*
X0351200Y0256000D02*
D03*
Y0257000D02*
D03*
Y0258000D02*
D03*
X0357900Y0256500D02*
D03*
Y0257500D02*
D03*
X0354600Y0264800D02*
D03*
X0351200Y0250700D02*
D03*
X0353000D02*
D03*
X0352100D02*
D03*
X0349300Y0253300D02*
D03*
X0355400Y0252000D02*
D03*
Y0253500D02*
D03*
Y0260500D02*
D03*
X0351400Y0263000D02*
D03*
X0350500Y0263900D02*
D03*
X0351400D02*
D03*
X0350500Y0263000D02*
D03*
X0239700Y0200000D02*
D03*
X0347800Y0191200D02*
D03*
X0308700Y0180800D02*
D03*
X0307200D02*
D03*
X0345800Y0188000D02*
D03*
X0242000Y0193300D02*
D03*
X0266300Y0144100D02*
D03*
X0272600D02*
D03*
X0248400Y0198200D02*
D03*
X0250600Y0189600D02*
D03*
Y0202100D02*
D03*
X0278100Y0201700D02*
D03*
X0276800Y0208200D02*
D03*
X0279800Y0207900D02*
D03*
X0276100Y0207000D02*
D03*
X0258700Y0197000D02*
D03*
X0256300Y0203300D02*
D03*
Y0202000D02*
D03*
X0258700D02*
D03*
X0259700Y0203300D02*
D03*
X0258000Y0199500D02*
D03*
X0248100Y0202900D02*
D03*
X0249000Y0202000D02*
D03*
X0252300Y0202600D02*
D03*
X0249900Y0199500D02*
D03*
Y0197300D02*
D03*
X0248400D02*
D03*
X0249900Y0196400D02*
D03*
X0248400D02*
D03*
X0252300Y0203500D02*
D03*
X0251100Y0197300D02*
D03*
X0252900D02*
D03*
X0252000D02*
D03*
X0251100Y0196400D02*
D03*
X0252000D02*
D03*
X0252900D02*
D03*
X0350700Y0170000D02*
D03*
X0340300Y0179500D02*
D03*
Y0184800D02*
D03*
X0264700Y0257100D02*
D03*
X0289000Y0253300D02*
D03*
X0288000Y0255500D02*
D03*
X0268500Y0257100D02*
D03*
X0273900Y0251800D02*
D03*
X0275400D02*
D03*
X0276700Y0252700D02*
D03*
X0284300Y0250000D02*
D03*
X0284100Y0252600D02*
D03*
X0267500Y0257100D02*
D03*
X0263700Y0257100D02*
D03*
X0237000Y0254200D02*
D03*
X0256600D02*
D03*
X0238000D02*
D03*
X0255600D02*
D03*
X0288000Y0256500D02*
D03*
X0242000Y0196700D02*
D03*
X0234500Y0193300D02*
D03*
X0239200Y0194000D02*
D03*
X0252300Y0191000D02*
D03*
X0248100Y0191200D02*
D03*
X0248400Y0183900D02*
D03*
X0249900D02*
D03*
X0248400Y0184800D02*
D03*
X0249900D02*
D03*
X0248400Y0186000D02*
D03*
X0249800Y0187000D02*
D03*
X0252300Y0190100D02*
D03*
X0249000Y0189500D02*
D03*
X0248100Y0190300D02*
D03*
X0252900Y0183900D02*
D03*
X0252000D02*
D03*
X0251100D02*
D03*
X0252000Y0184800D02*
D03*
X0252900D02*
D03*
X0251100D02*
D03*
X0255800Y0190500D02*
D03*
X0245800Y0190400D02*
D03*
X0246800D02*
D03*
X0241500Y0200700D02*
D03*
X0242400D02*
D03*
X0241500Y0199800D02*
D03*
X0242400D02*
D03*
X0243400Y0203600D02*
D03*
X0239700Y0202700D02*
D03*
X0234700D02*
D03*
X0238000D02*
D03*
X0226700Y0214400D02*
D03*
Y0213200D02*
D03*
X0223800Y0214300D02*
D03*
Y0217900D02*
D03*
X0227900Y0214400D02*
D03*
Y0213200D02*
D03*
X0228100Y0177800D02*
D03*
Y0179100D02*
D03*
X0226800Y0185100D02*
D03*
X0223800Y0182900D02*
D03*
Y0179300D02*
D03*
X0226800Y0177800D02*
D03*
Y0179100D02*
D03*
X0234300Y0184600D02*
D03*
X0234600Y0186200D02*
D03*
X0230900Y0185800D02*
D03*
X0231800D02*
D03*
X0230900Y0186700D02*
D03*
X0231800D02*
D03*
X0285800Y0190800D02*
D03*
Y0189800D02*
D03*
X0289400Y0189600D02*
D03*
Y0191300D02*
D03*
X0290600D02*
D03*
X0342900Y0237000D02*
D03*
X0344500D02*
D03*
X0307100Y0206400D02*
D03*
X0305869Y0206367D02*
D03*
X0304600Y0206400D02*
D03*
X0308400D02*
D03*
X0302500Y0207400D02*
D03*
X0302000Y0211000D02*
D03*
Y0212000D02*
D03*
X0294500Y0239700D02*
D03*
X0295500D02*
D03*
X0292000Y0238500D02*
D03*
X0303000Y0241200D02*
D03*
X0302000D02*
D03*
X0307100Y0242300D02*
D03*
X0304900Y0239800D02*
D03*
X0291700Y0209700D02*
D03*
X0301500Y0236500D02*
D03*
Y0237500D02*
D03*
X0292000Y0236500D02*
D03*
Y0237500D02*
D03*
X0309600Y0238100D02*
D03*
Y0237100D02*
D03*
X0300100Y0237800D02*
D03*
Y0236800D02*
D03*
X0304500Y0233700D02*
D03*
X0299400Y0228400D02*
D03*
X0300400D02*
D03*
X0303600Y0230200D02*
D03*
X0304600D02*
D03*
X0308700Y0228800D02*
D03*
X0309700D02*
D03*
X0306600Y0234000D02*
D03*
X0333250Y0252000D02*
D03*
X0320000Y0245400D02*
D03*
X0316800Y0245300D02*
D03*
X0316200Y0243000D02*
D03*
Y0244000D02*
D03*
X0299700Y0259500D02*
D03*
X0340900Y0198700D02*
D03*
X0342100D02*
D03*
X0340300Y0199500D02*
D03*
X0341500D02*
D03*
X0343700Y0206900D02*
D03*
X0323300Y0216400D02*
D03*
Y0213900D02*
D03*
Y0212600D02*
D03*
Y0215100D02*
D03*
X0343900Y0205300D02*
D03*
X0343400Y0193000D02*
D03*
X0342300Y0225600D02*
D03*
X0341600Y0226400D02*
D03*
Y0229100D02*
D03*
X0342300Y0228200D02*
D03*
X0344800Y0207500D02*
D03*
Y0220000D02*
D03*
Y0232500D02*
D03*
X0348500Y0205200D02*
D03*
Y0217700D02*
D03*
Y0230200D02*
D03*
Y0242700D02*
D03*
Y0232800D02*
D03*
Y0220300D02*
D03*
Y0207800D02*
D03*
X0359100Y0208100D02*
D03*
Y0211300D02*
D03*
Y0220600D02*
D03*
Y0225500D02*
D03*
Y0233100D02*
D03*
Y0239200D02*
D03*
X0358900Y0249700D02*
D03*
Y0245600D02*
D03*
X0354600Y0202500D02*
D03*
X0355600Y0204300D02*
D03*
X0351600Y0204500D02*
D03*
X0351500Y0208500D02*
D03*
X0350400Y0211700D02*
D03*
X0349400D02*
D03*
X0357400Y0208100D02*
D03*
X0356400Y0210800D02*
D03*
X0355100Y0209900D02*
D03*
X0357400Y0204300D02*
D03*
X0344400Y0203800D02*
D03*
Y0202800D02*
D03*
Y0201800D02*
D03*
X0348500Y0203900D02*
D03*
X0348500Y0209600D02*
D03*
X0345600Y0209800D02*
D03*
Y0205900D02*
D03*
Y0211100D02*
D03*
X0344800Y0206500D02*
D03*
X0354600Y0215000D02*
D03*
X0355600Y0216800D02*
D03*
X0351600Y0217000D02*
D03*
X0351500Y0221000D02*
D03*
X0350400Y0224200D02*
D03*
X0349400D02*
D03*
X0357400Y0220600D02*
D03*
X0356400Y0223300D02*
D03*
X0355100Y0222400D02*
D03*
X0357400Y0216800D02*
D03*
X0344400Y0216300D02*
D03*
Y0215300D02*
D03*
Y0214300D02*
D03*
X0348500Y0216400D02*
D03*
X0348500Y0222100D02*
D03*
X0345600Y0222300D02*
D03*
Y0223600D02*
D03*
X0344800Y0219000D02*
D03*
X0354600Y0227500D02*
D03*
X0355600Y0229300D02*
D03*
X0351600Y0229500D02*
D03*
X0351500Y0233500D02*
D03*
X0350400Y0236700D02*
D03*
X0349400D02*
D03*
X0357400Y0233100D02*
D03*
X0356400Y0235800D02*
D03*
X0355100Y0234900D02*
D03*
X0357400Y0229300D02*
D03*
X0344400Y0228800D02*
D03*
Y0227800D02*
D03*
Y0226800D02*
D03*
X0348500Y0228900D02*
D03*
X0348500Y0234600D02*
D03*
X0345600Y0234800D02*
D03*
Y0230900D02*
D03*
X0344800Y0231500D02*
D03*
X0345600Y0247300D02*
D03*
X0348500Y0247100D02*
D03*
X0348500Y0241400D02*
D03*
X0344400Y0239300D02*
D03*
Y0240300D02*
D03*
Y0241300D02*
D03*
X0357400Y0241800D02*
D03*
X0355100Y0247400D02*
D03*
X0356400Y0248300D02*
D03*
X0357400Y0245600D02*
D03*
X0349400Y0249200D02*
D03*
X0350400D02*
D03*
X0351500Y0246000D02*
D03*
X0351600Y0242000D02*
D03*
X0355600Y0241800D02*
D03*
X0354600Y0240000D02*
D03*
X0377000Y0159700D02*
D03*
X0378200D02*
D03*
X0377000Y0173700D02*
D03*
X0378200D02*
D03*
X0377000Y0187700D02*
D03*
X0378200D02*
D03*
X0378200Y0197700D02*
D03*
X0377000D02*
D03*
X0377000Y0219700D02*
D03*
X0378200D02*
D03*
X0377000Y0233700D02*
D03*
X0378200D02*
D03*
X0377000Y0247700D02*
D03*
X0378200D02*
D03*
X0363500Y0215200D02*
D03*
Y0212800D02*
D03*
X0365500Y0218000D02*
D03*
X0370500D02*
D03*
Y0210000D02*
D03*
X0365500D02*
D03*
X0363500Y0229200D02*
D03*
Y0226800D02*
D03*
X0365500Y0232000D02*
D03*
X0370500D02*
D03*
Y0224000D02*
D03*
X0365500D02*
D03*
X0363500Y0243200D02*
D03*
Y0240800D02*
D03*
X0365500Y0246000D02*
D03*
X0370500D02*
D03*
Y0238000D02*
D03*
X0365500D02*
D03*
Y0252000D02*
D03*
X0370500D02*
D03*
Y0260000D02*
D03*
X0365500D02*
D03*
X0378200Y0261700D02*
D03*
X0377000D02*
D03*
X0363500Y0254800D02*
D03*
Y0257200D02*
D03*
X0301400Y0192000D02*
D03*
Y0193000D02*
D03*
X0296700Y0202400D02*
D03*
X0344500Y0193600D02*
D03*
Y0176600D02*
D03*
X0347100Y0192500D02*
D03*
X0350500D02*
D03*
X0352300Y0190000D02*
D03*
Y0173000D02*
D03*
X0348200D02*
D03*
X0350500Y0175500D02*
D03*
X0347100D02*
D03*
X0344500Y0177600D02*
D03*
Y0194600D02*
D03*
X0354500Y0199000D02*
D03*
X0350135Y0180495D02*
D03*
X0351800Y0181900D02*
D03*
X0346800Y0181300D02*
D03*
X0344500Y0181300D02*
D03*
Y0198300D02*
D03*
X0346500D02*
D03*
X0351800Y0198900D02*
D03*
X0350135Y0197495D02*
D03*
X0350500Y0189400D02*
D03*
X0349700Y0190000D02*
D03*
X0350500Y0172400D02*
D03*
X0349700Y0173000D02*
D03*
X0347000Y0189400D02*
D03*
X0350000Y0167700D02*
D03*
X0346200Y0173000D02*
D03*
X0347000Y0172400D02*
D03*
X0363000Y0194800D02*
D03*
Y0197200D02*
D03*
Y0183200D02*
D03*
Y0180800D02*
D03*
Y0169200D02*
D03*
Y0166800D02*
D03*
Y0152800D02*
D03*
Y0155200D02*
D03*
X0305500Y0179400D02*
D03*
X0304500Y0180000D02*
D03*
X0303600Y0180600D02*
D03*
X0299900Y0181300D02*
D03*
X0298300D02*
D03*
X0340000Y0157000D02*
D03*
Y0151200D02*
D03*
X0341500Y0161500D02*
D03*
X0330000Y0157000D02*
D03*
Y0151200D02*
D03*
X0331500Y0161500D02*
D03*
X0321500D02*
D03*
X0320000Y0151200D02*
D03*
Y0157000D02*
D03*
X0314000Y0151300D02*
D03*
X0311000D02*
D03*
X0308000D02*
D03*
X0305000D02*
D03*
X0262586Y0147514D02*
D03*
X0263400Y0148100D02*
D03*
X0276500D02*
D03*
X0275200D02*
D03*
X0273900D02*
D03*
X0272600D02*
D03*
X0261500Y0152200D02*
D03*
X0266300Y0153400D02*
D03*
X0267500Y0152000D02*
D03*
X0266300D02*
D03*
X0282700Y0162000D02*
D03*
X0279600D02*
D03*
X0294800Y0201000D02*
D03*
Y0199900D02*
D03*
X0295700Y0192500D02*
D03*
X0292800Y0191900D02*
D03*
X0291800Y0191300D02*
D03*
X0286000Y0198000D02*
D03*
X0285600Y0198900D02*
D03*
X0286100Y0194600D02*
D03*
X0293000Y0202400D02*
D03*
X0295700D02*
D03*
X0294700D02*
D03*
X0295200Y0207900D02*
D03*
Y0205500D02*
D03*
X0294200Y0207900D02*
D03*
Y0205500D02*
D03*
X0291800Y0207900D02*
D03*
Y0205500D02*
D03*
X0290800D02*
D03*
Y0207900D02*
D03*
X0285600Y0201000D02*
D03*
Y0199900D02*
D03*
X0296600Y0207900D02*
D03*
Y0205500D02*
D03*
X0301200Y0200600D02*
D03*
X0303900Y0193000D02*
D03*
X0279900Y0198500D02*
D03*
X0281000Y0198400D02*
D03*
X0280100Y0200300D02*
D03*
X0282500D02*
D03*
X0303900Y0192000D02*
D03*
Y0194600D02*
D03*
X0301500D02*
D03*
X0298400Y0196600D02*
D03*
Y0198200D02*
D03*
X0298300Y0200800D02*
D03*
X0297400Y0200200D02*
D03*
X0298300Y0199600D02*
D03*
X0301500Y0196600D02*
D03*
X0303900D02*
D03*
X0301500Y0199400D02*
D03*
X0303900D02*
D03*
X0299000Y0186500D02*
D03*
Y0184100D02*
D03*
X0295800Y0189600D02*
D03*
X0294700D02*
D03*
X0298000Y0184100D02*
D03*
Y0186500D02*
D03*
X0295600Y0184100D02*
D03*
Y0186500D02*
D03*
X0294000Y0184100D02*
D03*
Y0186500D02*
D03*
X0288800Y0184100D02*
D03*
Y0186500D02*
D03*
X0286800Y0184100D02*
D03*
Y0186500D02*
D03*
X0285600Y0197100D02*
D03*
X0280100Y0197500D02*
D03*
X0282500D02*
D03*
X0285600Y0195400D02*
D03*
X0282500Y0201700D02*
D03*
X0280100D02*
D03*
X0282500Y0195100D02*
D03*
X0280100D02*
D03*
X0285600Y0193000D02*
D03*
X0280100Y0193900D02*
D03*
X0282500D02*
D03*
X0280100Y0192900D02*
D03*
X0282500D02*
D03*
Y0189700D02*
D03*
X0280100D02*
D03*
Y0190700D02*
D03*
X0282500D02*
D03*
X0290600Y0193200D02*
D03*
X0289200D02*
D03*
X0293400D02*
D03*
X0294800D02*
D03*
X0289200Y0194600D02*
D03*
X0294800D02*
D03*
X0289200Y0197400D02*
D03*
X0294800D02*
D03*
X0289200Y0198800D02*
D03*
X0293400D02*
D03*
X0292000Y0197400D02*
D03*
Y0198800D02*
D03*
Y0194600D02*
D03*
Y0193200D02*
D03*
X0289200Y0196000D02*
D03*
X0290600D02*
D03*
X0294800D02*
D03*
X0292000D02*
D03*
X0293400D02*
D03*
X0234500Y0144500D02*
D03*
X0235600Y0143200D02*
D03*
X0235700Y0144800D02*
D03*
X0232050Y0144550D02*
D03*
X0233900Y0158400D02*
D03*
X0232100Y0167300D02*
D03*
X0233600D02*
D03*
X0238500Y0168300D02*
D03*
X0237400D02*
D03*
X0238700Y0165300D02*
D03*
X0235300Y0162200D02*
D03*
X0238400Y0164100D02*
D03*
X0237400Y0163100D02*
D03*
X0235300D02*
D03*
X0236200D02*
D03*
Y0162200D02*
D03*
X0231200Y0163000D02*
D03*
X0232600D02*
D03*
X0232300Y0156800D02*
D03*
X0230600Y0151900D02*
D03*
X0230700Y0160500D02*
D03*
Y0159200D02*
D03*
X0234000Y0161800D02*
D03*
Y0163000D02*
D03*
X0235700Y0160900D02*
D03*
X0231200Y0161800D02*
D03*
Y0158000D02*
D03*
X0235700Y0159200D02*
D03*
X0257400Y0150500D02*
D03*
X0257190Y0147900D02*
D03*
X0257200Y0154400D02*
D03*
X0260100Y0155200D02*
D03*
X0247800Y0150300D02*
D03*
X0246800Y0145200D02*
D03*
X0244600D02*
D03*
X0255100Y0143600D02*
D03*
X0256700D02*
D03*
X0251700Y0159300D02*
D03*
X0248100Y0151600D02*
D03*
X0247100D02*
D03*
X0251700Y0152800D02*
D03*
Y0153900D02*
D03*
Y0151700D02*
D03*
Y0150600D02*
D03*
X0249300Y0146500D02*
D03*
Y0147500D02*
D03*
X0246800Y0144000D02*
D03*
X0244600Y0142800D02*
D03*
X0245700Y0143400D02*
D03*
X0245700Y0145200D02*
D03*
X0236000Y0146900D02*
D03*
X0232900Y0149600D02*
D03*
X0226700Y0164700D02*
D03*
X0230900Y0166100D02*
D03*
X0227800Y0166500D02*
D03*
X0246600Y0153100D02*
D03*
X0244200Y0153100D02*
D03*
X0245425Y0157250D02*
D03*
X0246550Y0159100D02*
D03*
X0241500Y0160100D02*
D03*
X0246550Y0158000D02*
D03*
X0239500Y0160600D02*
D03*
X0237600Y0160100D02*
D03*
X0239500Y0158200D02*
D03*
X0232400Y0155400D02*
D03*
X0234800Y0156600D02*
D03*
X0232400Y0153550D02*
D03*
Y0152100D02*
D03*
Y0151100D02*
D03*
X0234800Y0152100D02*
D03*
X0235300Y0149600D02*
D03*
X0237600Y0146900D02*
D03*
X0241400Y0146900D02*
D03*
X0239500Y0146400D02*
D03*
Y0148800D02*
D03*
X0235200Y0148600D02*
D03*
X0246100Y0155300D02*
D03*
X0246100Y0151600D02*
D03*
X0230600Y0152875D02*
D03*
X0231400Y0155400D02*
D03*
X0232900Y0148200D02*
D03*
X0230800Y0149600D02*
D03*
X0229500D02*
D03*
X0228200D02*
D03*
X0227000D02*
D03*
X0231300Y0151200D02*
D03*
X0230600Y0154500D02*
D03*
Y0156000D02*
D03*
X0224000Y0149600D02*
D03*
X0235100Y0147600D02*
D03*
X0226500Y0154100D02*
D03*
Y0153000D02*
D03*
X0223800Y0154200D02*
D03*
Y0157800D02*
D03*
X0226700Y0160000D02*
D03*
X0227600Y0154100D02*
D03*
X0248100Y0159900D02*
D03*
X0242900Y0158000D02*
D03*
X0230900Y0167500D02*
D03*
X0254800Y0147900D02*
D03*
X0255100Y0150400D02*
D03*
X0253700Y0149000D02*
D03*
Y0155500D02*
D03*
X0255400Y0156300D02*
D03*
X0256600D02*
D03*
X0258300Y0155500D02*
D03*
X0247400Y0166100D02*
D03*
Y0164900D02*
D03*
Y0167100D02*
D03*
Y0163900D02*
D03*
X0252700Y0169300D02*
D03*
X0248700Y0153100D02*
D03*
X0256500Y0160075D02*
D03*
X0255500D02*
D03*
X0258400Y0154400D02*
D03*
X0260800Y0148400D02*
D03*
X0258300Y0144600D02*
D03*
X0261800Y0146900D02*
D03*
X0261400Y0145700D02*
D03*
X0261000Y0144700D02*
D03*
X0258500Y0150500D02*
D03*
X0242400Y0146900D02*
D03*
X0243900Y0147800D02*
D03*
X0235000Y0142000D02*
D03*
X0240000D02*
D03*
X0245000D02*
D03*
X0250000D02*
D03*
X0255000D02*
D03*
X0260500D02*
D03*
X0267000D02*
D03*
X0273000D02*
D03*
X0262000Y0170000D02*
D03*
X0261500Y0165500D02*
D03*
X0249000Y0170000D02*
D03*
X0244000D02*
D03*
X0239000D02*
D03*
X0234000D02*
D03*
X0227500Y0170000D02*
D03*
X0222000D02*
D03*
Y0163500D02*
D03*
Y0149000D02*
D03*
X0256000Y0165500D02*
D03*
X0251500Y0161000D02*
D03*
X0225300Y0166600D02*
D03*
X0229900Y0163300D02*
D03*
X0227800D02*
D03*
X0228800D02*
D03*
Y0162400D02*
D03*
X0229900D02*
D03*
X0227100Y0168300D02*
D03*
X0223700Y0164400D02*
D03*
X0224600D02*
D03*
X0233000Y0168400D02*
D03*
X0233900D02*
D03*
X0229500Y0169100D02*
D03*
X0225500Y0164400D02*
D03*
X0240200Y0168300D02*
D03*
M02*
