G04*
G04 #@! TF.GenerationSoftware,Altium Limited,Altium Designer,21.9.2 (33)*
G04*
G04 Layer_Physical_Order=2*
G04 Layer_Color=32768*
%FSAX43Y43*%
%MOMM*%
G71*
G04*
G04 #@! TF.SameCoordinates,8A3C4949-5F79-4682-B659-0E7BAC0626F8*
G04*
G04*
G04 #@! TF.FilePolarity,Negative*
G04*
G01*
G75*
%ADD11C,0.150*%
%ADD182C,0.750*%
%ADD216C,2.000*%
%ADD217R,4.000X3.000*%
%ADD218R,2.000X3.000*%
%ADD219C,1.550*%
G04:AMPARAMS|DCode=220|XSize=2mm|YSize=2mm|CornerRadius=0mm|HoleSize=0mm|Usage=FLASHONLY|Rotation=0.000|XOffset=0mm|YOffset=0mm|HoleType=Round|Shape=Relief|Width=0.2mm|Gap=0.25mm|Entries=4|*
%AMTHD220*
7,0,0,2.000,1.500,0.200,45*
%
%ADD220THD220*%
%ADD221C,1.950*%
G04:AMPARAMS|DCode=222|XSize=2.4mm|YSize=2.4mm|CornerRadius=0mm|HoleSize=0mm|Usage=FLASHONLY|Rotation=0.000|XOffset=0mm|YOffset=0mm|HoleType=Round|Shape=Relief|Width=0.2mm|Gap=0.25mm|Entries=4|*
%AMTHD222*
7,0,0,2.400,1.900,0.200,45*
%
%ADD222THD222*%
%ADD223C,2.950*%
%ADD224C,1.650*%
G04:AMPARAMS|DCode=225|XSize=2.6mm|YSize=2.6mm|CornerRadius=0mm|HoleSize=0mm|Usage=FLASHONLY|Rotation=0.000|XOffset=0mm|YOffset=0mm|HoleType=Round|Shape=Relief|Width=0.2mm|Gap=0.25mm|Entries=4|*
%AMTHD225*
7,0,0,2.600,2.100,0.200,45*
%
%ADD225THD225*%
%ADD226C,1.350*%
%ADD227C,2.250*%
G04:AMPARAMS|DCode=228|XSize=1.8mm|YSize=1.8mm|CornerRadius=0mm|HoleSize=0mm|Usage=FLASHONLY|Rotation=0.000|XOffset=0mm|YOffset=0mm|HoleType=Round|Shape=Relief|Width=0.2mm|Gap=0.25mm|Entries=4|*
%AMTHD228*
7,0,0,1.800,1.300,0.200,45*
%
%ADD228THD228*%
%AMTHOVALD229*
21,1,0.700,1.500,0,0,360.0*
1,1,1.500,-0.350,0.000*
1,1,1.500,0.350,0.000*
21,0,0.700,1.000,0,0,360.0*
1,0,1.000,-0.350,0.000*
1,0,1.000,0.350,0.000*
4,0,4,-0.279,-0.071,-0.810,-0.601,-0.951,-0.460,-0.421,0.071,-0.279,-0.071,0.0*
4,0,4,0.421,-0.071,0.951,0.460,0.810,0.601,0.279,0.071,0.421,-0.071,0.0*
4,0,4,-0.421,-0.071,-0.951,0.460,-0.810,0.601,-0.279,0.071,-0.421,-0.071,0.0*
4,0,4,0.279,-0.071,0.810,-0.601,0.951,-0.460,0.421,0.071,0.279,-0.071,0.0*
%
%ADD229THOVALD229*%

G04:AMPARAMS|DCode=230|XSize=3.65mm|YSize=3.65mm|CornerRadius=0mm|HoleSize=0mm|Usage=FLASHONLY|Rotation=0.000|XOffset=0mm|YOffset=0mm|HoleType=Round|Shape=Relief|Width=0.2mm|Gap=0.25mm|Entries=4|*
%AMTHD230*
7,0,0,3.650,3.150,0.200,45*
%
%ADD230THD230*%
%ADD231C,3.750*%
G36*
X0376665Y0269342D02*
X0377095Y0269226D01*
X0377507Y0269056D01*
X0377893Y0268833D01*
X0378247Y0268562D01*
X0378562Y0268247D01*
X0378833Y0267893D01*
X0379056Y0267507D01*
X0379226Y0267095D01*
X0379342Y0266665D01*
X0379400Y0266223D01*
Y0266000D01*
Y0265777D01*
X0379342Y0265335D01*
X0379226Y0264905D01*
X0379056Y0264493D01*
X0378833Y0264107D01*
X0378562Y0263753D01*
X0378247Y0263438D01*
X0377893Y0263167D01*
X0377507Y0262944D01*
X0377095Y0262774D01*
X0376665Y0262658D01*
X0376223Y0262600D01*
X0375777D01*
X0375335Y0262658D01*
X0374905Y0262774D01*
X0374493Y0262944D01*
X0374107Y0263167D01*
X0373753Y0263438D01*
X0373438Y0263753D01*
X0373167Y0264107D01*
X0372944Y0264493D01*
X0372774Y0264905D01*
X0372658Y0265335D01*
X0372600Y0265777D01*
Y0266000D01*
Y0266223D01*
X0372658Y0266665D01*
X0372774Y0267095D01*
X0372944Y0267507D01*
X0373167Y0267893D01*
X0373438Y0268247D01*
X0373753Y0268562D01*
X0374107Y0268833D01*
X0374493Y0269056D01*
X0374905Y0269226D01*
X0375335Y0269342D01*
X0375777Y0269400D01*
X0376223D01*
X0376665Y0269342D01*
D02*
G37*
G36*
X0300665Y0269342D02*
X0301095Y0269226D01*
X0301507Y0269056D01*
X0301893Y0268833D01*
X0302247Y0268562D01*
X0302562Y0268247D01*
X0302833Y0267893D01*
X0303056Y0267507D01*
X0303226Y0267095D01*
X0303342Y0266665D01*
X0303400Y0266223D01*
Y0266000D01*
Y0265777D01*
X0303342Y0265335D01*
X0303226Y0264905D01*
X0303056Y0264493D01*
X0302833Y0264107D01*
X0302562Y0263753D01*
X0302247Y0263438D01*
X0301893Y0263167D01*
X0301507Y0262944D01*
X0301095Y0262774D01*
X0300665Y0262658D01*
X0300223Y0262600D01*
X0299777D01*
X0299335Y0262658D01*
X0298905Y0262774D01*
X0298493Y0262944D01*
X0298107Y0263167D01*
X0297753Y0263438D01*
X0297438Y0263753D01*
X0297167Y0264107D01*
X0296944Y0264493D01*
X0296774Y0264905D01*
X0296658Y0265335D01*
X0296600Y0265777D01*
Y0266000D01*
Y0266223D01*
X0296658Y0266665D01*
X0296774Y0267095D01*
X0296944Y0267507D01*
X0297167Y0267893D01*
X0297438Y0268247D01*
X0297753Y0268562D01*
X0298107Y0268833D01*
X0298493Y0269056D01*
X0298905Y0269226D01*
X0299335Y0269342D01*
X0299777Y0269400D01*
X0300223D01*
X0300665Y0269342D01*
D02*
G37*
G36*
X0224665D02*
X0225095Y0269226D01*
X0225507Y0269056D01*
X0225893Y0268833D01*
X0226247Y0268562D01*
X0226562Y0268247D01*
X0226833Y0267893D01*
X0227056Y0267507D01*
X0227226Y0267095D01*
X0227342Y0266665D01*
X0227400Y0266223D01*
Y0266000D01*
Y0265777D01*
X0227342Y0265335D01*
X0227226Y0264905D01*
X0227056Y0264493D01*
X0226833Y0264107D01*
X0226562Y0263753D01*
X0226247Y0263438D01*
X0225893Y0263167D01*
X0225507Y0262944D01*
X0225095Y0262774D01*
X0224665Y0262658D01*
X0224223Y0262600D01*
X0223777D01*
X0223335Y0262658D01*
X0222905Y0262774D01*
X0222493Y0262944D01*
X0222107Y0263167D01*
X0221753Y0263438D01*
X0221438Y0263753D01*
X0221167Y0264107D01*
X0220944Y0264493D01*
X0220774Y0264905D01*
X0220658Y0265335D01*
X0220600Y0265777D01*
Y0266000D01*
Y0266223D01*
X0220658Y0266665D01*
X0220774Y0267095D01*
X0220944Y0267507D01*
X0221167Y0267893D01*
X0221438Y0268247D01*
X0221753Y0268562D01*
X0222107Y0268833D01*
X0222493Y0269056D01*
X0222905Y0269226D01*
X0223335Y0269342D01*
X0223777Y0269400D01*
X0224223D01*
X0224665Y0269342D01*
D02*
G37*
G36*
X0376665Y0208342D02*
X0377095Y0208226D01*
X0377507Y0208056D01*
X0377893Y0207833D01*
X0378247Y0207562D01*
X0378562Y0207247D01*
X0378833Y0206893D01*
X0379056Y0206507D01*
X0379226Y0206095D01*
X0379342Y0205665D01*
X0379400Y0205223D01*
Y0205000D01*
Y0204777D01*
X0379342Y0204335D01*
X0379226Y0203905D01*
X0379056Y0203493D01*
X0378833Y0203107D01*
X0378562Y0202753D01*
X0378247Y0202438D01*
X0377893Y0202167D01*
X0377507Y0201944D01*
X0377095Y0201774D01*
X0376665Y0201658D01*
X0376223Y0201600D01*
X0375777D01*
X0375335Y0201658D01*
X0374905Y0201774D01*
X0374493Y0201944D01*
X0374107Y0202167D01*
X0373753Y0202438D01*
X0373438Y0202753D01*
X0373167Y0203107D01*
X0372944Y0203493D01*
X0372774Y0203905D01*
X0372658Y0204335D01*
X0372600Y0204777D01*
Y0205000D01*
Y0205223D01*
X0372658Y0205665D01*
X0372774Y0206095D01*
X0372944Y0206507D01*
X0373167Y0206893D01*
X0373438Y0207247D01*
X0373753Y0207562D01*
X0374107Y0207833D01*
X0374493Y0208056D01*
X0374905Y0208226D01*
X0375335Y0208342D01*
X0375777Y0208400D01*
X0376223D01*
X0376665Y0208342D01*
D02*
G37*
G36*
X0224665D02*
X0225095Y0208226D01*
X0225507Y0208056D01*
X0225893Y0207833D01*
X0226247Y0207562D01*
X0226562Y0207247D01*
X0226833Y0206893D01*
X0227056Y0206507D01*
X0227226Y0206095D01*
X0227342Y0205665D01*
X0227400Y0205223D01*
Y0205000D01*
Y0204777D01*
X0227342Y0204335D01*
X0227226Y0203905D01*
X0227056Y0203493D01*
X0226833Y0203107D01*
X0226562Y0202753D01*
X0226247Y0202438D01*
X0225893Y0202167D01*
X0225507Y0201944D01*
X0225095Y0201774D01*
X0224665Y0201658D01*
X0224223Y0201600D01*
X0223777D01*
X0223335Y0201658D01*
X0222905Y0201774D01*
X0222493Y0201944D01*
X0222107Y0202167D01*
X0221753Y0202438D01*
X0221438Y0202753D01*
X0221167Y0203107D01*
X0220944Y0203493D01*
X0220774Y0203905D01*
X0220658Y0204335D01*
X0220600Y0204777D01*
Y0205000D01*
Y0205223D01*
X0220658Y0205665D01*
X0220774Y0206095D01*
X0220944Y0206507D01*
X0221167Y0206893D01*
X0221438Y0207247D01*
X0221753Y0207562D01*
X0222107Y0207833D01*
X0222493Y0208056D01*
X0222905Y0208226D01*
X0223335Y0208342D01*
X0223777Y0208400D01*
X0224223D01*
X0224665Y0208342D01*
D02*
G37*
G36*
X0376665Y0147342D02*
X0377095Y0147226D01*
X0377507Y0147056D01*
X0377893Y0146833D01*
X0378247Y0146562D01*
X0378562Y0146247D01*
X0378833Y0145893D01*
X0379056Y0145507D01*
X0379226Y0145095D01*
X0379342Y0144665D01*
X0379400Y0144223D01*
Y0144000D01*
Y0143777D01*
X0379342Y0143335D01*
X0379226Y0142905D01*
X0379056Y0142493D01*
X0378833Y0142107D01*
X0378562Y0141753D01*
X0378247Y0141438D01*
X0377893Y0141167D01*
X0377507Y0140944D01*
X0377095Y0140774D01*
X0376665Y0140658D01*
X0376223Y0140600D01*
X0375777D01*
X0375335Y0140658D01*
X0374905Y0140774D01*
X0374493Y0140944D01*
X0374107Y0141167D01*
X0373753Y0141438D01*
X0373438Y0141753D01*
X0373167Y0142107D01*
X0372944Y0142493D01*
X0372774Y0142905D01*
X0372658Y0143335D01*
X0372600Y0143777D01*
Y0144000D01*
Y0144223D01*
X0372658Y0144665D01*
X0372774Y0145095D01*
X0372944Y0145507D01*
X0373167Y0145893D01*
X0373438Y0146247D01*
X0373753Y0146562D01*
X0374107Y0146833D01*
X0374493Y0147056D01*
X0374905Y0147226D01*
X0375335Y0147342D01*
X0375777Y0147400D01*
X0376223D01*
X0376665Y0147342D01*
D02*
G37*
G36*
X0300665D02*
X0301095Y0147226D01*
X0301507Y0147056D01*
X0301893Y0146833D01*
X0302247Y0146562D01*
X0302562Y0146247D01*
X0302833Y0145893D01*
X0303056Y0145507D01*
X0303226Y0145095D01*
X0303342Y0144665D01*
X0303400Y0144223D01*
Y0144000D01*
Y0143777D01*
X0303342Y0143335D01*
X0303226Y0142905D01*
X0303056Y0142493D01*
X0302833Y0142107D01*
X0302562Y0141753D01*
X0302247Y0141438D01*
X0301893Y0141167D01*
X0301507Y0140944D01*
X0301095Y0140774D01*
X0300665Y0140658D01*
X0300223Y0140600D01*
X0299777D01*
X0299335Y0140658D01*
X0298905Y0140774D01*
X0298493Y0140944D01*
X0298107Y0141167D01*
X0297753Y0141438D01*
X0297438Y0141753D01*
X0297167Y0142107D01*
X0296944Y0142493D01*
X0296774Y0142905D01*
X0296658Y0143335D01*
X0296600Y0143777D01*
Y0144000D01*
Y0144223D01*
X0296658Y0144665D01*
X0296774Y0145095D01*
X0296944Y0145507D01*
X0297167Y0145893D01*
X0297438Y0146247D01*
X0297753Y0146562D01*
X0298107Y0146833D01*
X0298493Y0147056D01*
X0298905Y0147226D01*
X0299335Y0147342D01*
X0299777Y0147400D01*
X0300223D01*
X0300665Y0147342D01*
D02*
G37*
G36*
X0224665D02*
X0225095Y0147226D01*
X0225507Y0147056D01*
X0225893Y0146833D01*
X0226247Y0146562D01*
X0226562Y0146247D01*
X0226833Y0145893D01*
X0227056Y0145507D01*
X0227226Y0145095D01*
X0227342Y0144665D01*
X0227400Y0144223D01*
Y0144000D01*
Y0143777D01*
X0227342Y0143335D01*
X0227226Y0142905D01*
X0227056Y0142493D01*
X0226833Y0142107D01*
X0226562Y0141753D01*
X0226247Y0141438D01*
X0225893Y0141167D01*
X0225507Y0140944D01*
X0225095Y0140774D01*
X0224665Y0140658D01*
X0224223Y0140600D01*
X0223777D01*
X0223335Y0140658D01*
X0222905Y0140774D01*
X0222493Y0140944D01*
X0222107Y0141167D01*
X0221753Y0141438D01*
X0221438Y0141753D01*
X0221167Y0142107D01*
X0220944Y0142493D01*
X0220774Y0142905D01*
X0220658Y0143335D01*
X0220600Y0143777D01*
Y0144000D01*
Y0144223D01*
X0220658Y0144665D01*
X0220774Y0145095D01*
X0220944Y0145507D01*
X0221167Y0145893D01*
X0221438Y0146247D01*
X0221753Y0146562D01*
X0222107Y0146833D01*
X0222493Y0147056D01*
X0222905Y0147226D01*
X0223335Y0147342D01*
X0223777Y0147400D01*
X0224223D01*
X0224665Y0147342D01*
D02*
G37*
G36*
X0359000Y0143000D02*
X0357000D01*
Y0146000D01*
X0359000D01*
Y0143000D01*
D02*
G37*
%LPC*%
G36*
X0358052Y0145305D02*
X0358029D01*
X0357990Y0145303D01*
X0357953Y0145301D01*
X0357881Y0145289D01*
X0357821Y0145271D01*
X0357793Y0145261D01*
X0357767Y0145250D01*
X0357744Y0145240D01*
X0357726Y0145229D01*
X0357707Y0145220D01*
X0357693Y0145213D01*
X0357682Y0145203D01*
X0357675Y0145199D01*
X0357670Y0145196D01*
X0357668Y0145194D01*
X0357643Y0145171D01*
X0357619Y0145148D01*
X0357599Y0145120D01*
X0357580Y0145090D01*
X0357552Y0145030D01*
X0357529Y0144972D01*
X0357522Y0144942D01*
X0357515Y0144917D01*
X0357508Y0144893D01*
X0357506Y0144873D01*
X0357501Y0144854D01*
Y0144842D01*
X0357499Y0144833D01*
Y0144831D01*
X0357805Y0144801D01*
X0357809Y0144847D01*
X0357818Y0144886D01*
X0357828Y0144921D01*
X0357839Y0144947D01*
X0357848Y0144967D01*
X0357858Y0144981D01*
X0357865Y0144991D01*
X0357867Y0144993D01*
X0357890Y0145011D01*
X0357916Y0145025D01*
X0357941Y0145037D01*
X0357966Y0145044D01*
X0357987Y0145048D01*
X0358006Y0145051D01*
X0358022D01*
X0358057Y0145048D01*
X0358087Y0145041D01*
X0358112Y0145032D01*
X0358135Y0145023D01*
X0358152Y0145014D01*
X0358165Y0145004D01*
X0358172Y0144997D01*
X0358175Y0144995D01*
X0358193Y0144972D01*
X0358207Y0144947D01*
X0358216Y0144921D01*
X0358223Y0144896D01*
X0358228Y0144873D01*
X0358230Y0144852D01*
Y0144840D01*
Y0144838D01*
Y0144836D01*
X0358228Y0144801D01*
X0358221Y0144768D01*
X0358209Y0144736D01*
X0358198Y0144708D01*
X0358186Y0144683D01*
X0358175Y0144664D01*
X0358168Y0144653D01*
X0358165Y0144648D01*
X0358156Y0144634D01*
X0358142Y0144618D01*
X0358124Y0144597D01*
X0358105Y0144579D01*
X0358064Y0144535D01*
X0358022Y0144491D01*
X0357980Y0144449D01*
X0357962Y0144431D01*
X0357943Y0144417D01*
X0357929Y0144403D01*
X0357920Y0144394D01*
X0357913Y0144387D01*
X0357911Y0144384D01*
X0357865Y0144340D01*
X0357823Y0144299D01*
X0357784Y0144259D01*
X0357749Y0144225D01*
X0357717Y0144190D01*
X0357689Y0144158D01*
X0357663Y0144130D01*
X0357643Y0144102D01*
X0357624Y0144079D01*
X0357608Y0144058D01*
X0357594Y0144042D01*
X0357585Y0144026D01*
X0357575Y0144016D01*
X0357571Y0144007D01*
X0357566Y0144003D01*
Y0144000D01*
X0357536Y0143947D01*
X0357513Y0143891D01*
X0357494Y0143841D01*
X0357481Y0143794D01*
X0357471Y0143753D01*
X0357469Y0143736D01*
X0357467Y0143723D01*
X0357464Y0143711D01*
X0357462Y0143702D01*
Y0143695D01*
X0358538D01*
Y0144026D01*
Y0143979D01*
X0357927D01*
X0357946Y0144009D01*
X0357966Y0144035D01*
X0357976Y0144046D01*
X0357983Y0144056D01*
X0357987Y0144060D01*
X0357990Y0144063D01*
X0357999Y0144072D01*
X0358008Y0144083D01*
X0358036Y0144109D01*
X0358066Y0144139D01*
X0358096Y0144169D01*
X0358126Y0144197D01*
X0358152Y0144220D01*
X0358161Y0144229D01*
X0358168Y0144236D01*
X0358172Y0144239D01*
X0358175Y0144241D01*
X0358226Y0144289D01*
X0358267Y0144329D01*
X0358302Y0144366D01*
X0358330Y0144394D01*
X0358351Y0144417D01*
X0358364Y0144433D01*
X0358374Y0144444D01*
X0358376Y0144447D01*
X0358406Y0144486D01*
X0358432Y0144523D01*
X0358452Y0144558D01*
X0358469Y0144588D01*
X0358482Y0144613D01*
X0358492Y0144634D01*
X0358496Y0144646D01*
X0358499Y0144650D01*
X0358513Y0144687D01*
X0358522Y0144724D01*
X0358529Y0144759D01*
X0358533Y0144792D01*
X0358536Y0144817D01*
X0358538Y0144838D01*
Y0144588D01*
Y0144856D01*
X0358536Y0144891D01*
X0358531Y0144926D01*
X0358526Y0144958D01*
X0358517Y0144988D01*
X0358494Y0145041D01*
X0358471Y0145088D01*
X0358457Y0145109D01*
X0358445Y0145125D01*
X0358434Y0145141D01*
X0358422Y0145153D01*
X0358413Y0145162D01*
X0358408Y0145171D01*
X0358404Y0145173D01*
X0358401Y0145176D01*
X0358376Y0145199D01*
X0358346Y0145220D01*
X0358318Y0145236D01*
X0358286Y0145250D01*
X0358226Y0145273D01*
X0358165Y0145289D01*
X0358138Y0145294D01*
X0358112Y0145298D01*
X0358089Y0145301D01*
X0358068Y0145303D01*
X0358052Y0145305D01*
D02*
G37*
%LPD*%
D11*
X0220000Y0128500D02*
Y0127000D01*
X0220857D01*
X0222164D02*
X0221593Y0128500D01*
X0221021Y0127000D01*
X0221235Y0127500D02*
X0221950D01*
X0222514Y0128500D02*
X0223085Y0127786D01*
Y0127000D01*
X0223656Y0128500D02*
X0223085Y0127786D01*
X0224778Y0128500D02*
X0223849D01*
Y0127000D01*
X0224778D01*
X0223849Y0127786D02*
X0224420D01*
X0225027Y0128500D02*
Y0127000D01*
Y0128500D02*
X0225670D01*
X0225884Y0128428D01*
X0225956Y0128357D01*
X0226027Y0128214D01*
Y0128071D01*
X0225956Y0127928D01*
X0225884Y0127857D01*
X0225670Y0127786D01*
X0225027D01*
X0225527D02*
X0226027Y0127000D01*
X0227613Y0128143D02*
Y0128214D01*
X0227684Y0128357D01*
X0227755Y0128428D01*
X0227898Y0128500D01*
X0228184D01*
X0228327Y0128428D01*
X0228398Y0128357D01*
X0228470Y0128214D01*
Y0128071D01*
X0228398Y0127928D01*
X0228255Y0127714D01*
X0227541Y0127000D01*
X0228541D01*
X0230555Y0128785D02*
X0230412Y0128643D01*
X0230269Y0128428D01*
X0230126Y0128143D01*
X0230055Y0127786D01*
Y0127500D01*
X0230126Y0127143D01*
X0230269Y0126857D01*
X0230412Y0126643D01*
X0230555Y0126500D01*
X0230412Y0128643D02*
X0230269Y0128357D01*
X0230198Y0128143D01*
X0230126Y0127786D01*
Y0127500D01*
X0230198Y0127143D01*
X0230269Y0126929D01*
X0230412Y0126643D01*
X0231912Y0128143D02*
X0231840Y0128285D01*
X0231697Y0128428D01*
X0231555Y0128500D01*
X0231269D01*
X0231126Y0128428D01*
X0230983Y0128285D01*
X0230912Y0128143D01*
X0230841Y0127928D01*
Y0127571D01*
X0230912Y0127357D01*
X0230983Y0127214D01*
X0231126Y0127071D01*
X0231269Y0127000D01*
X0231555D01*
X0231697Y0127071D01*
X0231840Y0127214D01*
X0231912Y0127357D01*
Y0127571D01*
X0231555D02*
X0231912D01*
X0232255Y0128500D02*
Y0127000D01*
Y0128500D02*
X0233254Y0127000D01*
Y0128500D02*
Y0127000D01*
X0233669Y0128500D02*
Y0127000D01*
Y0128500D02*
X0234168D01*
X0234383Y0128428D01*
X0234525Y0128285D01*
X0234597Y0128143D01*
X0234668Y0127928D01*
Y0127571D01*
X0234597Y0127357D01*
X0234525Y0127214D01*
X0234383Y0127071D01*
X0234168Y0127000D01*
X0233669D01*
X0235004Y0128785D02*
X0235147Y0128643D01*
X0235290Y0128428D01*
X0235432Y0128143D01*
X0235504Y0127786D01*
Y0127500D01*
X0235432Y0127143D01*
X0235290Y0126857D01*
X0235147Y0126643D01*
X0235004Y0126500D01*
X0235147Y0128643D02*
X0235290Y0128357D01*
X0235361Y0128143D01*
X0235432Y0127786D01*
Y0127500D01*
X0235361Y0127143D01*
X0235290Y0126929D01*
X0235147Y0126643D01*
X0220000Y0131500D02*
X0221000Y0130000D01*
Y0131500D02*
X0220000Y0130000D01*
X0221335Y0131500D02*
Y0130000D01*
Y0131500D02*
X0221907Y0130000D01*
X0222478Y0131500D02*
X0221907Y0130000D01*
X0222478Y0131500D02*
Y0130000D01*
X0223906Y0131285D02*
X0223763Y0131428D01*
X0223549Y0131500D01*
X0223264D01*
X0223049Y0131428D01*
X0222907Y0131285D01*
Y0131143D01*
X0222978Y0131000D01*
X0223049Y0130928D01*
X0223192Y0130857D01*
X0223621Y0130714D01*
X0223763Y0130643D01*
X0223835Y0130571D01*
X0223906Y0130428D01*
Y0130214D01*
X0223763Y0130071D01*
X0223549Y0130000D01*
X0223264D01*
X0223049Y0130071D01*
X0222907Y0130214D01*
X0224670Y0131500D02*
X0224456Y0131428D01*
X0224313Y0131214D01*
X0224242Y0130857D01*
Y0130643D01*
X0224313Y0130286D01*
X0224456Y0130071D01*
X0224670Y0130000D01*
X0224813D01*
X0225027Y0130071D01*
X0225170Y0130286D01*
X0225242Y0130643D01*
Y0130857D01*
X0225170Y0131214D01*
X0225027Y0131428D01*
X0224813Y0131500D01*
X0224670D01*
X0226006D02*
X0225792Y0131428D01*
X0225649Y0131214D01*
X0225577Y0130857D01*
Y0130643D01*
X0225649Y0130286D01*
X0225792Y0130071D01*
X0226006Y0130000D01*
X0226149D01*
X0226363Y0130071D01*
X0226506Y0130286D01*
X0226577Y0130643D01*
Y0130857D01*
X0226506Y0131214D01*
X0226363Y0131428D01*
X0226149Y0131500D01*
X0226006D01*
X0227341D02*
X0227127Y0131428D01*
X0226984Y0131214D01*
X0226913Y0130857D01*
Y0130643D01*
X0226984Y0130286D01*
X0227127Y0130071D01*
X0227341Y0130000D01*
X0227484D01*
X0227698Y0130071D01*
X0227841Y0130286D01*
X0227913Y0130643D01*
Y0130857D01*
X0227841Y0131214D01*
X0227698Y0131428D01*
X0227484Y0131500D01*
X0227341D01*
X0228962D02*
X0228248Y0130500D01*
X0229319D01*
X0228962Y0131500D02*
Y0130000D01*
X0230762Y0130857D02*
X0232047D01*
X0230762Y0130428D02*
X0232047D01*
X0233669Y0131214D02*
X0233811Y0131285D01*
X0234026Y0131500D01*
Y0130000D01*
X0234768Y0131500D02*
X0235340Y0130000D01*
X0235911Y0131500D02*
X0235340Y0130000D01*
X0236104Y0131214D02*
X0236247Y0131285D01*
X0236461Y0131500D01*
Y0130000D01*
X0238382Y0130857D02*
X0239667D01*
X0238382Y0130428D02*
X0239667D01*
X0241288Y0131214D02*
X0241431Y0131285D01*
X0241645Y0131500D01*
Y0130000D01*
X0243388Y0131500D02*
X0242674Y0130000D01*
X0242388Y0131500D02*
X0243388D01*
X0246044Y0130000D02*
X0245473Y0131500D01*
X0244902Y0130000D01*
X0245116Y0130500D02*
X0245830D01*
X0246394Y0131500D02*
Y0130428D01*
X0246466Y0130214D01*
X0246609Y0130071D01*
X0246823Y0130000D01*
X0246966D01*
X0247180Y0130071D01*
X0247323Y0130214D01*
X0247394Y0130428D01*
Y0131500D01*
X0248880Y0131143D02*
X0248808Y0131285D01*
X0248665Y0131428D01*
X0248522Y0131500D01*
X0248237D01*
X0248094Y0131428D01*
X0247951Y0131285D01*
X0247880Y0131143D01*
X0247808Y0130928D01*
Y0130571D01*
X0247880Y0130357D01*
X0247951Y0130214D01*
X0248094Y0130071D01*
X0248237Y0130000D01*
X0248522D01*
X0248665Y0130071D01*
X0248808Y0130214D01*
X0248880Y0130357D01*
Y0130571D01*
X0248522D02*
X0248880D01*
X0250472Y0131143D02*
Y0131214D01*
X0250543Y0131357D01*
X0250615Y0131428D01*
X0250758Y0131500D01*
X0251043D01*
X0251186Y0131428D01*
X0251258Y0131357D01*
X0251329Y0131214D01*
Y0131071D01*
X0251258Y0130928D01*
X0251115Y0130714D01*
X0250401Y0130000D01*
X0251400D01*
X0252165Y0131500D02*
X0251950Y0131428D01*
X0251807Y0131214D01*
X0251736Y0130857D01*
Y0130643D01*
X0251807Y0130286D01*
X0251950Y0130071D01*
X0252165Y0130000D01*
X0252307D01*
X0252522Y0130071D01*
X0252664Y0130286D01*
X0252736Y0130643D01*
Y0130857D01*
X0252664Y0131214D01*
X0252522Y0131428D01*
X0252307Y0131500D01*
X0252165D01*
X0253143Y0131143D02*
Y0131214D01*
X0253214Y0131357D01*
X0253286Y0131428D01*
X0253429Y0131500D01*
X0253714D01*
X0253857Y0131428D01*
X0253928Y0131357D01*
X0254000Y0131214D01*
Y0131071D01*
X0253928Y0130928D01*
X0253786Y0130714D01*
X0253071Y0130000D01*
X0254071D01*
X0254478Y0131143D02*
Y0131214D01*
X0254550Y0131357D01*
X0254621Y0131428D01*
X0254764Y0131500D01*
X0255050D01*
X0255192Y0131428D01*
X0255264Y0131357D01*
X0255335Y0131214D01*
Y0131071D01*
X0255264Y0130928D01*
X0255121Y0130714D01*
X0254407Y0130000D01*
X0255407D01*
D182*
X0242000Y0153500D02*
D03*
Y0152000D02*
D03*
Y0155000D02*
D03*
X0239500Y0156000D02*
D03*
X0241000D02*
D03*
X0238000D02*
D03*
X0237000Y0153500D02*
D03*
Y0155000D02*
D03*
Y0152000D02*
D03*
X0239500Y0151000D02*
D03*
X0238000D02*
D03*
X0241000D02*
D03*
X0356500Y0254700D02*
D03*
X0351800Y0260500D02*
D03*
X0247100Y0210000D02*
D03*
X0246100D02*
D03*
X0245100D02*
D03*
X0247100Y0211000D02*
D03*
X0246100D02*
D03*
X0245100D02*
D03*
Y0215900D02*
D03*
X0246100D02*
D03*
X0247100D02*
D03*
Y0214900D02*
D03*
X0246100D02*
D03*
X0245100D02*
D03*
X0255000Y0215900D02*
D03*
Y0210000D02*
D03*
X0254000D02*
D03*
X0253000D02*
D03*
X0255000Y0211000D02*
D03*
X0254000D02*
D03*
X0253000D02*
D03*
X0252300Y0204500D02*
D03*
X0252000Y0201700D02*
D03*
X0246100Y0196900D02*
D03*
X0248700Y0192700D02*
D03*
X0252300Y0192000D02*
D03*
Y0189100D02*
D03*
X0246700Y0206200D02*
D03*
X0323300Y0205000D02*
D03*
X0307200Y0185200D02*
D03*
X0315700Y0178000D02*
D03*
X0317300Y0180700D02*
D03*
X0332200Y0190400D02*
D03*
X0331400Y0189700D02*
D03*
X0329700Y0187000D02*
D03*
X0330700D02*
D03*
X0339700Y0177000D02*
D03*
X0324100Y0185700D02*
D03*
X0322500D02*
D03*
X0321000D02*
D03*
X0319400D02*
D03*
X0310352Y0201800D02*
D03*
X0324000Y0180800D02*
D03*
X0322500D02*
D03*
X0319500D02*
D03*
X0321000D02*
D03*
X0310700Y0182200D02*
D03*
X0265700Y0250600D02*
D03*
X0269500Y0248400D02*
D03*
X0295400Y0228400D02*
D03*
X0297100Y0230600D02*
D03*
X0301300D02*
D03*
X0342000Y0243900D02*
D03*
Y0245400D02*
D03*
X0345600Y0244675D02*
D03*
X0339300Y0220500D02*
D03*
X0333500Y0167300D02*
D03*
X0336000Y0188800D02*
D03*
X0322700Y0203000D02*
D03*
X0322000Y0219800D02*
D03*
X0298500Y0211700D02*
D03*
X0283500Y0211200D02*
D03*
X0283700Y0240000D02*
D03*
X0280700Y0186700D02*
D03*
X0303800Y0172600D02*
D03*
X0261200Y0159250D02*
D03*
X0266300Y0161900D02*
D03*
X0267500D02*
D03*
X0272900Y0162600D02*
D03*
X0272000Y0163300D02*
D03*
X0270100Y0161900D02*
D03*
X0271300Y0158150D02*
D03*
Y0152000D02*
D03*
X0270000D02*
D03*
X0338400Y0186000D02*
D03*
X0278500Y0197700D02*
D03*
X0340900Y0183200D02*
D03*
X0277800Y0211300D02*
D03*
X0289800Y0202300D02*
D03*
X0294900Y0209700D02*
D03*
X0280400Y0244500D02*
D03*
X0279500Y0248700D02*
D03*
Y0243300D02*
D03*
X0272300Y0244200D02*
D03*
X0271000Y0245500D02*
D03*
X0258200Y0241900D02*
D03*
X0253000Y0214900D02*
D03*
X0255000D02*
D03*
X0254000Y0215900D02*
D03*
Y0214900D02*
D03*
X0253000Y0215900D02*
D03*
X0308600Y0251500D02*
D03*
X0298000Y0256800D02*
D03*
Y0254500D02*
D03*
X0299000Y0251700D02*
D03*
X0341500Y0184000D02*
D03*
Y0186000D02*
D03*
X0354500Y0182000D02*
D03*
X0348500Y0251500D02*
D03*
X0347600Y0252400D02*
D03*
X0348500D02*
D03*
X0347600Y0251500D02*
D03*
X0351200Y0250700D02*
D03*
X0353000D02*
D03*
X0352100D02*
D03*
X0351400Y0263000D02*
D03*
X0350500Y0263900D02*
D03*
X0351400D02*
D03*
X0350500Y0263000D02*
D03*
X0308700Y0180800D02*
D03*
X0307200D02*
D03*
X0345800Y0188000D02*
D03*
X0242000Y0193300D02*
D03*
X0266300Y0144100D02*
D03*
X0272600D02*
D03*
X0256300Y0203300D02*
D03*
Y0202000D02*
D03*
X0251100Y0197300D02*
D03*
X0252900D02*
D03*
X0252000D02*
D03*
X0251100Y0196400D02*
D03*
X0252000D02*
D03*
X0252900D02*
D03*
X0350700Y0170000D02*
D03*
X0340300Y0179500D02*
D03*
Y0184800D02*
D03*
X0264700Y0257100D02*
D03*
X0289000Y0253300D02*
D03*
X0268500Y0257100D02*
D03*
X0256600Y0254200D02*
D03*
X0238000D02*
D03*
X0242000Y0196700D02*
D03*
X0252900Y0183900D02*
D03*
X0252000D02*
D03*
X0251100D02*
D03*
X0252000Y0184800D02*
D03*
X0252900D02*
D03*
X0251100D02*
D03*
X0255800Y0190500D02*
D03*
X0245800Y0190400D02*
D03*
X0246800D02*
D03*
X0241500Y0200700D02*
D03*
X0242400D02*
D03*
X0241500Y0199800D02*
D03*
X0242400D02*
D03*
X0230900Y0185800D02*
D03*
X0231800D02*
D03*
X0230900Y0186700D02*
D03*
X0231800D02*
D03*
X0285800Y0190800D02*
D03*
Y0189800D02*
D03*
X0289400Y0189600D02*
D03*
Y0191300D02*
D03*
X0290600D02*
D03*
X0342900Y0237000D02*
D03*
X0344500D02*
D03*
X0307100Y0206400D02*
D03*
X0305869Y0206367D02*
D03*
X0304600Y0206400D02*
D03*
X0302500Y0207400D02*
D03*
X0302000Y0212000D02*
D03*
X0303000Y0241200D02*
D03*
X0291700Y0209700D02*
D03*
X0301500Y0236500D02*
D03*
Y0237500D02*
D03*
X0292000Y0236500D02*
D03*
Y0237500D02*
D03*
X0309600Y0237100D02*
D03*
X0300100Y0236800D02*
D03*
X0299400Y0228400D02*
D03*
X0303600Y0230200D02*
D03*
X0308700Y0228800D02*
D03*
X0316800Y0245300D02*
D03*
X0316200Y0243000D02*
D03*
X0340900Y0198700D02*
D03*
X0342100D02*
D03*
X0340300Y0199500D02*
D03*
X0341500D02*
D03*
X0343700Y0206900D02*
D03*
X0323300Y0216400D02*
D03*
Y0213900D02*
D03*
Y0212600D02*
D03*
Y0215100D02*
D03*
X0343900Y0205300D02*
D03*
X0342300Y0225600D02*
D03*
X0341600Y0226400D02*
D03*
Y0229100D02*
D03*
X0342300Y0228200D02*
D03*
X0344800Y0207500D02*
D03*
Y0220000D02*
D03*
Y0232500D02*
D03*
X0348500Y0205200D02*
D03*
Y0217700D02*
D03*
Y0230200D02*
D03*
Y0242700D02*
D03*
Y0232800D02*
D03*
Y0220300D02*
D03*
Y0207800D02*
D03*
X0354600Y0202500D02*
D03*
X0350400Y0211700D02*
D03*
X0349400D02*
D03*
X0357400Y0208100D02*
D03*
X0344400Y0201800D02*
D03*
X0345600Y0209800D02*
D03*
Y0205900D02*
D03*
Y0211100D02*
D03*
X0344800Y0206500D02*
D03*
X0354600Y0215000D02*
D03*
X0350400Y0224200D02*
D03*
X0349400D02*
D03*
X0357400Y0220600D02*
D03*
X0344400Y0214300D02*
D03*
X0345600Y0222300D02*
D03*
Y0223600D02*
D03*
X0344800Y0219000D02*
D03*
X0354600Y0227500D02*
D03*
X0350400Y0236700D02*
D03*
X0349400D02*
D03*
X0357400Y0233100D02*
D03*
X0344400Y0226800D02*
D03*
X0345600Y0234800D02*
D03*
Y0230900D02*
D03*
X0344800Y0231500D02*
D03*
X0345600Y0247300D02*
D03*
X0344400Y0239300D02*
D03*
X0357400Y0245600D02*
D03*
X0349400Y0249200D02*
D03*
X0350400D02*
D03*
X0354600Y0240000D02*
D03*
X0301400Y0192000D02*
D03*
Y0193000D02*
D03*
X0296700Y0202400D02*
D03*
X0344500Y0193600D02*
D03*
Y0176600D02*
D03*
Y0177600D02*
D03*
Y0194600D02*
D03*
X0354500Y0199000D02*
D03*
X0350500Y0189400D02*
D03*
X0349700Y0190000D02*
D03*
X0350500Y0172400D02*
D03*
X0349700Y0173000D02*
D03*
X0347000Y0189400D02*
D03*
X0350000Y0167700D02*
D03*
X0346200Y0173000D02*
D03*
X0347000Y0172400D02*
D03*
X0305500Y0179400D02*
D03*
X0304500Y0180000D02*
D03*
X0303600Y0180600D02*
D03*
X0299900Y0181300D02*
D03*
X0298300D02*
D03*
X0341500Y0161500D02*
D03*
X0331500D02*
D03*
X0321500D02*
D03*
X0262586Y0147514D02*
D03*
X0263400Y0148100D02*
D03*
X0276500D02*
D03*
X0275200D02*
D03*
X0273900D02*
D03*
X0272600D02*
D03*
X0261500Y0152200D02*
D03*
X0266300Y0153400D02*
D03*
X0267500Y0152000D02*
D03*
X0266300D02*
D03*
X0282700Y0162000D02*
D03*
X0279600D02*
D03*
X0294800Y0201000D02*
D03*
Y0199900D02*
D03*
X0295700Y0192500D02*
D03*
X0292800Y0191900D02*
D03*
X0291800Y0191300D02*
D03*
X0286000Y0198000D02*
D03*
X0285600Y0198900D02*
D03*
X0286100Y0194600D02*
D03*
X0293000Y0202400D02*
D03*
X0295700D02*
D03*
X0294700D02*
D03*
X0295200Y0205500D02*
D03*
X0294200D02*
D03*
X0291800D02*
D03*
X0290800D02*
D03*
X0285600Y0201000D02*
D03*
Y0199900D02*
D03*
X0296600Y0205500D02*
D03*
X0301200Y0200600D02*
D03*
X0279900Y0198500D02*
D03*
X0282500Y0200300D02*
D03*
X0301500Y0194600D02*
D03*
X0298400Y0196600D02*
D03*
Y0198200D02*
D03*
X0298300Y0200800D02*
D03*
X0297400Y0200200D02*
D03*
X0298300Y0199600D02*
D03*
X0301500Y0196600D02*
D03*
Y0199400D02*
D03*
X0299000Y0186500D02*
D03*
X0295800Y0189600D02*
D03*
X0294700D02*
D03*
X0298000Y0186500D02*
D03*
X0295600D02*
D03*
X0294000D02*
D03*
X0288800D02*
D03*
X0286800D02*
D03*
X0285600Y0197100D02*
D03*
X0282500Y0197500D02*
D03*
X0285600Y0195400D02*
D03*
X0282500Y0201700D02*
D03*
Y0195100D02*
D03*
X0285600Y0193000D02*
D03*
X0282500Y0193900D02*
D03*
Y0192900D02*
D03*
Y0189700D02*
D03*
Y0190700D02*
D03*
X0234500Y0144500D02*
D03*
X0235700Y0144800D02*
D03*
X0232050Y0144550D02*
D03*
X0238700Y0165300D02*
D03*
X0235300Y0162200D02*
D03*
Y0163100D02*
D03*
X0236200D02*
D03*
Y0162200D02*
D03*
X0230600Y0151900D02*
D03*
X0257400Y0150500D02*
D03*
X0257190Y0147900D02*
D03*
X0257200Y0154400D02*
D03*
X0260100Y0155200D02*
D03*
X0247800Y0150300D02*
D03*
X0246800Y0145200D02*
D03*
X0244600D02*
D03*
X0256700Y0143600D02*
D03*
X0251700Y0159300D02*
D03*
X0248100Y0151600D02*
D03*
X0247100D02*
D03*
X0251700Y0153900D02*
D03*
Y0151700D02*
D03*
Y0150600D02*
D03*
X0249300Y0146500D02*
D03*
Y0147500D02*
D03*
X0246800Y0144000D02*
D03*
X0244600Y0142800D02*
D03*
X0245700Y0143400D02*
D03*
X0245700Y0145200D02*
D03*
X0244200Y0153100D02*
D03*
X0246550Y0159100D02*
D03*
Y0158000D02*
D03*
X0239500Y0158200D02*
D03*
X0234800Y0156600D02*
D03*
Y0152100D02*
D03*
X0235300Y0149600D02*
D03*
X0239500Y0148800D02*
D03*
X0235200Y0148600D02*
D03*
X0230600Y0152875D02*
D03*
X0231400Y0155400D02*
D03*
X0232900Y0148200D02*
D03*
X0230800Y0149600D02*
D03*
X0229500D02*
D03*
X0228200D02*
D03*
X0227000D02*
D03*
X0231300Y0151200D02*
D03*
X0230600Y0154500D02*
D03*
Y0156000D02*
D03*
X0224000Y0149600D02*
D03*
X0235100Y0147600D02*
D03*
X0242900Y0158000D02*
D03*
X0254800Y0147900D02*
D03*
X0255400Y0156300D02*
D03*
X0256600D02*
D03*
X0247400Y0166100D02*
D03*
Y0164900D02*
D03*
Y0167100D02*
D03*
Y0163900D02*
D03*
X0252700Y0169300D02*
D03*
X0248700Y0153100D02*
D03*
X0256500Y0160075D02*
D03*
X0258400Y0154400D02*
D03*
X0260800Y0148400D02*
D03*
X0261800Y0146900D02*
D03*
X0261400Y0145700D02*
D03*
X0258500Y0150500D02*
D03*
X0242400Y0146900D02*
D03*
X0229900Y0163300D02*
D03*
X0228800D02*
D03*
Y0162400D02*
D03*
X0229900D02*
D03*
X0223700Y0164400D02*
D03*
X0224600D02*
D03*
X0233000Y0168400D02*
D03*
X0233900D02*
D03*
X0229500Y0169100D02*
D03*
X0225500Y0164400D02*
D03*
D216*
X0220000Y0144000D02*
G03*
X0224000Y0140000I0004000J0000000D01*
G01*
X0376000Y0140000D02*
G03*
X0380000Y0144000I0000000J0004000D01*
G01*
X0380000Y0266000D02*
G03*
X0376000Y0270000I-0004000J-0000000D01*
G01*
X0224000Y0270000D02*
G03*
X0220000Y0266000I0000000J-0004000D01*
G01*
X0224000Y0140000D02*
X0376000Y0140000D01*
X0380000Y0266000D02*
X0380000Y0144000D01*
X0224000Y0270000D02*
X0376000Y0270000D01*
X0220000Y0221000D02*
Y0266000D01*
Y0221000D02*
X0221000Y0220000D01*
Y0212000D02*
Y0220000D01*
X0220000Y0211000D02*
X0221000Y0212000D01*
X0220000Y0186000D02*
Y0211000D01*
Y0186000D02*
X0221000Y0185000D01*
Y0177000D02*
Y0185000D01*
X0220000Y0176000D02*
X0221000Y0177000D01*
X0220000Y0161000D02*
Y0176000D01*
Y0161000D02*
X0221000Y0160000D01*
Y0152000D02*
Y0160000D01*
X0220000Y0151000D02*
X0221000Y0152000D01*
X0220000Y0151000D02*
X0220000Y0144000D01*
D217*
X0361000Y0144500D02*
D03*
D218*
X0356000D02*
D03*
D219*
X0245590Y0218930D02*
D03*
X0334490Y0175750D02*
D03*
X0337030D02*
D03*
X0331950D02*
D03*
X0329410D02*
D03*
X0230350Y0206230D02*
D03*
Y0201150D02*
D03*
Y0203690D02*
D03*
X0316710D02*
D03*
Y0206230D02*
D03*
X0314170D02*
D03*
X0316710Y0208770D02*
D03*
X0314170D02*
D03*
X0316710Y0211310D02*
D03*
Y0213850D02*
D03*
X0314170D02*
D03*
X0329410Y0193530D02*
D03*
X0331950Y0196070D02*
D03*
X0329410D02*
D03*
X0331950Y0198610D02*
D03*
X0329410D02*
D03*
Y0201150D02*
D03*
X0331950Y0203690D02*
D03*
X0329410D02*
D03*
X0331950Y0206230D02*
D03*
X0329410D02*
D03*
Y0208770D02*
D03*
X0331950Y0211310D02*
D03*
X0329410D02*
D03*
X0331950Y0213850D02*
D03*
X0329410D02*
D03*
Y0216390D02*
D03*
X0304010Y0165590D02*
D03*
X0301470Y0168130D02*
D03*
X0298930D02*
D03*
Y0165590D02*
D03*
X0296390Y0168130D02*
D03*
X0293850Y0165590D02*
D03*
X0291310Y0168130D02*
D03*
Y0165590D02*
D03*
X0288770D02*
D03*
X0286230Y0168130D02*
D03*
X0228260Y0146000D02*
D03*
X0233340Y0147016D02*
D03*
Y0144984D02*
D03*
X0268450Y0201150D02*
D03*
Y0198610D02*
D03*
X0270990D02*
D03*
X0268450Y0196070D02*
D03*
X0270990D02*
D03*
X0268450Y0193530D02*
D03*
Y0190990D02*
D03*
X0270990D02*
D03*
X0337030Y0234170D02*
D03*
X0331950D02*
D03*
X0329410D02*
D03*
X0334490D02*
D03*
Y0183370D02*
D03*
X0337030D02*
D03*
X0331950D02*
D03*
X0329410D02*
D03*
X0337030Y0231630D02*
D03*
X0331950D02*
D03*
X0329410D02*
D03*
X0334490D02*
D03*
Y0180830D02*
D03*
X0337030D02*
D03*
X0331950D02*
D03*
X0329410D02*
D03*
X0337030Y0229090D02*
D03*
X0331950D02*
D03*
X0329410D02*
D03*
X0334490D02*
D03*
Y0178290D02*
D03*
X0337030D02*
D03*
X0331950D02*
D03*
X0329410D02*
D03*
X0337030Y0226550D02*
D03*
X0331950D02*
D03*
X0329410D02*
D03*
X0334490D02*
D03*
X0230350Y0196070D02*
D03*
X0227810D02*
D03*
X0230350Y0190990D02*
D03*
X0227810D02*
D03*
X0243050Y0185910D02*
D03*
Y0188450D02*
D03*
X0248130Y0234170D02*
D03*
X0344650Y0251950D02*
D03*
X0258290Y0193530D02*
D03*
X0253210Y0218930D02*
D03*
X0258290Y0185910D02*
D03*
Y0206230D02*
D03*
X0286230Y0150350D02*
D03*
X0288770D02*
D03*
Y0152890D02*
D03*
X0291310Y0150350D02*
D03*
Y0152890D02*
D03*
X0293850Y0150350D02*
D03*
X0296390D02*
D03*
Y0152890D02*
D03*
X0281150Y0241790D02*
D03*
X0278610D02*
D03*
Y0239250D02*
D03*
X0276070Y0241790D02*
D03*
Y0239250D02*
D03*
X0273530Y0241790D02*
D03*
X0270990D02*
D03*
Y0239250D02*
D03*
X0311630D02*
D03*
X0316710Y0188450D02*
D03*
X0314170D02*
D03*
X0316710Y0190990D02*
D03*
Y0193530D02*
D03*
X0314170D02*
D03*
Y0196070D02*
D03*
X0316710Y0198610D02*
D03*
X0314170D02*
D03*
X0294300Y0223900D02*
D03*
Y0221360D02*
D03*
X0291760Y0223900D02*
D03*
X0289220D02*
D03*
Y0221360D02*
D03*
X0286680D02*
D03*
X0284140Y0223900D02*
D03*
Y0221360D02*
D03*
X0301470Y0244330D02*
D03*
X0311630Y0236710D02*
D03*
X0243050Y0208770D02*
D03*
D220*
X0316710Y0226550D02*
D03*
X0314170D02*
D03*
Y0203690D02*
D03*
Y0211310D02*
D03*
X0331950Y0193530D02*
D03*
Y0201150D02*
D03*
Y0208770D02*
D03*
Y0216390D02*
D03*
X0304010Y0168130D02*
D03*
X0301470Y0165590D02*
D03*
X0296390D02*
D03*
X0293850Y0168130D02*
D03*
X0288770D02*
D03*
X0286230Y0165590D02*
D03*
X0270990Y0201150D02*
D03*
Y0193530D02*
D03*
X0268450Y0213850D02*
D03*
X0270990D02*
D03*
X0248130Y0231630D02*
D03*
X0286230Y0152890D02*
D03*
X0293850D02*
D03*
X0316710Y0173210D02*
D03*
X0314170D02*
D03*
X0281150Y0239250D02*
D03*
X0273530D02*
D03*
X0314170Y0190990D02*
D03*
X0316710Y0196070D02*
D03*
X0291760Y0221360D02*
D03*
X0286680Y0223900D02*
D03*
D221*
X0309500Y0257400D02*
D03*
X0324500D02*
D03*
X0312000Y0254900D02*
D03*
X0322000D02*
D03*
Y0267400D02*
D03*
X0319500D02*
D03*
X0314500D02*
D03*
X0312000D02*
D03*
X0332500D02*
D03*
X0335000D02*
D03*
X0340000D02*
D03*
X0342500D02*
D03*
X0345000Y0257400D02*
D03*
X0337500D02*
D03*
X0330000D02*
D03*
X0342500Y0254900D02*
D03*
X0332500D02*
D03*
D222*
X0317000Y0257400D02*
D03*
D223*
X0324500Y0262400D02*
D03*
X0309500D02*
D03*
X0330000D02*
D03*
X0345000D02*
D03*
D224*
X0240500Y0241000D02*
D03*
X0256540Y0261500D02*
D03*
X0251460D02*
D03*
X0240540D02*
D03*
X0235460D02*
D03*
D225*
X0243630Y0237870D02*
D03*
Y0244130D02*
D03*
X0237370D02*
D03*
Y0237870D02*
D03*
D226*
X0251460Y0258900D02*
D03*
X0256540D02*
D03*
X0240540D02*
D03*
X0238000D02*
D03*
D227*
X0256800Y0264000D02*
D03*
X0251200D02*
D03*
X0376500Y0154000D02*
D03*
X0369500D02*
D03*
X0286000Y0261500D02*
D03*
X0376500Y0256000D02*
D03*
X0369500D02*
D03*
X0376500Y0228000D02*
D03*
X0369500D02*
D03*
X0376500Y0242000D02*
D03*
X0369500D02*
D03*
X0376500Y0214000D02*
D03*
X0369500D02*
D03*
X0376500Y0196000D02*
D03*
X0369500D02*
D03*
X0376500Y0182000D02*
D03*
X0369500D02*
D03*
X0376500Y0168000D02*
D03*
X0369500D02*
D03*
X0270000Y0261500D02*
D03*
X0240800Y0264000D02*
D03*
X0235200D02*
D03*
D228*
X0254000Y0258900D02*
D03*
X0235460D02*
D03*
D229*
X0222425Y0159300D02*
D03*
Y0152700D02*
D03*
X0222425Y0177700D02*
D03*
Y0184300D02*
D03*
Y0212700D02*
D03*
Y0219300D02*
D03*
D230*
X0286000Y0266000D02*
D03*
X0281000Y0261500D02*
D03*
X0291000D02*
D03*
X0270000Y0266000D02*
D03*
X0265000Y0261500D02*
D03*
X0275000D02*
D03*
D231*
X0300000Y0266000D02*
D03*
X0224000Y0205000D02*
D03*
X0300000Y0144000D02*
D03*
X0376000Y0205000D02*
D03*
Y0266000D02*
D03*
Y0144000D02*
D03*
X0224000D02*
D03*
Y0266000D02*
D03*
M02*
