G04*
G04 #@! TF.GenerationSoftware,Altium Limited,Altium Designer,21.9.2 (33)*
G04*
G04 Layer_Color=32896*
%FSAX43Y43*%
%MOMM*%
G71*
G04*
G04 #@! TF.SameCoordinates,8A3C4949-5F79-4682-B659-0E7BAC0626F8*
G04*
G04*
G04 #@! TF.FilePolarity,Positive*
G04*
G01*
G75*
%ADD11C,0.150*%
%ADD12C,0.120*%
D11*
X0220000Y0128500D02*
Y0127000D01*
Y0128500D02*
X0220643D01*
X0220857Y0128428D01*
X0220928Y0128357D01*
X0221000Y0128214D01*
Y0128071D01*
X0220928Y0127928D01*
X0220857Y0127857D01*
X0220643Y0127786D01*
X0220000D02*
X0220643D01*
X0220857Y0127714D01*
X0220928Y0127643D01*
X0221000Y0127500D01*
Y0127286D01*
X0220928Y0127143D01*
X0220857Y0127071D01*
X0220643Y0127000D01*
X0220000D01*
X0221764Y0128500D02*
X0221621Y0128428D01*
X0221478Y0128285D01*
X0221407Y0128143D01*
X0221335Y0127928D01*
Y0127571D01*
X0221407Y0127357D01*
X0221478Y0127214D01*
X0221621Y0127071D01*
X0221764Y0127000D01*
X0222050D01*
X0222192Y0127071D01*
X0222335Y0127214D01*
X0222407Y0127357D01*
X0222478Y0127571D01*
Y0127928D01*
X0222407Y0128143D01*
X0222335Y0128285D01*
X0222192Y0128428D01*
X0222050Y0128500D01*
X0221764D01*
X0223328D02*
Y0127000D01*
X0222828Y0128500D02*
X0223828D01*
X0224506D02*
Y0127000D01*
X0224006Y0128500D02*
X0225006D01*
X0225613D02*
X0225470Y0128428D01*
X0225327Y0128285D01*
X0225256Y0128143D01*
X0225185Y0127928D01*
Y0127571D01*
X0225256Y0127357D01*
X0225327Y0127214D01*
X0225470Y0127071D01*
X0225613Y0127000D01*
X0225899D01*
X0226042Y0127071D01*
X0226184Y0127214D01*
X0226256Y0127357D01*
X0226327Y0127571D01*
Y0127928D01*
X0226256Y0128143D01*
X0226184Y0128285D01*
X0226042Y0128428D01*
X0225899Y0128500D01*
X0225613D01*
X0226677D02*
Y0127000D01*
Y0128500D02*
X0227248Y0127000D01*
X0227820Y0128500D02*
X0227248Y0127000D01*
X0227820Y0128500D02*
Y0127000D01*
X0230426Y0128285D02*
X0230284Y0128428D01*
X0230069Y0128500D01*
X0229784D01*
X0229569Y0128428D01*
X0229427Y0128285D01*
Y0128143D01*
X0229498Y0128000D01*
X0229569Y0127928D01*
X0229712Y0127857D01*
X0230141Y0127714D01*
X0230284Y0127643D01*
X0230355Y0127571D01*
X0230426Y0127428D01*
Y0127214D01*
X0230284Y0127071D01*
X0230069Y0127000D01*
X0229784D01*
X0229569Y0127071D01*
X0229427Y0127214D01*
X0230762Y0128500D02*
Y0127000D01*
X0231076Y0128500D02*
Y0127000D01*
X0231933D01*
X0232097Y0128500D02*
Y0127000D01*
X0233097Y0128500D02*
X0232097Y0127500D01*
X0232454Y0127857D02*
X0233097Y0127000D01*
X0234433Y0128285D02*
X0234290Y0128428D01*
X0234076Y0128500D01*
X0233790D01*
X0233576Y0128428D01*
X0233433Y0128285D01*
Y0128143D01*
X0233504Y0128000D01*
X0233576Y0127928D01*
X0233718Y0127857D01*
X0234147Y0127714D01*
X0234290Y0127643D01*
X0234361Y0127571D01*
X0234433Y0127428D01*
Y0127214D01*
X0234290Y0127071D01*
X0234076Y0127000D01*
X0233790D01*
X0233576Y0127071D01*
X0233433Y0127214D01*
X0235839Y0128143D02*
X0235768Y0128285D01*
X0235625Y0128428D01*
X0235482Y0128500D01*
X0235197D01*
X0235054Y0128428D01*
X0234911Y0128285D01*
X0234840Y0128143D01*
X0234768Y0127928D01*
Y0127571D01*
X0234840Y0127357D01*
X0234911Y0127214D01*
X0235054Y0127071D01*
X0235197Y0127000D01*
X0235482D01*
X0235625Y0127071D01*
X0235768Y0127214D01*
X0235839Y0127357D01*
X0236261Y0128500D02*
Y0127000D01*
Y0128500D02*
X0236904D01*
X0237118Y0128428D01*
X0237189Y0128357D01*
X0237261Y0128214D01*
Y0128071D01*
X0237189Y0127928D01*
X0237118Y0127857D01*
X0236904Y0127786D01*
X0236261D01*
X0236761D02*
X0237261Y0127000D01*
X0238525Y0128500D02*
X0237596D01*
Y0127000D01*
X0238525D01*
X0237596Y0127786D02*
X0238168D01*
X0239703Y0128500D02*
X0238775D01*
Y0127000D01*
X0239703D01*
X0238775Y0127786D02*
X0239346D01*
X0239953Y0128500D02*
Y0127000D01*
Y0128500D02*
X0240953Y0127000D01*
Y0128500D02*
Y0127000D01*
X0220000Y0131500D02*
X0221000Y0130000D01*
Y0131500D02*
X0220000Y0130000D01*
X0221335Y0131500D02*
Y0130000D01*
Y0131500D02*
X0221907Y0130000D01*
X0222478Y0131500D02*
X0221907Y0130000D01*
X0222478Y0131500D02*
Y0130000D01*
X0223906Y0131285D02*
X0223763Y0131428D01*
X0223549Y0131500D01*
X0223264D01*
X0223049Y0131428D01*
X0222907Y0131285D01*
Y0131143D01*
X0222978Y0131000D01*
X0223049Y0130928D01*
X0223192Y0130857D01*
X0223621Y0130714D01*
X0223763Y0130643D01*
X0223835Y0130571D01*
X0223906Y0130428D01*
Y0130214D01*
X0223763Y0130071D01*
X0223549Y0130000D01*
X0223264D01*
X0223049Y0130071D01*
X0222907Y0130214D01*
X0224670Y0131500D02*
X0224456Y0131428D01*
X0224313Y0131214D01*
X0224242Y0130857D01*
Y0130643D01*
X0224313Y0130286D01*
X0224456Y0130071D01*
X0224670Y0130000D01*
X0224813D01*
X0225027Y0130071D01*
X0225170Y0130286D01*
X0225242Y0130643D01*
Y0130857D01*
X0225170Y0131214D01*
X0225027Y0131428D01*
X0224813Y0131500D01*
X0224670D01*
X0226006D02*
X0225792Y0131428D01*
X0225649Y0131214D01*
X0225577Y0130857D01*
Y0130643D01*
X0225649Y0130286D01*
X0225792Y0130071D01*
X0226006Y0130000D01*
X0226149D01*
X0226363Y0130071D01*
X0226506Y0130286D01*
X0226577Y0130643D01*
Y0130857D01*
X0226506Y0131214D01*
X0226363Y0131428D01*
X0226149Y0131500D01*
X0226006D01*
X0227341D02*
X0227127Y0131428D01*
X0226984Y0131214D01*
X0226913Y0130857D01*
Y0130643D01*
X0226984Y0130286D01*
X0227127Y0130071D01*
X0227341Y0130000D01*
X0227484D01*
X0227698Y0130071D01*
X0227841Y0130286D01*
X0227913Y0130643D01*
Y0130857D01*
X0227841Y0131214D01*
X0227698Y0131428D01*
X0227484Y0131500D01*
X0227341D01*
X0228962D02*
X0228248Y0130500D01*
X0229319D01*
X0228962Y0131500D02*
Y0130000D01*
X0230762Y0130857D02*
X0232047D01*
X0230762Y0130428D02*
X0232047D01*
X0233669Y0131214D02*
X0233811Y0131285D01*
X0234026Y0131500D01*
Y0130000D01*
X0234768Y0131500D02*
X0235340Y0130000D01*
X0235911Y0131500D02*
X0235340Y0130000D01*
X0236104Y0131214D02*
X0236247Y0131285D01*
X0236461Y0131500D01*
Y0130000D01*
X0238382Y0130857D02*
X0239667D01*
X0238382Y0130428D02*
X0239667D01*
X0241288Y0131214D02*
X0241431Y0131285D01*
X0241645Y0131500D01*
Y0130000D01*
X0243388Y0131500D02*
X0242674Y0130000D01*
X0242388Y0131500D02*
X0243388D01*
X0246044Y0130000D02*
X0245473Y0131500D01*
X0244902Y0130000D01*
X0245116Y0130500D02*
X0245830D01*
X0246394Y0131500D02*
Y0130428D01*
X0246466Y0130214D01*
X0246609Y0130071D01*
X0246823Y0130000D01*
X0246966D01*
X0247180Y0130071D01*
X0247323Y0130214D01*
X0247394Y0130428D01*
Y0131500D01*
X0248880Y0131143D02*
X0248808Y0131285D01*
X0248665Y0131428D01*
X0248522Y0131500D01*
X0248237D01*
X0248094Y0131428D01*
X0247951Y0131285D01*
X0247880Y0131143D01*
X0247808Y0130928D01*
Y0130571D01*
X0247880Y0130357D01*
X0247951Y0130214D01*
X0248094Y0130071D01*
X0248237Y0130000D01*
X0248522D01*
X0248665Y0130071D01*
X0248808Y0130214D01*
X0248880Y0130357D01*
Y0130571D01*
X0248522D02*
X0248880D01*
X0250472Y0131143D02*
Y0131214D01*
X0250543Y0131357D01*
X0250615Y0131428D01*
X0250758Y0131500D01*
X0251043D01*
X0251186Y0131428D01*
X0251258Y0131357D01*
X0251329Y0131214D01*
Y0131071D01*
X0251258Y0130928D01*
X0251115Y0130714D01*
X0250401Y0130000D01*
X0251400D01*
X0252165Y0131500D02*
X0251950Y0131428D01*
X0251807Y0131214D01*
X0251736Y0130857D01*
Y0130643D01*
X0251807Y0130286D01*
X0251950Y0130071D01*
X0252165Y0130000D01*
X0252307D01*
X0252522Y0130071D01*
X0252664Y0130286D01*
X0252736Y0130643D01*
Y0130857D01*
X0252664Y0131214D01*
X0252522Y0131428D01*
X0252307Y0131500D01*
X0252165D01*
X0253143Y0131143D02*
Y0131214D01*
X0253214Y0131357D01*
X0253286Y0131428D01*
X0253429Y0131500D01*
X0253714D01*
X0253857Y0131428D01*
X0253928Y0131357D01*
X0254000Y0131214D01*
Y0131071D01*
X0253928Y0130928D01*
X0253786Y0130714D01*
X0253071Y0130000D01*
X0254071D01*
X0254478Y0131143D02*
Y0131214D01*
X0254550Y0131357D01*
X0254621Y0131428D01*
X0254764Y0131500D01*
X0255050D01*
X0255192Y0131428D01*
X0255264Y0131357D01*
X0255335Y0131214D01*
Y0131071D01*
X0255264Y0130928D01*
X0255121Y0130714D01*
X0254407Y0130000D01*
X0255407D01*
D12*
X0240040Y0143880D02*
G03*
X0240040Y0143880I-0000800J0000000D01*
G01*
X0237500Y0148960D02*
G03*
X0237500Y0148960I-0000800J0000000D01*
G01*
Y0143880D02*
G03*
X0237500Y0143880I-0000800J0000000D01*
G01*
X0229880Y0156580D02*
G03*
X0229880Y0156580I-0000800J0000000D01*
G01*
Y0151500D02*
G03*
X0229880Y0151500I-0000800J0000000D01*
G01*
X0227340D02*
G03*
X0227340Y0151500I-0000800J0000000D01*
G01*
X0229880Y0159120D02*
G03*
X0229880Y0159120I-0000800J0000000D01*
G01*
X0227340Y0161660D02*
G03*
X0227340Y0161660I-0000800J0000000D01*
G01*
X0232420Y0164200D02*
G03*
X0232420Y0164200I-0000800J0000000D01*
G01*
X0234960D02*
G03*
X0234960Y0164200I-0000800J0000000D01*
G01*
X0224800Y0161660D02*
G03*
X0224800Y0161660I-0000800J0000000D01*
G01*
X0252740Y0143880D02*
G03*
X0252740Y0143880I-0000800J0000000D01*
G01*
X0242633Y0144300D02*
Y0143500D01*
X0242900Y0144300D02*
X0242367D01*
X0242272Y0143881D02*
X0241929D01*
X0241814Y0143919D01*
X0241776Y0143957D01*
X0241738Y0144033D01*
Y0144147D01*
X0241776Y0144224D01*
X0241814Y0144262D01*
X0241929Y0144300D01*
X0242272D01*
Y0143500D01*
X0241559Y0144147D02*
X0241483Y0144186D01*
X0241369Y0144300D01*
Y0143500D01*
X0240516Y0144300D02*
X0240897D01*
X0240935Y0143957D01*
X0240897Y0143995D01*
X0240782Y0144033D01*
X0240668D01*
X0240554Y0143995D01*
X0240478Y0143919D01*
X0240440Y0143805D01*
Y0143729D01*
X0240478Y0143614D01*
X0240554Y0143538D01*
X0240668Y0143500D01*
X0240782D01*
X0240897Y0143538D01*
X0240935Y0143576D01*
X0240973Y0143652D01*
X0284370Y0192200D02*
Y0191400D01*
X0284637Y0192200D02*
X0284104D01*
X0284009Y0191781D02*
X0283666D01*
X0283551Y0191819D01*
X0283513Y0191857D01*
X0283475Y0191933D01*
Y0192048D01*
X0283513Y0192124D01*
X0283551Y0192162D01*
X0283666Y0192200D01*
X0284009D01*
Y0191400D01*
X0283258Y0192009D02*
Y0192048D01*
X0283220Y0192124D01*
X0283182Y0192162D01*
X0283106Y0192200D01*
X0282953D01*
X0282877Y0192162D01*
X0282839Y0192124D01*
X0282801Y0192048D01*
Y0191971D01*
X0282839Y0191895D01*
X0282915Y0191781D01*
X0283296Y0191400D01*
X0282763D01*
X0237333Y0150900D02*
Y0150100D01*
X0237600Y0150900D02*
X0237067D01*
X0236972Y0150481D02*
X0236629D01*
X0236514Y0150519D01*
X0236476Y0150557D01*
X0236438Y0150633D01*
Y0150747D01*
X0236476Y0150824D01*
X0236514Y0150862D01*
X0236629Y0150900D01*
X0236972D01*
Y0150100D01*
X0236183Y0150900D02*
X0235764D01*
X0235993Y0150595D01*
X0235878D01*
X0235802Y0150557D01*
X0235764Y0150519D01*
X0235726Y0150405D01*
Y0150329D01*
X0235764Y0150214D01*
X0235840Y0150138D01*
X0235955Y0150100D01*
X0236069D01*
X0236183Y0150138D01*
X0236221Y0150176D01*
X0236259Y0150252D01*
X0238033Y0145800D02*
Y0145000D01*
X0238300Y0145800D02*
X0237767D01*
X0237672Y0145381D02*
X0237329D01*
X0237214Y0145419D01*
X0237176Y0145457D01*
X0237138Y0145533D01*
Y0145647D01*
X0237176Y0145724D01*
X0237214Y0145762D01*
X0237329Y0145800D01*
X0237672D01*
Y0145000D01*
X0236578Y0145800D02*
X0236959Y0145267D01*
X0236388D01*
X0236578Y0145800D02*
Y0145000D01*
X0227733Y0157000D02*
Y0156200D01*
X0228000Y0157000D02*
X0227467D01*
X0227372Y0156581D02*
X0227029D01*
X0226914Y0156619D01*
X0226876Y0156657D01*
X0226838Y0156733D01*
Y0156847D01*
X0226876Y0156924D01*
X0226914Y0156962D01*
X0227029Y0157000D01*
X0227372D01*
Y0156200D01*
X0226202Y0156886D02*
X0226240Y0156962D01*
X0226355Y0157000D01*
X0226431D01*
X0226545Y0156962D01*
X0226621Y0156847D01*
X0226659Y0156657D01*
Y0156467D01*
X0226621Y0156314D01*
X0226545Y0156238D01*
X0226431Y0156200D01*
X0226393D01*
X0226278Y0156238D01*
X0226202Y0156314D01*
X0226164Y0156429D01*
Y0156467D01*
X0226202Y0156581D01*
X0226278Y0156657D01*
X0226393Y0156695D01*
X0226431D01*
X0226545Y0156657D01*
X0226621Y0156581D01*
X0226659Y0156467D01*
X0229733Y0153500D02*
Y0152700D01*
X0230000Y0153500D02*
X0229467D01*
X0229372Y0153081D02*
X0229029D01*
X0228915Y0153119D01*
X0228876Y0153157D01*
X0228838Y0153233D01*
Y0153347D01*
X0228876Y0153424D01*
X0228915Y0153462D01*
X0229029Y0153500D01*
X0229372D01*
Y0152700D01*
X0228126Y0153500D02*
X0228507Y0152700D01*
X0228659Y0153500D02*
X0228126D01*
X0225133Y0151900D02*
Y0151100D01*
X0225400Y0151900D02*
X0224867D01*
X0224772Y0151481D02*
X0224429D01*
X0224314Y0151519D01*
X0224276Y0151557D01*
X0224238Y0151633D01*
Y0151747D01*
X0224276Y0151824D01*
X0224314Y0151862D01*
X0224429Y0151900D01*
X0224772D01*
Y0151100D01*
X0223869Y0151900D02*
X0223983Y0151862D01*
X0224021Y0151786D01*
Y0151709D01*
X0223983Y0151633D01*
X0223907Y0151595D01*
X0223755Y0151557D01*
X0223640Y0151519D01*
X0223564Y0151443D01*
X0223526Y0151367D01*
Y0151252D01*
X0223564Y0151176D01*
X0223602Y0151138D01*
X0223717Y0151100D01*
X0223869D01*
X0223983Y0151138D01*
X0224021Y0151176D01*
X0224059Y0151252D01*
Y0151367D01*
X0224021Y0151443D01*
X0223945Y0151519D01*
X0223831Y0151557D01*
X0223678Y0151595D01*
X0223602Y0151633D01*
X0223564Y0151709D01*
Y0151786D01*
X0223602Y0151862D01*
X0223717Y0151900D01*
X0223869D01*
X0227733Y0159500D02*
Y0158700D01*
X0228000Y0159500D02*
X0227467D01*
X0227372Y0159081D02*
X0227029D01*
X0226914Y0159119D01*
X0226876Y0159157D01*
X0226838Y0159233D01*
Y0159347D01*
X0226876Y0159424D01*
X0226914Y0159462D01*
X0227029Y0159500D01*
X0227372D01*
Y0158700D01*
X0226164Y0159233D02*
X0226202Y0159119D01*
X0226278Y0159043D01*
X0226393Y0159005D01*
X0226431D01*
X0226545Y0159043D01*
X0226621Y0159119D01*
X0226659Y0159233D01*
Y0159271D01*
X0226621Y0159386D01*
X0226545Y0159462D01*
X0226431Y0159500D01*
X0226393D01*
X0226278Y0159462D01*
X0226202Y0159386D01*
X0226164Y0159233D01*
Y0159043D01*
X0226202Y0158852D01*
X0226278Y0158738D01*
X0226393Y0158700D01*
X0226469D01*
X0226583Y0158738D01*
X0226621Y0158814D01*
X0227233Y0163700D02*
Y0162900D01*
X0227500Y0163700D02*
X0226967D01*
X0226872Y0163281D02*
X0226529D01*
X0226415Y0163319D01*
X0226376Y0163357D01*
X0226338Y0163433D01*
Y0163547D01*
X0226376Y0163624D01*
X0226415Y0163662D01*
X0226529Y0163700D01*
X0226872D01*
Y0162900D01*
X0226159Y0163547D02*
X0226083Y0163586D01*
X0225969Y0163700D01*
Y0162900D01*
X0225344Y0163700D02*
X0225459Y0163662D01*
X0225535Y0163547D01*
X0225573Y0163357D01*
Y0163243D01*
X0225535Y0163052D01*
X0225459Y0162938D01*
X0225344Y0162900D01*
X0225268D01*
X0225154Y0162938D01*
X0225078Y0163052D01*
X0225040Y0163243D01*
Y0163357D01*
X0225078Y0163547D01*
X0225154Y0163662D01*
X0225268Y0163700D01*
X0225344D01*
X0232033Y0166200D02*
Y0165400D01*
X0232300Y0166200D02*
X0231767D01*
X0231672Y0165781D02*
X0231329D01*
X0231214Y0165819D01*
X0231176Y0165857D01*
X0231138Y0165933D01*
Y0166047D01*
X0231176Y0166124D01*
X0231214Y0166162D01*
X0231329Y0166200D01*
X0231672D01*
Y0165400D01*
X0230959Y0166047D02*
X0230883Y0166086D01*
X0230769Y0166200D01*
Y0165400D01*
X0230373Y0166047D02*
X0230297Y0166086D01*
X0230182Y0166200D01*
Y0165400D01*
X0235233Y0166200D02*
Y0165400D01*
X0235500Y0166200D02*
X0234967D01*
X0234872Y0165781D02*
X0234529D01*
X0234414Y0165819D01*
X0234376Y0165857D01*
X0234338Y0165933D01*
Y0166047D01*
X0234376Y0166124D01*
X0234414Y0166162D01*
X0234529Y0166200D01*
X0234872D01*
Y0165400D01*
X0234159Y0166047D02*
X0234083Y0166086D01*
X0233969Y0166200D01*
Y0165400D01*
X0233535Y0166009D02*
Y0166047D01*
X0233497Y0166124D01*
X0233459Y0166162D01*
X0233382Y0166200D01*
X0233230D01*
X0233154Y0166162D01*
X0233116Y0166124D01*
X0233078Y0166047D01*
Y0165971D01*
X0233116Y0165895D01*
X0233192Y0165781D01*
X0233573Y0165400D01*
X0233040D01*
X0222733Y0162500D02*
Y0161700D01*
X0223000Y0162500D02*
X0222467D01*
X0222372Y0162081D02*
X0222029D01*
X0221914Y0162119D01*
X0221876Y0162157D01*
X0221838Y0162233D01*
Y0162347D01*
X0221876Y0162424D01*
X0221914Y0162462D01*
X0222029Y0162500D01*
X0222372D01*
Y0161700D01*
X0221659Y0162347D02*
X0221583Y0162386D01*
X0221469Y0162500D01*
Y0161700D01*
X0220997Y0162500D02*
X0220578D01*
X0220806Y0162195D01*
X0220692D01*
X0220616Y0162157D01*
X0220578Y0162119D01*
X0220540Y0162005D01*
Y0161929D01*
X0220578Y0161814D01*
X0220654Y0161738D01*
X0220768Y0161700D01*
X0220882D01*
X0220997Y0161738D01*
X0221035Y0161776D01*
X0221073Y0161852D01*
X0252833Y0145800D02*
Y0145000D01*
X0253100Y0145800D02*
X0252567D01*
X0252472Y0145381D02*
X0252129D01*
X0252014Y0145419D01*
X0251976Y0145457D01*
X0251938Y0145533D01*
Y0145647D01*
X0251976Y0145724D01*
X0252014Y0145762D01*
X0252129Y0145800D01*
X0252472D01*
Y0145000D01*
X0251759Y0145647D02*
X0251683Y0145686D01*
X0251569Y0145800D01*
Y0145000D01*
X0250792Y0145800D02*
X0251173Y0145267D01*
X0250601D01*
X0250792Y0145800D02*
Y0145000D01*
X0283726Y0199600D02*
Y0198800D01*
X0283993Y0199600D02*
X0283460D01*
X0283365Y0199181D02*
X0283022D01*
X0282908Y0199219D01*
X0282869Y0199257D01*
X0282831Y0199333D01*
Y0199448D01*
X0282869Y0199524D01*
X0282908Y0199562D01*
X0283022Y0199600D01*
X0283365D01*
Y0198800D01*
X0282576Y0199600D02*
X0282157D01*
X0282386Y0199295D01*
X0282272D01*
X0282195Y0199257D01*
X0282157Y0199219D01*
X0282119Y0199105D01*
Y0199029D01*
X0282157Y0198914D01*
X0282233Y0198838D01*
X0282348Y0198800D01*
X0282462D01*
X0282576Y0198838D01*
X0282614Y0198876D01*
X0282652Y0198952D01*
X0281864Y0199600D02*
X0281445D01*
X0281674Y0199295D01*
X0281559D01*
X0281483Y0199257D01*
X0281445Y0199219D01*
X0281407Y0199105D01*
Y0199029D01*
X0281445Y0198914D01*
X0281521Y0198838D01*
X0281635Y0198800D01*
X0281750D01*
X0281864Y0198838D01*
X0281902Y0198876D01*
X0281940Y0198952D01*
X0284500Y0192955D02*
X0283700D01*
X0284500Y0192688D02*
Y0193221D01*
X0284081Y0193316D02*
Y0193659D01*
X0284119Y0193773D01*
X0284157Y0193811D01*
X0284233Y0193850D01*
X0284348D01*
X0284424Y0193811D01*
X0284462Y0193773D01*
X0284500Y0193659D01*
Y0193316D01*
X0283700D01*
X0284500Y0194105D02*
Y0194524D01*
X0284195Y0194295D01*
Y0194409D01*
X0284157Y0194486D01*
X0284119Y0194524D01*
X0284005Y0194562D01*
X0283929D01*
X0283814Y0194524D01*
X0283738Y0194448D01*
X0283700Y0194333D01*
Y0194219D01*
X0283738Y0194105D01*
X0283776Y0194067D01*
X0283852Y0194029D01*
X0284500Y0195122D02*
X0283967Y0194741D01*
Y0195312D01*
X0284500Y0195122D02*
X0283700D01*
X0283526Y0196700D02*
Y0195900D01*
X0283793Y0196700D02*
X0283260D01*
X0283165Y0196281D02*
X0282822D01*
X0282708Y0196319D01*
X0282669Y0196357D01*
X0282631Y0196433D01*
Y0196548D01*
X0282669Y0196624D01*
X0282708Y0196662D01*
X0282822Y0196700D01*
X0283165D01*
Y0195900D01*
X0282376Y0196700D02*
X0281957D01*
X0282186Y0196395D01*
X0282072D01*
X0281995Y0196357D01*
X0281957Y0196319D01*
X0281919Y0196205D01*
Y0196129D01*
X0281957Y0196014D01*
X0282033Y0195938D01*
X0282148Y0195900D01*
X0282262D01*
X0282376Y0195938D01*
X0282414Y0195976D01*
X0282452Y0196052D01*
X0281283Y0196700D02*
X0281664D01*
X0281702Y0196357D01*
X0281664Y0196395D01*
X0281550Y0196433D01*
X0281435D01*
X0281321Y0196395D01*
X0281245Y0196319D01*
X0281207Y0196205D01*
Y0196129D01*
X0281245Y0196014D01*
X0281321Y0195938D01*
X0281435Y0195900D01*
X0281550D01*
X0281664Y0195938D01*
X0281702Y0195976D01*
X0281740Y0196052D01*
M02*
