M48
;Layer_Color=9474304
;FILE_FORMAT=4:3
METRIC
;TYPE=NON_PLATED
T10F00S00C1.000
T11F00S00C1.700
T12F00S00C2.400
T13F00S00C3.200
%
T10
X0228260Y0146000
X0233340Y0147016
Y0144984
T11
X0369500Y0154000
X0376500
Y0168000
X0369500
Y0182000
X0376500
Y0196000
X0369500
Y0214000
X0376500
Y0228000
X0369500
X0235200Y0264000
X0240800
X0251200
X0256800
X0369500Y0256000
X0376500
Y0242000
X0369500
T12
X0309500Y0262400
X0324500
X0330000
X0345000
T13
X0376000Y0144000
X0300000
X0224000
X0376000Y0205000
X0224000
Y0266000
X0300000Y0266000
X0376000Y0266000
M30
