M48
;Layer_Color=9474304
;FILE_FORMAT=4:3
METRIC
;TYPE=PLATED
T1F00S00C0.200
T3F00S00C0.800
T4F00S00C1.000
T5F00S00C1.100
T6F00S00C1.400
T7F00S00C1.600
T8F00S00C1.700
T9F00S00C2.650
%
T01
X0358000Y0148000
X0364000
X0363000Y0152800
Y0155200
X0366000Y0154000
X0373000
X0370000Y0148000
Y0143000
X0358300Y0154800
X0353000Y0153000
Y0148000
X0348000
Y0153000
Y0158000
X0353000
X0340000Y0157000
Y0151200
X0343000Y0148000
Y0143000
X0348000
X0353000
X0335000Y0145000
X0325000
X0330000Y0151200
Y0157000
X0320000
Y0151200
X0314000Y0151300
X0311000
X0308000
X0305000
Y0145000
X0295000
X0282500
X0278000Y0143500
X0282500Y0152500
X0279500Y0155500
X0315000Y0145000
X0276500Y0143500
X0275000
X0272600Y0144100
X0271500Y0143500
X0270000
X0268500
X0266300Y0144100
X0267000Y0142000
X0273000
X0272600Y0148100
X0273900
X0275200
X0276500
X0277000Y0153900
X0274500
X0272200
X0269500
Y0152900
X0270000Y0152000
X0271300
X0267500
X0266300
Y0153400
X0268200Y0153900
X0265100Y0155700
X0260100Y0155200
X0258300Y0155500
X0258400Y0154400
X0257200
X0256600Y0156300
X0255400
X0254700Y0158100
X0253700Y0155500
X0251700Y0153900
Y0152800
Y0151700
Y0150600
X0255100Y0150400
X0257400Y0150500
X0258500
X0258300Y0149000
X0257190Y0147900
X0254800
X0253700Y0149000
X0249300Y0147500
Y0146500
X0246800Y0145200
X0245700
X0244600
Y0142800
X0245000Y0142000
X0245700Y0143400
X0246800Y0144000
X0250000Y0142000
X0255000
X0255100Y0143600
X0256700
X0258300Y0144600
X0261000Y0144700
X0261400Y0145700
X0261800Y0146900
X0262586Y0147514
X0263400Y0148100
X0260800Y0148400
X0261500Y0152200
X0260500Y0142000
X0240000
X0239500Y0146400
X0241400Y0146900
X0242400
X0243900Y0147800
X0239500Y0148800
X0239500Y0151000
Y0152000
X0241000
X0242000
Y0153500
X0241000
X0239500
Y0155000
Y0156000
X0241000
Y0155000
X0242000
X0242900Y0158000
X0245425Y0157250
X0246550Y0158000
X0246100Y0155300
X0246600Y0153100
X0247100Y0151600
X0248100
X0247800Y0150300
X0246100Y0151600
X0244200Y0153100
X0248700Y0153100
X0241000Y0151000
X0239500Y0158200
X0271300Y0158150
X0238000Y0156000
Y0155000
X0237000
Y0153500
X0238000
Y0152000
X0237000
X0238000Y0151000
X0235300Y0149600
X0235200Y0148600
X0235100Y0147600
X0236000Y0146900
X0237600Y0146900
X0235700Y0144800
X0234500Y0144500
X0235600Y0143200
X0235000Y0142000
X0232050Y0144550
X0231800Y0147900
X0232900Y0148200
Y0149600
X0232400Y0151100
Y0152100
Y0153550
X0232400Y0155400
X0231400Y0155400
X0230600Y0156000
Y0154500
Y0152875
Y0151900
X0231300Y0151200
X0230800Y0149600
X0229500
X0228200
X0227000
X0224000Y0149600
X0222000Y0149000
X0223800Y0154200
X0226500Y0154100
Y0153000
X0227600Y0154100
X0232300Y0156800
X0231200Y0158000
X0233900Y0158400
X0234800Y0156600
Y0152100
X0228400Y0147500
X0228700Y0143400
X0223800Y0157800
X0226700Y0160000
X0227800Y0163300
X0228800
Y0162400
X0229900
Y0163300
X0231200Y0163000
Y0161800
X0230700Y0160500
Y0159200
X0235700
Y0160900
X0235300Y0162200
Y0163100
X0236200
Y0162200
X0237400Y0163100
X0237600Y0160100
X0234000Y0161800
Y0163000
X0232600
X0232100Y0167300
X0230900Y0167500
Y0166100
X0227800Y0166500
X0227100Y0168300
X0227500Y0170000
X0229500Y0169100
X0233000Y0168400
X0233900
X0233600Y0167300
X0234000Y0170000
X0237400Y0168300
X0237500Y0175000
X0232500Y0180000
X0228100Y0179100
Y0177800
X0226800
Y0179100
X0223800Y0179300
Y0182900
X0226800Y0185100
X0230900Y0185800
X0231800
Y0186700
X0230900
X0234600Y0186200
X0234300Y0184600
X0237500Y0187500
X0234500Y0193300
X0222500Y0187500
X0222000Y0170000
Y0163500
X0223700Y0164400
X0224600
X0225500
X0226700Y0164700
X0225300Y0166600
X0238700Y0165300
X0238400Y0164100
X0238500Y0168300
X0240200
X0239000Y0170000
X0244000
X0249000
X0252700Y0169300
X0256000Y0165500
X0261500
X0262000Y0170000
X0262500Y0175000
X0267500Y0180000
X0272500Y0175000
X0270000Y0170000
X0268500Y0165500
X0267500Y0161900
X0266300
X0270100
X0272000Y0163300
X0272900Y0162600
X0261200Y0159250
X0256500Y0160075
X0255500
X0251700Y0159300
X0251500Y0161000
X0248100Y0159900
X0246550Y0159100
X0247400Y0163900
Y0164900
Y0166100
Y0167100
X0244000Y0164500
X0241500Y0160100
X0239500Y0160600
X0242500Y0180000
X0248400Y0183900
Y0184800
Y0186000
X0249800Y0187000
X0249900Y0184800
Y0183900
X0251100
X0252000
X0252900
Y0184800
X0252000
X0251100
X0250600Y0189600
X0249000Y0189500
X0248100Y0190300
Y0191200
X0248700Y0192700
X0248400Y0196400
Y0197300
Y0198200
X0249900Y0197300
Y0196400
X0251100
X0252000
Y0197300
X0251100
X0252900
Y0196400
X0252300Y0192000
Y0191000
Y0190100
Y0189100
X0255800Y0190500
X0246800Y0190400
X0245800
X0242000Y0193300
Y0196700
X0246100Y0196900
X0239200Y0194000
X0258700Y0197000
X0252500Y0180000
X0247500Y0175000
X0277500Y0180000
X0280000Y0185300
X0280700Y0186700
X0280100Y0189700
Y0190700
Y0192900
Y0193900
Y0195100
Y0197500
X0278500Y0197700
X0281000Y0198400
X0282500Y0197500
Y0195100
Y0193900
Y0192900
Y0190700
Y0189700
X0285800Y0189800
Y0190800
X0285600Y0193000
X0286100Y0194600
X0285600Y0195400
Y0197100
X0286000Y0198000
X0289200Y0197400
Y0196000
Y0194600
Y0193200
X0290600
X0292000
X0293400
X0294800
Y0194600
Y0196000
Y0197400
X0292000
Y0196000
Y0194600
X0290600Y0196000
X0293400
X0292800Y0191900
X0291800Y0191300
X0290600
X0289400
Y0189600
X0288800Y0186500
X0286800
Y0184100
X0288800
X0294000
X0295600
X0298000
X0299000
Y0186500
X0298000
X0295600
X0294000
X0294700Y0189600
X0295800
X0295700Y0192500
X0301400Y0193000
Y0192000
X0303900
Y0193000
Y0194600
Y0196600
X0301500
Y0194600
X0298400Y0196600
Y0198200
X0298300Y0181300
X0299900
X0303600Y0180600
X0304500Y0180000
X0305500Y0179400
X0307200Y0180800
X0308700
X0310700Y0181200
Y0182200
X0316100Y0182200
X0317300Y0180700
X0315700Y0178000
X0307200Y0185200
X0303800Y0172600
X0289000Y0177000
X0285000Y0179000
X0283000Y0170000
X0282700Y0162000
X0279600
X0278000Y0162500
Y0166000
X0279500Y0160000
X0321500Y0161500
X0331500
X0332500Y0167300
X0333500
X0343000Y0166000
Y0171000
Y0176000
X0344500Y0176600
Y0177600
X0344500Y0181300
X0346800Y0181300
X0350135Y0180495
X0351800Y0181900
X0354500Y0182000
X0356000Y0184000
X0352000Y0185000
X0352300Y0190000
X0350500Y0189400
X0349700Y0190000
X0347800Y0191200
X0347100Y0192500
X0347000Y0189400
X0345800Y0188000
X0343000
X0341500Y0186000
Y0184000
X0340900Y0183200
X0340300Y0184800
X0338400Y0186000
X0336000Y0188800
X0335000
X0332200Y0190400
X0331400Y0189700
X0330700Y0187000
X0329700
X0324100Y0185700
X0322500
X0321000
X0319400
X0319500Y0180800
X0321000
X0322500
X0324000
X0340300Y0179500
X0339700Y0177000
X0347100Y0175500
X0347000Y0172400
X0346200Y0173000
X0348200
X0349700
X0350500Y0172400
X0352300Y0173000
X0353800Y0174700
X0354500Y0176100
X0355300Y0177600
X0355100Y0172100
X0356500
X0356600Y0165700
X0355100
X0353000Y0168000
X0350000Y0167700
X0350700Y0170000
X0350500Y0175500
X0348000Y0163000
X0353000
X0355100Y0158800
X0341500Y0161500
X0343400Y0193000
X0344500Y0193600
Y0194600
X0344500Y0198300
X0346500
X0350135Y0197495
X0350500Y0192500
X0353800Y0191600
X0354700Y0193700
X0354600Y0196000
X0356700Y0188700
X0360000Y0190000
X0366000
X0372000
X0377000Y0187700
X0378200
X0378200Y0197700
X0377000
X0363000Y0197200
Y0194800
X0358400Y0196000
X0357700Y0185000
X0358300Y0182600
X0363000Y0183200
Y0180800
X0362000Y0176000
X0363000Y0169200
Y0166800
X0358400Y0168300
X0357900Y0172100
X0358000Y0160000
X0364000
X0369000Y0164000
X0373000Y0160000
X0377000Y0159700
X0378200
Y0173700
X0377000
X0374000Y0175000
X0370000Y0205000
X0370500Y0210000
X0365500
X0363500Y0212800
Y0215200
X0365500Y0218000
X0362000Y0219000
X0359100Y0220600
X0357400
Y0216800
X0359100Y0211300
Y0208100
X0357400
Y0204300
X0358000Y0201000
X0363000Y0205000
X0370500Y0218000
Y0224000
X0365500
X0363500Y0226800
Y0229200
X0365500Y0232000
X0362000Y0233000
X0359100Y0233100
X0357400
Y0229300
X0359100Y0225500
X0370500Y0232000
Y0238000
X0365500
X0377000Y0233700
X0378200
Y0219700
X0377000
X0356400Y0223300
X0355100Y0222400
X0351500Y0221000
X0348500Y0220300
Y0222100
X0349400Y0224200
X0350400
X0345600Y0223600
Y0222300
X0344800Y0220000
Y0219000
X0344400Y0216300
Y0215300
Y0214300
X0345000Y0212600
X0345600Y0211100
Y0209800
X0348500Y0209600
Y0207800
Y0205200
X0348500Y0203900
X0351600Y0204500
X0351500Y0208500
X0350400Y0211700
X0349400
X0347200Y0214600
X0348500Y0216400
X0348500Y0217700
X0351600Y0217000
X0355600Y0216800
X0354600Y0215000
X0355100Y0209900
X0356400Y0210800
X0355600Y0204300
X0354600Y0202500
X0354500Y0199000
X0351800Y0198900
X0347000Y0201000
X0344400Y0201800
Y0202800
Y0203800
X0343900Y0205300
X0343700Y0206900
X0344800Y0206500
Y0207500
X0345600Y0205900
X0341500Y0199500
X0340300
X0340900Y0198700
X0342100
X0322700Y0202000
Y0203000
X0323300Y0205000
Y0212600
Y0213900
Y0215100
Y0216400
X0322000Y0219800
X0321000
X0339300Y0220500
Y0221500
X0342300Y0225600
X0341600Y0226400
X0342300Y0228200
X0341600Y0229100
X0344400Y0228800
Y0227800
Y0226800
X0344900Y0225000
X0347100Y0227000
X0348500Y0228900
X0348500Y0230200
Y0232800
Y0234600
X0349400Y0236700
X0350400
X0351500Y0233500
X0351600Y0229500
X0355600Y0229300
X0354600Y0227500
X0355100Y0234900
X0356400Y0235800
X0345600Y0234800
X0344800Y0232500
Y0231500
X0345600Y0230900
X0345500Y0237900
X0344500Y0237000
X0342900
X0309600Y0237100
Y0238100
X0306600Y0234000
X0304500Y0233700
X0304600Y0230200
X0303600
X0301300Y0230600
X0300400Y0228400
X0299400
X0296400Y0228400
X0295400
X0297100Y0230600
X0292700Y0230000
X0295400Y0234200
X0299400
X0300100Y0236800
Y0237800
X0301500Y0237500
Y0236500
X0292000
Y0237500
X0308700Y0228800
X0309700
X0308400Y0206400
X0307100
X0305869Y0206367
X0304600Y0206400
X0302500Y0207400
X0302000Y0211000
Y0212000
X0299500Y0211700
X0298500
X0294900Y0209700
X0295200Y0207900
X0294200
Y0205500
X0295200
X0296600
Y0207900
X0291800
X0290800
Y0205500
X0291800
X0291700Y0209700
X0293000Y0202400
X0294700
X0295700
X0296700
X0297400Y0200200
X0298300Y0200800
Y0199600
X0301500Y0199400
X0301200Y0200600
X0303900Y0199400
X0310352Y0201800
X0294800Y0201000
Y0199900
Y0198800
X0293400
X0292000
X0290600Y0198800
X0289200Y0198800
X0285600Y0198900
Y0199900
Y0201000
X0282500Y0200300
Y0201700
X0280100
Y0200300
X0279900Y0198500
X0278100Y0201700
X0279800Y0207900
X0282500Y0211200
X0283500
X0289800Y0202300
X0276900Y0202700
X0276100Y0204000
Y0205500
Y0207000
X0276800Y0208200
X0277800Y0211300
X0259600Y0211400
X0257700Y0210200
X0255000Y0210000
X0254000
X0253000
Y0211000
X0254000
X0255000
X0251700Y0211400
X0249800Y0210200
X0247100Y0210000
X0246100
X0245100
Y0211000
X0246100
X0247100
X0249000Y0212800
X0247100Y0214900
Y0215900
X0246100
X0245100
Y0214900
X0246100
X0250600Y0216000
Y0217500
X0253000Y0215900
Y0214900
X0254000
X0255000
Y0215900
X0254000
X0258500Y0216000
Y0217500
X0261200Y0214800
X0256900Y0212800
X0256300Y0203300
Y0202000
X0258700
X0259700Y0203300
X0258000Y0199500
X0249900
X0250600Y0202100
X0249000Y0202000
X0248100Y0202900
X0252300Y0202600
Y0203500
Y0204500
X0252000Y0201700
X0246700Y0206200
X0245200
X0243400Y0203600
X0242400Y0200700
X0241500
Y0199800
X0242400
X0239700Y0200000
Y0202700
X0238000
X0234700
X0232500Y0212500
X0227900Y0213200
X0226700
Y0214400
X0227900
X0223800Y0214300
Y0217900
X0222500Y0200000
X0237000Y0254200
X0238000
X0255600
X0256600
X0263700Y0257100
X0264700
X0267500Y0257100
X0268500
X0268500Y0251200
X0265700Y0250600
X0264700Y0251200
X0269500Y0248400
X0271000Y0245500
X0272300Y0244200
X0273900Y0251800
X0275400
X0276700Y0252700
X0258200Y0241900
X0257200
X0255100Y0242600
X0254500Y0244900
X0249700Y0243400
X0257300Y0238400
X0279500Y0243300
X0280400Y0244500
X0279500Y0248700
X0284300Y0250000
X0284100Y0252600
X0289000Y0253300
X0288000Y0255500
Y0256500
X0288500Y0258000
X0287600Y0259000
X0298000Y0256800
Y0254500
X0299000Y0251700
X0300000
X0299700Y0259500
X0308600Y0251500
Y0250500
X0312100Y0250600
X0316000Y0250000
X0316800Y0245300
X0316200Y0244000
Y0243000
X0307100Y0242300
X0304900Y0239800
X0303000Y0241200
X0302000
X0295500Y0239700
X0294500
X0292000Y0238500
X0283700Y0240000
Y0241000
X0320000Y0245400
X0323600Y0251100
Y0252900
X0324750Y0252000
X0333250
X0344000Y0249000
X0345600Y0247300
Y0244675
X0342000Y0245400
Y0243900
X0344400Y0241300
Y0240300
Y0239300
X0347200Y0239700
X0348500Y0241400
X0348500Y0242700
X0351600Y0242000
X0351500Y0246000
X0348500Y0247100
X0349400Y0249200
X0350400
X0351200Y0250700
X0352100
X0353000
X0355400Y0252000
Y0253500
X0356500Y0254700
X0356400Y0248300
X0355100Y0247400
X0355600Y0241800
X0354600Y0240000
X0348500Y0251500
Y0252400
X0347600
Y0251500
X0349300Y0253300
X0350200Y0256000
Y0257000
Y0258000
X0351200
Y0257000
Y0256000
X0351800Y0260500
X0350000Y0261000
X0350500Y0263000
X0351400
Y0263900
X0350500
X0351000Y0267000
X0354600Y0264800
X0357000Y0267000
X0355400Y0260500
X0357900Y0257500
Y0256500
X0359000Y0254000
X0358900Y0249700
Y0245600
X0357400Y0245600
Y0241800
X0359100Y0239200
X0363500Y0240800
Y0243200
X0365500Y0246000
X0362000Y0247000
X0365500Y0252000
X0363500Y0254800
Y0257200
X0365500Y0260000
X0362000Y0261000
X0363000Y0267000
X0369000
X0370500Y0260000
Y0252000
Y0246000
X0377000Y0247700
X0378200
Y0261700
X0377000
T03
X0235460Y0258900
X0238000
X0240540
X0251460
X0254000
X0256540
T04
X0286230Y0150350
Y0152890
X0288770
Y0150350
X0291310
Y0152890
X0293850
Y0150350
X0296390
Y0152890
X0230350Y0190990
X0227810
Y0196070
X0230350
X0243050Y0188450
Y0185910
X0258290
Y0193530
X0268450
Y0196070
X0270990
Y0193530
Y0190990
X0268450
X0286230Y0168130
X0288770
X0291310
X0293850
X0296390
X0298930
X0301470
X0304010
Y0165590
X0301470
X0298930
X0296390
X0293850
X0291310
X0288770
X0286230
X0314170Y0173210
X0316710
Y0188450
X0314170
Y0190990
X0316710
Y0193530
X0314170
Y0196070
X0316710
X0329410
Y0193530
X0331950
Y0196070
Y0183370
X0334490
X0337030
Y0180830
X0334490
X0331950
X0329410
Y0183370
Y0178290
Y0175750
X0331950
X0334490
X0337030
Y0178290
X0334490
X0331950
Y0198610
X0329410
Y0201150
X0331950
Y0203690
X0329410
Y0206230
X0331950
Y0208770
X0329410
Y0211310
X0331950
Y0213850
X0329410
Y0216390
X0331950
Y0226550
Y0229090
Y0231630
Y0234170
X0329410
Y0231630
Y0229090
Y0226550
X0334490
Y0229090
Y0231630
Y0234170
X0337030
Y0231630
Y0229090
Y0226550
X0316710
X0314170
Y0213850
Y0211310
Y0208770
Y0206230
Y0203690
X0316710
Y0206230
Y0208770
Y0211310
Y0213850
Y0198610
X0314170
X0311630Y0236710
X0294300Y0223900
Y0221360
X0291760
Y0223900
X0289220
Y0221360
X0286680
Y0223900
X0284140
Y0221360
X0270990Y0213850
X0268450
Y0201150
X0270990
Y0198610
X0268450
X0258290Y0206230
X0253210Y0218930
X0245590
X0243050Y0208770
X0248130Y0231630
Y0234170
X0230350Y0206230
Y0203690
Y0201150
X0270990Y0239250
X0273530
X0276070
Y0241790
X0273530
X0270990
X0278610
X0281150
Y0239250
X0278610
X0301470Y0244330
X0311630Y0239250
X0344650Y0251950
T05
X0235460Y0261500
X0240540
X0251460
X0256540
X0240500Y0241000
T06
X0309500Y0257400
X0312000Y0254900
X0317000Y0257400
X0314500Y0267400
X0312000
X0319500
X0322000
X0332500
X0335000
X0340000
X0342500
X0345000Y0257400
X0342500Y0254900
X0337500Y0257400
X0330000
X0332500Y0254900
X0324500Y0257400
X0322000Y0254900
T07
X0243630Y0237870
X0237370
Y0244130
X0243630
T08
X0270000Y0261500
X0286000
T09
X0265000Y0261500
X0270000Y0266000
X0275000Y0261500
X0281000
X0286000Y0266000
X0291000Y0261500
M30
