%TF.GenerationSoftware,KiCad,Pcbnew,8.0.5*%
%TF.CreationDate,2025-01-29T19:48:31-05:00*%
%TF.ProjectId,Power_Supplies_DSP,506f7765-725f-4537-9570-706c6965735f,rev?*%
%TF.SameCoordinates,Original*%
%TF.FileFunction,Copper,L4,Bot*%
%TF.FilePolarity,Positive*%
%FSLAX46Y46*%
G04 Gerber Fmt 4.6, Leading zero omitted, Abs format (unit mm)*
G04 Created by KiCad (PCBNEW 8.0.5) date 2025-01-29 19:48:31*
%MOMM*%
%LPD*%
G01*
G04 APERTURE LIST*
%TA.AperFunction,ComponentPad*%
%ADD10R,1.650000X1.650000*%
%TD*%
%TA.AperFunction,ComponentPad*%
%ADD11C,1.650000*%
%TD*%
%TA.AperFunction,ComponentPad*%
%ADD12R,1.700000X1.700000*%
%TD*%
%TA.AperFunction,ComponentPad*%
%ADD13O,1.700000X1.700000*%
%TD*%
%TA.AperFunction,ViaPad*%
%ADD14C,0.700000*%
%TD*%
%TA.AperFunction,ViaPad*%
%ADD15C,0.800000*%
%TD*%
%TA.AperFunction,Conductor*%
%ADD16C,0.200000*%
%TD*%
%TA.AperFunction,Conductor*%
%ADD17C,0.300000*%
%TD*%
G04 APERTURE END LIST*
D10*
%TO.P,J7,1,1*%
%TO.N,3.3V*%
X147950000Y-122950000D03*
D11*
%TO.P,J7,2,2*%
X147950000Y-120410000D03*
%TO.P,J7,3,3*%
%TO.N,JTRST*%
X150490000Y-122950000D03*
%TO.P,J7,4,4*%
%TO.N,GND*%
X150490000Y-120410000D03*
%TO.P,J7,5,5*%
%TO.N,JTDI*%
X153030000Y-122950000D03*
%TO.P,J7,6,6*%
%TO.N,GND*%
X153030000Y-120410000D03*
%TO.P,J7,7,7*%
%TO.N,SWDIO*%
X155570000Y-122950000D03*
%TO.P,J7,8,8*%
%TO.N,GND*%
X155570000Y-120410000D03*
%TO.P,J7,9,9*%
%TO.N,SWCLK*%
X158110000Y-122950000D03*
%TO.P,J7,10,10*%
%TO.N,GND*%
X158110000Y-120410000D03*
%TO.P,J7,11,11*%
%TO.N,Net-(J7-Pad11)*%
X160650000Y-122950000D03*
%TO.P,J7,12,12*%
%TO.N,GND*%
X160650000Y-120410000D03*
%TO.P,J7,13,13*%
%TO.N,JTDO_SWO*%
X163190000Y-122950000D03*
%TO.P,J7,14,14*%
%TO.N,GND*%
X163190000Y-120410000D03*
%TO.P,J7,15,15*%
%TO.N,unconnected-(J7-Pad15)*%
X165730000Y-122950000D03*
%TO.P,J7,16,16*%
%TO.N,GND*%
X165730000Y-120410000D03*
%TO.P,J7,17,17*%
%TO.N,Net-(J7-Pad17)*%
X168270000Y-122950000D03*
%TO.P,J7,18,18*%
%TO.N,GND*%
X168270000Y-120410000D03*
%TO.P,J7,19,19*%
%TO.N,Net-(J7-Pad19)*%
X170810000Y-122950000D03*
%TO.P,J7,20,20*%
%TO.N,GND*%
X170810000Y-120410000D03*
%TD*%
D12*
%TO.P,J6,1*%
%TO.N,SPI3_MOSI*%
X249500000Y-119905000D03*
D13*
%TO.P,J6,2*%
%TO.N,SPI3_MISO*%
X249500000Y-122445000D03*
%TO.P,J6,3*%
%TO.N,SPI3_SCK*%
X249500000Y-124985000D03*
%TO.P,J6,4*%
%TO.N,unconnected-(J6-Pad4)*%
X249500000Y-127525000D03*
%TO.P,J6,5*%
%TO.N,CHANNEL_1*%
X249500000Y-130065000D03*
%TO.P,J6,6*%
%TO.N,GND*%
X249500000Y-132605000D03*
%TO.P,J6,7*%
%TO.N,CHANNEL_2*%
X249500000Y-135145000D03*
%TO.P,J6,8*%
%TO.N,unconnected-(J6-Pad8)*%
X249500000Y-137685000D03*
%TO.P,J6,9*%
%TO.N,I2C3_SDA*%
X249500000Y-140225000D03*
%TO.P,J6,10*%
%TO.N,I2C3_SCL*%
X249500000Y-142765000D03*
%TD*%
D12*
%TO.P,J5,1*%
%TO.N,CHANNEL_1*%
X264375000Y-148997500D03*
D13*
%TO.P,J5,2*%
%TO.N,CHANNEL_2*%
X261835000Y-148997500D03*
%TD*%
D12*
%TO.P,J4,1*%
%TO.N,SAI1_MCLK_A*%
X181175000Y-141770000D03*
D13*
%TO.P,J4,2*%
%TO.N,SAI1_SD_B*%
X181175000Y-144310000D03*
%TO.P,J4,3*%
%TO.N,SAI1_FS_A*%
X181175000Y-146850000D03*
%TO.P,J4,4*%
%TO.N,SAI1_SCK_A*%
X181175000Y-149390000D03*
%TO.P,J4,5*%
%TO.N,unconnected-(J4-Pad5)*%
X181175000Y-151930000D03*
%TO.P,J4,6*%
%TO.N,unconnected-(J4-Pad6)*%
X181175000Y-154470000D03*
%TO.P,J4,7*%
%TO.N,SAI2_FS_B*%
X181175000Y-157010000D03*
%TO.P,J4,8*%
%TO.N,SAI2_SD_B*%
X181175000Y-159550000D03*
%TO.P,J4,9*%
%TO.N,SAI2_MCLK_B*%
X181175000Y-162090000D03*
%TO.P,J4,10*%
%TO.N,SAI2_SCK_B*%
X181175000Y-164630000D03*
%TD*%
D12*
%TO.P,J1,1*%
%TO.N,GND*%
X151175000Y-141770000D03*
D13*
%TO.P,J1,2*%
%TO.N,unconnected-(J1-Pad2)*%
X151175000Y-144310000D03*
%TO.P,J1,3*%
%TO.N,5V*%
X151175000Y-146850000D03*
%TO.P,J1,4*%
%TO.N,unconnected-(J1-Pad4)*%
X151175000Y-149390000D03*
%TO.P,J1,5*%
%TO.N,unconnected-(J1-Pad5)*%
X151175000Y-151930000D03*
%TO.P,J1,6*%
%TO.N,I2C4_SDA*%
X151175000Y-154470000D03*
%TO.P,J1,7*%
%TO.N,I2C4_SCL*%
X151175000Y-157010000D03*
%TO.P,J1,8*%
%TO.N,unconnected-(J1-Pad8)*%
X151175000Y-159550000D03*
%TO.P,J1,9*%
%TO.N,3.3V*%
X151175000Y-162090000D03*
%TO.P,J1,10*%
%TO.N,unconnected-(J1-Pad10)*%
X151175000Y-164630000D03*
%TD*%
D14*
%TO.N,GND*%
X179000000Y-125000000D03*
D15*
X179000000Y-120000000D03*
X177000000Y-120000000D03*
X175000000Y-120000000D03*
X175000000Y-118000000D03*
X177000000Y-118000000D03*
X179000000Y-118000000D03*
D14*
X165225000Y-129700000D03*
X178850000Y-123150000D03*
%TO.N,Net-(U2A-PC15-OSC32_OUT)*%
X196275000Y-147400000D03*
X185050000Y-124600000D03*
%TO.N,Net-(U2A-PC14-OSC32_IN)*%
X197450000Y-146850000D03*
X197375000Y-124100000D03*
%TO.N,3.3V*%
X154200000Y-162475000D03*
X194475000Y-147525000D03*
X206125000Y-166125000D03*
X186050000Y-160750000D03*
X211150000Y-166200000D03*
X231625000Y-140250000D03*
X221575000Y-134075000D03*
X205850000Y-131450000D03*
X227075000Y-158925000D03*
X197600000Y-167275000D03*
X224475000Y-149450000D03*
X184775000Y-139700000D03*
%TO.N,JTDI*%
X229100000Y-132850000D03*
X205950000Y-129700000D03*
%TO.N,SWDIO*%
X174325000Y-132450000D03*
X229825000Y-145300000D03*
%TO.N,SWCLK*%
X203650000Y-128525000D03*
X230025000Y-133625000D03*
%TO.N,JTRST*%
X194550000Y-135000000D03*
X196000000Y-126450000D03*
%TO.N,JTDO_SWO*%
X210400000Y-135850000D03*
X198175000Y-128675000D03*
%TO.N,SAI2_SCK_B*%
X183975000Y-164650000D03*
X201750000Y-165850000D03*
%TO.N,SAI2_SD_B*%
X184000000Y-160775000D03*
X200300000Y-163725000D03*
%TO.N,GND*%
X229325000Y-138575000D03*
X203725000Y-166175000D03*
X192675000Y-162750000D03*
X197683360Y-144709329D03*
X226450000Y-138475000D03*
X188050000Y-147650000D03*
X233800000Y-153800000D03*
X224250000Y-155825000D03*
X218800000Y-168700000D03*
X224475000Y-152075000D03*
X226975000Y-153975000D03*
X268650000Y-152522500D03*
X225575000Y-153750000D03*
X197300000Y-149925000D03*
X195075000Y-154725000D03*
X228725000Y-153975000D03*
X229775000Y-143200000D03*
X256625000Y-152522500D03*
X188100000Y-146275000D03*
X212575000Y-132900000D03*
X198400000Y-159650000D03*
X217850000Y-164200000D03*
X215125000Y-134600000D03*
X209500000Y-168250000D03*
X207150000Y-133050000D03*
X187075000Y-158850000D03*
X198950000Y-151175000D03*
X204625000Y-138400000D03*
X216475000Y-138775000D03*
X151200000Y-138775000D03*
X201200000Y-121750000D03*
X188600000Y-153150000D03*
X253025000Y-132600000D03*
X194475000Y-148550000D03*
X201425000Y-134475000D03*
X234025000Y-142200000D03*
X208250000Y-164250000D03*
X213950000Y-163600000D03*
X199350000Y-134575000D03*
X220850000Y-168725000D03*
X189200000Y-155175000D03*
X183325000Y-120668750D03*
X214650000Y-167900000D03*
X197950000Y-158875000D03*
X189675000Y-151325000D03*
X213050000Y-138650000D03*
X189725000Y-149375000D03*
X196625000Y-150875000D03*
X195950000Y-150300000D03*
X196425000Y-152400000D03*
%TO.N,CHANNEL_2*%
X254200000Y-135725000D03*
X254200000Y-156100000D03*
%TD*%
D16*
%TO.N,Net-(U2A-PC15-OSC32_OUT)*%
X185050000Y-124600000D02*
X185050000Y-136175000D01*
X185050000Y-136175000D02*
X196275000Y-147400000D01*
%TO.N,Net-(U2A-PC14-OSC32_IN)*%
X196900000Y-124575000D02*
X197375000Y-124100000D01*
X196900000Y-146300000D02*
X196900000Y-124575000D01*
X197450000Y-146850000D02*
X196900000Y-146300000D01*
%TO.N,3.3V*%
X220875000Y-131450000D02*
X222775000Y-133350000D01*
X211075000Y-166125000D02*
X211150000Y-166200000D01*
D17*
X189475000Y-142525000D02*
X186050000Y-145950000D01*
D16*
X224475000Y-149450000D02*
X226250000Y-149450000D01*
D17*
X184775000Y-139700000D02*
X186650000Y-139700000D01*
D16*
X228275000Y-140250000D02*
X229675000Y-140250000D01*
X224475000Y-144050000D02*
X228275000Y-140250000D01*
X231350000Y-154550000D02*
X231350000Y-158625000D01*
X231350000Y-158625000D02*
X231075000Y-158900000D01*
D17*
X189475000Y-142525000D02*
X194475000Y-147525000D01*
D16*
X206125000Y-166125000D02*
X211075000Y-166125000D01*
D17*
X186050000Y-145950000D02*
X186050000Y-160750000D01*
D16*
X197600000Y-167275000D02*
X159000000Y-167275000D01*
X159000000Y-167275000D02*
X154200000Y-162475000D01*
X227100000Y-158900000D02*
X227075000Y-158925000D01*
X231075000Y-158900000D02*
X227100000Y-158900000D01*
X224475000Y-149450000D02*
X224475000Y-144050000D01*
X205850000Y-131450000D02*
X220875000Y-131450000D01*
X222775000Y-133350000D02*
X229675000Y-140250000D01*
X222050000Y-134075000D02*
X222775000Y-133350000D01*
X226250000Y-149450000D02*
X231350000Y-154550000D01*
D17*
X186650000Y-139700000D02*
X189475000Y-142525000D01*
D16*
X229675000Y-140250000D02*
X231625000Y-140250000D01*
X221575000Y-134075000D02*
X222050000Y-134075000D01*
D17*
%TO.N,JTDI*%
X206000000Y-129750000D02*
X226000000Y-129750000D01*
X205950000Y-129700000D02*
X206000000Y-129750000D01*
X226000000Y-129750000D02*
X229100000Y-132850000D01*
D16*
%TO.N,SWDIO*%
X225475000Y-122975000D02*
X183800000Y-122975000D01*
X183800000Y-122975000D02*
X174325000Y-132450000D01*
X232775000Y-142350000D02*
X232775000Y-130275000D01*
X229825000Y-145300000D02*
X232775000Y-142350000D01*
X232775000Y-130275000D02*
X225475000Y-122975000D01*
%TO.N,SWCLK*%
X230025000Y-128925000D02*
X229075000Y-127975000D01*
X230025000Y-133625000D02*
X230025000Y-128925000D01*
X204200000Y-127975000D02*
X203650000Y-128525000D01*
X229075000Y-127975000D02*
X204200000Y-127975000D01*
%TO.N,JTRST*%
X194550000Y-127900000D02*
X196000000Y-126450000D01*
X194550000Y-135000000D02*
X194550000Y-127900000D01*
%TO.N,JTDO_SWO*%
X209500000Y-134950000D02*
X210400000Y-135850000D01*
X205450000Y-134950000D02*
X209500000Y-134950000D01*
X199175000Y-128675000D02*
X205450000Y-134950000D01*
X198175000Y-128675000D02*
X199175000Y-128675000D01*
%TO.N,SAI2_SCK_B*%
X183975000Y-164650000D02*
X185175000Y-165850000D01*
X185175000Y-165850000D02*
X201750000Y-165850000D01*
%TO.N,SAI2_SD_B*%
X186950000Y-163725000D02*
X200300000Y-163725000D01*
X184000000Y-160775000D02*
X186950000Y-163725000D01*
D17*
%TO.N,CHANNEL_2*%
X254200000Y-135725000D02*
X254200000Y-156100000D01*
%TD*%
M02*
