%TF.GenerationSoftware,KiCad,Pcbnew,8.0.5*%
%TF.CreationDate,2025-01-29T19:48:31-05:00*%
%TF.ProjectId,Power_Supplies_DSP,506f7765-725f-4537-9570-706c6965735f,rev?*%
%TF.SameCoordinates,Original*%
%TF.FileFunction,Legend,Top*%
%TF.FilePolarity,Positive*%
%FSLAX46Y46*%
G04 Gerber Fmt 4.6, Leading zero omitted, Abs format (unit mm)*
G04 Created by KiCad (PCBNEW 8.0.5) date 2025-01-29 19:48:31*
%MOMM*%
%LPD*%
G01*
G04 APERTURE LIST*
%ADD10C,0.150000*%
%ADD11C,0.100000*%
%ADD12C,0.254000*%
%ADD13C,0.200000*%
%ADD14C,0.120000*%
%ADD15C,0.152400*%
%ADD16R,1.650000X1.650000*%
%ADD17C,1.650000*%
G04 APERTURE END LIST*
D10*
X257134523Y-149534580D02*
X257086904Y-149582200D01*
X257086904Y-149582200D02*
X256944047Y-149629819D01*
X256944047Y-149629819D02*
X256848809Y-149629819D01*
X256848809Y-149629819D02*
X256705952Y-149582200D01*
X256705952Y-149582200D02*
X256610714Y-149486961D01*
X256610714Y-149486961D02*
X256563095Y-149391723D01*
X256563095Y-149391723D02*
X256515476Y-149201247D01*
X256515476Y-149201247D02*
X256515476Y-149058390D01*
X256515476Y-149058390D02*
X256563095Y-148867914D01*
X256563095Y-148867914D02*
X256610714Y-148772676D01*
X256610714Y-148772676D02*
X256705952Y-148677438D01*
X256705952Y-148677438D02*
X256848809Y-148629819D01*
X256848809Y-148629819D02*
X256944047Y-148629819D01*
X256944047Y-148629819D02*
X257086904Y-148677438D01*
X257086904Y-148677438D02*
X257134523Y-148725057D01*
X257563095Y-149629819D02*
X257563095Y-148629819D01*
X257563095Y-149106009D02*
X258134523Y-149106009D01*
X258134523Y-149629819D02*
X258134523Y-148629819D01*
X258563095Y-148725057D02*
X258610714Y-148677438D01*
X258610714Y-148677438D02*
X258705952Y-148629819D01*
X258705952Y-148629819D02*
X258944047Y-148629819D01*
X258944047Y-148629819D02*
X259039285Y-148677438D01*
X259039285Y-148677438D02*
X259086904Y-148725057D01*
X259086904Y-148725057D02*
X259134523Y-148820295D01*
X259134523Y-148820295D02*
X259134523Y-148915533D01*
X259134523Y-148915533D02*
X259086904Y-149058390D01*
X259086904Y-149058390D02*
X258515476Y-149629819D01*
X258515476Y-149629819D02*
X259134523Y-149629819D01*
D11*
X257775312Y-160872419D02*
X257441979Y-160396228D01*
X257203884Y-160872419D02*
X257203884Y-159872419D01*
X257203884Y-159872419D02*
X257584836Y-159872419D01*
X257584836Y-159872419D02*
X257680074Y-159920038D01*
X257680074Y-159920038D02*
X257727693Y-159967657D01*
X257727693Y-159967657D02*
X257775312Y-160062895D01*
X257775312Y-160062895D02*
X257775312Y-160205752D01*
X257775312Y-160205752D02*
X257727693Y-160300990D01*
X257727693Y-160300990D02*
X257680074Y-160348609D01*
X257680074Y-160348609D02*
X257584836Y-160396228D01*
X257584836Y-160396228D02*
X257203884Y-160396228D01*
X258346741Y-160872419D02*
X258251503Y-160824800D01*
X258251503Y-160824800D02*
X258203884Y-160777180D01*
X258203884Y-160777180D02*
X258156265Y-160681942D01*
X258156265Y-160681942D02*
X258156265Y-160396228D01*
X258156265Y-160396228D02*
X258203884Y-160300990D01*
X258203884Y-160300990D02*
X258251503Y-160253371D01*
X258251503Y-160253371D02*
X258346741Y-160205752D01*
X258346741Y-160205752D02*
X258489598Y-160205752D01*
X258489598Y-160205752D02*
X258584836Y-160253371D01*
X258584836Y-160253371D02*
X258632455Y-160300990D01*
X258632455Y-160300990D02*
X258680074Y-160396228D01*
X258680074Y-160396228D02*
X258680074Y-160681942D01*
X258680074Y-160681942D02*
X258632455Y-160777180D01*
X258632455Y-160777180D02*
X258584836Y-160824800D01*
X258584836Y-160824800D02*
X258489598Y-160872419D01*
X258489598Y-160872419D02*
X258346741Y-160872419D01*
X258965789Y-160205752D02*
X259346741Y-160205752D01*
X259108646Y-159872419D02*
X259108646Y-160729561D01*
X259108646Y-160729561D02*
X259156265Y-160824800D01*
X259156265Y-160824800D02*
X259251503Y-160872419D01*
X259251503Y-160872419D02*
X259346741Y-160872419D01*
X260108646Y-160872419D02*
X260108646Y-160348609D01*
X260108646Y-160348609D02*
X260061027Y-160253371D01*
X260061027Y-160253371D02*
X259965789Y-160205752D01*
X259965789Y-160205752D02*
X259775313Y-160205752D01*
X259775313Y-160205752D02*
X259680075Y-160253371D01*
X260108646Y-160824800D02*
X260013408Y-160872419D01*
X260013408Y-160872419D02*
X259775313Y-160872419D01*
X259775313Y-160872419D02*
X259680075Y-160824800D01*
X259680075Y-160824800D02*
X259632456Y-160729561D01*
X259632456Y-160729561D02*
X259632456Y-160634323D01*
X259632456Y-160634323D02*
X259680075Y-160539085D01*
X259680075Y-160539085D02*
X259775313Y-160491466D01*
X259775313Y-160491466D02*
X260013408Y-160491466D01*
X260013408Y-160491466D02*
X260108646Y-160443847D01*
X260584837Y-160872419D02*
X260584837Y-160205752D01*
X260584837Y-160396228D02*
X260632456Y-160300990D01*
X260632456Y-160300990D02*
X260680075Y-160253371D01*
X260680075Y-160253371D02*
X260775313Y-160205752D01*
X260775313Y-160205752D02*
X260870551Y-160205752D01*
X261108647Y-160205752D02*
X261346742Y-160872419D01*
X261584837Y-160205752D02*
X261346742Y-160872419D01*
X261346742Y-160872419D02*
X261251504Y-161110514D01*
X261251504Y-161110514D02*
X261203885Y-161158133D01*
X261203885Y-161158133D02*
X261108647Y-161205752D01*
X262727695Y-160348609D02*
X263061028Y-160348609D01*
X263203885Y-160872419D02*
X262727695Y-160872419D01*
X262727695Y-160872419D02*
X262727695Y-159872419D01*
X262727695Y-159872419D02*
X263203885Y-159872419D01*
X263632457Y-160205752D02*
X263632457Y-160872419D01*
X263632457Y-160300990D02*
X263680076Y-160253371D01*
X263680076Y-160253371D02*
X263775314Y-160205752D01*
X263775314Y-160205752D02*
X263918171Y-160205752D01*
X263918171Y-160205752D02*
X264013409Y-160253371D01*
X264013409Y-160253371D02*
X264061028Y-160348609D01*
X264061028Y-160348609D02*
X264061028Y-160872419D01*
X264965790Y-160824800D02*
X264870552Y-160872419D01*
X264870552Y-160872419D02*
X264680076Y-160872419D01*
X264680076Y-160872419D02*
X264584838Y-160824800D01*
X264584838Y-160824800D02*
X264537219Y-160777180D01*
X264537219Y-160777180D02*
X264489600Y-160681942D01*
X264489600Y-160681942D02*
X264489600Y-160396228D01*
X264489600Y-160396228D02*
X264537219Y-160300990D01*
X264537219Y-160300990D02*
X264584838Y-160253371D01*
X264584838Y-160253371D02*
X264680076Y-160205752D01*
X264680076Y-160205752D02*
X264870552Y-160205752D01*
X264870552Y-160205752D02*
X264965790Y-160253371D01*
X265537219Y-160872419D02*
X265441981Y-160824800D01*
X265441981Y-160824800D02*
X265394362Y-160777180D01*
X265394362Y-160777180D02*
X265346743Y-160681942D01*
X265346743Y-160681942D02*
X265346743Y-160396228D01*
X265346743Y-160396228D02*
X265394362Y-160300990D01*
X265394362Y-160300990D02*
X265441981Y-160253371D01*
X265441981Y-160253371D02*
X265537219Y-160205752D01*
X265537219Y-160205752D02*
X265680076Y-160205752D01*
X265680076Y-160205752D02*
X265775314Y-160253371D01*
X265775314Y-160253371D02*
X265822933Y-160300990D01*
X265822933Y-160300990D02*
X265870552Y-160396228D01*
X265870552Y-160396228D02*
X265870552Y-160681942D01*
X265870552Y-160681942D02*
X265822933Y-160777180D01*
X265822933Y-160777180D02*
X265775314Y-160824800D01*
X265775314Y-160824800D02*
X265680076Y-160872419D01*
X265680076Y-160872419D02*
X265537219Y-160872419D01*
X266727695Y-160872419D02*
X266727695Y-159872419D01*
X266727695Y-160824800D02*
X266632457Y-160872419D01*
X266632457Y-160872419D02*
X266441981Y-160872419D01*
X266441981Y-160872419D02*
X266346743Y-160824800D01*
X266346743Y-160824800D02*
X266299124Y-160777180D01*
X266299124Y-160777180D02*
X266251505Y-160681942D01*
X266251505Y-160681942D02*
X266251505Y-160396228D01*
X266251505Y-160396228D02*
X266299124Y-160300990D01*
X266299124Y-160300990D02*
X266346743Y-160253371D01*
X266346743Y-160253371D02*
X266441981Y-160205752D01*
X266441981Y-160205752D02*
X266632457Y-160205752D01*
X266632457Y-160205752D02*
X266727695Y-160253371D01*
X267584838Y-160824800D02*
X267489600Y-160872419D01*
X267489600Y-160872419D02*
X267299124Y-160872419D01*
X267299124Y-160872419D02*
X267203886Y-160824800D01*
X267203886Y-160824800D02*
X267156267Y-160729561D01*
X267156267Y-160729561D02*
X267156267Y-160348609D01*
X267156267Y-160348609D02*
X267203886Y-160253371D01*
X267203886Y-160253371D02*
X267299124Y-160205752D01*
X267299124Y-160205752D02*
X267489600Y-160205752D01*
X267489600Y-160205752D02*
X267584838Y-160253371D01*
X267584838Y-160253371D02*
X267632457Y-160348609D01*
X267632457Y-160348609D02*
X267632457Y-160443847D01*
X267632457Y-160443847D02*
X267156267Y-160539085D01*
X268061029Y-160872419D02*
X268061029Y-160205752D01*
X268061029Y-160396228D02*
X268108648Y-160300990D01*
X268108648Y-160300990D02*
X268156267Y-160253371D01*
X268156267Y-160253371D02*
X268251505Y-160205752D01*
X268251505Y-160205752D02*
X268346743Y-160205752D01*
X177252180Y-157899687D02*
X177299800Y-157947306D01*
X177299800Y-157947306D02*
X177347419Y-158090163D01*
X177347419Y-158090163D02*
X177347419Y-158185401D01*
X177347419Y-158185401D02*
X177299800Y-158328258D01*
X177299800Y-158328258D02*
X177204561Y-158423496D01*
X177204561Y-158423496D02*
X177109323Y-158471115D01*
X177109323Y-158471115D02*
X176918847Y-158518734D01*
X176918847Y-158518734D02*
X176775990Y-158518734D01*
X176775990Y-158518734D02*
X176585514Y-158471115D01*
X176585514Y-158471115D02*
X176490276Y-158423496D01*
X176490276Y-158423496D02*
X176395038Y-158328258D01*
X176395038Y-158328258D02*
X176347419Y-158185401D01*
X176347419Y-158185401D02*
X176347419Y-158090163D01*
X176347419Y-158090163D02*
X176395038Y-157947306D01*
X176395038Y-157947306D02*
X176442657Y-157899687D01*
X177347419Y-157328258D02*
X177299800Y-157423496D01*
X177299800Y-157423496D02*
X177204561Y-157471115D01*
X177204561Y-157471115D02*
X176347419Y-157471115D01*
X177347419Y-156804448D02*
X177299800Y-156899686D01*
X177299800Y-156899686D02*
X177252180Y-156947305D01*
X177252180Y-156947305D02*
X177156942Y-156994924D01*
X177156942Y-156994924D02*
X176871228Y-156994924D01*
X176871228Y-156994924D02*
X176775990Y-156947305D01*
X176775990Y-156947305D02*
X176728371Y-156899686D01*
X176728371Y-156899686D02*
X176680752Y-156804448D01*
X176680752Y-156804448D02*
X176680752Y-156661591D01*
X176680752Y-156661591D02*
X176728371Y-156566353D01*
X176728371Y-156566353D02*
X176775990Y-156518734D01*
X176775990Y-156518734D02*
X176871228Y-156471115D01*
X176871228Y-156471115D02*
X177156942Y-156471115D01*
X177156942Y-156471115D02*
X177252180Y-156518734D01*
X177252180Y-156518734D02*
X177299800Y-156566353D01*
X177299800Y-156566353D02*
X177347419Y-156661591D01*
X177347419Y-156661591D02*
X177347419Y-156804448D01*
X177299800Y-155613972D02*
X177347419Y-155709210D01*
X177347419Y-155709210D02*
X177347419Y-155899686D01*
X177347419Y-155899686D02*
X177299800Y-155994924D01*
X177299800Y-155994924D02*
X177252180Y-156042543D01*
X177252180Y-156042543D02*
X177156942Y-156090162D01*
X177156942Y-156090162D02*
X176871228Y-156090162D01*
X176871228Y-156090162D02*
X176775990Y-156042543D01*
X176775990Y-156042543D02*
X176728371Y-155994924D01*
X176728371Y-155994924D02*
X176680752Y-155899686D01*
X176680752Y-155899686D02*
X176680752Y-155709210D01*
X176680752Y-155709210D02*
X176728371Y-155613972D01*
X177347419Y-155185400D02*
X176347419Y-155185400D01*
X176966466Y-155090162D02*
X177347419Y-154804448D01*
X176680752Y-154804448D02*
X177061704Y-155185400D01*
X176299800Y-153661591D02*
X177585514Y-154518733D01*
X177347419Y-153328257D02*
X176347419Y-153328257D01*
X176347419Y-153328257D02*
X176347419Y-153090162D01*
X176347419Y-153090162D02*
X176395038Y-152947305D01*
X176395038Y-152947305D02*
X176490276Y-152852067D01*
X176490276Y-152852067D02*
X176585514Y-152804448D01*
X176585514Y-152804448D02*
X176775990Y-152756829D01*
X176775990Y-152756829D02*
X176918847Y-152756829D01*
X176918847Y-152756829D02*
X177109323Y-152804448D01*
X177109323Y-152804448D02*
X177204561Y-152852067D01*
X177204561Y-152852067D02*
X177299800Y-152947305D01*
X177299800Y-152947305D02*
X177347419Y-153090162D01*
X177347419Y-153090162D02*
X177347419Y-153328257D01*
X177347419Y-151899686D02*
X176823609Y-151899686D01*
X176823609Y-151899686D02*
X176728371Y-151947305D01*
X176728371Y-151947305D02*
X176680752Y-152042543D01*
X176680752Y-152042543D02*
X176680752Y-152233019D01*
X176680752Y-152233019D02*
X176728371Y-152328257D01*
X177299800Y-151899686D02*
X177347419Y-151994924D01*
X177347419Y-151994924D02*
X177347419Y-152233019D01*
X177347419Y-152233019D02*
X177299800Y-152328257D01*
X177299800Y-152328257D02*
X177204561Y-152375876D01*
X177204561Y-152375876D02*
X177109323Y-152375876D01*
X177109323Y-152375876D02*
X177014085Y-152328257D01*
X177014085Y-152328257D02*
X176966466Y-152233019D01*
X176966466Y-152233019D02*
X176966466Y-151994924D01*
X176966466Y-151994924D02*
X176918847Y-151899686D01*
X176680752Y-151566352D02*
X176680752Y-151185400D01*
X176347419Y-151423495D02*
X177204561Y-151423495D01*
X177204561Y-151423495D02*
X177299800Y-151375876D01*
X177299800Y-151375876D02*
X177347419Y-151280638D01*
X177347419Y-151280638D02*
X177347419Y-151185400D01*
X177347419Y-150423495D02*
X176823609Y-150423495D01*
X176823609Y-150423495D02*
X176728371Y-150471114D01*
X176728371Y-150471114D02*
X176680752Y-150566352D01*
X176680752Y-150566352D02*
X176680752Y-150756828D01*
X176680752Y-150756828D02*
X176728371Y-150852066D01*
X177299800Y-150423495D02*
X177347419Y-150518733D01*
X177347419Y-150518733D02*
X177347419Y-150756828D01*
X177347419Y-150756828D02*
X177299800Y-150852066D01*
X177299800Y-150852066D02*
X177204561Y-150899685D01*
X177204561Y-150899685D02*
X177109323Y-150899685D01*
X177109323Y-150899685D02*
X177014085Y-150852066D01*
X177014085Y-150852066D02*
X176966466Y-150756828D01*
X176966466Y-150756828D02*
X176966466Y-150518733D01*
X176966466Y-150518733D02*
X176918847Y-150423495D01*
X177347419Y-149185399D02*
X176347419Y-149185399D01*
X176823609Y-149185399D02*
X176823609Y-148613971D01*
X177347419Y-148613971D02*
X176347419Y-148613971D01*
X177299800Y-147756828D02*
X177347419Y-147852066D01*
X177347419Y-147852066D02*
X177347419Y-148042542D01*
X177347419Y-148042542D02*
X177299800Y-148137780D01*
X177299800Y-148137780D02*
X177204561Y-148185399D01*
X177204561Y-148185399D02*
X176823609Y-148185399D01*
X176823609Y-148185399D02*
X176728371Y-148137780D01*
X176728371Y-148137780D02*
X176680752Y-148042542D01*
X176680752Y-148042542D02*
X176680752Y-147852066D01*
X176680752Y-147852066D02*
X176728371Y-147756828D01*
X176728371Y-147756828D02*
X176823609Y-147709209D01*
X176823609Y-147709209D02*
X176918847Y-147709209D01*
X176918847Y-147709209D02*
X177014085Y-148185399D01*
X177347419Y-146852066D02*
X176823609Y-146852066D01*
X176823609Y-146852066D02*
X176728371Y-146899685D01*
X176728371Y-146899685D02*
X176680752Y-146994923D01*
X176680752Y-146994923D02*
X176680752Y-147185399D01*
X176680752Y-147185399D02*
X176728371Y-147280637D01*
X177299800Y-146852066D02*
X177347419Y-146947304D01*
X177347419Y-146947304D02*
X177347419Y-147185399D01*
X177347419Y-147185399D02*
X177299800Y-147280637D01*
X177299800Y-147280637D02*
X177204561Y-147328256D01*
X177204561Y-147328256D02*
X177109323Y-147328256D01*
X177109323Y-147328256D02*
X177014085Y-147280637D01*
X177014085Y-147280637D02*
X176966466Y-147185399D01*
X176966466Y-147185399D02*
X176966466Y-146947304D01*
X176966466Y-146947304D02*
X176918847Y-146852066D01*
X177347419Y-145947304D02*
X176347419Y-145947304D01*
X177299800Y-145947304D02*
X177347419Y-146042542D01*
X177347419Y-146042542D02*
X177347419Y-146233018D01*
X177347419Y-146233018D02*
X177299800Y-146328256D01*
X177299800Y-146328256D02*
X177252180Y-146375875D01*
X177252180Y-146375875D02*
X177156942Y-146423494D01*
X177156942Y-146423494D02*
X176871228Y-146423494D01*
X176871228Y-146423494D02*
X176775990Y-146375875D01*
X176775990Y-146375875D02*
X176728371Y-146328256D01*
X176728371Y-146328256D02*
X176680752Y-146233018D01*
X176680752Y-146233018D02*
X176680752Y-146042542D01*
X176680752Y-146042542D02*
X176728371Y-145947304D01*
X177299800Y-145090161D02*
X177347419Y-145185399D01*
X177347419Y-145185399D02*
X177347419Y-145375875D01*
X177347419Y-145375875D02*
X177299800Y-145471113D01*
X177299800Y-145471113D02*
X177204561Y-145518732D01*
X177204561Y-145518732D02*
X176823609Y-145518732D01*
X176823609Y-145518732D02*
X176728371Y-145471113D01*
X176728371Y-145471113D02*
X176680752Y-145375875D01*
X176680752Y-145375875D02*
X176680752Y-145185399D01*
X176680752Y-145185399D02*
X176728371Y-145090161D01*
X176728371Y-145090161D02*
X176823609Y-145042542D01*
X176823609Y-145042542D02*
X176918847Y-145042542D01*
X176918847Y-145042542D02*
X177014085Y-145518732D01*
X177347419Y-144613970D02*
X176680752Y-144613970D01*
X176871228Y-144613970D02*
X176775990Y-144566351D01*
X176775990Y-144566351D02*
X176728371Y-144518732D01*
X176728371Y-144518732D02*
X176680752Y-144423494D01*
X176680752Y-144423494D02*
X176680752Y-144328256D01*
X165361027Y-165947419D02*
X165694360Y-166947419D01*
X165694360Y-166947419D02*
X166027693Y-165947419D01*
X166884836Y-166947419D02*
X166313408Y-166947419D01*
X166599122Y-166947419D02*
X166599122Y-165947419D01*
X166599122Y-165947419D02*
X166503884Y-166090276D01*
X166503884Y-166090276D02*
X166408646Y-166185514D01*
X166408646Y-166185514D02*
X166313408Y-166233133D01*
X158172931Y-162646312D02*
X158172931Y-161146312D01*
X158172931Y-161146312D02*
X158672931Y-162217741D01*
X158672931Y-162217741D02*
X159172931Y-161146312D01*
X159172931Y-161146312D02*
X159172931Y-162646312D01*
X159887217Y-162646312D02*
X159887217Y-161646312D01*
X159887217Y-161146312D02*
X159815789Y-161217741D01*
X159815789Y-161217741D02*
X159887217Y-161289169D01*
X159887217Y-161289169D02*
X159958646Y-161217741D01*
X159958646Y-161217741D02*
X159887217Y-161146312D01*
X159887217Y-161146312D02*
X159887217Y-161289169D01*
X160530075Y-162574884D02*
X160672932Y-162646312D01*
X160672932Y-162646312D02*
X160958646Y-162646312D01*
X160958646Y-162646312D02*
X161101503Y-162574884D01*
X161101503Y-162574884D02*
X161172932Y-162432026D01*
X161172932Y-162432026D02*
X161172932Y-162360598D01*
X161172932Y-162360598D02*
X161101503Y-162217741D01*
X161101503Y-162217741D02*
X160958646Y-162146312D01*
X160958646Y-162146312D02*
X160744361Y-162146312D01*
X160744361Y-162146312D02*
X160601503Y-162074884D01*
X160601503Y-162074884D02*
X160530075Y-161932026D01*
X160530075Y-161932026D02*
X160530075Y-161860598D01*
X160530075Y-161860598D02*
X160601503Y-161717741D01*
X160601503Y-161717741D02*
X160744361Y-161646312D01*
X160744361Y-161646312D02*
X160958646Y-161646312D01*
X160958646Y-161646312D02*
X161101503Y-161717741D01*
X161601504Y-161646312D02*
X162172932Y-161646312D01*
X161815789Y-161146312D02*
X161815789Y-162432026D01*
X161815789Y-162432026D02*
X161887218Y-162574884D01*
X161887218Y-162574884D02*
X162030075Y-162646312D01*
X162030075Y-162646312D02*
X162172932Y-162646312D01*
X163244361Y-162574884D02*
X163101504Y-162646312D01*
X163101504Y-162646312D02*
X162815790Y-162646312D01*
X162815790Y-162646312D02*
X162672932Y-162574884D01*
X162672932Y-162574884D02*
X162601504Y-162432026D01*
X162601504Y-162432026D02*
X162601504Y-161860598D01*
X162601504Y-161860598D02*
X162672932Y-161717741D01*
X162672932Y-161717741D02*
X162815790Y-161646312D01*
X162815790Y-161646312D02*
X163101504Y-161646312D01*
X163101504Y-161646312D02*
X163244361Y-161717741D01*
X163244361Y-161717741D02*
X163315790Y-161860598D01*
X163315790Y-161860598D02*
X163315790Y-162003455D01*
X163315790Y-162003455D02*
X162601504Y-162146312D01*
X163958646Y-162646312D02*
X163958646Y-161646312D01*
X163958646Y-161932026D02*
X164030075Y-161789169D01*
X164030075Y-161789169D02*
X164101504Y-161717741D01*
X164101504Y-161717741D02*
X164244361Y-161646312D01*
X164244361Y-161646312D02*
X164387218Y-161646312D01*
X166030074Y-162646312D02*
X166030074Y-161146312D01*
X166030074Y-161146312D02*
X166530074Y-162217741D01*
X166530074Y-162217741D02*
X167030074Y-161146312D01*
X167030074Y-161146312D02*
X167030074Y-162646312D01*
X167744360Y-162646312D02*
X167744360Y-161646312D01*
X167744360Y-161146312D02*
X167672932Y-161217741D01*
X167672932Y-161217741D02*
X167744360Y-161289169D01*
X167744360Y-161289169D02*
X167815789Y-161217741D01*
X167815789Y-161217741D02*
X167744360Y-161146312D01*
X167744360Y-161146312D02*
X167744360Y-161289169D01*
X168315789Y-162646312D02*
X169101504Y-161646312D01*
X168315789Y-161646312D02*
X169101504Y-162646312D01*
X170244361Y-162574884D02*
X170101504Y-162646312D01*
X170101504Y-162646312D02*
X169815790Y-162646312D01*
X169815790Y-162646312D02*
X169672932Y-162574884D01*
X169672932Y-162574884D02*
X169601504Y-162432026D01*
X169601504Y-162432026D02*
X169601504Y-161860598D01*
X169601504Y-161860598D02*
X169672932Y-161717741D01*
X169672932Y-161717741D02*
X169815790Y-161646312D01*
X169815790Y-161646312D02*
X170101504Y-161646312D01*
X170101504Y-161646312D02*
X170244361Y-161717741D01*
X170244361Y-161717741D02*
X170315790Y-161860598D01*
X170315790Y-161860598D02*
X170315790Y-162003455D01*
X170315790Y-162003455D02*
X169601504Y-162146312D01*
X170958646Y-162646312D02*
X170958646Y-161646312D01*
X170958646Y-161932026D02*
X171030075Y-161789169D01*
X171030075Y-161789169D02*
X171101504Y-161717741D01*
X171101504Y-161717741D02*
X171244361Y-161646312D01*
X171244361Y-161646312D02*
X171387218Y-161646312D01*
X158172931Y-165061228D02*
X158172931Y-163561228D01*
X158172931Y-163561228D02*
X158530074Y-163561228D01*
X158530074Y-163561228D02*
X158744360Y-163632657D01*
X158744360Y-163632657D02*
X158887217Y-163775514D01*
X158887217Y-163775514D02*
X158958646Y-163918371D01*
X158958646Y-163918371D02*
X159030074Y-164204085D01*
X159030074Y-164204085D02*
X159030074Y-164418371D01*
X159030074Y-164418371D02*
X158958646Y-164704085D01*
X158958646Y-164704085D02*
X158887217Y-164846942D01*
X158887217Y-164846942D02*
X158744360Y-164989800D01*
X158744360Y-164989800D02*
X158530074Y-165061228D01*
X158530074Y-165061228D02*
X158172931Y-165061228D01*
X159601503Y-164989800D02*
X159815789Y-165061228D01*
X159815789Y-165061228D02*
X160172931Y-165061228D01*
X160172931Y-165061228D02*
X160315789Y-164989800D01*
X160315789Y-164989800D02*
X160387217Y-164918371D01*
X160387217Y-164918371D02*
X160458646Y-164775514D01*
X160458646Y-164775514D02*
X160458646Y-164632657D01*
X160458646Y-164632657D02*
X160387217Y-164489800D01*
X160387217Y-164489800D02*
X160315789Y-164418371D01*
X160315789Y-164418371D02*
X160172931Y-164346942D01*
X160172931Y-164346942D02*
X159887217Y-164275514D01*
X159887217Y-164275514D02*
X159744360Y-164204085D01*
X159744360Y-164204085D02*
X159672931Y-164132657D01*
X159672931Y-164132657D02*
X159601503Y-163989800D01*
X159601503Y-163989800D02*
X159601503Y-163846942D01*
X159601503Y-163846942D02*
X159672931Y-163704085D01*
X159672931Y-163704085D02*
X159744360Y-163632657D01*
X159744360Y-163632657D02*
X159887217Y-163561228D01*
X159887217Y-163561228D02*
X160244360Y-163561228D01*
X160244360Y-163561228D02*
X160458646Y-163632657D01*
X161101502Y-165061228D02*
X161101502Y-163561228D01*
X161101502Y-163561228D02*
X161672931Y-163561228D01*
X161672931Y-163561228D02*
X161815788Y-163632657D01*
X161815788Y-163632657D02*
X161887217Y-163704085D01*
X161887217Y-163704085D02*
X161958645Y-163846942D01*
X161958645Y-163846942D02*
X161958645Y-164061228D01*
X161958645Y-164061228D02*
X161887217Y-164204085D01*
X161887217Y-164204085D02*
X161815788Y-164275514D01*
X161815788Y-164275514D02*
X161672931Y-164346942D01*
X161672931Y-164346942D02*
X161101502Y-164346942D01*
X163672931Y-163489800D02*
X162387217Y-165418371D01*
X164172931Y-165061228D02*
X164172931Y-163561228D01*
X164172931Y-163561228D02*
X164672931Y-164632657D01*
X164672931Y-164632657D02*
X165172931Y-163561228D01*
X165172931Y-163561228D02*
X165172931Y-165061228D01*
X166744360Y-164918371D02*
X166672932Y-164989800D01*
X166672932Y-164989800D02*
X166458646Y-165061228D01*
X166458646Y-165061228D02*
X166315789Y-165061228D01*
X166315789Y-165061228D02*
X166101503Y-164989800D01*
X166101503Y-164989800D02*
X165958646Y-164846942D01*
X165958646Y-164846942D02*
X165887217Y-164704085D01*
X165887217Y-164704085D02*
X165815789Y-164418371D01*
X165815789Y-164418371D02*
X165815789Y-164204085D01*
X165815789Y-164204085D02*
X165887217Y-163918371D01*
X165887217Y-163918371D02*
X165958646Y-163775514D01*
X165958646Y-163775514D02*
X166101503Y-163632657D01*
X166101503Y-163632657D02*
X166315789Y-163561228D01*
X166315789Y-163561228D02*
X166458646Y-163561228D01*
X166458646Y-163561228D02*
X166672932Y-163632657D01*
X166672932Y-163632657D02*
X166744360Y-163704085D01*
X167387217Y-163561228D02*
X167387217Y-164775514D01*
X167387217Y-164775514D02*
X167458646Y-164918371D01*
X167458646Y-164918371D02*
X167530075Y-164989800D01*
X167530075Y-164989800D02*
X167672932Y-165061228D01*
X167672932Y-165061228D02*
X167958646Y-165061228D01*
X167958646Y-165061228D02*
X168101503Y-164989800D01*
X168101503Y-164989800D02*
X168172932Y-164918371D01*
X168172932Y-164918371D02*
X168244360Y-164775514D01*
X168244360Y-164775514D02*
X168244360Y-163561228D01*
X170601503Y-164275514D02*
X170815789Y-164346942D01*
X170815789Y-164346942D02*
X170887218Y-164418371D01*
X170887218Y-164418371D02*
X170958646Y-164561228D01*
X170958646Y-164561228D02*
X170958646Y-164775514D01*
X170958646Y-164775514D02*
X170887218Y-164918371D01*
X170887218Y-164918371D02*
X170815789Y-164989800D01*
X170815789Y-164989800D02*
X170672932Y-165061228D01*
X170672932Y-165061228D02*
X170101503Y-165061228D01*
X170101503Y-165061228D02*
X170101503Y-163561228D01*
X170101503Y-163561228D02*
X170601503Y-163561228D01*
X170601503Y-163561228D02*
X170744361Y-163632657D01*
X170744361Y-163632657D02*
X170815789Y-163704085D01*
X170815789Y-163704085D02*
X170887218Y-163846942D01*
X170887218Y-163846942D02*
X170887218Y-163989800D01*
X170887218Y-163989800D02*
X170815789Y-164132657D01*
X170815789Y-164132657D02*
X170744361Y-164204085D01*
X170744361Y-164204085D02*
X170601503Y-164275514D01*
X170601503Y-164275514D02*
X170101503Y-164275514D01*
X171815789Y-165061228D02*
X171672932Y-164989800D01*
X171672932Y-164989800D02*
X171601503Y-164918371D01*
X171601503Y-164918371D02*
X171530075Y-164775514D01*
X171530075Y-164775514D02*
X171530075Y-164346942D01*
X171530075Y-164346942D02*
X171601503Y-164204085D01*
X171601503Y-164204085D02*
X171672932Y-164132657D01*
X171672932Y-164132657D02*
X171815789Y-164061228D01*
X171815789Y-164061228D02*
X172030075Y-164061228D01*
X172030075Y-164061228D02*
X172172932Y-164132657D01*
X172172932Y-164132657D02*
X172244361Y-164204085D01*
X172244361Y-164204085D02*
X172315789Y-164346942D01*
X172315789Y-164346942D02*
X172315789Y-164775514D01*
X172315789Y-164775514D02*
X172244361Y-164918371D01*
X172244361Y-164918371D02*
X172172932Y-164989800D01*
X172172932Y-164989800D02*
X172030075Y-165061228D01*
X172030075Y-165061228D02*
X171815789Y-165061228D01*
X173601504Y-165061228D02*
X173601504Y-164275514D01*
X173601504Y-164275514D02*
X173530075Y-164132657D01*
X173530075Y-164132657D02*
X173387218Y-164061228D01*
X173387218Y-164061228D02*
X173101504Y-164061228D01*
X173101504Y-164061228D02*
X172958646Y-164132657D01*
X173601504Y-164989800D02*
X173458646Y-165061228D01*
X173458646Y-165061228D02*
X173101504Y-165061228D01*
X173101504Y-165061228D02*
X172958646Y-164989800D01*
X172958646Y-164989800D02*
X172887218Y-164846942D01*
X172887218Y-164846942D02*
X172887218Y-164704085D01*
X172887218Y-164704085D02*
X172958646Y-164561228D01*
X172958646Y-164561228D02*
X173101504Y-164489800D01*
X173101504Y-164489800D02*
X173458646Y-164489800D01*
X173458646Y-164489800D02*
X173601504Y-164418371D01*
X174315789Y-165061228D02*
X174315789Y-164061228D01*
X174315789Y-164346942D02*
X174387218Y-164204085D01*
X174387218Y-164204085D02*
X174458647Y-164132657D01*
X174458647Y-164132657D02*
X174601504Y-164061228D01*
X174601504Y-164061228D02*
X174744361Y-164061228D01*
X175887218Y-165061228D02*
X175887218Y-163561228D01*
X175887218Y-164989800D02*
X175744360Y-165061228D01*
X175744360Y-165061228D02*
X175458646Y-165061228D01*
X175458646Y-165061228D02*
X175315789Y-164989800D01*
X175315789Y-164989800D02*
X175244360Y-164918371D01*
X175244360Y-164918371D02*
X175172932Y-164775514D01*
X175172932Y-164775514D02*
X175172932Y-164346942D01*
X175172932Y-164346942D02*
X175244360Y-164204085D01*
X175244360Y-164204085D02*
X175315789Y-164132657D01*
X175315789Y-164132657D02*
X175458646Y-164061228D01*
X175458646Y-164061228D02*
X175744360Y-164061228D01*
X175744360Y-164061228D02*
X175887218Y-164132657D01*
D10*
X229142857Y-148454819D02*
X228571429Y-148454819D01*
X228857143Y-148454819D02*
X228857143Y-147454819D01*
X228857143Y-147454819D02*
X228761905Y-147597676D01*
X228761905Y-147597676D02*
X228666667Y-147692914D01*
X228666667Y-147692914D02*
X228571429Y-147740533D01*
X229571429Y-148359580D02*
X229619048Y-148407200D01*
X229619048Y-148407200D02*
X229571429Y-148454819D01*
X229571429Y-148454819D02*
X229523810Y-148407200D01*
X229523810Y-148407200D02*
X229571429Y-148359580D01*
X229571429Y-148359580D02*
X229571429Y-148454819D01*
X230190476Y-147883390D02*
X230095238Y-147835771D01*
X230095238Y-147835771D02*
X230047619Y-147788152D01*
X230047619Y-147788152D02*
X230000000Y-147692914D01*
X230000000Y-147692914D02*
X230000000Y-147645295D01*
X230000000Y-147645295D02*
X230047619Y-147550057D01*
X230047619Y-147550057D02*
X230095238Y-147502438D01*
X230095238Y-147502438D02*
X230190476Y-147454819D01*
X230190476Y-147454819D02*
X230380952Y-147454819D01*
X230380952Y-147454819D02*
X230476190Y-147502438D01*
X230476190Y-147502438D02*
X230523809Y-147550057D01*
X230523809Y-147550057D02*
X230571428Y-147645295D01*
X230571428Y-147645295D02*
X230571428Y-147692914D01*
X230571428Y-147692914D02*
X230523809Y-147788152D01*
X230523809Y-147788152D02*
X230476190Y-147835771D01*
X230476190Y-147835771D02*
X230380952Y-147883390D01*
X230380952Y-147883390D02*
X230190476Y-147883390D01*
X230190476Y-147883390D02*
X230095238Y-147931009D01*
X230095238Y-147931009D02*
X230047619Y-147978628D01*
X230047619Y-147978628D02*
X230000000Y-148073866D01*
X230000000Y-148073866D02*
X230000000Y-148264342D01*
X230000000Y-148264342D02*
X230047619Y-148359580D01*
X230047619Y-148359580D02*
X230095238Y-148407200D01*
X230095238Y-148407200D02*
X230190476Y-148454819D01*
X230190476Y-148454819D02*
X230380952Y-148454819D01*
X230380952Y-148454819D02*
X230476190Y-148407200D01*
X230476190Y-148407200D02*
X230523809Y-148359580D01*
X230523809Y-148359580D02*
X230571428Y-148264342D01*
X230571428Y-148264342D02*
X230571428Y-148073866D01*
X230571428Y-148073866D02*
X230523809Y-147978628D01*
X230523809Y-147978628D02*
X230476190Y-147931009D01*
X230476190Y-147931009D02*
X230380952Y-147883390D01*
X230857143Y-147454819D02*
X231190476Y-148454819D01*
X231190476Y-148454819D02*
X231523809Y-147454819D01*
X228523810Y-152454819D02*
X229142857Y-152454819D01*
X229142857Y-152454819D02*
X228809524Y-152835771D01*
X228809524Y-152835771D02*
X228952381Y-152835771D01*
X228952381Y-152835771D02*
X229047619Y-152883390D01*
X229047619Y-152883390D02*
X229095238Y-152931009D01*
X229095238Y-152931009D02*
X229142857Y-153026247D01*
X229142857Y-153026247D02*
X229142857Y-153264342D01*
X229142857Y-153264342D02*
X229095238Y-153359580D01*
X229095238Y-153359580D02*
X229047619Y-153407200D01*
X229047619Y-153407200D02*
X228952381Y-153454819D01*
X228952381Y-153454819D02*
X228666667Y-153454819D01*
X228666667Y-153454819D02*
X228571429Y-153407200D01*
X228571429Y-153407200D02*
X228523810Y-153359580D01*
X229571429Y-153359580D02*
X229619048Y-153407200D01*
X229619048Y-153407200D02*
X229571429Y-153454819D01*
X229571429Y-153454819D02*
X229523810Y-153407200D01*
X229523810Y-153407200D02*
X229571429Y-153359580D01*
X229571429Y-153359580D02*
X229571429Y-153454819D01*
X229952381Y-152454819D02*
X230571428Y-152454819D01*
X230571428Y-152454819D02*
X230238095Y-152835771D01*
X230238095Y-152835771D02*
X230380952Y-152835771D01*
X230380952Y-152835771D02*
X230476190Y-152883390D01*
X230476190Y-152883390D02*
X230523809Y-152931009D01*
X230523809Y-152931009D02*
X230571428Y-153026247D01*
X230571428Y-153026247D02*
X230571428Y-153264342D01*
X230571428Y-153264342D02*
X230523809Y-153359580D01*
X230523809Y-153359580D02*
X230476190Y-153407200D01*
X230476190Y-153407200D02*
X230380952Y-153454819D01*
X230380952Y-153454819D02*
X230095238Y-153454819D01*
X230095238Y-153454819D02*
X230000000Y-153407200D01*
X230000000Y-153407200D02*
X229952381Y-153359580D01*
X230857143Y-152454819D02*
X231190476Y-153454819D01*
X231190476Y-153454819D02*
X231523809Y-152454819D01*
D11*
X209406265Y-171199800D02*
X209549122Y-171247419D01*
X209549122Y-171247419D02*
X209787217Y-171247419D01*
X209787217Y-171247419D02*
X209882455Y-171199800D01*
X209882455Y-171199800D02*
X209930074Y-171152180D01*
X209930074Y-171152180D02*
X209977693Y-171056942D01*
X209977693Y-171056942D02*
X209977693Y-170961704D01*
X209977693Y-170961704D02*
X209930074Y-170866466D01*
X209930074Y-170866466D02*
X209882455Y-170818847D01*
X209882455Y-170818847D02*
X209787217Y-170771228D01*
X209787217Y-170771228D02*
X209596741Y-170723609D01*
X209596741Y-170723609D02*
X209501503Y-170675990D01*
X209501503Y-170675990D02*
X209453884Y-170628371D01*
X209453884Y-170628371D02*
X209406265Y-170533133D01*
X209406265Y-170533133D02*
X209406265Y-170437895D01*
X209406265Y-170437895D02*
X209453884Y-170342657D01*
X209453884Y-170342657D02*
X209501503Y-170295038D01*
X209501503Y-170295038D02*
X209596741Y-170247419D01*
X209596741Y-170247419D02*
X209834836Y-170247419D01*
X209834836Y-170247419D02*
X209977693Y-170295038D01*
X210263408Y-170247419D02*
X210834836Y-170247419D01*
X210549122Y-171247419D02*
X210549122Y-170247419D01*
X211168170Y-171247419D02*
X211168170Y-170247419D01*
X211168170Y-170247419D02*
X211501503Y-170961704D01*
X211501503Y-170961704D02*
X211834836Y-170247419D01*
X211834836Y-170247419D02*
X211834836Y-171247419D01*
X212215789Y-170247419D02*
X212834836Y-170247419D01*
X212834836Y-170247419D02*
X212501503Y-170628371D01*
X212501503Y-170628371D02*
X212644360Y-170628371D01*
X212644360Y-170628371D02*
X212739598Y-170675990D01*
X212739598Y-170675990D02*
X212787217Y-170723609D01*
X212787217Y-170723609D02*
X212834836Y-170818847D01*
X212834836Y-170818847D02*
X212834836Y-171056942D01*
X212834836Y-171056942D02*
X212787217Y-171152180D01*
X212787217Y-171152180D02*
X212739598Y-171199800D01*
X212739598Y-171199800D02*
X212644360Y-171247419D01*
X212644360Y-171247419D02*
X212358646Y-171247419D01*
X212358646Y-171247419D02*
X212263408Y-171199800D01*
X212263408Y-171199800D02*
X212215789Y-171152180D01*
X213215789Y-170342657D02*
X213263408Y-170295038D01*
X213263408Y-170295038D02*
X213358646Y-170247419D01*
X213358646Y-170247419D02*
X213596741Y-170247419D01*
X213596741Y-170247419D02*
X213691979Y-170295038D01*
X213691979Y-170295038D02*
X213739598Y-170342657D01*
X213739598Y-170342657D02*
X213787217Y-170437895D01*
X213787217Y-170437895D02*
X213787217Y-170533133D01*
X213787217Y-170533133D02*
X213739598Y-170675990D01*
X213739598Y-170675990D02*
X213168170Y-171247419D01*
X213168170Y-171247419D02*
X213787217Y-171247419D01*
X215549122Y-171152180D02*
X215501503Y-171199800D01*
X215501503Y-171199800D02*
X215358646Y-171247419D01*
X215358646Y-171247419D02*
X215263408Y-171247419D01*
X215263408Y-171247419D02*
X215120551Y-171199800D01*
X215120551Y-171199800D02*
X215025313Y-171104561D01*
X215025313Y-171104561D02*
X214977694Y-171009323D01*
X214977694Y-171009323D02*
X214930075Y-170818847D01*
X214930075Y-170818847D02*
X214930075Y-170675990D01*
X214930075Y-170675990D02*
X214977694Y-170485514D01*
X214977694Y-170485514D02*
X215025313Y-170390276D01*
X215025313Y-170390276D02*
X215120551Y-170295038D01*
X215120551Y-170295038D02*
X215263408Y-170247419D01*
X215263408Y-170247419D02*
X215358646Y-170247419D01*
X215358646Y-170247419D02*
X215501503Y-170295038D01*
X215501503Y-170295038D02*
X215549122Y-170342657D01*
X215977694Y-171247419D02*
X215977694Y-170247419D01*
X216406265Y-171247419D02*
X216406265Y-170723609D01*
X216406265Y-170723609D02*
X216358646Y-170628371D01*
X216358646Y-170628371D02*
X216263408Y-170580752D01*
X216263408Y-170580752D02*
X216120551Y-170580752D01*
X216120551Y-170580752D02*
X216025313Y-170628371D01*
X216025313Y-170628371D02*
X215977694Y-170675990D01*
X216882456Y-171247419D02*
X216882456Y-170580752D01*
X216882456Y-170247419D02*
X216834837Y-170295038D01*
X216834837Y-170295038D02*
X216882456Y-170342657D01*
X216882456Y-170342657D02*
X216930075Y-170295038D01*
X216930075Y-170295038D02*
X216882456Y-170247419D01*
X216882456Y-170247419D02*
X216882456Y-170342657D01*
X217358646Y-170580752D02*
X217358646Y-171580752D01*
X217358646Y-170628371D02*
X217453884Y-170580752D01*
X217453884Y-170580752D02*
X217644360Y-170580752D01*
X217644360Y-170580752D02*
X217739598Y-170628371D01*
X217739598Y-170628371D02*
X217787217Y-170675990D01*
X217787217Y-170675990D02*
X217834836Y-170771228D01*
X217834836Y-170771228D02*
X217834836Y-171056942D01*
X217834836Y-171056942D02*
X217787217Y-171152180D01*
X217787217Y-171152180D02*
X217739598Y-171199800D01*
X217739598Y-171199800D02*
X217644360Y-171247419D01*
X217644360Y-171247419D02*
X217453884Y-171247419D01*
X217453884Y-171247419D02*
X217358646Y-171199800D01*
D10*
X267659523Y-149084580D02*
X267611904Y-149132200D01*
X267611904Y-149132200D02*
X267469047Y-149179819D01*
X267469047Y-149179819D02*
X267373809Y-149179819D01*
X267373809Y-149179819D02*
X267230952Y-149132200D01*
X267230952Y-149132200D02*
X267135714Y-149036961D01*
X267135714Y-149036961D02*
X267088095Y-148941723D01*
X267088095Y-148941723D02*
X267040476Y-148751247D01*
X267040476Y-148751247D02*
X267040476Y-148608390D01*
X267040476Y-148608390D02*
X267088095Y-148417914D01*
X267088095Y-148417914D02*
X267135714Y-148322676D01*
X267135714Y-148322676D02*
X267230952Y-148227438D01*
X267230952Y-148227438D02*
X267373809Y-148179819D01*
X267373809Y-148179819D02*
X267469047Y-148179819D01*
X267469047Y-148179819D02*
X267611904Y-148227438D01*
X267611904Y-148227438D02*
X267659523Y-148275057D01*
X268088095Y-149179819D02*
X268088095Y-148179819D01*
X268088095Y-148656009D02*
X268659523Y-148656009D01*
X268659523Y-149179819D02*
X268659523Y-148179819D01*
X269659523Y-149179819D02*
X269088095Y-149179819D01*
X269373809Y-149179819D02*
X269373809Y-148179819D01*
X269373809Y-148179819D02*
X269278571Y-148322676D01*
X269278571Y-148322676D02*
X269183333Y-148417914D01*
X269183333Y-148417914D02*
X269088095Y-148465533D01*
D11*
X144589598Y-130872419D02*
X144589598Y-131586704D01*
X144589598Y-131586704D02*
X144541979Y-131729561D01*
X144541979Y-131729561D02*
X144446741Y-131824800D01*
X144446741Y-131824800D02*
X144303884Y-131872419D01*
X144303884Y-131872419D02*
X144208646Y-131872419D01*
X144922932Y-130872419D02*
X145494360Y-130872419D01*
X145208646Y-131872419D02*
X145208646Y-130872419D01*
X145780075Y-131586704D02*
X146256265Y-131586704D01*
X145684837Y-131872419D02*
X146018170Y-130872419D01*
X146018170Y-130872419D02*
X146351503Y-131872419D01*
X147208646Y-130920038D02*
X147113408Y-130872419D01*
X147113408Y-130872419D02*
X146970551Y-130872419D01*
X146970551Y-130872419D02*
X146827694Y-130920038D01*
X146827694Y-130920038D02*
X146732456Y-131015276D01*
X146732456Y-131015276D02*
X146684837Y-131110514D01*
X146684837Y-131110514D02*
X146637218Y-131300990D01*
X146637218Y-131300990D02*
X146637218Y-131443847D01*
X146637218Y-131443847D02*
X146684837Y-131634323D01*
X146684837Y-131634323D02*
X146732456Y-131729561D01*
X146732456Y-131729561D02*
X146827694Y-131824800D01*
X146827694Y-131824800D02*
X146970551Y-131872419D01*
X146970551Y-131872419D02*
X147065789Y-131872419D01*
X147065789Y-131872419D02*
X147208646Y-131824800D01*
X147208646Y-131824800D02*
X147256265Y-131777180D01*
X147256265Y-131777180D02*
X147256265Y-131443847D01*
X147256265Y-131443847D02*
X147065789Y-131443847D01*
X148446742Y-131872419D02*
X148446742Y-130872419D01*
X148446742Y-130872419D02*
X148827694Y-130872419D01*
X148827694Y-130872419D02*
X148922932Y-130920038D01*
X148922932Y-130920038D02*
X148970551Y-130967657D01*
X148970551Y-130967657D02*
X149018170Y-131062895D01*
X149018170Y-131062895D02*
X149018170Y-131205752D01*
X149018170Y-131205752D02*
X148970551Y-131300990D01*
X148970551Y-131300990D02*
X148922932Y-131348609D01*
X148922932Y-131348609D02*
X148827694Y-131396228D01*
X148827694Y-131396228D02*
X148446742Y-131396228D01*
X149446742Y-131872419D02*
X149446742Y-131205752D01*
X149446742Y-130872419D02*
X149399123Y-130920038D01*
X149399123Y-130920038D02*
X149446742Y-130967657D01*
X149446742Y-130967657D02*
X149494361Y-130920038D01*
X149494361Y-130920038D02*
X149446742Y-130872419D01*
X149446742Y-130872419D02*
X149446742Y-130967657D01*
X149922932Y-131205752D02*
X149922932Y-131872419D01*
X149922932Y-131300990D02*
X149970551Y-131253371D01*
X149970551Y-131253371D02*
X150065789Y-131205752D01*
X150065789Y-131205752D02*
X150208646Y-131205752D01*
X150208646Y-131205752D02*
X150303884Y-131253371D01*
X150303884Y-131253371D02*
X150351503Y-131348609D01*
X150351503Y-131348609D02*
X150351503Y-131872419D01*
X151589599Y-131872419D02*
X151589599Y-130872419D01*
X151589599Y-131348609D02*
X152161027Y-131348609D01*
X152161027Y-131872419D02*
X152161027Y-130872419D01*
X153018170Y-131824800D02*
X152922932Y-131872419D01*
X152922932Y-131872419D02*
X152732456Y-131872419D01*
X152732456Y-131872419D02*
X152637218Y-131824800D01*
X152637218Y-131824800D02*
X152589599Y-131729561D01*
X152589599Y-131729561D02*
X152589599Y-131348609D01*
X152589599Y-131348609D02*
X152637218Y-131253371D01*
X152637218Y-131253371D02*
X152732456Y-131205752D01*
X152732456Y-131205752D02*
X152922932Y-131205752D01*
X152922932Y-131205752D02*
X153018170Y-131253371D01*
X153018170Y-131253371D02*
X153065789Y-131348609D01*
X153065789Y-131348609D02*
X153065789Y-131443847D01*
X153065789Y-131443847D02*
X152589599Y-131539085D01*
X153922932Y-131872419D02*
X153922932Y-131348609D01*
X153922932Y-131348609D02*
X153875313Y-131253371D01*
X153875313Y-131253371D02*
X153780075Y-131205752D01*
X153780075Y-131205752D02*
X153589599Y-131205752D01*
X153589599Y-131205752D02*
X153494361Y-131253371D01*
X153922932Y-131824800D02*
X153827694Y-131872419D01*
X153827694Y-131872419D02*
X153589599Y-131872419D01*
X153589599Y-131872419D02*
X153494361Y-131824800D01*
X153494361Y-131824800D02*
X153446742Y-131729561D01*
X153446742Y-131729561D02*
X153446742Y-131634323D01*
X153446742Y-131634323D02*
X153494361Y-131539085D01*
X153494361Y-131539085D02*
X153589599Y-131491466D01*
X153589599Y-131491466D02*
X153827694Y-131491466D01*
X153827694Y-131491466D02*
X153922932Y-131443847D01*
X154827694Y-131872419D02*
X154827694Y-130872419D01*
X154827694Y-131824800D02*
X154732456Y-131872419D01*
X154732456Y-131872419D02*
X154541980Y-131872419D01*
X154541980Y-131872419D02*
X154446742Y-131824800D01*
X154446742Y-131824800D02*
X154399123Y-131777180D01*
X154399123Y-131777180D02*
X154351504Y-131681942D01*
X154351504Y-131681942D02*
X154351504Y-131396228D01*
X154351504Y-131396228D02*
X154399123Y-131300990D01*
X154399123Y-131300990D02*
X154446742Y-131253371D01*
X154446742Y-131253371D02*
X154541980Y-131205752D01*
X154541980Y-131205752D02*
X154732456Y-131205752D01*
X154732456Y-131205752D02*
X154827694Y-131253371D01*
X155684837Y-131824800D02*
X155589599Y-131872419D01*
X155589599Y-131872419D02*
X155399123Y-131872419D01*
X155399123Y-131872419D02*
X155303885Y-131824800D01*
X155303885Y-131824800D02*
X155256266Y-131729561D01*
X155256266Y-131729561D02*
X155256266Y-131348609D01*
X155256266Y-131348609D02*
X155303885Y-131253371D01*
X155303885Y-131253371D02*
X155399123Y-131205752D01*
X155399123Y-131205752D02*
X155589599Y-131205752D01*
X155589599Y-131205752D02*
X155684837Y-131253371D01*
X155684837Y-131253371D02*
X155732456Y-131348609D01*
X155732456Y-131348609D02*
X155732456Y-131443847D01*
X155732456Y-131443847D02*
X155256266Y-131539085D01*
X156161028Y-131872419D02*
X156161028Y-131205752D01*
X156161028Y-131396228D02*
X156208647Y-131300990D01*
X156208647Y-131300990D02*
X156256266Y-131253371D01*
X156256266Y-131253371D02*
X156351504Y-131205752D01*
X156351504Y-131205752D02*
X156446742Y-131205752D01*
X262703884Y-128547419D02*
X262703884Y-129356942D01*
X262703884Y-129356942D02*
X262751503Y-129452180D01*
X262751503Y-129452180D02*
X262799122Y-129499800D01*
X262799122Y-129499800D02*
X262894360Y-129547419D01*
X262894360Y-129547419D02*
X263084836Y-129547419D01*
X263084836Y-129547419D02*
X263180074Y-129499800D01*
X263180074Y-129499800D02*
X263227693Y-129452180D01*
X263227693Y-129452180D02*
X263275312Y-129356942D01*
X263275312Y-129356942D02*
X263275312Y-128547419D01*
X263703884Y-129499800D02*
X263846741Y-129547419D01*
X263846741Y-129547419D02*
X264084836Y-129547419D01*
X264084836Y-129547419D02*
X264180074Y-129499800D01*
X264180074Y-129499800D02*
X264227693Y-129452180D01*
X264227693Y-129452180D02*
X264275312Y-129356942D01*
X264275312Y-129356942D02*
X264275312Y-129261704D01*
X264275312Y-129261704D02*
X264227693Y-129166466D01*
X264227693Y-129166466D02*
X264180074Y-129118847D01*
X264180074Y-129118847D02*
X264084836Y-129071228D01*
X264084836Y-129071228D02*
X263894360Y-129023609D01*
X263894360Y-129023609D02*
X263799122Y-128975990D01*
X263799122Y-128975990D02*
X263751503Y-128928371D01*
X263751503Y-128928371D02*
X263703884Y-128833133D01*
X263703884Y-128833133D02*
X263703884Y-128737895D01*
X263703884Y-128737895D02*
X263751503Y-128642657D01*
X263751503Y-128642657D02*
X263799122Y-128595038D01*
X263799122Y-128595038D02*
X263894360Y-128547419D01*
X263894360Y-128547419D02*
X264132455Y-128547419D01*
X264132455Y-128547419D02*
X264275312Y-128595038D01*
X265037217Y-129023609D02*
X265180074Y-129071228D01*
X265180074Y-129071228D02*
X265227693Y-129118847D01*
X265227693Y-129118847D02*
X265275312Y-129214085D01*
X265275312Y-129214085D02*
X265275312Y-129356942D01*
X265275312Y-129356942D02*
X265227693Y-129452180D01*
X265227693Y-129452180D02*
X265180074Y-129499800D01*
X265180074Y-129499800D02*
X265084836Y-129547419D01*
X265084836Y-129547419D02*
X264703884Y-129547419D01*
X264703884Y-129547419D02*
X264703884Y-128547419D01*
X264703884Y-128547419D02*
X265037217Y-128547419D01*
X265037217Y-128547419D02*
X265132455Y-128595038D01*
X265132455Y-128595038D02*
X265180074Y-128642657D01*
X265180074Y-128642657D02*
X265227693Y-128737895D01*
X265227693Y-128737895D02*
X265227693Y-128833133D01*
X265227693Y-128833133D02*
X265180074Y-128928371D01*
X265180074Y-128928371D02*
X265132455Y-128975990D01*
X265132455Y-128975990D02*
X265037217Y-129023609D01*
X265037217Y-129023609D02*
X264703884Y-129023609D01*
X266751503Y-129928371D02*
X266703884Y-129880752D01*
X266703884Y-129880752D02*
X266608646Y-129737895D01*
X266608646Y-129737895D02*
X266561027Y-129642657D01*
X266561027Y-129642657D02*
X266513408Y-129499800D01*
X266513408Y-129499800D02*
X266465789Y-129261704D01*
X266465789Y-129261704D02*
X266465789Y-129071228D01*
X266465789Y-129071228D02*
X266513408Y-128833133D01*
X266513408Y-128833133D02*
X266561027Y-128690276D01*
X266561027Y-128690276D02*
X266608646Y-128595038D01*
X266608646Y-128595038D02*
X266703884Y-128452180D01*
X266703884Y-128452180D02*
X266751503Y-128404561D01*
X267084837Y-129261704D02*
X267561027Y-129261704D01*
X266989599Y-129547419D02*
X267322932Y-128547419D01*
X267322932Y-128547419D02*
X267656265Y-129547419D01*
X267989599Y-129547419D02*
X267989599Y-128547419D01*
X267989599Y-128928371D02*
X268084837Y-128880752D01*
X268084837Y-128880752D02*
X268275313Y-128880752D01*
X268275313Y-128880752D02*
X268370551Y-128928371D01*
X268370551Y-128928371D02*
X268418170Y-128975990D01*
X268418170Y-128975990D02*
X268465789Y-129071228D01*
X268465789Y-129071228D02*
X268465789Y-129356942D01*
X268465789Y-129356942D02*
X268418170Y-129452180D01*
X268418170Y-129452180D02*
X268370551Y-129499800D01*
X268370551Y-129499800D02*
X268275313Y-129547419D01*
X268275313Y-129547419D02*
X268084837Y-129547419D01*
X268084837Y-129547419D02*
X267989599Y-129499800D01*
X268846742Y-129499800D02*
X268941980Y-129547419D01*
X268941980Y-129547419D02*
X269132456Y-129547419D01*
X269132456Y-129547419D02*
X269227694Y-129499800D01*
X269227694Y-129499800D02*
X269275313Y-129404561D01*
X269275313Y-129404561D02*
X269275313Y-129356942D01*
X269275313Y-129356942D02*
X269227694Y-129261704D01*
X269227694Y-129261704D02*
X269132456Y-129214085D01*
X269132456Y-129214085D02*
X268989599Y-129214085D01*
X268989599Y-129214085D02*
X268894361Y-129166466D01*
X268894361Y-129166466D02*
X268846742Y-129071228D01*
X268846742Y-129071228D02*
X268846742Y-129023609D01*
X268846742Y-129023609D02*
X268894361Y-128928371D01*
X268894361Y-128928371D02*
X268989599Y-128880752D01*
X268989599Y-128880752D02*
X269132456Y-128880752D01*
X269132456Y-128880752D02*
X269227694Y-128928371D01*
X270084837Y-129499800D02*
X269989599Y-129547419D01*
X269989599Y-129547419D02*
X269799123Y-129547419D01*
X269799123Y-129547419D02*
X269703885Y-129499800D01*
X269703885Y-129499800D02*
X269656266Y-129404561D01*
X269656266Y-129404561D02*
X269656266Y-129023609D01*
X269656266Y-129023609D02*
X269703885Y-128928371D01*
X269703885Y-128928371D02*
X269799123Y-128880752D01*
X269799123Y-128880752D02*
X269989599Y-128880752D01*
X269989599Y-128880752D02*
X270084837Y-128928371D01*
X270084837Y-128928371D02*
X270132456Y-129023609D01*
X270132456Y-129023609D02*
X270132456Y-129118847D01*
X270132456Y-129118847D02*
X269656266Y-129214085D01*
X270561028Y-128880752D02*
X270561028Y-129547419D01*
X270561028Y-128975990D02*
X270608647Y-128928371D01*
X270608647Y-128928371D02*
X270703885Y-128880752D01*
X270703885Y-128880752D02*
X270846742Y-128880752D01*
X270846742Y-128880752D02*
X270941980Y-128928371D01*
X270941980Y-128928371D02*
X270989599Y-129023609D01*
X270989599Y-129023609D02*
X270989599Y-129547419D01*
X271322933Y-128880752D02*
X271703885Y-128880752D01*
X271465790Y-128547419D02*
X271465790Y-129404561D01*
X271465790Y-129404561D02*
X271513409Y-129499800D01*
X271513409Y-129499800D02*
X271608647Y-129547419D01*
X271608647Y-129547419D02*
X271703885Y-129547419D01*
X271941981Y-129928371D02*
X271989600Y-129880752D01*
X271989600Y-129880752D02*
X272084838Y-129737895D01*
X272084838Y-129737895D02*
X272132457Y-129642657D01*
X272132457Y-129642657D02*
X272180076Y-129499800D01*
X272180076Y-129499800D02*
X272227695Y-129261704D01*
X272227695Y-129261704D02*
X272227695Y-129071228D01*
X272227695Y-129071228D02*
X272180076Y-128833133D01*
X272180076Y-128833133D02*
X272132457Y-128690276D01*
X272132457Y-128690276D02*
X272084838Y-128595038D01*
X272084838Y-128595038D02*
X271989600Y-128452180D01*
X271989600Y-128452180D02*
X271941981Y-128404561D01*
D10*
X228809524Y-149954819D02*
X228904762Y-149954819D01*
X228904762Y-149954819D02*
X229000000Y-150002438D01*
X229000000Y-150002438D02*
X229047619Y-150050057D01*
X229047619Y-150050057D02*
X229095238Y-150145295D01*
X229095238Y-150145295D02*
X229142857Y-150335771D01*
X229142857Y-150335771D02*
X229142857Y-150573866D01*
X229142857Y-150573866D02*
X229095238Y-150764342D01*
X229095238Y-150764342D02*
X229047619Y-150859580D01*
X229047619Y-150859580D02*
X229000000Y-150907200D01*
X229000000Y-150907200D02*
X228904762Y-150954819D01*
X228904762Y-150954819D02*
X228809524Y-150954819D01*
X228809524Y-150954819D02*
X228714286Y-150907200D01*
X228714286Y-150907200D02*
X228666667Y-150859580D01*
X228666667Y-150859580D02*
X228619048Y-150764342D01*
X228619048Y-150764342D02*
X228571429Y-150573866D01*
X228571429Y-150573866D02*
X228571429Y-150335771D01*
X228571429Y-150335771D02*
X228619048Y-150145295D01*
X228619048Y-150145295D02*
X228666667Y-150050057D01*
X228666667Y-150050057D02*
X228714286Y-150002438D01*
X228714286Y-150002438D02*
X228809524Y-149954819D01*
X229571429Y-150859580D02*
X229619048Y-150907200D01*
X229619048Y-150907200D02*
X229571429Y-150954819D01*
X229571429Y-150954819D02*
X229523810Y-150907200D01*
X229523810Y-150907200D02*
X229571429Y-150859580D01*
X229571429Y-150859580D02*
X229571429Y-150954819D01*
X230095238Y-150954819D02*
X230285714Y-150954819D01*
X230285714Y-150954819D02*
X230380952Y-150907200D01*
X230380952Y-150907200D02*
X230428571Y-150859580D01*
X230428571Y-150859580D02*
X230523809Y-150716723D01*
X230523809Y-150716723D02*
X230571428Y-150526247D01*
X230571428Y-150526247D02*
X230571428Y-150145295D01*
X230571428Y-150145295D02*
X230523809Y-150050057D01*
X230523809Y-150050057D02*
X230476190Y-150002438D01*
X230476190Y-150002438D02*
X230380952Y-149954819D01*
X230380952Y-149954819D02*
X230190476Y-149954819D01*
X230190476Y-149954819D02*
X230095238Y-150002438D01*
X230095238Y-150002438D02*
X230047619Y-150050057D01*
X230047619Y-150050057D02*
X230000000Y-150145295D01*
X230000000Y-150145295D02*
X230000000Y-150383390D01*
X230000000Y-150383390D02*
X230047619Y-150478628D01*
X230047619Y-150478628D02*
X230095238Y-150526247D01*
X230095238Y-150526247D02*
X230190476Y-150573866D01*
X230190476Y-150573866D02*
X230380952Y-150573866D01*
X230380952Y-150573866D02*
X230476190Y-150526247D01*
X230476190Y-150526247D02*
X230523809Y-150478628D01*
X230523809Y-150478628D02*
X230571428Y-150383390D01*
X230857143Y-149954819D02*
X231190476Y-150954819D01*
X231190476Y-150954819D02*
X231523809Y-149954819D01*
D11*
X156647419Y-157871115D02*
X155647419Y-157871115D01*
X155647419Y-157871115D02*
X155647419Y-157490163D01*
X155647419Y-157490163D02*
X155695038Y-157394925D01*
X155695038Y-157394925D02*
X155742657Y-157347306D01*
X155742657Y-157347306D02*
X155837895Y-157299687D01*
X155837895Y-157299687D02*
X155980752Y-157299687D01*
X155980752Y-157299687D02*
X156075990Y-157347306D01*
X156075990Y-157347306D02*
X156123609Y-157394925D01*
X156123609Y-157394925D02*
X156171228Y-157490163D01*
X156171228Y-157490163D02*
X156171228Y-157871115D01*
X156647419Y-156728258D02*
X156599800Y-156823496D01*
X156599800Y-156823496D02*
X156552180Y-156871115D01*
X156552180Y-156871115D02*
X156456942Y-156918734D01*
X156456942Y-156918734D02*
X156171228Y-156918734D01*
X156171228Y-156918734D02*
X156075990Y-156871115D01*
X156075990Y-156871115D02*
X156028371Y-156823496D01*
X156028371Y-156823496D02*
X155980752Y-156728258D01*
X155980752Y-156728258D02*
X155980752Y-156585401D01*
X155980752Y-156585401D02*
X156028371Y-156490163D01*
X156028371Y-156490163D02*
X156075990Y-156442544D01*
X156075990Y-156442544D02*
X156171228Y-156394925D01*
X156171228Y-156394925D02*
X156456942Y-156394925D01*
X156456942Y-156394925D02*
X156552180Y-156442544D01*
X156552180Y-156442544D02*
X156599800Y-156490163D01*
X156599800Y-156490163D02*
X156647419Y-156585401D01*
X156647419Y-156585401D02*
X156647419Y-156728258D01*
X155980752Y-156061591D02*
X156647419Y-155871115D01*
X156647419Y-155871115D02*
X156171228Y-155680639D01*
X156171228Y-155680639D02*
X156647419Y-155490163D01*
X156647419Y-155490163D02*
X155980752Y-155299687D01*
X156599800Y-154537782D02*
X156647419Y-154633020D01*
X156647419Y-154633020D02*
X156647419Y-154823496D01*
X156647419Y-154823496D02*
X156599800Y-154918734D01*
X156599800Y-154918734D02*
X156504561Y-154966353D01*
X156504561Y-154966353D02*
X156123609Y-154966353D01*
X156123609Y-154966353D02*
X156028371Y-154918734D01*
X156028371Y-154918734D02*
X155980752Y-154823496D01*
X155980752Y-154823496D02*
X155980752Y-154633020D01*
X155980752Y-154633020D02*
X156028371Y-154537782D01*
X156028371Y-154537782D02*
X156123609Y-154490163D01*
X156123609Y-154490163D02*
X156218847Y-154490163D01*
X156218847Y-154490163D02*
X156314085Y-154966353D01*
X156647419Y-154061591D02*
X155980752Y-154061591D01*
X156171228Y-154061591D02*
X156075990Y-154013972D01*
X156075990Y-154013972D02*
X156028371Y-153966353D01*
X156028371Y-153966353D02*
X155980752Y-153871115D01*
X155980752Y-153871115D02*
X155980752Y-153775877D01*
X155599800Y-152728258D02*
X156885514Y-153585400D01*
X155695038Y-151871115D02*
X155647419Y-151966353D01*
X155647419Y-151966353D02*
X155647419Y-152109210D01*
X155647419Y-152109210D02*
X155695038Y-152252067D01*
X155695038Y-152252067D02*
X155790276Y-152347305D01*
X155790276Y-152347305D02*
X155885514Y-152394924D01*
X155885514Y-152394924D02*
X156075990Y-152442543D01*
X156075990Y-152442543D02*
X156218847Y-152442543D01*
X156218847Y-152442543D02*
X156409323Y-152394924D01*
X156409323Y-152394924D02*
X156504561Y-152347305D01*
X156504561Y-152347305D02*
X156599800Y-152252067D01*
X156599800Y-152252067D02*
X156647419Y-152109210D01*
X156647419Y-152109210D02*
X156647419Y-152013972D01*
X156647419Y-152013972D02*
X156599800Y-151871115D01*
X156599800Y-151871115D02*
X156552180Y-151823496D01*
X156552180Y-151823496D02*
X156218847Y-151823496D01*
X156218847Y-151823496D02*
X156218847Y-152013972D01*
X156647419Y-151394924D02*
X155647419Y-151394924D01*
X155647419Y-151394924D02*
X156647419Y-150823496D01*
X156647419Y-150823496D02*
X155647419Y-150823496D01*
X156647419Y-150347305D02*
X155647419Y-150347305D01*
X155647419Y-150347305D02*
X155647419Y-150109210D01*
X155647419Y-150109210D02*
X155695038Y-149966353D01*
X155695038Y-149966353D02*
X155790276Y-149871115D01*
X155790276Y-149871115D02*
X155885514Y-149823496D01*
X155885514Y-149823496D02*
X156075990Y-149775877D01*
X156075990Y-149775877D02*
X156218847Y-149775877D01*
X156218847Y-149775877D02*
X156409323Y-149823496D01*
X156409323Y-149823496D02*
X156504561Y-149871115D01*
X156504561Y-149871115D02*
X156599800Y-149966353D01*
X156599800Y-149966353D02*
X156647419Y-150109210D01*
X156647419Y-150109210D02*
X156647419Y-150347305D01*
X156647419Y-148585400D02*
X155647419Y-148585400D01*
X156123609Y-148585400D02*
X156123609Y-148013972D01*
X156647419Y-148013972D02*
X155647419Y-148013972D01*
X156599800Y-147156829D02*
X156647419Y-147252067D01*
X156647419Y-147252067D02*
X156647419Y-147442543D01*
X156647419Y-147442543D02*
X156599800Y-147537781D01*
X156599800Y-147537781D02*
X156504561Y-147585400D01*
X156504561Y-147585400D02*
X156123609Y-147585400D01*
X156123609Y-147585400D02*
X156028371Y-147537781D01*
X156028371Y-147537781D02*
X155980752Y-147442543D01*
X155980752Y-147442543D02*
X155980752Y-147252067D01*
X155980752Y-147252067D02*
X156028371Y-147156829D01*
X156028371Y-147156829D02*
X156123609Y-147109210D01*
X156123609Y-147109210D02*
X156218847Y-147109210D01*
X156218847Y-147109210D02*
X156314085Y-147585400D01*
X156647419Y-146252067D02*
X156123609Y-146252067D01*
X156123609Y-146252067D02*
X156028371Y-146299686D01*
X156028371Y-146299686D02*
X155980752Y-146394924D01*
X155980752Y-146394924D02*
X155980752Y-146585400D01*
X155980752Y-146585400D02*
X156028371Y-146680638D01*
X156599800Y-146252067D02*
X156647419Y-146347305D01*
X156647419Y-146347305D02*
X156647419Y-146585400D01*
X156647419Y-146585400D02*
X156599800Y-146680638D01*
X156599800Y-146680638D02*
X156504561Y-146728257D01*
X156504561Y-146728257D02*
X156409323Y-146728257D01*
X156409323Y-146728257D02*
X156314085Y-146680638D01*
X156314085Y-146680638D02*
X156266466Y-146585400D01*
X156266466Y-146585400D02*
X156266466Y-146347305D01*
X156266466Y-146347305D02*
X156218847Y-146252067D01*
X156647419Y-145347305D02*
X155647419Y-145347305D01*
X156599800Y-145347305D02*
X156647419Y-145442543D01*
X156647419Y-145442543D02*
X156647419Y-145633019D01*
X156647419Y-145633019D02*
X156599800Y-145728257D01*
X156599800Y-145728257D02*
X156552180Y-145775876D01*
X156552180Y-145775876D02*
X156456942Y-145823495D01*
X156456942Y-145823495D02*
X156171228Y-145823495D01*
X156171228Y-145823495D02*
X156075990Y-145775876D01*
X156075990Y-145775876D02*
X156028371Y-145728257D01*
X156028371Y-145728257D02*
X155980752Y-145633019D01*
X155980752Y-145633019D02*
X155980752Y-145442543D01*
X155980752Y-145442543D02*
X156028371Y-145347305D01*
X156599800Y-144490162D02*
X156647419Y-144585400D01*
X156647419Y-144585400D02*
X156647419Y-144775876D01*
X156647419Y-144775876D02*
X156599800Y-144871114D01*
X156599800Y-144871114D02*
X156504561Y-144918733D01*
X156504561Y-144918733D02*
X156123609Y-144918733D01*
X156123609Y-144918733D02*
X156028371Y-144871114D01*
X156028371Y-144871114D02*
X155980752Y-144775876D01*
X155980752Y-144775876D02*
X155980752Y-144585400D01*
X155980752Y-144585400D02*
X156028371Y-144490162D01*
X156028371Y-144490162D02*
X156123609Y-144442543D01*
X156123609Y-144442543D02*
X156218847Y-144442543D01*
X156218847Y-144442543D02*
X156314085Y-144918733D01*
X156647419Y-144013971D02*
X155980752Y-144013971D01*
X156171228Y-144013971D02*
X156075990Y-143966352D01*
X156075990Y-143966352D02*
X156028371Y-143918733D01*
X156028371Y-143918733D02*
X155980752Y-143823495D01*
X155980752Y-143823495D02*
X155980752Y-143728257D01*
D12*
X147526667Y-122254318D02*
X147526667Y-123161461D01*
X147526667Y-123161461D02*
X147466190Y-123342889D01*
X147466190Y-123342889D02*
X147345238Y-123463842D01*
X147345238Y-123463842D02*
X147163809Y-123524318D01*
X147163809Y-123524318D02*
X147042857Y-123524318D01*
X148010476Y-122254318D02*
X148857143Y-122254318D01*
X148857143Y-122254318D02*
X148312857Y-123524318D01*
D10*
X175582142Y-125379819D02*
X175248809Y-124903628D01*
X175010714Y-125379819D02*
X175010714Y-124379819D01*
X175010714Y-124379819D02*
X175391666Y-124379819D01*
X175391666Y-124379819D02*
X175486904Y-124427438D01*
X175486904Y-124427438D02*
X175534523Y-124475057D01*
X175534523Y-124475057D02*
X175582142Y-124570295D01*
X175582142Y-124570295D02*
X175582142Y-124713152D01*
X175582142Y-124713152D02*
X175534523Y-124808390D01*
X175534523Y-124808390D02*
X175486904Y-124856009D01*
X175486904Y-124856009D02*
X175391666Y-124903628D01*
X175391666Y-124903628D02*
X175010714Y-124903628D01*
X176534523Y-125379819D02*
X175963095Y-125379819D01*
X176248809Y-125379819D02*
X176248809Y-124379819D01*
X176248809Y-124379819D02*
X176153571Y-124522676D01*
X176153571Y-124522676D02*
X176058333Y-124617914D01*
X176058333Y-124617914D02*
X175963095Y-124665533D01*
X177439285Y-124379819D02*
X176963095Y-124379819D01*
X176963095Y-124379819D02*
X176915476Y-124856009D01*
X176915476Y-124856009D02*
X176963095Y-124808390D01*
X176963095Y-124808390D02*
X177058333Y-124760771D01*
X177058333Y-124760771D02*
X177296428Y-124760771D01*
X177296428Y-124760771D02*
X177391666Y-124808390D01*
X177391666Y-124808390D02*
X177439285Y-124856009D01*
X177439285Y-124856009D02*
X177486904Y-124951247D01*
X177486904Y-124951247D02*
X177486904Y-125189342D01*
X177486904Y-125189342D02*
X177439285Y-125284580D01*
X177439285Y-125284580D02*
X177391666Y-125332200D01*
X177391666Y-125332200D02*
X177296428Y-125379819D01*
X177296428Y-125379819D02*
X177058333Y-125379819D01*
X177058333Y-125379819D02*
X176963095Y-125332200D01*
X176963095Y-125332200D02*
X176915476Y-125284580D01*
X199639580Y-153317857D02*
X199687200Y-153365476D01*
X199687200Y-153365476D02*
X199734819Y-153508333D01*
X199734819Y-153508333D02*
X199734819Y-153603571D01*
X199734819Y-153603571D02*
X199687200Y-153746428D01*
X199687200Y-153746428D02*
X199591961Y-153841666D01*
X199591961Y-153841666D02*
X199496723Y-153889285D01*
X199496723Y-153889285D02*
X199306247Y-153936904D01*
X199306247Y-153936904D02*
X199163390Y-153936904D01*
X199163390Y-153936904D02*
X198972914Y-153889285D01*
X198972914Y-153889285D02*
X198877676Y-153841666D01*
X198877676Y-153841666D02*
X198782438Y-153746428D01*
X198782438Y-153746428D02*
X198734819Y-153603571D01*
X198734819Y-153603571D02*
X198734819Y-153508333D01*
X198734819Y-153508333D02*
X198782438Y-153365476D01*
X198782438Y-153365476D02*
X198830057Y-153317857D01*
X199734819Y-152365476D02*
X199734819Y-152936904D01*
X199734819Y-152651190D02*
X198734819Y-152651190D01*
X198734819Y-152651190D02*
X198877676Y-152746428D01*
X198877676Y-152746428D02*
X198972914Y-152841666D01*
X198972914Y-152841666D02*
X199020533Y-152936904D01*
X198734819Y-151508333D02*
X198734819Y-151698809D01*
X198734819Y-151698809D02*
X198782438Y-151794047D01*
X198782438Y-151794047D02*
X198830057Y-151841666D01*
X198830057Y-151841666D02*
X198972914Y-151936904D01*
X198972914Y-151936904D02*
X199163390Y-151984523D01*
X199163390Y-151984523D02*
X199544342Y-151984523D01*
X199544342Y-151984523D02*
X199639580Y-151936904D01*
X199639580Y-151936904D02*
X199687200Y-151889285D01*
X199687200Y-151889285D02*
X199734819Y-151794047D01*
X199734819Y-151794047D02*
X199734819Y-151603571D01*
X199734819Y-151603571D02*
X199687200Y-151508333D01*
X199687200Y-151508333D02*
X199639580Y-151460714D01*
X199639580Y-151460714D02*
X199544342Y-151413095D01*
X199544342Y-151413095D02*
X199306247Y-151413095D01*
X199306247Y-151413095D02*
X199211009Y-151460714D01*
X199211009Y-151460714D02*
X199163390Y-151508333D01*
X199163390Y-151508333D02*
X199115771Y-151603571D01*
X199115771Y-151603571D02*
X199115771Y-151794047D01*
X199115771Y-151794047D02*
X199163390Y-151889285D01*
X199163390Y-151889285D02*
X199211009Y-151936904D01*
X199211009Y-151936904D02*
X199306247Y-151984523D01*
X175607142Y-127654819D02*
X175273809Y-127178628D01*
X175035714Y-127654819D02*
X175035714Y-126654819D01*
X175035714Y-126654819D02*
X175416666Y-126654819D01*
X175416666Y-126654819D02*
X175511904Y-126702438D01*
X175511904Y-126702438D02*
X175559523Y-126750057D01*
X175559523Y-126750057D02*
X175607142Y-126845295D01*
X175607142Y-126845295D02*
X175607142Y-126988152D01*
X175607142Y-126988152D02*
X175559523Y-127083390D01*
X175559523Y-127083390D02*
X175511904Y-127131009D01*
X175511904Y-127131009D02*
X175416666Y-127178628D01*
X175416666Y-127178628D02*
X175035714Y-127178628D01*
X176559523Y-127654819D02*
X175988095Y-127654819D01*
X176273809Y-127654819D02*
X176273809Y-126654819D01*
X176273809Y-126654819D02*
X176178571Y-126797676D01*
X176178571Y-126797676D02*
X176083333Y-126892914D01*
X176083333Y-126892914D02*
X175988095Y-126940533D01*
X177416666Y-126988152D02*
X177416666Y-127654819D01*
X177178571Y-126607200D02*
X176940476Y-127321485D01*
X176940476Y-127321485D02*
X177559523Y-127321485D01*
X190290476Y-117254819D02*
X190957142Y-118254819D01*
X190957142Y-117254819D02*
X190290476Y-118254819D01*
X191242857Y-117254819D02*
X191861904Y-117254819D01*
X191861904Y-117254819D02*
X191528571Y-117635771D01*
X191528571Y-117635771D02*
X191671428Y-117635771D01*
X191671428Y-117635771D02*
X191766666Y-117683390D01*
X191766666Y-117683390D02*
X191814285Y-117731009D01*
X191814285Y-117731009D02*
X191861904Y-117826247D01*
X191861904Y-117826247D02*
X191861904Y-118064342D01*
X191861904Y-118064342D02*
X191814285Y-118159580D01*
X191814285Y-118159580D02*
X191766666Y-118207200D01*
X191766666Y-118207200D02*
X191671428Y-118254819D01*
X191671428Y-118254819D02*
X191385714Y-118254819D01*
X191385714Y-118254819D02*
X191290476Y-118207200D01*
X191290476Y-118207200D02*
X191242857Y-118159580D01*
X258382142Y-154287080D02*
X258334523Y-154334700D01*
X258334523Y-154334700D02*
X258191666Y-154382319D01*
X258191666Y-154382319D02*
X258096428Y-154382319D01*
X258096428Y-154382319D02*
X257953571Y-154334700D01*
X257953571Y-154334700D02*
X257858333Y-154239461D01*
X257858333Y-154239461D02*
X257810714Y-154144223D01*
X257810714Y-154144223D02*
X257763095Y-153953747D01*
X257763095Y-153953747D02*
X257763095Y-153810890D01*
X257763095Y-153810890D02*
X257810714Y-153620414D01*
X257810714Y-153620414D02*
X257858333Y-153525176D01*
X257858333Y-153525176D02*
X257953571Y-153429938D01*
X257953571Y-153429938D02*
X258096428Y-153382319D01*
X258096428Y-153382319D02*
X258191666Y-153382319D01*
X258191666Y-153382319D02*
X258334523Y-153429938D01*
X258334523Y-153429938D02*
X258382142Y-153477557D01*
X258763095Y-153477557D02*
X258810714Y-153429938D01*
X258810714Y-153429938D02*
X258905952Y-153382319D01*
X258905952Y-153382319D02*
X259144047Y-153382319D01*
X259144047Y-153382319D02*
X259239285Y-153429938D01*
X259239285Y-153429938D02*
X259286904Y-153477557D01*
X259286904Y-153477557D02*
X259334523Y-153572795D01*
X259334523Y-153572795D02*
X259334523Y-153668033D01*
X259334523Y-153668033D02*
X259286904Y-153810890D01*
X259286904Y-153810890D02*
X258715476Y-154382319D01*
X258715476Y-154382319D02*
X259334523Y-154382319D01*
X259905952Y-153810890D02*
X259810714Y-153763271D01*
X259810714Y-153763271D02*
X259763095Y-153715652D01*
X259763095Y-153715652D02*
X259715476Y-153620414D01*
X259715476Y-153620414D02*
X259715476Y-153572795D01*
X259715476Y-153572795D02*
X259763095Y-153477557D01*
X259763095Y-153477557D02*
X259810714Y-153429938D01*
X259810714Y-153429938D02*
X259905952Y-153382319D01*
X259905952Y-153382319D02*
X260096428Y-153382319D01*
X260096428Y-153382319D02*
X260191666Y-153429938D01*
X260191666Y-153429938D02*
X260239285Y-153477557D01*
X260239285Y-153477557D02*
X260286904Y-153572795D01*
X260286904Y-153572795D02*
X260286904Y-153620414D01*
X260286904Y-153620414D02*
X260239285Y-153715652D01*
X260239285Y-153715652D02*
X260191666Y-153763271D01*
X260191666Y-153763271D02*
X260096428Y-153810890D01*
X260096428Y-153810890D02*
X259905952Y-153810890D01*
X259905952Y-153810890D02*
X259810714Y-153858509D01*
X259810714Y-153858509D02*
X259763095Y-153906128D01*
X259763095Y-153906128D02*
X259715476Y-154001366D01*
X259715476Y-154001366D02*
X259715476Y-154191842D01*
X259715476Y-154191842D02*
X259763095Y-154287080D01*
X259763095Y-154287080D02*
X259810714Y-154334700D01*
X259810714Y-154334700D02*
X259905952Y-154382319D01*
X259905952Y-154382319D02*
X260096428Y-154382319D01*
X260096428Y-154382319D02*
X260191666Y-154334700D01*
X260191666Y-154334700D02*
X260239285Y-154287080D01*
X260239285Y-154287080D02*
X260286904Y-154191842D01*
X260286904Y-154191842D02*
X260286904Y-154001366D01*
X260286904Y-154001366D02*
X260239285Y-153906128D01*
X260239285Y-153906128D02*
X260191666Y-153858509D01*
X260191666Y-153858509D02*
X260096428Y-153810890D01*
X230304580Y-143792857D02*
X230352200Y-143840476D01*
X230352200Y-143840476D02*
X230399819Y-143983333D01*
X230399819Y-143983333D02*
X230399819Y-144078571D01*
X230399819Y-144078571D02*
X230352200Y-144221428D01*
X230352200Y-144221428D02*
X230256961Y-144316666D01*
X230256961Y-144316666D02*
X230161723Y-144364285D01*
X230161723Y-144364285D02*
X229971247Y-144411904D01*
X229971247Y-144411904D02*
X229828390Y-144411904D01*
X229828390Y-144411904D02*
X229637914Y-144364285D01*
X229637914Y-144364285D02*
X229542676Y-144316666D01*
X229542676Y-144316666D02*
X229447438Y-144221428D01*
X229447438Y-144221428D02*
X229399819Y-144078571D01*
X229399819Y-144078571D02*
X229399819Y-143983333D01*
X229399819Y-143983333D02*
X229447438Y-143840476D01*
X229447438Y-143840476D02*
X229495057Y-143792857D01*
X230399819Y-142840476D02*
X230399819Y-143411904D01*
X230399819Y-143126190D02*
X229399819Y-143126190D01*
X229399819Y-143126190D02*
X229542676Y-143221428D01*
X229542676Y-143221428D02*
X229637914Y-143316666D01*
X229637914Y-143316666D02*
X229685533Y-143411904D01*
X229828390Y-142269047D02*
X229780771Y-142364285D01*
X229780771Y-142364285D02*
X229733152Y-142411904D01*
X229733152Y-142411904D02*
X229637914Y-142459523D01*
X229637914Y-142459523D02*
X229590295Y-142459523D01*
X229590295Y-142459523D02*
X229495057Y-142411904D01*
X229495057Y-142411904D02*
X229447438Y-142364285D01*
X229447438Y-142364285D02*
X229399819Y-142269047D01*
X229399819Y-142269047D02*
X229399819Y-142078571D01*
X229399819Y-142078571D02*
X229447438Y-141983333D01*
X229447438Y-141983333D02*
X229495057Y-141935714D01*
X229495057Y-141935714D02*
X229590295Y-141888095D01*
X229590295Y-141888095D02*
X229637914Y-141888095D01*
X229637914Y-141888095D02*
X229733152Y-141935714D01*
X229733152Y-141935714D02*
X229780771Y-141983333D01*
X229780771Y-141983333D02*
X229828390Y-142078571D01*
X229828390Y-142078571D02*
X229828390Y-142269047D01*
X229828390Y-142269047D02*
X229876009Y-142364285D01*
X229876009Y-142364285D02*
X229923628Y-142411904D01*
X229923628Y-142411904D02*
X230018866Y-142459523D01*
X230018866Y-142459523D02*
X230209342Y-142459523D01*
X230209342Y-142459523D02*
X230304580Y-142411904D01*
X230304580Y-142411904D02*
X230352200Y-142364285D01*
X230352200Y-142364285D02*
X230399819Y-142269047D01*
X230399819Y-142269047D02*
X230399819Y-142078571D01*
X230399819Y-142078571D02*
X230352200Y-141983333D01*
X230352200Y-141983333D02*
X230304580Y-141935714D01*
X230304580Y-141935714D02*
X230209342Y-141888095D01*
X230209342Y-141888095D02*
X230018866Y-141888095D01*
X230018866Y-141888095D02*
X229923628Y-141935714D01*
X229923628Y-141935714D02*
X229876009Y-141983333D01*
X229876009Y-141983333D02*
X229828390Y-142078571D01*
X212883333Y-163804580D02*
X212835714Y-163852200D01*
X212835714Y-163852200D02*
X212692857Y-163899819D01*
X212692857Y-163899819D02*
X212597619Y-163899819D01*
X212597619Y-163899819D02*
X212454762Y-163852200D01*
X212454762Y-163852200D02*
X212359524Y-163756961D01*
X212359524Y-163756961D02*
X212311905Y-163661723D01*
X212311905Y-163661723D02*
X212264286Y-163471247D01*
X212264286Y-163471247D02*
X212264286Y-163328390D01*
X212264286Y-163328390D02*
X212311905Y-163137914D01*
X212311905Y-163137914D02*
X212359524Y-163042676D01*
X212359524Y-163042676D02*
X212454762Y-162947438D01*
X212454762Y-162947438D02*
X212597619Y-162899819D01*
X212597619Y-162899819D02*
X212692857Y-162899819D01*
X212692857Y-162899819D02*
X212835714Y-162947438D01*
X212835714Y-162947438D02*
X212883333Y-162995057D01*
X213788095Y-162899819D02*
X213311905Y-162899819D01*
X213311905Y-162899819D02*
X213264286Y-163376009D01*
X213264286Y-163376009D02*
X213311905Y-163328390D01*
X213311905Y-163328390D02*
X213407143Y-163280771D01*
X213407143Y-163280771D02*
X213645238Y-163280771D01*
X213645238Y-163280771D02*
X213740476Y-163328390D01*
X213740476Y-163328390D02*
X213788095Y-163376009D01*
X213788095Y-163376009D02*
X213835714Y-163471247D01*
X213835714Y-163471247D02*
X213835714Y-163709342D01*
X213835714Y-163709342D02*
X213788095Y-163804580D01*
X213788095Y-163804580D02*
X213740476Y-163852200D01*
X213740476Y-163852200D02*
X213645238Y-163899819D01*
X213645238Y-163899819D02*
X213407143Y-163899819D01*
X213407143Y-163899819D02*
X213311905Y-163852200D01*
X213311905Y-163852200D02*
X213264286Y-163804580D01*
X198229580Y-137367857D02*
X198277200Y-137415476D01*
X198277200Y-137415476D02*
X198324819Y-137558333D01*
X198324819Y-137558333D02*
X198324819Y-137653571D01*
X198324819Y-137653571D02*
X198277200Y-137796428D01*
X198277200Y-137796428D02*
X198181961Y-137891666D01*
X198181961Y-137891666D02*
X198086723Y-137939285D01*
X198086723Y-137939285D02*
X197896247Y-137986904D01*
X197896247Y-137986904D02*
X197753390Y-137986904D01*
X197753390Y-137986904D02*
X197562914Y-137939285D01*
X197562914Y-137939285D02*
X197467676Y-137891666D01*
X197467676Y-137891666D02*
X197372438Y-137796428D01*
X197372438Y-137796428D02*
X197324819Y-137653571D01*
X197324819Y-137653571D02*
X197324819Y-137558333D01*
X197324819Y-137558333D02*
X197372438Y-137415476D01*
X197372438Y-137415476D02*
X197420057Y-137367857D01*
X198324819Y-136415476D02*
X198324819Y-136986904D01*
X198324819Y-136701190D02*
X197324819Y-136701190D01*
X197324819Y-136701190D02*
X197467676Y-136796428D01*
X197467676Y-136796428D02*
X197562914Y-136891666D01*
X197562914Y-136891666D02*
X197610533Y-136986904D01*
X198324819Y-135463095D02*
X198324819Y-136034523D01*
X198324819Y-135748809D02*
X197324819Y-135748809D01*
X197324819Y-135748809D02*
X197467676Y-135844047D01*
X197467676Y-135844047D02*
X197562914Y-135939285D01*
X197562914Y-135939285D02*
X197610533Y-136034523D01*
X205954819Y-135916666D02*
X205478628Y-136249999D01*
X205954819Y-136488094D02*
X204954819Y-136488094D01*
X204954819Y-136488094D02*
X204954819Y-136107142D01*
X204954819Y-136107142D02*
X205002438Y-136011904D01*
X205002438Y-136011904D02*
X205050057Y-135964285D01*
X205050057Y-135964285D02*
X205145295Y-135916666D01*
X205145295Y-135916666D02*
X205288152Y-135916666D01*
X205288152Y-135916666D02*
X205383390Y-135964285D01*
X205383390Y-135964285D02*
X205431009Y-136011904D01*
X205431009Y-136011904D02*
X205478628Y-136107142D01*
X205478628Y-136107142D02*
X205478628Y-136488094D01*
X204954819Y-135583332D02*
X204954819Y-134916666D01*
X204954819Y-134916666D02*
X205954819Y-135345237D01*
X199679819Y-162566666D02*
X199203628Y-162899999D01*
X199679819Y-163138094D02*
X198679819Y-163138094D01*
X198679819Y-163138094D02*
X198679819Y-162757142D01*
X198679819Y-162757142D02*
X198727438Y-162661904D01*
X198727438Y-162661904D02*
X198775057Y-162614285D01*
X198775057Y-162614285D02*
X198870295Y-162566666D01*
X198870295Y-162566666D02*
X199013152Y-162566666D01*
X199013152Y-162566666D02*
X199108390Y-162614285D01*
X199108390Y-162614285D02*
X199156009Y-162661904D01*
X199156009Y-162661904D02*
X199203628Y-162757142D01*
X199203628Y-162757142D02*
X199203628Y-163138094D01*
X198679819Y-161661904D02*
X198679819Y-162138094D01*
X198679819Y-162138094D02*
X199156009Y-162185713D01*
X199156009Y-162185713D02*
X199108390Y-162138094D01*
X199108390Y-162138094D02*
X199060771Y-162042856D01*
X199060771Y-162042856D02*
X199060771Y-161804761D01*
X199060771Y-161804761D02*
X199108390Y-161709523D01*
X199108390Y-161709523D02*
X199156009Y-161661904D01*
X199156009Y-161661904D02*
X199251247Y-161614285D01*
X199251247Y-161614285D02*
X199489342Y-161614285D01*
X199489342Y-161614285D02*
X199584580Y-161661904D01*
X199584580Y-161661904D02*
X199632200Y-161709523D01*
X199632200Y-161709523D02*
X199679819Y-161804761D01*
X199679819Y-161804761D02*
X199679819Y-162042856D01*
X199679819Y-162042856D02*
X199632200Y-162138094D01*
X199632200Y-162138094D02*
X199584580Y-162185713D01*
D12*
X210407380Y-150579318D02*
X210407380Y-151607413D01*
X210407380Y-151607413D02*
X210467857Y-151728365D01*
X210467857Y-151728365D02*
X210528333Y-151788842D01*
X210528333Y-151788842D02*
X210649285Y-151849318D01*
X210649285Y-151849318D02*
X210891190Y-151849318D01*
X210891190Y-151849318D02*
X211012142Y-151788842D01*
X211012142Y-151788842D02*
X211072619Y-151728365D01*
X211072619Y-151728365D02*
X211133095Y-151607413D01*
X211133095Y-151607413D02*
X211133095Y-150579318D01*
X211677380Y-150700270D02*
X211737856Y-150639794D01*
X211737856Y-150639794D02*
X211858809Y-150579318D01*
X211858809Y-150579318D02*
X212161190Y-150579318D01*
X212161190Y-150579318D02*
X212282142Y-150639794D01*
X212282142Y-150639794D02*
X212342618Y-150700270D01*
X212342618Y-150700270D02*
X212403095Y-150821222D01*
X212403095Y-150821222D02*
X212403095Y-150942175D01*
X212403095Y-150942175D02*
X212342618Y-151123603D01*
X212342618Y-151123603D02*
X211616904Y-151849318D01*
X211616904Y-151849318D02*
X212403095Y-151849318D01*
D10*
X191757142Y-153114580D02*
X191709523Y-153162200D01*
X191709523Y-153162200D02*
X191566666Y-153209819D01*
X191566666Y-153209819D02*
X191471428Y-153209819D01*
X191471428Y-153209819D02*
X191328571Y-153162200D01*
X191328571Y-153162200D02*
X191233333Y-153066961D01*
X191233333Y-153066961D02*
X191185714Y-152971723D01*
X191185714Y-152971723D02*
X191138095Y-152781247D01*
X191138095Y-152781247D02*
X191138095Y-152638390D01*
X191138095Y-152638390D02*
X191185714Y-152447914D01*
X191185714Y-152447914D02*
X191233333Y-152352676D01*
X191233333Y-152352676D02*
X191328571Y-152257438D01*
X191328571Y-152257438D02*
X191471428Y-152209819D01*
X191471428Y-152209819D02*
X191566666Y-152209819D01*
X191566666Y-152209819D02*
X191709523Y-152257438D01*
X191709523Y-152257438D02*
X191757142Y-152305057D01*
X192138095Y-152305057D02*
X192185714Y-152257438D01*
X192185714Y-152257438D02*
X192280952Y-152209819D01*
X192280952Y-152209819D02*
X192519047Y-152209819D01*
X192519047Y-152209819D02*
X192614285Y-152257438D01*
X192614285Y-152257438D02*
X192661904Y-152305057D01*
X192661904Y-152305057D02*
X192709523Y-152400295D01*
X192709523Y-152400295D02*
X192709523Y-152495533D01*
X192709523Y-152495533D02*
X192661904Y-152638390D01*
X192661904Y-152638390D02*
X192090476Y-153209819D01*
X192090476Y-153209819D02*
X192709523Y-153209819D01*
X193566666Y-152209819D02*
X193376190Y-152209819D01*
X193376190Y-152209819D02*
X193280952Y-152257438D01*
X193280952Y-152257438D02*
X193233333Y-152305057D01*
X193233333Y-152305057D02*
X193138095Y-152447914D01*
X193138095Y-152447914D02*
X193090476Y-152638390D01*
X193090476Y-152638390D02*
X193090476Y-153019342D01*
X193090476Y-153019342D02*
X193138095Y-153114580D01*
X193138095Y-153114580D02*
X193185714Y-153162200D01*
X193185714Y-153162200D02*
X193280952Y-153209819D01*
X193280952Y-153209819D02*
X193471428Y-153209819D01*
X193471428Y-153209819D02*
X193566666Y-153162200D01*
X193566666Y-153162200D02*
X193614285Y-153114580D01*
X193614285Y-153114580D02*
X193661904Y-153019342D01*
X193661904Y-153019342D02*
X193661904Y-152781247D01*
X193661904Y-152781247D02*
X193614285Y-152686009D01*
X193614285Y-152686009D02*
X193566666Y-152638390D01*
X193566666Y-152638390D02*
X193471428Y-152590771D01*
X193471428Y-152590771D02*
X193280952Y-152590771D01*
X193280952Y-152590771D02*
X193185714Y-152638390D01*
X193185714Y-152638390D02*
X193138095Y-152686009D01*
X193138095Y-152686009D02*
X193090476Y-152781247D01*
X200304580Y-137392857D02*
X200352200Y-137440476D01*
X200352200Y-137440476D02*
X200399819Y-137583333D01*
X200399819Y-137583333D02*
X200399819Y-137678571D01*
X200399819Y-137678571D02*
X200352200Y-137821428D01*
X200352200Y-137821428D02*
X200256961Y-137916666D01*
X200256961Y-137916666D02*
X200161723Y-137964285D01*
X200161723Y-137964285D02*
X199971247Y-138011904D01*
X199971247Y-138011904D02*
X199828390Y-138011904D01*
X199828390Y-138011904D02*
X199637914Y-137964285D01*
X199637914Y-137964285D02*
X199542676Y-137916666D01*
X199542676Y-137916666D02*
X199447438Y-137821428D01*
X199447438Y-137821428D02*
X199399819Y-137678571D01*
X199399819Y-137678571D02*
X199399819Y-137583333D01*
X199399819Y-137583333D02*
X199447438Y-137440476D01*
X199447438Y-137440476D02*
X199495057Y-137392857D01*
X200399819Y-136440476D02*
X200399819Y-137011904D01*
X200399819Y-136726190D02*
X199399819Y-136726190D01*
X199399819Y-136726190D02*
X199542676Y-136821428D01*
X199542676Y-136821428D02*
X199637914Y-136916666D01*
X199637914Y-136916666D02*
X199685533Y-137011904D01*
X199399819Y-135821428D02*
X199399819Y-135726190D01*
X199399819Y-135726190D02*
X199447438Y-135630952D01*
X199447438Y-135630952D02*
X199495057Y-135583333D01*
X199495057Y-135583333D02*
X199590295Y-135535714D01*
X199590295Y-135535714D02*
X199780771Y-135488095D01*
X199780771Y-135488095D02*
X200018866Y-135488095D01*
X200018866Y-135488095D02*
X200209342Y-135535714D01*
X200209342Y-135535714D02*
X200304580Y-135583333D01*
X200304580Y-135583333D02*
X200352200Y-135630952D01*
X200352200Y-135630952D02*
X200399819Y-135726190D01*
X200399819Y-135726190D02*
X200399819Y-135821428D01*
X200399819Y-135821428D02*
X200352200Y-135916666D01*
X200352200Y-135916666D02*
X200304580Y-135964285D01*
X200304580Y-135964285D02*
X200209342Y-136011904D01*
X200209342Y-136011904D02*
X200018866Y-136059523D01*
X200018866Y-136059523D02*
X199780771Y-136059523D01*
X199780771Y-136059523D02*
X199590295Y-136011904D01*
X199590295Y-136011904D02*
X199495057Y-135964285D01*
X199495057Y-135964285D02*
X199447438Y-135916666D01*
X199447438Y-135916666D02*
X199399819Y-135821428D01*
X214882142Y-168314580D02*
X214834523Y-168362200D01*
X214834523Y-168362200D02*
X214691666Y-168409819D01*
X214691666Y-168409819D02*
X214596428Y-168409819D01*
X214596428Y-168409819D02*
X214453571Y-168362200D01*
X214453571Y-168362200D02*
X214358333Y-168266961D01*
X214358333Y-168266961D02*
X214310714Y-168171723D01*
X214310714Y-168171723D02*
X214263095Y-167981247D01*
X214263095Y-167981247D02*
X214263095Y-167838390D01*
X214263095Y-167838390D02*
X214310714Y-167647914D01*
X214310714Y-167647914D02*
X214358333Y-167552676D01*
X214358333Y-167552676D02*
X214453571Y-167457438D01*
X214453571Y-167457438D02*
X214596428Y-167409819D01*
X214596428Y-167409819D02*
X214691666Y-167409819D01*
X214691666Y-167409819D02*
X214834523Y-167457438D01*
X214834523Y-167457438D02*
X214882142Y-167505057D01*
X215834523Y-168409819D02*
X215263095Y-168409819D01*
X215548809Y-168409819D02*
X215548809Y-167409819D01*
X215548809Y-167409819D02*
X215453571Y-167552676D01*
X215453571Y-167552676D02*
X215358333Y-167647914D01*
X215358333Y-167647914D02*
X215263095Y-167695533D01*
X216310714Y-168409819D02*
X216501190Y-168409819D01*
X216501190Y-168409819D02*
X216596428Y-168362200D01*
X216596428Y-168362200D02*
X216644047Y-168314580D01*
X216644047Y-168314580D02*
X216739285Y-168171723D01*
X216739285Y-168171723D02*
X216786904Y-167981247D01*
X216786904Y-167981247D02*
X216786904Y-167600295D01*
X216786904Y-167600295D02*
X216739285Y-167505057D01*
X216739285Y-167505057D02*
X216691666Y-167457438D01*
X216691666Y-167457438D02*
X216596428Y-167409819D01*
X216596428Y-167409819D02*
X216405952Y-167409819D01*
X216405952Y-167409819D02*
X216310714Y-167457438D01*
X216310714Y-167457438D02*
X216263095Y-167505057D01*
X216263095Y-167505057D02*
X216215476Y-167600295D01*
X216215476Y-167600295D02*
X216215476Y-167838390D01*
X216215476Y-167838390D02*
X216263095Y-167933628D01*
X216263095Y-167933628D02*
X216310714Y-167981247D01*
X216310714Y-167981247D02*
X216405952Y-168028866D01*
X216405952Y-168028866D02*
X216596428Y-168028866D01*
X216596428Y-168028866D02*
X216691666Y-167981247D01*
X216691666Y-167981247D02*
X216739285Y-167933628D01*
X216739285Y-167933628D02*
X216786904Y-167838390D01*
X222614580Y-166616666D02*
X222662200Y-166664285D01*
X222662200Y-166664285D02*
X222709819Y-166807142D01*
X222709819Y-166807142D02*
X222709819Y-166902380D01*
X222709819Y-166902380D02*
X222662200Y-167045237D01*
X222662200Y-167045237D02*
X222566961Y-167140475D01*
X222566961Y-167140475D02*
X222471723Y-167188094D01*
X222471723Y-167188094D02*
X222281247Y-167235713D01*
X222281247Y-167235713D02*
X222138390Y-167235713D01*
X222138390Y-167235713D02*
X221947914Y-167188094D01*
X221947914Y-167188094D02*
X221852676Y-167140475D01*
X221852676Y-167140475D02*
X221757438Y-167045237D01*
X221757438Y-167045237D02*
X221709819Y-166902380D01*
X221709819Y-166902380D02*
X221709819Y-166807142D01*
X221709819Y-166807142D02*
X221757438Y-166664285D01*
X221757438Y-166664285D02*
X221805057Y-166616666D01*
X222709819Y-166140475D02*
X222709819Y-165949999D01*
X222709819Y-165949999D02*
X222662200Y-165854761D01*
X222662200Y-165854761D02*
X222614580Y-165807142D01*
X222614580Y-165807142D02*
X222471723Y-165711904D01*
X222471723Y-165711904D02*
X222281247Y-165664285D01*
X222281247Y-165664285D02*
X221900295Y-165664285D01*
X221900295Y-165664285D02*
X221805057Y-165711904D01*
X221805057Y-165711904D02*
X221757438Y-165759523D01*
X221757438Y-165759523D02*
X221709819Y-165854761D01*
X221709819Y-165854761D02*
X221709819Y-166045237D01*
X221709819Y-166045237D02*
X221757438Y-166140475D01*
X221757438Y-166140475D02*
X221805057Y-166188094D01*
X221805057Y-166188094D02*
X221900295Y-166235713D01*
X221900295Y-166235713D02*
X222138390Y-166235713D01*
X222138390Y-166235713D02*
X222233628Y-166188094D01*
X222233628Y-166188094D02*
X222281247Y-166140475D01*
X222281247Y-166140475D02*
X222328866Y-166045237D01*
X222328866Y-166045237D02*
X222328866Y-165854761D01*
X222328866Y-165854761D02*
X222281247Y-165759523D01*
X222281247Y-165759523D02*
X222233628Y-165711904D01*
X222233628Y-165711904D02*
X222138390Y-165664285D01*
X203229819Y-136066666D02*
X202753628Y-136399999D01*
X203229819Y-136638094D02*
X202229819Y-136638094D01*
X202229819Y-136638094D02*
X202229819Y-136257142D01*
X202229819Y-136257142D02*
X202277438Y-136161904D01*
X202277438Y-136161904D02*
X202325057Y-136114285D01*
X202325057Y-136114285D02*
X202420295Y-136066666D01*
X202420295Y-136066666D02*
X202563152Y-136066666D01*
X202563152Y-136066666D02*
X202658390Y-136114285D01*
X202658390Y-136114285D02*
X202706009Y-136161904D01*
X202706009Y-136161904D02*
X202753628Y-136257142D01*
X202753628Y-136257142D02*
X202753628Y-136638094D01*
X202229819Y-135209523D02*
X202229819Y-135399999D01*
X202229819Y-135399999D02*
X202277438Y-135495237D01*
X202277438Y-135495237D02*
X202325057Y-135542856D01*
X202325057Y-135542856D02*
X202467914Y-135638094D01*
X202467914Y-135638094D02*
X202658390Y-135685713D01*
X202658390Y-135685713D02*
X203039342Y-135685713D01*
X203039342Y-135685713D02*
X203134580Y-135638094D01*
X203134580Y-135638094D02*
X203182200Y-135590475D01*
X203182200Y-135590475D02*
X203229819Y-135495237D01*
X203229819Y-135495237D02*
X203229819Y-135304761D01*
X203229819Y-135304761D02*
X203182200Y-135209523D01*
X203182200Y-135209523D02*
X203134580Y-135161904D01*
X203134580Y-135161904D02*
X203039342Y-135114285D01*
X203039342Y-135114285D02*
X202801247Y-135114285D01*
X202801247Y-135114285D02*
X202706009Y-135161904D01*
X202706009Y-135161904D02*
X202658390Y-135209523D01*
X202658390Y-135209523D02*
X202610771Y-135304761D01*
X202610771Y-135304761D02*
X202610771Y-135495237D01*
X202610771Y-135495237D02*
X202658390Y-135590475D01*
X202658390Y-135590475D02*
X202706009Y-135638094D01*
X202706009Y-135638094D02*
X202801247Y-135685713D01*
X189732142Y-149389580D02*
X189684523Y-149437200D01*
X189684523Y-149437200D02*
X189541666Y-149484819D01*
X189541666Y-149484819D02*
X189446428Y-149484819D01*
X189446428Y-149484819D02*
X189303571Y-149437200D01*
X189303571Y-149437200D02*
X189208333Y-149341961D01*
X189208333Y-149341961D02*
X189160714Y-149246723D01*
X189160714Y-149246723D02*
X189113095Y-149056247D01*
X189113095Y-149056247D02*
X189113095Y-148913390D01*
X189113095Y-148913390D02*
X189160714Y-148722914D01*
X189160714Y-148722914D02*
X189208333Y-148627676D01*
X189208333Y-148627676D02*
X189303571Y-148532438D01*
X189303571Y-148532438D02*
X189446428Y-148484819D01*
X189446428Y-148484819D02*
X189541666Y-148484819D01*
X189541666Y-148484819D02*
X189684523Y-148532438D01*
X189684523Y-148532438D02*
X189732142Y-148580057D01*
X190684523Y-149484819D02*
X190113095Y-149484819D01*
X190398809Y-149484819D02*
X190398809Y-148484819D01*
X190398809Y-148484819D02*
X190303571Y-148627676D01*
X190303571Y-148627676D02*
X190208333Y-148722914D01*
X190208333Y-148722914D02*
X190113095Y-148770533D01*
X191017857Y-148484819D02*
X191636904Y-148484819D01*
X191636904Y-148484819D02*
X191303571Y-148865771D01*
X191303571Y-148865771D02*
X191446428Y-148865771D01*
X191446428Y-148865771D02*
X191541666Y-148913390D01*
X191541666Y-148913390D02*
X191589285Y-148961009D01*
X191589285Y-148961009D02*
X191636904Y-149056247D01*
X191636904Y-149056247D02*
X191636904Y-149294342D01*
X191636904Y-149294342D02*
X191589285Y-149389580D01*
X191589285Y-149389580D02*
X191541666Y-149437200D01*
X191541666Y-149437200D02*
X191446428Y-149484819D01*
X191446428Y-149484819D02*
X191160714Y-149484819D01*
X191160714Y-149484819D02*
X191065476Y-149437200D01*
X191065476Y-149437200D02*
X191017857Y-149389580D01*
X220639580Y-166666666D02*
X220687200Y-166714285D01*
X220687200Y-166714285D02*
X220734819Y-166857142D01*
X220734819Y-166857142D02*
X220734819Y-166952380D01*
X220734819Y-166952380D02*
X220687200Y-167095237D01*
X220687200Y-167095237D02*
X220591961Y-167190475D01*
X220591961Y-167190475D02*
X220496723Y-167238094D01*
X220496723Y-167238094D02*
X220306247Y-167285713D01*
X220306247Y-167285713D02*
X220163390Y-167285713D01*
X220163390Y-167285713D02*
X219972914Y-167238094D01*
X219972914Y-167238094D02*
X219877676Y-167190475D01*
X219877676Y-167190475D02*
X219782438Y-167095237D01*
X219782438Y-167095237D02*
X219734819Y-166952380D01*
X219734819Y-166952380D02*
X219734819Y-166857142D01*
X219734819Y-166857142D02*
X219782438Y-166714285D01*
X219782438Y-166714285D02*
X219830057Y-166666666D01*
X220068152Y-165809523D02*
X220734819Y-165809523D01*
X219687200Y-166047618D02*
X220401485Y-166285713D01*
X220401485Y-166285713D02*
X220401485Y-165666666D01*
X224579580Y-156291666D02*
X224627200Y-156339285D01*
X224627200Y-156339285D02*
X224674819Y-156482142D01*
X224674819Y-156482142D02*
X224674819Y-156577380D01*
X224674819Y-156577380D02*
X224627200Y-156720237D01*
X224627200Y-156720237D02*
X224531961Y-156815475D01*
X224531961Y-156815475D02*
X224436723Y-156863094D01*
X224436723Y-156863094D02*
X224246247Y-156910713D01*
X224246247Y-156910713D02*
X224103390Y-156910713D01*
X224103390Y-156910713D02*
X223912914Y-156863094D01*
X223912914Y-156863094D02*
X223817676Y-156815475D01*
X223817676Y-156815475D02*
X223722438Y-156720237D01*
X223722438Y-156720237D02*
X223674819Y-156577380D01*
X223674819Y-156577380D02*
X223674819Y-156482142D01*
X223674819Y-156482142D02*
X223722438Y-156339285D01*
X223722438Y-156339285D02*
X223770057Y-156291666D01*
X223674819Y-155958332D02*
X223674819Y-155339285D01*
X223674819Y-155339285D02*
X224055771Y-155672618D01*
X224055771Y-155672618D02*
X224055771Y-155529761D01*
X224055771Y-155529761D02*
X224103390Y-155434523D01*
X224103390Y-155434523D02*
X224151009Y-155386904D01*
X224151009Y-155386904D02*
X224246247Y-155339285D01*
X224246247Y-155339285D02*
X224484342Y-155339285D01*
X224484342Y-155339285D02*
X224579580Y-155386904D01*
X224579580Y-155386904D02*
X224627200Y-155434523D01*
X224627200Y-155434523D02*
X224674819Y-155529761D01*
X224674819Y-155529761D02*
X224674819Y-155815475D01*
X224674819Y-155815475D02*
X224627200Y-155910713D01*
X224627200Y-155910713D02*
X224579580Y-155958332D01*
X189482142Y-158714580D02*
X189434523Y-158762200D01*
X189434523Y-158762200D02*
X189291666Y-158809819D01*
X189291666Y-158809819D02*
X189196428Y-158809819D01*
X189196428Y-158809819D02*
X189053571Y-158762200D01*
X189053571Y-158762200D02*
X188958333Y-158666961D01*
X188958333Y-158666961D02*
X188910714Y-158571723D01*
X188910714Y-158571723D02*
X188863095Y-158381247D01*
X188863095Y-158381247D02*
X188863095Y-158238390D01*
X188863095Y-158238390D02*
X188910714Y-158047914D01*
X188910714Y-158047914D02*
X188958333Y-157952676D01*
X188958333Y-157952676D02*
X189053571Y-157857438D01*
X189053571Y-157857438D02*
X189196428Y-157809819D01*
X189196428Y-157809819D02*
X189291666Y-157809819D01*
X189291666Y-157809819D02*
X189434523Y-157857438D01*
X189434523Y-157857438D02*
X189482142Y-157905057D01*
X189863095Y-157905057D02*
X189910714Y-157857438D01*
X189910714Y-157857438D02*
X190005952Y-157809819D01*
X190005952Y-157809819D02*
X190244047Y-157809819D01*
X190244047Y-157809819D02*
X190339285Y-157857438D01*
X190339285Y-157857438D02*
X190386904Y-157905057D01*
X190386904Y-157905057D02*
X190434523Y-158000295D01*
X190434523Y-158000295D02*
X190434523Y-158095533D01*
X190434523Y-158095533D02*
X190386904Y-158238390D01*
X190386904Y-158238390D02*
X189815476Y-158809819D01*
X189815476Y-158809819D02*
X190434523Y-158809819D01*
X191339285Y-157809819D02*
X190863095Y-157809819D01*
X190863095Y-157809819D02*
X190815476Y-158286009D01*
X190815476Y-158286009D02*
X190863095Y-158238390D01*
X190863095Y-158238390D02*
X190958333Y-158190771D01*
X190958333Y-158190771D02*
X191196428Y-158190771D01*
X191196428Y-158190771D02*
X191291666Y-158238390D01*
X191291666Y-158238390D02*
X191339285Y-158286009D01*
X191339285Y-158286009D02*
X191386904Y-158381247D01*
X191386904Y-158381247D02*
X191386904Y-158619342D01*
X191386904Y-158619342D02*
X191339285Y-158714580D01*
X191339285Y-158714580D02*
X191291666Y-158762200D01*
X191291666Y-158762200D02*
X191196428Y-158809819D01*
X191196428Y-158809819D02*
X190958333Y-158809819D01*
X190958333Y-158809819D02*
X190863095Y-158762200D01*
X190863095Y-158762200D02*
X190815476Y-158714580D01*
X228789580Y-152442857D02*
X228837200Y-152490476D01*
X228837200Y-152490476D02*
X228884819Y-152633333D01*
X228884819Y-152633333D02*
X228884819Y-152728571D01*
X228884819Y-152728571D02*
X228837200Y-152871428D01*
X228837200Y-152871428D02*
X228741961Y-152966666D01*
X228741961Y-152966666D02*
X228646723Y-153014285D01*
X228646723Y-153014285D02*
X228456247Y-153061904D01*
X228456247Y-153061904D02*
X228313390Y-153061904D01*
X228313390Y-153061904D02*
X228122914Y-153014285D01*
X228122914Y-153014285D02*
X228027676Y-152966666D01*
X228027676Y-152966666D02*
X227932438Y-152871428D01*
X227932438Y-152871428D02*
X227884819Y-152728571D01*
X227884819Y-152728571D02*
X227884819Y-152633333D01*
X227884819Y-152633333D02*
X227932438Y-152490476D01*
X227932438Y-152490476D02*
X227980057Y-152442857D01*
X227980057Y-152061904D02*
X227932438Y-152014285D01*
X227932438Y-152014285D02*
X227884819Y-151919047D01*
X227884819Y-151919047D02*
X227884819Y-151680952D01*
X227884819Y-151680952D02*
X227932438Y-151585714D01*
X227932438Y-151585714D02*
X227980057Y-151538095D01*
X227980057Y-151538095D02*
X228075295Y-151490476D01*
X228075295Y-151490476D02*
X228170533Y-151490476D01*
X228170533Y-151490476D02*
X228313390Y-151538095D01*
X228313390Y-151538095D02*
X228884819Y-152109523D01*
X228884819Y-152109523D02*
X228884819Y-151490476D01*
X228884819Y-150538095D02*
X228884819Y-151109523D01*
X228884819Y-150823809D02*
X227884819Y-150823809D01*
X227884819Y-150823809D02*
X228027676Y-150919047D01*
X228027676Y-150919047D02*
X228122914Y-151014285D01*
X228122914Y-151014285D02*
X228170533Y-151109523D01*
X265357142Y-154262080D02*
X265309523Y-154309700D01*
X265309523Y-154309700D02*
X265166666Y-154357319D01*
X265166666Y-154357319D02*
X265071428Y-154357319D01*
X265071428Y-154357319D02*
X264928571Y-154309700D01*
X264928571Y-154309700D02*
X264833333Y-154214461D01*
X264833333Y-154214461D02*
X264785714Y-154119223D01*
X264785714Y-154119223D02*
X264738095Y-153928747D01*
X264738095Y-153928747D02*
X264738095Y-153785890D01*
X264738095Y-153785890D02*
X264785714Y-153595414D01*
X264785714Y-153595414D02*
X264833333Y-153500176D01*
X264833333Y-153500176D02*
X264928571Y-153404938D01*
X264928571Y-153404938D02*
X265071428Y-153357319D01*
X265071428Y-153357319D02*
X265166666Y-153357319D01*
X265166666Y-153357319D02*
X265309523Y-153404938D01*
X265309523Y-153404938D02*
X265357142Y-153452557D01*
X265738095Y-153452557D02*
X265785714Y-153404938D01*
X265785714Y-153404938D02*
X265880952Y-153357319D01*
X265880952Y-153357319D02*
X266119047Y-153357319D01*
X266119047Y-153357319D02*
X266214285Y-153404938D01*
X266214285Y-153404938D02*
X266261904Y-153452557D01*
X266261904Y-153452557D02*
X266309523Y-153547795D01*
X266309523Y-153547795D02*
X266309523Y-153643033D01*
X266309523Y-153643033D02*
X266261904Y-153785890D01*
X266261904Y-153785890D02*
X265690476Y-154357319D01*
X265690476Y-154357319D02*
X266309523Y-154357319D01*
X266642857Y-153357319D02*
X267309523Y-153357319D01*
X267309523Y-153357319D02*
X266880952Y-154357319D01*
X226129580Y-141567857D02*
X226177200Y-141615476D01*
X226177200Y-141615476D02*
X226224819Y-141758333D01*
X226224819Y-141758333D02*
X226224819Y-141853571D01*
X226224819Y-141853571D02*
X226177200Y-141996428D01*
X226177200Y-141996428D02*
X226081961Y-142091666D01*
X226081961Y-142091666D02*
X225986723Y-142139285D01*
X225986723Y-142139285D02*
X225796247Y-142186904D01*
X225796247Y-142186904D02*
X225653390Y-142186904D01*
X225653390Y-142186904D02*
X225462914Y-142139285D01*
X225462914Y-142139285D02*
X225367676Y-142091666D01*
X225367676Y-142091666D02*
X225272438Y-141996428D01*
X225272438Y-141996428D02*
X225224819Y-141853571D01*
X225224819Y-141853571D02*
X225224819Y-141758333D01*
X225224819Y-141758333D02*
X225272438Y-141615476D01*
X225272438Y-141615476D02*
X225320057Y-141567857D01*
X226224819Y-140615476D02*
X226224819Y-141186904D01*
X226224819Y-140901190D02*
X225224819Y-140901190D01*
X225224819Y-140901190D02*
X225367676Y-140996428D01*
X225367676Y-140996428D02*
X225462914Y-141091666D01*
X225462914Y-141091666D02*
X225510533Y-141186904D01*
X225224819Y-139710714D02*
X225224819Y-140186904D01*
X225224819Y-140186904D02*
X225701009Y-140234523D01*
X225701009Y-140234523D02*
X225653390Y-140186904D01*
X225653390Y-140186904D02*
X225605771Y-140091666D01*
X225605771Y-140091666D02*
X225605771Y-139853571D01*
X225605771Y-139853571D02*
X225653390Y-139758333D01*
X225653390Y-139758333D02*
X225701009Y-139710714D01*
X225701009Y-139710714D02*
X225796247Y-139663095D01*
X225796247Y-139663095D02*
X226034342Y-139663095D01*
X226034342Y-139663095D02*
X226129580Y-139710714D01*
X226129580Y-139710714D02*
X226177200Y-139758333D01*
X226177200Y-139758333D02*
X226224819Y-139853571D01*
X226224819Y-139853571D02*
X226224819Y-140091666D01*
X226224819Y-140091666D02*
X226177200Y-140186904D01*
X226177200Y-140186904D02*
X226129580Y-140234523D01*
X195889580Y-162041666D02*
X195937200Y-162089285D01*
X195937200Y-162089285D02*
X195984819Y-162232142D01*
X195984819Y-162232142D02*
X195984819Y-162327380D01*
X195984819Y-162327380D02*
X195937200Y-162470237D01*
X195937200Y-162470237D02*
X195841961Y-162565475D01*
X195841961Y-162565475D02*
X195746723Y-162613094D01*
X195746723Y-162613094D02*
X195556247Y-162660713D01*
X195556247Y-162660713D02*
X195413390Y-162660713D01*
X195413390Y-162660713D02*
X195222914Y-162613094D01*
X195222914Y-162613094D02*
X195127676Y-162565475D01*
X195127676Y-162565475D02*
X195032438Y-162470237D01*
X195032438Y-162470237D02*
X194984819Y-162327380D01*
X194984819Y-162327380D02*
X194984819Y-162232142D01*
X194984819Y-162232142D02*
X195032438Y-162089285D01*
X195032438Y-162089285D02*
X195080057Y-162041666D01*
X195413390Y-161470237D02*
X195365771Y-161565475D01*
X195365771Y-161565475D02*
X195318152Y-161613094D01*
X195318152Y-161613094D02*
X195222914Y-161660713D01*
X195222914Y-161660713D02*
X195175295Y-161660713D01*
X195175295Y-161660713D02*
X195080057Y-161613094D01*
X195080057Y-161613094D02*
X195032438Y-161565475D01*
X195032438Y-161565475D02*
X194984819Y-161470237D01*
X194984819Y-161470237D02*
X194984819Y-161279761D01*
X194984819Y-161279761D02*
X195032438Y-161184523D01*
X195032438Y-161184523D02*
X195080057Y-161136904D01*
X195080057Y-161136904D02*
X195175295Y-161089285D01*
X195175295Y-161089285D02*
X195222914Y-161089285D01*
X195222914Y-161089285D02*
X195318152Y-161136904D01*
X195318152Y-161136904D02*
X195365771Y-161184523D01*
X195365771Y-161184523D02*
X195413390Y-161279761D01*
X195413390Y-161279761D02*
X195413390Y-161470237D01*
X195413390Y-161470237D02*
X195461009Y-161565475D01*
X195461009Y-161565475D02*
X195508628Y-161613094D01*
X195508628Y-161613094D02*
X195603866Y-161660713D01*
X195603866Y-161660713D02*
X195794342Y-161660713D01*
X195794342Y-161660713D02*
X195889580Y-161613094D01*
X195889580Y-161613094D02*
X195937200Y-161565475D01*
X195937200Y-161565475D02*
X195984819Y-161470237D01*
X195984819Y-161470237D02*
X195984819Y-161279761D01*
X195984819Y-161279761D02*
X195937200Y-161184523D01*
X195937200Y-161184523D02*
X195889580Y-161136904D01*
X195889580Y-161136904D02*
X195794342Y-161089285D01*
X195794342Y-161089285D02*
X195603866Y-161089285D01*
X195603866Y-161089285D02*
X195508628Y-161136904D01*
X195508628Y-161136904D02*
X195461009Y-161184523D01*
X195461009Y-161184523D02*
X195413390Y-161279761D01*
X211504580Y-135930357D02*
X211552200Y-135977976D01*
X211552200Y-135977976D02*
X211599819Y-136120833D01*
X211599819Y-136120833D02*
X211599819Y-136216071D01*
X211599819Y-136216071D02*
X211552200Y-136358928D01*
X211552200Y-136358928D02*
X211456961Y-136454166D01*
X211456961Y-136454166D02*
X211361723Y-136501785D01*
X211361723Y-136501785D02*
X211171247Y-136549404D01*
X211171247Y-136549404D02*
X211028390Y-136549404D01*
X211028390Y-136549404D02*
X210837914Y-136501785D01*
X210837914Y-136501785D02*
X210742676Y-136454166D01*
X210742676Y-136454166D02*
X210647438Y-136358928D01*
X210647438Y-136358928D02*
X210599819Y-136216071D01*
X210599819Y-136216071D02*
X210599819Y-136120833D01*
X210599819Y-136120833D02*
X210647438Y-135977976D01*
X210647438Y-135977976D02*
X210695057Y-135930357D01*
X210599819Y-135597023D02*
X210599819Y-134977976D01*
X210599819Y-134977976D02*
X210980771Y-135311309D01*
X210980771Y-135311309D02*
X210980771Y-135168452D01*
X210980771Y-135168452D02*
X211028390Y-135073214D01*
X211028390Y-135073214D02*
X211076009Y-135025595D01*
X211076009Y-135025595D02*
X211171247Y-134977976D01*
X211171247Y-134977976D02*
X211409342Y-134977976D01*
X211409342Y-134977976D02*
X211504580Y-135025595D01*
X211504580Y-135025595D02*
X211552200Y-135073214D01*
X211552200Y-135073214D02*
X211599819Y-135168452D01*
X211599819Y-135168452D02*
X211599819Y-135454166D01*
X211599819Y-135454166D02*
X211552200Y-135549404D01*
X211552200Y-135549404D02*
X211504580Y-135597023D01*
X210599819Y-134358928D02*
X210599819Y-134263690D01*
X210599819Y-134263690D02*
X210647438Y-134168452D01*
X210647438Y-134168452D02*
X210695057Y-134120833D01*
X210695057Y-134120833D02*
X210790295Y-134073214D01*
X210790295Y-134073214D02*
X210980771Y-134025595D01*
X210980771Y-134025595D02*
X211218866Y-134025595D01*
X211218866Y-134025595D02*
X211409342Y-134073214D01*
X211409342Y-134073214D02*
X211504580Y-134120833D01*
X211504580Y-134120833D02*
X211552200Y-134168452D01*
X211552200Y-134168452D02*
X211599819Y-134263690D01*
X211599819Y-134263690D02*
X211599819Y-134358928D01*
X211599819Y-134358928D02*
X211552200Y-134454166D01*
X211552200Y-134454166D02*
X211504580Y-134501785D01*
X211504580Y-134501785D02*
X211409342Y-134549404D01*
X211409342Y-134549404D02*
X211218866Y-134597023D01*
X211218866Y-134597023D02*
X210980771Y-134597023D01*
X210980771Y-134597023D02*
X210790295Y-134549404D01*
X210790295Y-134549404D02*
X210695057Y-134501785D01*
X210695057Y-134501785D02*
X210647438Y-134454166D01*
X210647438Y-134454166D02*
X210599819Y-134358928D01*
X214029580Y-137605357D02*
X214077200Y-137652976D01*
X214077200Y-137652976D02*
X214124819Y-137795833D01*
X214124819Y-137795833D02*
X214124819Y-137891071D01*
X214124819Y-137891071D02*
X214077200Y-138033928D01*
X214077200Y-138033928D02*
X213981961Y-138129166D01*
X213981961Y-138129166D02*
X213886723Y-138176785D01*
X213886723Y-138176785D02*
X213696247Y-138224404D01*
X213696247Y-138224404D02*
X213553390Y-138224404D01*
X213553390Y-138224404D02*
X213362914Y-138176785D01*
X213362914Y-138176785D02*
X213267676Y-138129166D01*
X213267676Y-138129166D02*
X213172438Y-138033928D01*
X213172438Y-138033928D02*
X213124819Y-137891071D01*
X213124819Y-137891071D02*
X213124819Y-137795833D01*
X213124819Y-137795833D02*
X213172438Y-137652976D01*
X213172438Y-137652976D02*
X213220057Y-137605357D01*
X213220057Y-137224404D02*
X213172438Y-137176785D01*
X213172438Y-137176785D02*
X213124819Y-137081547D01*
X213124819Y-137081547D02*
X213124819Y-136843452D01*
X213124819Y-136843452D02*
X213172438Y-136748214D01*
X213172438Y-136748214D02*
X213220057Y-136700595D01*
X213220057Y-136700595D02*
X213315295Y-136652976D01*
X213315295Y-136652976D02*
X213410533Y-136652976D01*
X213410533Y-136652976D02*
X213553390Y-136700595D01*
X213553390Y-136700595D02*
X214124819Y-137272023D01*
X214124819Y-137272023D02*
X214124819Y-136652976D01*
X214124819Y-136176785D02*
X214124819Y-135986309D01*
X214124819Y-135986309D02*
X214077200Y-135891071D01*
X214077200Y-135891071D02*
X214029580Y-135843452D01*
X214029580Y-135843452D02*
X213886723Y-135748214D01*
X213886723Y-135748214D02*
X213696247Y-135700595D01*
X213696247Y-135700595D02*
X213315295Y-135700595D01*
X213315295Y-135700595D02*
X213220057Y-135748214D01*
X213220057Y-135748214D02*
X213172438Y-135795833D01*
X213172438Y-135795833D02*
X213124819Y-135891071D01*
X213124819Y-135891071D02*
X213124819Y-136081547D01*
X213124819Y-136081547D02*
X213172438Y-136176785D01*
X213172438Y-136176785D02*
X213220057Y-136224404D01*
X213220057Y-136224404D02*
X213315295Y-136272023D01*
X213315295Y-136272023D02*
X213553390Y-136272023D01*
X213553390Y-136272023D02*
X213648628Y-136224404D01*
X213648628Y-136224404D02*
X213696247Y-136176785D01*
X213696247Y-136176785D02*
X213743866Y-136081547D01*
X213743866Y-136081547D02*
X213743866Y-135891071D01*
X213743866Y-135891071D02*
X213696247Y-135795833D01*
X213696247Y-135795833D02*
X213648628Y-135748214D01*
X213648628Y-135748214D02*
X213553390Y-135700595D01*
X192718180Y-153251226D02*
X191718180Y-153917892D01*
X192718180Y-153917892D02*
X191718180Y-153251226D01*
X192384847Y-154727416D02*
X191718180Y-154727416D01*
X192765800Y-154489321D02*
X192051514Y-154251226D01*
X192051514Y-154251226D02*
X192051514Y-154870273D01*
X162054819Y-129342857D02*
X161578628Y-129676190D01*
X162054819Y-129914285D02*
X161054819Y-129914285D01*
X161054819Y-129914285D02*
X161054819Y-129533333D01*
X161054819Y-129533333D02*
X161102438Y-129438095D01*
X161102438Y-129438095D02*
X161150057Y-129390476D01*
X161150057Y-129390476D02*
X161245295Y-129342857D01*
X161245295Y-129342857D02*
X161388152Y-129342857D01*
X161388152Y-129342857D02*
X161483390Y-129390476D01*
X161483390Y-129390476D02*
X161531009Y-129438095D01*
X161531009Y-129438095D02*
X161578628Y-129533333D01*
X161578628Y-129533333D02*
X161578628Y-129914285D01*
X162054819Y-128390476D02*
X162054819Y-128961904D01*
X162054819Y-128676190D02*
X161054819Y-128676190D01*
X161054819Y-128676190D02*
X161197676Y-128771428D01*
X161197676Y-128771428D02*
X161292914Y-128866666D01*
X161292914Y-128866666D02*
X161340533Y-128961904D01*
X161054819Y-128057142D02*
X161054819Y-127438095D01*
X161054819Y-127438095D02*
X161435771Y-127771428D01*
X161435771Y-127771428D02*
X161435771Y-127628571D01*
X161435771Y-127628571D02*
X161483390Y-127533333D01*
X161483390Y-127533333D02*
X161531009Y-127485714D01*
X161531009Y-127485714D02*
X161626247Y-127438095D01*
X161626247Y-127438095D02*
X161864342Y-127438095D01*
X161864342Y-127438095D02*
X161959580Y-127485714D01*
X161959580Y-127485714D02*
X162007200Y-127533333D01*
X162007200Y-127533333D02*
X162054819Y-127628571D01*
X162054819Y-127628571D02*
X162054819Y-127914285D01*
X162054819Y-127914285D02*
X162007200Y-128009523D01*
X162007200Y-128009523D02*
X161959580Y-128057142D01*
X230489580Y-152442857D02*
X230537200Y-152490476D01*
X230537200Y-152490476D02*
X230584819Y-152633333D01*
X230584819Y-152633333D02*
X230584819Y-152728571D01*
X230584819Y-152728571D02*
X230537200Y-152871428D01*
X230537200Y-152871428D02*
X230441961Y-152966666D01*
X230441961Y-152966666D02*
X230346723Y-153014285D01*
X230346723Y-153014285D02*
X230156247Y-153061904D01*
X230156247Y-153061904D02*
X230013390Y-153061904D01*
X230013390Y-153061904D02*
X229822914Y-153014285D01*
X229822914Y-153014285D02*
X229727676Y-152966666D01*
X229727676Y-152966666D02*
X229632438Y-152871428D01*
X229632438Y-152871428D02*
X229584819Y-152728571D01*
X229584819Y-152728571D02*
X229584819Y-152633333D01*
X229584819Y-152633333D02*
X229632438Y-152490476D01*
X229632438Y-152490476D02*
X229680057Y-152442857D01*
X229680057Y-152061904D02*
X229632438Y-152014285D01*
X229632438Y-152014285D02*
X229584819Y-151919047D01*
X229584819Y-151919047D02*
X229584819Y-151680952D01*
X229584819Y-151680952D02*
X229632438Y-151585714D01*
X229632438Y-151585714D02*
X229680057Y-151538095D01*
X229680057Y-151538095D02*
X229775295Y-151490476D01*
X229775295Y-151490476D02*
X229870533Y-151490476D01*
X229870533Y-151490476D02*
X230013390Y-151538095D01*
X230013390Y-151538095D02*
X230584819Y-152109523D01*
X230584819Y-152109523D02*
X230584819Y-151490476D01*
X229584819Y-150871428D02*
X229584819Y-150776190D01*
X229584819Y-150776190D02*
X229632438Y-150680952D01*
X229632438Y-150680952D02*
X229680057Y-150633333D01*
X229680057Y-150633333D02*
X229775295Y-150585714D01*
X229775295Y-150585714D02*
X229965771Y-150538095D01*
X229965771Y-150538095D02*
X230203866Y-150538095D01*
X230203866Y-150538095D02*
X230394342Y-150585714D01*
X230394342Y-150585714D02*
X230489580Y-150633333D01*
X230489580Y-150633333D02*
X230537200Y-150680952D01*
X230537200Y-150680952D02*
X230584819Y-150776190D01*
X230584819Y-150776190D02*
X230584819Y-150871428D01*
X230584819Y-150871428D02*
X230537200Y-150966666D01*
X230537200Y-150966666D02*
X230489580Y-151014285D01*
X230489580Y-151014285D02*
X230394342Y-151061904D01*
X230394342Y-151061904D02*
X230203866Y-151109523D01*
X230203866Y-151109523D02*
X229965771Y-151109523D01*
X229965771Y-151109523D02*
X229775295Y-151061904D01*
X229775295Y-151061904D02*
X229680057Y-151014285D01*
X229680057Y-151014285D02*
X229632438Y-150966666D01*
X229632438Y-150966666D02*
X229584819Y-150871428D01*
X191569642Y-151239580D02*
X191522023Y-151287200D01*
X191522023Y-151287200D02*
X191379166Y-151334819D01*
X191379166Y-151334819D02*
X191283928Y-151334819D01*
X191283928Y-151334819D02*
X191141071Y-151287200D01*
X191141071Y-151287200D02*
X191045833Y-151191961D01*
X191045833Y-151191961D02*
X190998214Y-151096723D01*
X190998214Y-151096723D02*
X190950595Y-150906247D01*
X190950595Y-150906247D02*
X190950595Y-150763390D01*
X190950595Y-150763390D02*
X190998214Y-150572914D01*
X190998214Y-150572914D02*
X191045833Y-150477676D01*
X191045833Y-150477676D02*
X191141071Y-150382438D01*
X191141071Y-150382438D02*
X191283928Y-150334819D01*
X191283928Y-150334819D02*
X191379166Y-150334819D01*
X191379166Y-150334819D02*
X191522023Y-150382438D01*
X191522023Y-150382438D02*
X191569642Y-150430057D01*
X192522023Y-151334819D02*
X191950595Y-151334819D01*
X192236309Y-151334819D02*
X192236309Y-150334819D01*
X192236309Y-150334819D02*
X192141071Y-150477676D01*
X192141071Y-150477676D02*
X192045833Y-150572914D01*
X192045833Y-150572914D02*
X191950595Y-150620533D01*
X193379166Y-150668152D02*
X193379166Y-151334819D01*
X193141071Y-150287200D02*
X192902976Y-151001485D01*
X192902976Y-151001485D02*
X193522023Y-151001485D01*
X249166666Y-116589819D02*
X249166666Y-117304104D01*
X249166666Y-117304104D02*
X249119047Y-117446961D01*
X249119047Y-117446961D02*
X249023809Y-117542200D01*
X249023809Y-117542200D02*
X248880952Y-117589819D01*
X248880952Y-117589819D02*
X248785714Y-117589819D01*
X250071428Y-116589819D02*
X249880952Y-116589819D01*
X249880952Y-116589819D02*
X249785714Y-116637438D01*
X249785714Y-116637438D02*
X249738095Y-116685057D01*
X249738095Y-116685057D02*
X249642857Y-116827914D01*
X249642857Y-116827914D02*
X249595238Y-117018390D01*
X249595238Y-117018390D02*
X249595238Y-117399342D01*
X249595238Y-117399342D02*
X249642857Y-117494580D01*
X249642857Y-117494580D02*
X249690476Y-117542200D01*
X249690476Y-117542200D02*
X249785714Y-117589819D01*
X249785714Y-117589819D02*
X249976190Y-117589819D01*
X249976190Y-117589819D02*
X250071428Y-117542200D01*
X250071428Y-117542200D02*
X250119047Y-117494580D01*
X250119047Y-117494580D02*
X250166666Y-117399342D01*
X250166666Y-117399342D02*
X250166666Y-117161247D01*
X250166666Y-117161247D02*
X250119047Y-117066009D01*
X250119047Y-117066009D02*
X250071428Y-117018390D01*
X250071428Y-117018390D02*
X249976190Y-116970771D01*
X249976190Y-116970771D02*
X249785714Y-116970771D01*
X249785714Y-116970771D02*
X249690476Y-117018390D01*
X249690476Y-117018390D02*
X249642857Y-117066009D01*
X249642857Y-117066009D02*
X249595238Y-117161247D01*
X189757142Y-147364580D02*
X189709523Y-147412200D01*
X189709523Y-147412200D02*
X189566666Y-147459819D01*
X189566666Y-147459819D02*
X189471428Y-147459819D01*
X189471428Y-147459819D02*
X189328571Y-147412200D01*
X189328571Y-147412200D02*
X189233333Y-147316961D01*
X189233333Y-147316961D02*
X189185714Y-147221723D01*
X189185714Y-147221723D02*
X189138095Y-147031247D01*
X189138095Y-147031247D02*
X189138095Y-146888390D01*
X189138095Y-146888390D02*
X189185714Y-146697914D01*
X189185714Y-146697914D02*
X189233333Y-146602676D01*
X189233333Y-146602676D02*
X189328571Y-146507438D01*
X189328571Y-146507438D02*
X189471428Y-146459819D01*
X189471428Y-146459819D02*
X189566666Y-146459819D01*
X189566666Y-146459819D02*
X189709523Y-146507438D01*
X189709523Y-146507438D02*
X189757142Y-146555057D01*
X190709523Y-147459819D02*
X190138095Y-147459819D01*
X190423809Y-147459819D02*
X190423809Y-146459819D01*
X190423809Y-146459819D02*
X190328571Y-146602676D01*
X190328571Y-146602676D02*
X190233333Y-146697914D01*
X190233333Y-146697914D02*
X190138095Y-146745533D01*
X191090476Y-146555057D02*
X191138095Y-146507438D01*
X191138095Y-146507438D02*
X191233333Y-146459819D01*
X191233333Y-146459819D02*
X191471428Y-146459819D01*
X191471428Y-146459819D02*
X191566666Y-146507438D01*
X191566666Y-146507438D02*
X191614285Y-146555057D01*
X191614285Y-146555057D02*
X191661904Y-146650295D01*
X191661904Y-146650295D02*
X191661904Y-146745533D01*
X191661904Y-146745533D02*
X191614285Y-146888390D01*
X191614285Y-146888390D02*
X191042857Y-147459819D01*
X191042857Y-147459819D02*
X191661904Y-147459819D01*
X189507142Y-160289580D02*
X189459523Y-160337200D01*
X189459523Y-160337200D02*
X189316666Y-160384819D01*
X189316666Y-160384819D02*
X189221428Y-160384819D01*
X189221428Y-160384819D02*
X189078571Y-160337200D01*
X189078571Y-160337200D02*
X188983333Y-160241961D01*
X188983333Y-160241961D02*
X188935714Y-160146723D01*
X188935714Y-160146723D02*
X188888095Y-159956247D01*
X188888095Y-159956247D02*
X188888095Y-159813390D01*
X188888095Y-159813390D02*
X188935714Y-159622914D01*
X188935714Y-159622914D02*
X188983333Y-159527676D01*
X188983333Y-159527676D02*
X189078571Y-159432438D01*
X189078571Y-159432438D02*
X189221428Y-159384819D01*
X189221428Y-159384819D02*
X189316666Y-159384819D01*
X189316666Y-159384819D02*
X189459523Y-159432438D01*
X189459523Y-159432438D02*
X189507142Y-159480057D01*
X189888095Y-159480057D02*
X189935714Y-159432438D01*
X189935714Y-159432438D02*
X190030952Y-159384819D01*
X190030952Y-159384819D02*
X190269047Y-159384819D01*
X190269047Y-159384819D02*
X190364285Y-159432438D01*
X190364285Y-159432438D02*
X190411904Y-159480057D01*
X190411904Y-159480057D02*
X190459523Y-159575295D01*
X190459523Y-159575295D02*
X190459523Y-159670533D01*
X190459523Y-159670533D02*
X190411904Y-159813390D01*
X190411904Y-159813390D02*
X189840476Y-160384819D01*
X189840476Y-160384819D02*
X190459523Y-160384819D01*
X190840476Y-159480057D02*
X190888095Y-159432438D01*
X190888095Y-159432438D02*
X190983333Y-159384819D01*
X190983333Y-159384819D02*
X191221428Y-159384819D01*
X191221428Y-159384819D02*
X191316666Y-159432438D01*
X191316666Y-159432438D02*
X191364285Y-159480057D01*
X191364285Y-159480057D02*
X191411904Y-159575295D01*
X191411904Y-159575295D02*
X191411904Y-159670533D01*
X191411904Y-159670533D02*
X191364285Y-159813390D01*
X191364285Y-159813390D02*
X190792857Y-160384819D01*
X190792857Y-160384819D02*
X191411904Y-160384819D01*
X197607142Y-121154580D02*
X197559523Y-121202200D01*
X197559523Y-121202200D02*
X197416666Y-121249819D01*
X197416666Y-121249819D02*
X197321428Y-121249819D01*
X197321428Y-121249819D02*
X197178571Y-121202200D01*
X197178571Y-121202200D02*
X197083333Y-121106961D01*
X197083333Y-121106961D02*
X197035714Y-121011723D01*
X197035714Y-121011723D02*
X196988095Y-120821247D01*
X196988095Y-120821247D02*
X196988095Y-120678390D01*
X196988095Y-120678390D02*
X197035714Y-120487914D01*
X197035714Y-120487914D02*
X197083333Y-120392676D01*
X197083333Y-120392676D02*
X197178571Y-120297438D01*
X197178571Y-120297438D02*
X197321428Y-120249819D01*
X197321428Y-120249819D02*
X197416666Y-120249819D01*
X197416666Y-120249819D02*
X197559523Y-120297438D01*
X197559523Y-120297438D02*
X197607142Y-120345057D01*
X197988095Y-120345057D02*
X198035714Y-120297438D01*
X198035714Y-120297438D02*
X198130952Y-120249819D01*
X198130952Y-120249819D02*
X198369047Y-120249819D01*
X198369047Y-120249819D02*
X198464285Y-120297438D01*
X198464285Y-120297438D02*
X198511904Y-120345057D01*
X198511904Y-120345057D02*
X198559523Y-120440295D01*
X198559523Y-120440295D02*
X198559523Y-120535533D01*
X198559523Y-120535533D02*
X198511904Y-120678390D01*
X198511904Y-120678390D02*
X197940476Y-121249819D01*
X197940476Y-121249819D02*
X198559523Y-121249819D01*
X199416666Y-120583152D02*
X199416666Y-121249819D01*
X199178571Y-120202200D02*
X198940476Y-120916485D01*
X198940476Y-120916485D02*
X199559523Y-120916485D01*
X235589580Y-152142857D02*
X235637200Y-152190476D01*
X235637200Y-152190476D02*
X235684819Y-152333333D01*
X235684819Y-152333333D02*
X235684819Y-152428571D01*
X235684819Y-152428571D02*
X235637200Y-152571428D01*
X235637200Y-152571428D02*
X235541961Y-152666666D01*
X235541961Y-152666666D02*
X235446723Y-152714285D01*
X235446723Y-152714285D02*
X235256247Y-152761904D01*
X235256247Y-152761904D02*
X235113390Y-152761904D01*
X235113390Y-152761904D02*
X234922914Y-152714285D01*
X234922914Y-152714285D02*
X234827676Y-152666666D01*
X234827676Y-152666666D02*
X234732438Y-152571428D01*
X234732438Y-152571428D02*
X234684819Y-152428571D01*
X234684819Y-152428571D02*
X234684819Y-152333333D01*
X234684819Y-152333333D02*
X234732438Y-152190476D01*
X234732438Y-152190476D02*
X234780057Y-152142857D01*
X235684819Y-151190476D02*
X235684819Y-151761904D01*
X235684819Y-151476190D02*
X234684819Y-151476190D01*
X234684819Y-151476190D02*
X234827676Y-151571428D01*
X234827676Y-151571428D02*
X234922914Y-151666666D01*
X234922914Y-151666666D02*
X234970533Y-151761904D01*
X234684819Y-150857142D02*
X234684819Y-150190476D01*
X234684819Y-150190476D02*
X235684819Y-150619047D01*
X183557142Y-123989580D02*
X183509523Y-124037200D01*
X183509523Y-124037200D02*
X183366666Y-124084819D01*
X183366666Y-124084819D02*
X183271428Y-124084819D01*
X183271428Y-124084819D02*
X183128571Y-124037200D01*
X183128571Y-124037200D02*
X183033333Y-123941961D01*
X183033333Y-123941961D02*
X182985714Y-123846723D01*
X182985714Y-123846723D02*
X182938095Y-123656247D01*
X182938095Y-123656247D02*
X182938095Y-123513390D01*
X182938095Y-123513390D02*
X182985714Y-123322914D01*
X182985714Y-123322914D02*
X183033333Y-123227676D01*
X183033333Y-123227676D02*
X183128571Y-123132438D01*
X183128571Y-123132438D02*
X183271428Y-123084819D01*
X183271428Y-123084819D02*
X183366666Y-123084819D01*
X183366666Y-123084819D02*
X183509523Y-123132438D01*
X183509523Y-123132438D02*
X183557142Y-123180057D01*
X183938095Y-123180057D02*
X183985714Y-123132438D01*
X183985714Y-123132438D02*
X184080952Y-123084819D01*
X184080952Y-123084819D02*
X184319047Y-123084819D01*
X184319047Y-123084819D02*
X184414285Y-123132438D01*
X184414285Y-123132438D02*
X184461904Y-123180057D01*
X184461904Y-123180057D02*
X184509523Y-123275295D01*
X184509523Y-123275295D02*
X184509523Y-123370533D01*
X184509523Y-123370533D02*
X184461904Y-123513390D01*
X184461904Y-123513390D02*
X183890476Y-124084819D01*
X183890476Y-124084819D02*
X184509523Y-124084819D01*
X184842857Y-123084819D02*
X185461904Y-123084819D01*
X185461904Y-123084819D02*
X185128571Y-123465771D01*
X185128571Y-123465771D02*
X185271428Y-123465771D01*
X185271428Y-123465771D02*
X185366666Y-123513390D01*
X185366666Y-123513390D02*
X185414285Y-123561009D01*
X185414285Y-123561009D02*
X185461904Y-123656247D01*
X185461904Y-123656247D02*
X185461904Y-123894342D01*
X185461904Y-123894342D02*
X185414285Y-123989580D01*
X185414285Y-123989580D02*
X185366666Y-124037200D01*
X185366666Y-124037200D02*
X185271428Y-124084819D01*
X185271428Y-124084819D02*
X184985714Y-124084819D01*
X184985714Y-124084819D02*
X184890476Y-124037200D01*
X184890476Y-124037200D02*
X184842857Y-123989580D01*
X205933333Y-163129580D02*
X205885714Y-163177200D01*
X205885714Y-163177200D02*
X205742857Y-163224819D01*
X205742857Y-163224819D02*
X205647619Y-163224819D01*
X205647619Y-163224819D02*
X205504762Y-163177200D01*
X205504762Y-163177200D02*
X205409524Y-163081961D01*
X205409524Y-163081961D02*
X205361905Y-162986723D01*
X205361905Y-162986723D02*
X205314286Y-162796247D01*
X205314286Y-162796247D02*
X205314286Y-162653390D01*
X205314286Y-162653390D02*
X205361905Y-162462914D01*
X205361905Y-162462914D02*
X205409524Y-162367676D01*
X205409524Y-162367676D02*
X205504762Y-162272438D01*
X205504762Y-162272438D02*
X205647619Y-162224819D01*
X205647619Y-162224819D02*
X205742857Y-162224819D01*
X205742857Y-162224819D02*
X205885714Y-162272438D01*
X205885714Y-162272438D02*
X205933333Y-162320057D01*
X206266667Y-162224819D02*
X206933333Y-162224819D01*
X206933333Y-162224819D02*
X206504762Y-163224819D01*
X228204580Y-141066666D02*
X228252200Y-141114285D01*
X228252200Y-141114285D02*
X228299819Y-141257142D01*
X228299819Y-141257142D02*
X228299819Y-141352380D01*
X228299819Y-141352380D02*
X228252200Y-141495237D01*
X228252200Y-141495237D02*
X228156961Y-141590475D01*
X228156961Y-141590475D02*
X228061723Y-141638094D01*
X228061723Y-141638094D02*
X227871247Y-141685713D01*
X227871247Y-141685713D02*
X227728390Y-141685713D01*
X227728390Y-141685713D02*
X227537914Y-141638094D01*
X227537914Y-141638094D02*
X227442676Y-141590475D01*
X227442676Y-141590475D02*
X227347438Y-141495237D01*
X227347438Y-141495237D02*
X227299819Y-141352380D01*
X227299819Y-141352380D02*
X227299819Y-141257142D01*
X227299819Y-141257142D02*
X227347438Y-141114285D01*
X227347438Y-141114285D02*
X227395057Y-141066666D01*
X227299819Y-140209523D02*
X227299819Y-140399999D01*
X227299819Y-140399999D02*
X227347438Y-140495237D01*
X227347438Y-140495237D02*
X227395057Y-140542856D01*
X227395057Y-140542856D02*
X227537914Y-140638094D01*
X227537914Y-140638094D02*
X227728390Y-140685713D01*
X227728390Y-140685713D02*
X228109342Y-140685713D01*
X228109342Y-140685713D02*
X228204580Y-140638094D01*
X228204580Y-140638094D02*
X228252200Y-140590475D01*
X228252200Y-140590475D02*
X228299819Y-140495237D01*
X228299819Y-140495237D02*
X228299819Y-140304761D01*
X228299819Y-140304761D02*
X228252200Y-140209523D01*
X228252200Y-140209523D02*
X228204580Y-140161904D01*
X228204580Y-140161904D02*
X228109342Y-140114285D01*
X228109342Y-140114285D02*
X227871247Y-140114285D01*
X227871247Y-140114285D02*
X227776009Y-140161904D01*
X227776009Y-140161904D02*
X227728390Y-140209523D01*
X227728390Y-140209523D02*
X227680771Y-140304761D01*
X227680771Y-140304761D02*
X227680771Y-140495237D01*
X227680771Y-140495237D02*
X227728390Y-140590475D01*
X227728390Y-140590475D02*
X227776009Y-140638094D01*
X227776009Y-140638094D02*
X227871247Y-140685713D01*
D13*
%TO.C,J7*%
X145410000Y-117130000D02*
X145410000Y-122950000D01*
X147950000Y-126230000D02*
X173350000Y-126230000D01*
X173350000Y-117130000D02*
X145410000Y-117130000D01*
X173350000Y-126230000D02*
X173350000Y-117130000D01*
D14*
%TO.C,R15*%
X176452064Y-124010000D02*
X175997936Y-124010000D01*
X176452064Y-122540000D02*
X175997936Y-122540000D01*
%TO.C,C16*%
X197340000Y-152528733D02*
X197340000Y-152821267D01*
X198360000Y-152528733D02*
X198360000Y-152821267D01*
%TO.C,R14*%
X176477064Y-126285000D02*
X176022936Y-126285000D01*
X176477064Y-124815000D02*
X176022936Y-124815000D01*
%TO.C,X3*%
X187800000Y-119050000D02*
X194400000Y-119050000D01*
X187800000Y-120750000D02*
X187800000Y-119050000D01*
X187800000Y-125450000D02*
X187800000Y-123750000D01*
X194400000Y-119050000D02*
X194400000Y-120750000D01*
X194400000Y-123750000D02*
X194400000Y-125450000D01*
X194400000Y-125450000D02*
X187800000Y-125450000D01*
%TO.C,C28*%
X259171267Y-151987500D02*
X258878733Y-151987500D01*
X259171267Y-153007500D02*
X258878733Y-153007500D01*
%TO.C,C18*%
X230865000Y-143296267D02*
X230865000Y-143003733D01*
X231885000Y-143296267D02*
X231885000Y-143003733D01*
%TO.C,C5*%
X212903733Y-164365000D02*
X213196267Y-164365000D01*
X212903733Y-165385000D02*
X213196267Y-165385000D01*
%TO.C,C11*%
X198790000Y-136871267D02*
X198790000Y-136578733D01*
X199810000Y-136871267D02*
X199810000Y-136578733D01*
%TO.C,R7*%
X206415000Y-135977064D02*
X206415000Y-135522936D01*
X207885000Y-135977064D02*
X207885000Y-135522936D01*
%TO.C,R5*%
X196840000Y-162172936D02*
X196840000Y-162627064D01*
X198310000Y-162172936D02*
X198310000Y-162627064D01*
D13*
%TO.C,U2*%
X201725000Y-141625000D02*
X221025000Y-141625000D01*
X201725000Y-160925000D02*
X201725000Y-141625000D01*
X221025000Y-141625000D02*
X221025000Y-160925000D01*
X221025000Y-160925000D02*
X201725000Y-160925000D01*
D12*
X200275000Y-141775000D02*
G75*
G02*
X200025000Y-141775000I-125000J0D01*
G01*
X200025000Y-141775000D02*
G75*
G02*
X200275000Y-141775000I125000J0D01*
G01*
D14*
%TO.C,C26*%
X192546267Y-150815000D02*
X192253733Y-150815000D01*
X192546267Y-151835000D02*
X192253733Y-151835000D01*
%TO.C,C10*%
X200865000Y-136896267D02*
X200865000Y-136603733D01*
X201885000Y-136896267D02*
X201885000Y-136603733D01*
%TO.C,C19*%
X215671267Y-166015000D02*
X215378733Y-166015000D01*
X215671267Y-167035000D02*
X215378733Y-167035000D01*
%TO.C,C9*%
X220315000Y-166303733D02*
X220315000Y-166596267D01*
X221335000Y-166303733D02*
X221335000Y-166596267D01*
%TO.C,R6*%
X203690000Y-136127064D02*
X203690000Y-135672936D01*
X205160000Y-136127064D02*
X205160000Y-135672936D01*
%TO.C,C13*%
X190521267Y-147090000D02*
X190228733Y-147090000D01*
X190521267Y-148110000D02*
X190228733Y-148110000D01*
%TO.C,C4*%
X218340000Y-166353733D02*
X218340000Y-166646267D01*
X219360000Y-166353733D02*
X219360000Y-166646267D01*
%TO.C,C3*%
X225140000Y-156271267D02*
X225140000Y-155978733D01*
X226160000Y-156271267D02*
X226160000Y-155978733D01*
%TO.C,C25*%
X190271267Y-156415000D02*
X189978733Y-156415000D01*
X190271267Y-157435000D02*
X189978733Y-157435000D01*
%TO.C,C21*%
X226490000Y-151653733D02*
X226490000Y-151946267D01*
X227510000Y-151653733D02*
X227510000Y-151946267D01*
%TO.C,C27*%
X266146267Y-151962500D02*
X265853733Y-151962500D01*
X266146267Y-152982500D02*
X265853733Y-152982500D01*
%TO.C,R11*%
X261090000Y-144072936D02*
X261090000Y-144527064D01*
X262560000Y-144072936D02*
X262560000Y-144527064D01*
%TO.C,C15*%
X226690000Y-141071267D02*
X226690000Y-140778733D01*
X227710000Y-141071267D02*
X227710000Y-140778733D01*
%TO.C,R8*%
X263765000Y-139672936D02*
X263765000Y-140127064D01*
X265235000Y-139672936D02*
X265235000Y-140127064D01*
%TO.C,C8*%
X193590000Y-161728733D02*
X193590000Y-162021267D01*
X194610000Y-161728733D02*
X194610000Y-162021267D01*
%TO.C,R10*%
X261065000Y-139622936D02*
X261065000Y-140077064D01*
X262535000Y-139622936D02*
X262535000Y-140077064D01*
%TO.C,C30*%
X212065000Y-135433767D02*
X212065000Y-135141233D01*
X213085000Y-135433767D02*
X213085000Y-135141233D01*
%TO.C,C29*%
X214590000Y-137108767D02*
X214590000Y-136816233D01*
X215610000Y-137108767D02*
X215610000Y-136816233D01*
D15*
%TO.C,X4*%
X193400000Y-150865350D02*
G75*
G02*
X193146000Y-150865350I-127000J0D01*
G01*
X193146000Y-150865350D02*
G75*
G02*
X193400000Y-150865350I127000J0D01*
G01*
D14*
%TO.C,R13*%
X162515000Y-128927064D02*
X162515000Y-128472936D01*
X163985000Y-128927064D02*
X163985000Y-128472936D01*
%TO.C,C20*%
X228190000Y-151653733D02*
X228190000Y-151946267D01*
X229210000Y-151653733D02*
X229210000Y-151946267D01*
%TO.C,R9*%
X263715000Y-144097936D02*
X263715000Y-144552064D01*
X265185000Y-144097936D02*
X265185000Y-144552064D01*
%TO.C,C14*%
X192358767Y-148940000D02*
X192066233Y-148940000D01*
X192358767Y-149960000D02*
X192066233Y-149960000D01*
%TO.C,J6*%
X248170000Y-121175000D02*
X248170000Y-144095000D01*
X248170000Y-121175000D02*
X250830000Y-121175000D01*
X248170000Y-144095000D02*
X250830000Y-144095000D01*
X249500000Y-118575000D02*
X250830000Y-118575000D01*
X250830000Y-118575000D02*
X250830000Y-119905000D01*
X250830000Y-121175000D02*
X250830000Y-144095000D01*
%TO.C,C12*%
X190546267Y-145065000D02*
X190253733Y-145065000D01*
X190546267Y-146085000D02*
X190253733Y-146085000D01*
%TO.C,C22*%
X190296267Y-157990000D02*
X190003733Y-157990000D01*
X190296267Y-159010000D02*
X190003733Y-159010000D01*
%TO.C,C24*%
X198103733Y-121715000D02*
X198396267Y-121715000D01*
X198103733Y-122735000D02*
X198396267Y-122735000D01*
%TO.C,C17*%
X233290000Y-151353733D02*
X233290000Y-151646267D01*
X234310000Y-151353733D02*
X234310000Y-151646267D01*
%TO.C,C23*%
X184346267Y-121690000D02*
X184053733Y-121690000D01*
X184346267Y-122710000D02*
X184053733Y-122710000D01*
%TO.C,C7*%
X205953733Y-163690000D02*
X206246267Y-163690000D01*
X205953733Y-164710000D02*
X206246267Y-164710000D01*
%TO.C,J5*%
X260505000Y-147667500D02*
X260505000Y-150327500D01*
X263105000Y-147667500D02*
X260505000Y-147667500D01*
X263105000Y-147667500D02*
X263105000Y-150327500D01*
X263105000Y-150327500D02*
X260505000Y-150327500D01*
X265705000Y-148997500D02*
X265705000Y-150327500D01*
X265705000Y-150327500D02*
X264375000Y-150327500D01*
%TO.C,C6*%
X228765000Y-141046267D02*
X228765000Y-140753733D01*
X229785000Y-141046267D02*
X229785000Y-140753733D01*
%TD*%
D16*
%TO.C,J7*%
X147950000Y-122950000D03*
D17*
X147950000Y-120410000D03*
X150490000Y-122950000D03*
X150490000Y-120410000D03*
X153030000Y-122950000D03*
X153030000Y-120410000D03*
X155570000Y-122950000D03*
X155570000Y-120410000D03*
X158110000Y-122950000D03*
X158110000Y-120410000D03*
X160650000Y-122950000D03*
X160650000Y-120410000D03*
X163190000Y-122950000D03*
X163190000Y-120410000D03*
X165730000Y-122950000D03*
X165730000Y-120410000D03*
X168270000Y-122950000D03*
X168270000Y-120410000D03*
X170810000Y-122950000D03*
X170810000Y-120410000D03*
%TD*%
M02*
