%TF.GenerationSoftware,KiCad,Pcbnew,8.0.5*%
%TF.CreationDate,2025-01-29T19:48:31-05:00*%
%TF.ProjectId,Power_Supplies_DSP,506f7765-725f-4537-9570-706c6965735f,rev?*%
%TF.SameCoordinates,Original*%
%TF.FileFunction,Paste,Top*%
%TF.FilePolarity,Positive*%
%FSLAX46Y46*%
G04 Gerber Fmt 4.6, Leading zero omitted, Abs format (unit mm)*
G04 Created by KiCad (PCBNEW 8.0.5) date 2025-01-29 19:48:31*
%MOMM*%
%LPD*%
G01*
G04 APERTURE LIST*
G04 Aperture macros list*
%AMRoundRect*
0 Rectangle with rounded corners*
0 $1 Rounding radius*
0 $2 $3 $4 $5 $6 $7 $8 $9 X,Y pos of 4 corners*
0 Add a 4 corners polygon primitive as box body*
4,1,4,$2,$3,$4,$5,$6,$7,$8,$9,$2,$3,0*
0 Add four circle primitives for the rounded corners*
1,1,$1+$1,$2,$3*
1,1,$1+$1,$4,$5*
1,1,$1+$1,$6,$7*
1,1,$1+$1,$8,$9*
0 Add four rect primitives between the rounded corners*
20,1,$1+$1,$2,$3,$4,$5,0*
20,1,$1+$1,$4,$5,$6,$7,0*
20,1,$1+$1,$6,$7,$8,$9,0*
20,1,$1+$1,$8,$9,$2,$3,0*%
G04 Aperture macros list end*
%ADD10RoundRect,0.250000X0.262500X0.450000X-0.262500X0.450000X-0.262500X-0.450000X0.262500X-0.450000X0*%
%ADD11RoundRect,0.237500X-0.237500X0.300000X-0.237500X-0.300000X0.237500X-0.300000X0.237500X0.300000X0*%
%ADD12R,1.500000X2.400000*%
%ADD13RoundRect,0.237500X0.300000X0.237500X-0.300000X0.237500X-0.300000X-0.237500X0.300000X-0.237500X0*%
%ADD14RoundRect,0.237500X0.237500X-0.300000X0.237500X0.300000X-0.237500X0.300000X-0.237500X-0.300000X0*%
%ADD15RoundRect,0.237500X-0.300000X-0.237500X0.300000X-0.237500X0.300000X0.237500X-0.300000X0.237500X0*%
%ADD16RoundRect,0.250000X0.450000X-0.262500X0.450000X0.262500X-0.450000X0.262500X-0.450000X-0.262500X0*%
%ADD17RoundRect,0.250000X-0.450000X0.262500X-0.450000X-0.262500X0.450000X-0.262500X0.450000X0.262500X0*%
%ADD18R,1.475000X0.300000*%
%ADD19R,0.300000X1.475000*%
%ADD20R,1.397000X1.193800*%
G04 APERTURE END LIST*
D10*
%TO.C,R15*%
X177137500Y-123275000D03*
X175312500Y-123275000D03*
%TD*%
D11*
%TO.C,C16*%
X197850000Y-151812500D03*
X197850000Y-153537500D03*
%TD*%
D10*
%TO.C,R14*%
X177162500Y-125550000D03*
X175337500Y-125550000D03*
%TD*%
D12*
%TO.C,X3*%
X188350000Y-122250000D03*
X193850000Y-122250000D03*
%TD*%
D13*
%TO.C,C28*%
X259887500Y-152497500D03*
X258162500Y-152497500D03*
%TD*%
D14*
%TO.C,C18*%
X231375000Y-144012500D03*
X231375000Y-142287500D03*
%TD*%
D15*
%TO.C,C5*%
X212187500Y-164875000D03*
X213912500Y-164875000D03*
%TD*%
D14*
%TO.C,C11*%
X199300000Y-137587500D03*
X199300000Y-135862500D03*
%TD*%
D16*
%TO.C,R7*%
X207150000Y-136662500D03*
X207150000Y-134837500D03*
%TD*%
D17*
%TO.C,R5*%
X197575000Y-161487500D03*
X197575000Y-163312500D03*
%TD*%
D18*
%TO.C,U2*%
X200637000Y-142525000D03*
X200637000Y-143025000D03*
X200637000Y-143525000D03*
X200637000Y-144025000D03*
X200637000Y-144525000D03*
X200637000Y-145025000D03*
X200637000Y-145525000D03*
X200637000Y-146025000D03*
X200637000Y-146525000D03*
X200637000Y-147025000D03*
X200637000Y-147525000D03*
X200637000Y-148025000D03*
X200637000Y-148525000D03*
X200637000Y-149025000D03*
X200637000Y-149525000D03*
X200637000Y-150025000D03*
X200637000Y-150525000D03*
X200637000Y-151025000D03*
X200637000Y-151525000D03*
X200637000Y-152025000D03*
X200637000Y-152525000D03*
X200637000Y-153025000D03*
X200637000Y-153525000D03*
X200637000Y-154025000D03*
X200637000Y-154525000D03*
X200637000Y-155025000D03*
X200637000Y-155525000D03*
X200637000Y-156025000D03*
X200637000Y-156525000D03*
X200637000Y-157025000D03*
X200637000Y-157525000D03*
X200637000Y-158025000D03*
X200637000Y-158525000D03*
X200637000Y-159025000D03*
X200637000Y-159525000D03*
X200637000Y-160025000D03*
D19*
X202625000Y-162013000D03*
X203125000Y-162013000D03*
X203625000Y-162013000D03*
X204125000Y-162013000D03*
X204625000Y-162013000D03*
X205125000Y-162013000D03*
X205625000Y-162013000D03*
X206125000Y-162013000D03*
X206625000Y-162013000D03*
X207125000Y-162013000D03*
X207625000Y-162013000D03*
X208125000Y-162013000D03*
X208625000Y-162013000D03*
X209125000Y-162013000D03*
X209625000Y-162013000D03*
X210125000Y-162013000D03*
X210625000Y-162013000D03*
X211125000Y-162013000D03*
X211625000Y-162013000D03*
X212125000Y-162013000D03*
X212625000Y-162013000D03*
X213125000Y-162013000D03*
X213625000Y-162013000D03*
X214125000Y-162013000D03*
X214625000Y-162013000D03*
X215125000Y-162013000D03*
X215625000Y-162013000D03*
X216125000Y-162013000D03*
X216625000Y-162013000D03*
X217125000Y-162013000D03*
X217625000Y-162013000D03*
X218125000Y-162013000D03*
X218625000Y-162013000D03*
X219125000Y-162013000D03*
X219625000Y-162013000D03*
X220125000Y-162013000D03*
D18*
X222113000Y-160025000D03*
X222113000Y-159525000D03*
X222113000Y-159025000D03*
X222113000Y-158525000D03*
X222113000Y-158025000D03*
X222113000Y-157525000D03*
X222113000Y-157025000D03*
X222113000Y-156525000D03*
X222113000Y-156025000D03*
X222113000Y-155525000D03*
X222113000Y-155025000D03*
X222113000Y-154525000D03*
X222113000Y-154025000D03*
X222113000Y-153525000D03*
X222113000Y-153025000D03*
X222113000Y-152525000D03*
X222113000Y-152025000D03*
X222113000Y-151525000D03*
X222113000Y-151025000D03*
X222113000Y-150525000D03*
X222113000Y-150025000D03*
X222113000Y-149525000D03*
X222113000Y-149025000D03*
X222113000Y-148525000D03*
X222113000Y-148025000D03*
X222113000Y-147525000D03*
X222113000Y-147025000D03*
X222113000Y-146525000D03*
X222113000Y-146025000D03*
X222113000Y-145525000D03*
X222113000Y-145025000D03*
X222113000Y-144525000D03*
X222113000Y-144025000D03*
X222113000Y-143525000D03*
X222113000Y-143025000D03*
X222113000Y-142525000D03*
D19*
X220125000Y-140537000D03*
X219625000Y-140537000D03*
X219125000Y-140537000D03*
X218625000Y-140537000D03*
X218125000Y-140537000D03*
X217625000Y-140537000D03*
X217125000Y-140537000D03*
X216625000Y-140537000D03*
X216125000Y-140537000D03*
X215625000Y-140537000D03*
X215125000Y-140537000D03*
X214625000Y-140537000D03*
X214125000Y-140537000D03*
X213625000Y-140537000D03*
X213125000Y-140537000D03*
X212625000Y-140537000D03*
X212125000Y-140537000D03*
X211625000Y-140537000D03*
X211125000Y-140537000D03*
X210625000Y-140537000D03*
X210125000Y-140537000D03*
X209625000Y-140537000D03*
X209125000Y-140537000D03*
X208625000Y-140537000D03*
X208125000Y-140537000D03*
X207625000Y-140537000D03*
X207125000Y-140537000D03*
X206625000Y-140537000D03*
X206125000Y-140537000D03*
X205625000Y-140537000D03*
X205125000Y-140537000D03*
X204625000Y-140537000D03*
X204125000Y-140537000D03*
X203625000Y-140537000D03*
X203125000Y-140537000D03*
X202625000Y-140537000D03*
%TD*%
D13*
%TO.C,C26*%
X193262500Y-151325000D03*
X191537500Y-151325000D03*
%TD*%
D14*
%TO.C,C10*%
X201375000Y-137612500D03*
X201375000Y-135887500D03*
%TD*%
D13*
%TO.C,C19*%
X216387500Y-166525000D03*
X214662500Y-166525000D03*
%TD*%
D11*
%TO.C,C9*%
X220825000Y-165587500D03*
X220825000Y-167312500D03*
%TD*%
D16*
%TO.C,R6*%
X204425000Y-136812500D03*
X204425000Y-134987500D03*
%TD*%
D13*
%TO.C,C13*%
X191237500Y-147600000D03*
X189512500Y-147600000D03*
%TD*%
D11*
%TO.C,C4*%
X218850000Y-165637500D03*
X218850000Y-167362500D03*
%TD*%
D14*
%TO.C,C3*%
X225650000Y-156987500D03*
X225650000Y-155262500D03*
%TD*%
D13*
%TO.C,C25*%
X190987500Y-156925000D03*
X189262500Y-156925000D03*
%TD*%
D11*
%TO.C,C21*%
X227000000Y-150937500D03*
X227000000Y-152662500D03*
%TD*%
D13*
%TO.C,C27*%
X266862500Y-152472500D03*
X265137500Y-152472500D03*
%TD*%
D17*
%TO.C,R11*%
X261825000Y-143387500D03*
X261825000Y-145212500D03*
%TD*%
D14*
%TO.C,C15*%
X227200000Y-141787500D03*
X227200000Y-140062500D03*
%TD*%
D17*
%TO.C,R8*%
X264500000Y-138987500D03*
X264500000Y-140812500D03*
%TD*%
D11*
%TO.C,C8*%
X194100000Y-161012500D03*
X194100000Y-162737500D03*
%TD*%
D17*
%TO.C,R10*%
X261800000Y-138937500D03*
X261800000Y-140762500D03*
%TD*%
D14*
%TO.C,C30*%
X212575000Y-136150000D03*
X212575000Y-134425000D03*
%TD*%
%TO.C,C29*%
X215100000Y-137825000D03*
X215100000Y-136100000D03*
%TD*%
D20*
%TO.C,X4*%
X193273000Y-153260749D03*
X191073000Y-153260749D03*
X191073000Y-154860751D03*
X193273000Y-154860751D03*
%TD*%
D16*
%TO.C,R13*%
X163250000Y-129612500D03*
X163250000Y-127787500D03*
%TD*%
D11*
%TO.C,C20*%
X228700000Y-150937500D03*
X228700000Y-152662500D03*
%TD*%
D17*
%TO.C,R9*%
X264450000Y-143412500D03*
X264450000Y-145237500D03*
%TD*%
D13*
%TO.C,C14*%
X193075000Y-149450000D03*
X191350000Y-149450000D03*
%TD*%
%TO.C,C12*%
X191262500Y-145575000D03*
X189537500Y-145575000D03*
%TD*%
%TO.C,C22*%
X191012500Y-158500000D03*
X189287500Y-158500000D03*
%TD*%
D15*
%TO.C,C24*%
X197387500Y-122225000D03*
X199112500Y-122225000D03*
%TD*%
D11*
%TO.C,C17*%
X233800000Y-150637500D03*
X233800000Y-152362500D03*
%TD*%
D13*
%TO.C,C23*%
X185062500Y-122200000D03*
X183337500Y-122200000D03*
%TD*%
D15*
%TO.C,C7*%
X205237500Y-164200000D03*
X206962500Y-164200000D03*
%TD*%
D14*
%TO.C,C6*%
X229275000Y-141762500D03*
X229275000Y-140037500D03*
%TD*%
M02*
