M48
; DRILL file {KiCad 8.0.5} date 2025-01-29T19:48:41-0500
; FORMAT={-:-/ absolute / inch / decimal}
; #@! TF.CreationDate,2025-01-29T19:48:41-05:00
; #@! TF.GenerationSoftware,Kicad,Pcbnew,8.0.5
; #@! TF.FileFunction,Plated,1,4,PTH
FMAT,2
INCH
; #@! TA.AperFunction,Plated,PTH,ViaDrill
T1C0.0118
; #@! TA.AperFunction,Plated,PTH,ViaDrill
T2C0.0157
; #@! TA.AperFunction,Plated,PTH,ComponentDrill
T3C0.0394
; #@! TA.AperFunction,Plated,PTH,ComponentDrill
T4C0.0433
%
G90
G05
T1
X5.9528Y-5.4636
X6.0709Y-6.3967
X6.5049Y-5.1063
X6.8632Y-5.2146
X7.0413Y-4.8484
X7.0472Y-4.9213
X7.2175Y-4.7507
X7.2431Y-6.4823
X7.2441Y-6.3297
X7.2746Y-5.5
X7.2854Y-4.9055
X7.3248Y-6.3287
X7.3652Y-6.2539
X7.4035Y-5.813
X7.4055Y-5.7589
X7.4252Y-6.0295
X7.4488Y-6.1093
X7.4675Y-5.9577
X7.4695Y-5.8809
X7.5856Y-6.4075
X7.6565Y-5.8081
X7.6565Y-5.8484
X7.6594Y-5.315
X7.6801Y-6.0915
X7.7146Y-5.9173
X7.7165Y-4.9783
X7.7274Y-5.8031
X7.7333Y-6.0
X7.7411Y-5.94
X7.7677Y-5.9026
X7.7707Y-4.8858
X7.7736Y-5.7815
X7.7795Y-6.5856
X7.7828Y-5.6972
X7.7933Y-6.2549
X7.8022Y-5.0659
X7.811Y-6.2854
X7.8327Y-5.9518
X7.8484Y-5.2982
X7.8858Y-6.4459
X7.9213Y-4.7933
X7.9301Y-5.2943
X7.9429Y-6.5295
X8.0177Y-5.06
X8.0207Y-6.5423
X8.0561Y-5.4488
X8.1043Y-5.1752
X8.1083Y-5.1063
X8.1152Y-6.5404
X8.1555Y-5.2382
X8.1988Y-6.4665
X8.248Y-6.624
X8.2835Y-5.3484
X8.313Y-6.5433
X8.3691Y-5.2323
X8.3878Y-5.4587
X8.4232Y-6.4409
X8.4508Y-6.6102
X8.4695Y-5.2992
X8.5226Y-5.4636
X8.5768Y-6.4646
X8.6142Y-6.6417
X8.6949Y-6.6427
X8.7234Y-5.2785
X8.8287Y-6.1348
X8.8376Y-5.8839
X8.8376Y-5.9872
X8.8809Y-6.0531
X8.9154Y-5.4518
X8.936Y-6.062
X8.94Y-6.2569
X9.0049Y-6.062
X9.0197Y-5.2303
X9.0285Y-5.4557
X9.0463Y-5.6378
X9.0482Y-5.7205
X9.0561Y-5.2608
X9.1191Y-5.5217
X9.2047Y-6.0551
X9.2136Y-5.5984
X9.9616Y-5.2205
X10.0079Y-5.3435
X10.0079Y-6.1457
X10.1033Y-6.0048
X10.5768Y-6.0048
T2
X6.8898Y-4.6457
X6.8898Y-4.7244
X6.9685Y-4.6457
X6.9685Y-4.7244
X7.0472Y-4.6457
X7.0472Y-4.7244
T3
X5.9518Y-5.5815
X5.9518Y-5.6815
X5.9518Y-5.7815
X5.9518Y-5.8815
X5.9518Y-5.9815
X5.9518Y-6.0815
X5.9518Y-6.1815
X5.9518Y-6.2815
X5.9518Y-6.3815
X5.9518Y-6.4815
X7.1329Y-5.5815
X7.1329Y-5.6815
X7.1329Y-5.7815
X7.1329Y-5.8815
X7.1329Y-5.9815
X7.1329Y-6.0815
X7.1329Y-6.1815
X7.1329Y-6.2815
X7.1329Y-6.3815
X7.1329Y-6.4815
X9.8228Y-4.7207
X9.8228Y-4.8207
X9.8228Y-4.9207
X9.8228Y-5.0207
X9.8228Y-5.1207
X9.8228Y-5.2207
X9.8228Y-5.3207
X9.8228Y-5.4207
X9.8228Y-5.5207
X9.8228Y-5.6207
X10.3085Y-5.866
X10.4085Y-5.866
T4
X5.8248Y-4.7406
X5.8248Y-4.8406
X5.9248Y-4.7406
X5.9248Y-4.8406
X6.0248Y-4.7406
X6.0248Y-4.8406
X6.1248Y-4.7406
X6.1248Y-4.8406
X6.2248Y-4.7406
X6.2248Y-4.8406
X6.3248Y-4.7406
X6.3248Y-4.8406
X6.4248Y-4.7406
X6.4248Y-4.8406
X6.5248Y-4.7406
X6.5248Y-4.8406
X6.6248Y-4.7406
X6.6248Y-4.8406
X6.7248Y-4.7406
X6.7248Y-4.8406
M30
