%TF.GenerationSoftware,KiCad,Pcbnew,8.0.5*%
%TF.CreationDate,2025-01-29T19:48:31-05:00*%
%TF.ProjectId,Power_Supplies_DSP,506f7765-725f-4537-9570-706c6965735f,rev?*%
%TF.SameCoordinates,Original*%
%TF.FileFunction,Copper,L1,Top*%
%TF.FilePolarity,Positive*%
%FSLAX46Y46*%
G04 Gerber Fmt 4.6, Leading zero omitted, Abs format (unit mm)*
G04 Created by KiCad (PCBNEW 8.0.5) date 2025-01-29 19:48:31*
%MOMM*%
%LPD*%
G01*
G04 APERTURE LIST*
G04 Aperture macros list*
%AMRoundRect*
0 Rectangle with rounded corners*
0 $1 Rounding radius*
0 $2 $3 $4 $5 $6 $7 $8 $9 X,Y pos of 4 corners*
0 Add a 4 corners polygon primitive as box body*
4,1,4,$2,$3,$4,$5,$6,$7,$8,$9,$2,$3,0*
0 Add four circle primitives for the rounded corners*
1,1,$1+$1,$2,$3*
1,1,$1+$1,$4,$5*
1,1,$1+$1,$6,$7*
1,1,$1+$1,$8,$9*
0 Add four rect primitives between the rounded corners*
20,1,$1+$1,$2,$3,$4,$5,0*
20,1,$1+$1,$4,$5,$6,$7,0*
20,1,$1+$1,$6,$7,$8,$9,0*
20,1,$1+$1,$8,$9,$2,$3,0*%
G04 Aperture macros list end*
%TA.AperFunction,ComponentPad*%
%ADD10R,1.650000X1.650000*%
%TD*%
%TA.AperFunction,ComponentPad*%
%ADD11C,1.650000*%
%TD*%
%TA.AperFunction,SMDPad,CuDef*%
%ADD12RoundRect,0.250000X0.262500X0.450000X-0.262500X0.450000X-0.262500X-0.450000X0.262500X-0.450000X0*%
%TD*%
%TA.AperFunction,SMDPad,CuDef*%
%ADD13RoundRect,0.237500X-0.237500X0.300000X-0.237500X-0.300000X0.237500X-0.300000X0.237500X0.300000X0*%
%TD*%
%TA.AperFunction,SMDPad,CuDef*%
%ADD14R,1.500000X2.400000*%
%TD*%
%TA.AperFunction,SMDPad,CuDef*%
%ADD15RoundRect,0.237500X0.300000X0.237500X-0.300000X0.237500X-0.300000X-0.237500X0.300000X-0.237500X0*%
%TD*%
%TA.AperFunction,SMDPad,CuDef*%
%ADD16RoundRect,0.237500X0.237500X-0.300000X0.237500X0.300000X-0.237500X0.300000X-0.237500X-0.300000X0*%
%TD*%
%TA.AperFunction,SMDPad,CuDef*%
%ADD17RoundRect,0.237500X-0.300000X-0.237500X0.300000X-0.237500X0.300000X0.237500X-0.300000X0.237500X0*%
%TD*%
%TA.AperFunction,SMDPad,CuDef*%
%ADD18RoundRect,0.250000X0.450000X-0.262500X0.450000X0.262500X-0.450000X0.262500X-0.450000X-0.262500X0*%
%TD*%
%TA.AperFunction,SMDPad,CuDef*%
%ADD19RoundRect,0.250000X-0.450000X0.262500X-0.450000X-0.262500X0.450000X-0.262500X0.450000X0.262500X0*%
%TD*%
%TA.AperFunction,SMDPad,CuDef*%
%ADD20R,1.475000X0.300000*%
%TD*%
%TA.AperFunction,SMDPad,CuDef*%
%ADD21R,0.300000X1.475000*%
%TD*%
%TA.AperFunction,SMDPad,CuDef*%
%ADD22R,1.397000X1.193800*%
%TD*%
%TA.AperFunction,ComponentPad*%
%ADD23R,1.700000X1.700000*%
%TD*%
%TA.AperFunction,ComponentPad*%
%ADD24O,1.700000X1.700000*%
%TD*%
%TA.AperFunction,ViaPad*%
%ADD25C,0.700000*%
%TD*%
%TA.AperFunction,ViaPad*%
%ADD26C,0.800000*%
%TD*%
%TA.AperFunction,Conductor*%
%ADD27C,0.300000*%
%TD*%
%TA.AperFunction,Conductor*%
%ADD28C,0.200000*%
%TD*%
G04 APERTURE END LIST*
D10*
%TO.P,J7,1,1*%
%TO.N,3.3V*%
X147950000Y-122950000D03*
D11*
%TO.P,J7,2,2*%
X147950000Y-120410000D03*
%TO.P,J7,3,3*%
%TO.N,JTRST*%
X150490000Y-122950000D03*
%TO.P,J7,4,4*%
%TO.N,GND*%
X150490000Y-120410000D03*
%TO.P,J7,5,5*%
%TO.N,JTDI*%
X153030000Y-122950000D03*
%TO.P,J7,6,6*%
%TO.N,GND*%
X153030000Y-120410000D03*
%TO.P,J7,7,7*%
%TO.N,SWDIO*%
X155570000Y-122950000D03*
%TO.P,J7,8,8*%
%TO.N,GND*%
X155570000Y-120410000D03*
%TO.P,J7,9,9*%
%TO.N,SWCLK*%
X158110000Y-122950000D03*
%TO.P,J7,10,10*%
%TO.N,GND*%
X158110000Y-120410000D03*
%TO.P,J7,11,11*%
%TO.N,Net-(J7-Pad11)*%
X160650000Y-122950000D03*
%TO.P,J7,12,12*%
%TO.N,GND*%
X160650000Y-120410000D03*
%TO.P,J7,13,13*%
%TO.N,JTDO_SWO*%
X163190000Y-122950000D03*
%TO.P,J7,14,14*%
%TO.N,GND*%
X163190000Y-120410000D03*
%TO.P,J7,15,15*%
%TO.N,unconnected-(J7-Pad15)*%
X165730000Y-122950000D03*
%TO.P,J7,16,16*%
%TO.N,GND*%
X165730000Y-120410000D03*
%TO.P,J7,17,17*%
%TO.N,Net-(J7-Pad17)*%
X168270000Y-122950000D03*
%TO.P,J7,18,18*%
%TO.N,GND*%
X168270000Y-120410000D03*
%TO.P,J7,19,19*%
%TO.N,Net-(J7-Pad19)*%
X170810000Y-122950000D03*
%TO.P,J7,20,20*%
%TO.N,GND*%
X170810000Y-120410000D03*
%TD*%
D12*
%TO.P,R15,1*%
%TO.N,GND*%
X177137500Y-123275000D03*
%TO.P,R15,2*%
%TO.N,Net-(J7-Pad19)*%
X175312500Y-123275000D03*
%TD*%
D13*
%TO.P,C16,1*%
%TO.N,3.3V*%
X197850000Y-151812500D03*
%TO.P,C16,2*%
%TO.N,GND*%
X197850000Y-153537500D03*
%TD*%
D12*
%TO.P,R14,1*%
%TO.N,GND*%
X177162500Y-125550000D03*
%TO.P,R14,2*%
%TO.N,Net-(J7-Pad17)*%
X175337500Y-125550000D03*
%TD*%
D14*
%TO.P,X3,1,1*%
%TO.N,Net-(U2A-PC15-OSC32_OUT)*%
X188350000Y-122250000D03*
%TO.P,X3,2,2*%
%TO.N,Net-(U2A-PC14-OSC32_IN)*%
X193850000Y-122250000D03*
%TD*%
D15*
%TO.P,C28,1*%
%TO.N,CHANNEL_2*%
X259887500Y-152497500D03*
%TO.P,C28,2*%
%TO.N,GND*%
X258162500Y-152497500D03*
%TD*%
D16*
%TO.P,C18,1*%
%TO.N,Net-(C18-Pad1)*%
X231375000Y-144012500D03*
%TO.P,C18,2*%
%TO.N,GND*%
X231375000Y-142287500D03*
%TD*%
D17*
%TO.P,C5,1*%
%TO.N,3.3V*%
X212187500Y-164875000D03*
%TO.P,C5,2*%
%TO.N,GND*%
X213912500Y-164875000D03*
%TD*%
D16*
%TO.P,C11,1*%
%TO.N,3.3V*%
X199300000Y-137587500D03*
%TO.P,C11,2*%
%TO.N,GND*%
X199300000Y-135862500D03*
%TD*%
D18*
%TO.P,R7,1*%
%TO.N,Net-(U2B-BOOT0)*%
X207150000Y-136662500D03*
%TO.P,R7,2*%
%TO.N,GND*%
X207150000Y-134837500D03*
%TD*%
D19*
%TO.P,R5,1*%
%TO.N,Net-(U2C-VREF+)*%
X197575000Y-161487500D03*
%TO.P,R5,2*%
%TO.N,3.3V*%
X197575000Y-163312500D03*
%TD*%
D20*
%TO.P,U2,1,PE2*%
%TO.N,SAI1_MCLK_A*%
X200637000Y-142525000D03*
%TO.P,U2,2,PE3*%
%TO.N,SAI1_SD_B*%
X200637000Y-143025000D03*
%TO.P,U2,3,PE4*%
%TO.N,SAI1_FS_A*%
X200637000Y-143525000D03*
%TO.P,U2,4,PE5*%
%TO.N,SAI1_SCK_A*%
X200637000Y-144025000D03*
%TO.P,U2,5,PE6*%
%TO.N,unconnected-(U2B-PE6-Pad5)*%
X200637000Y-144525000D03*
%TO.P,U2,6,VSS*%
%TO.N,GND*%
X200637000Y-145025000D03*
%TO.P,U2,7,VDD*%
%TO.N,3.3V*%
X200637000Y-145525000D03*
%TO.P,U2,8,VBAT*%
X200637000Y-146025000D03*
%TO.P,U2,9,PC13*%
%TO.N,unconnected-(U2A-PC13-Pad9)*%
X200637000Y-146525000D03*
%TO.P,U2,10,PC14-OSC32_IN*%
%TO.N,Net-(U2A-PC14-OSC32_IN)*%
X200637000Y-147025000D03*
%TO.P,U2,11,PC15-OSC32_OUT*%
%TO.N,Net-(U2A-PC15-OSC32_OUT)*%
X200637000Y-147525000D03*
%TO.P,U2,12,VSS*%
%TO.N,GND*%
X200637000Y-148025000D03*
%TO.P,U2,13,VDD*%
%TO.N,3.3V*%
X200637000Y-148525000D03*
%TO.P,U2,14,VSSSMPS*%
%TO.N,GND*%
X200637000Y-149025000D03*
%TO.P,U2,15,VLXSMPS*%
%TO.N,unconnected-(U2C-VLXSMPS-Pad15)*%
X200637000Y-149525000D03*
%TO.P,U2,16,VDDSMPS*%
%TO.N,GND*%
X200637000Y-150025000D03*
%TO.P,U2,17,VFBSMPS*%
X200637000Y-150525000D03*
%TO.P,U2,18,VSS*%
X200637000Y-151025000D03*
%TO.P,U2,19,VDD*%
%TO.N,3.3V*%
X200637000Y-151525000D03*
%TO.P,U2,20,PF6*%
%TO.N,unconnected-(U2B-PF6-Pad20)*%
X200637000Y-152025000D03*
%TO.P,U2,21,PF7*%
%TO.N,unconnected-(U2B-PF7-Pad21)*%
X200637000Y-152525000D03*
%TO.P,U2,22,PF8*%
%TO.N,unconnected-(U2B-PF8-Pad22)*%
X200637000Y-153025000D03*
%TO.P,U2,23,PF9*%
%TO.N,unconnected-(U2B-PF9-Pad23)*%
X200637000Y-153525000D03*
%TO.P,U2,24,PF10*%
%TO.N,unconnected-(U2B-PF10-Pad24)*%
X200637000Y-154025000D03*
%TO.P,U2,25,PH0-OSC_IN*%
%TO.N,Net-(U2B-PH0-OSC_IN)*%
X200637000Y-154525000D03*
%TO.P,U2,26,PH1-OSC_OUT*%
%TO.N,Net-(U2B-PH1-OSC_OUT)*%
X200637000Y-155025000D03*
%TO.P,U2,27,NRST*%
%TO.N,Net-(U2B-NRST)*%
X200637000Y-155525000D03*
%TO.P,U2,28,PC0*%
%TO.N,SAI2_FS_B*%
X200637000Y-156025000D03*
%TO.P,U2,29,PC1*%
%TO.N,unconnected-(U2A-PC1-Pad29)*%
X200637000Y-156525000D03*
%TO.P,U2,30,PC2_C*%
%TO.N,unconnected-(U2A-PC2_C-Pad30)*%
X200637000Y-157025000D03*
%TO.P,U2,31,PC3_C*%
%TO.N,unconnected-(U2A-PC3_C-Pad31)*%
X200637000Y-157525000D03*
%TO.P,U2,32,VDD*%
%TO.N,3.3V*%
X200637000Y-158025000D03*
%TO.P,U2,33,VSS*%
%TO.N,GND*%
X200637000Y-158525000D03*
%TO.P,U2,34,VSSA*%
X200637000Y-159025000D03*
%TO.P,U2,35,VREF+*%
%TO.N,Net-(U2C-VREF+)*%
X200637000Y-159525000D03*
%TO.P,U2,36,VDDA*%
%TO.N,3.3V*%
X200637000Y-160025000D03*
D21*
%TO.P,U2,37,PA0*%
%TO.N,SAI2_SD_B*%
X202625000Y-162013000D03*
%TO.P,U2,38,PA1*%
%TO.N,unconnected-(U2A-PA1-Pad38)*%
X203125000Y-162013000D03*
%TO.P,U2,39,PA2*%
%TO.N,SAI2_SCK_B*%
X203625000Y-162013000D03*
%TO.P,U2,40,PA3*%
%TO.N,unconnected-(U2A-PA3-Pad40)*%
X204125000Y-162013000D03*
%TO.P,U2,41,VSS*%
%TO.N,GND*%
X204625000Y-162013000D03*
%TO.P,U2,42,VDD*%
%TO.N,3.3V*%
X205125000Y-162013000D03*
%TO.P,U2,43,PA4*%
%TO.N,unconnected-(U2A-PA4-Pad43)*%
X205625000Y-162013000D03*
%TO.P,U2,44,PA5*%
%TO.N,unconnected-(U2A-PA5-Pad44)*%
X206125000Y-162013000D03*
%TO.P,U2,45,PA6*%
%TO.N,unconnected-(U2A-PA6-Pad45)*%
X206625000Y-162013000D03*
%TO.P,U2,46,PA7*%
%TO.N,unconnected-(U2A-PA7-Pad46)*%
X207125000Y-162013000D03*
%TO.P,U2,47,PC4*%
%TO.N,unconnected-(U2A-PC4-Pad47)*%
X207625000Y-162013000D03*
%TO.P,U2,48,PC5*%
%TO.N,unconnected-(U2A-PC5-Pad48)*%
X208125000Y-162013000D03*
%TO.P,U2,49,PB0*%
%TO.N,unconnected-(U2A-PB0-Pad49)*%
X208625000Y-162013000D03*
%TO.P,U2,50,PB1*%
%TO.N,unconnected-(U2A-PB1-Pad50)*%
X209125000Y-162013000D03*
%TO.P,U2,51,PB2*%
%TO.N,unconnected-(U2A-PB2-Pad51)*%
X209625000Y-162013000D03*
%TO.P,U2,52,PF11*%
%TO.N,unconnected-(U2B-PF11-Pad52)*%
X210125000Y-162013000D03*
%TO.P,U2,53,PF14*%
%TO.N,I2C4_SCL*%
X210625000Y-162013000D03*
%TO.P,U2,54,PF15*%
%TO.N,I2C4_SDA*%
X211125000Y-162013000D03*
%TO.P,U2,55,VSS*%
%TO.N,GND*%
X211625000Y-162013000D03*
%TO.P,U2,56,VDD*%
%TO.N,3.3V*%
X212125000Y-162013000D03*
%TO.P,U2,57,PE7*%
%TO.N,unconnected-(U2B-PE7-Pad57)*%
X212625000Y-162013000D03*
%TO.P,U2,58,PE8*%
%TO.N,unconnected-(U2B-PE8-Pad58)*%
X213125000Y-162013000D03*
%TO.P,U2,59,PE9*%
%TO.N,unconnected-(U2B-PE9-Pad59)*%
X213625000Y-162013000D03*
%TO.P,U2,60,PE10*%
%TO.N,unconnected-(U2B-PE10-Pad60)*%
X214125000Y-162013000D03*
%TO.P,U2,61,PE11*%
%TO.N,unconnected-(U2B-PE11-Pad61)*%
X214625000Y-162013000D03*
%TO.P,U2,62,PE12*%
%TO.N,unconnected-(U2B-PE12-Pad62)*%
X215125000Y-162013000D03*
%TO.P,U2,63,PE13*%
%TO.N,unconnected-(U2B-PE13-Pad63)*%
X215625000Y-162013000D03*
%TO.P,U2,64,PE14*%
%TO.N,unconnected-(U2B-PE14-Pad64)*%
X216125000Y-162013000D03*
%TO.P,U2,65,PE15*%
%TO.N,unconnected-(U2B-PE15-Pad65)*%
X216625000Y-162013000D03*
%TO.P,U2,66,PB10*%
%TO.N,unconnected-(U2A-PB10-Pad66)*%
X217125000Y-162013000D03*
%TO.P,U2,67,PB11*%
%TO.N,unconnected-(U2A-PB11-Pad67)*%
X217625000Y-162013000D03*
%TO.P,U2,68,VCAP*%
%TO.N,Net-(C18-Pad1)*%
X218125000Y-162013000D03*
%TO.P,U2,69,VSS*%
%TO.N,GND*%
X218625000Y-162013000D03*
%TO.P,U2,70,VDDLDO*%
%TO.N,3.3V*%
X219125000Y-162013000D03*
%TO.P,U2,71,VDD*%
X219625000Y-162013000D03*
%TO.P,U2,72,PB12*%
%TO.N,unconnected-(U2A-PB12-Pad72)*%
X220125000Y-162013000D03*
D20*
%TO.P,U2,73,PB13*%
%TO.N,unconnected-(U2A-PB13-Pad73)*%
X222113000Y-160025000D03*
%TO.P,U2,74,PB14*%
%TO.N,unconnected-(U2A-PB14-Pad74)*%
X222113000Y-159525000D03*
%TO.P,U2,75,PB15*%
%TO.N,unconnected-(U2A-PB15-Pad75)*%
X222113000Y-159025000D03*
%TO.P,U2,76,PD8*%
%TO.N,unconnected-(U2A-PD8-Pad76)*%
X222113000Y-158525000D03*
%TO.P,U2,77,PD9*%
%TO.N,unconnected-(U2A-PD9-Pad77)*%
X222113000Y-158025000D03*
%TO.P,U2,78,PD10*%
%TO.N,unconnected-(U2A-PD10-Pad78)*%
X222113000Y-157525000D03*
%TO.P,U2,79,VDD*%
%TO.N,3.3V*%
X222113000Y-157025000D03*
%TO.P,U2,80,VSS*%
%TO.N,GND*%
X222113000Y-156525000D03*
%TO.P,U2,81,PD11*%
%TO.N,unconnected-(U2A-PD11-Pad81)*%
X222113000Y-156025000D03*
%TO.P,U2,82,PD12*%
%TO.N,unconnected-(U2A-PD12-Pad82)*%
X222113000Y-155525000D03*
%TO.P,U2,83,PD13*%
%TO.N,unconnected-(U2A-PD13-Pad83)*%
X222113000Y-155025000D03*
%TO.P,U2,84,PD14*%
%TO.N,unconnected-(U2A-PD14-Pad84)*%
X222113000Y-154525000D03*
%TO.P,U2,85,PD15*%
%TO.N,unconnected-(U2A-PD15-Pad85)*%
X222113000Y-154025000D03*
%TO.P,U2,86,PG6*%
%TO.N,unconnected-(U2B-PG6-Pad86)*%
X222113000Y-153525000D03*
%TO.P,U2,87,PG7*%
%TO.N,unconnected-(U2B-PG7-Pad87)*%
X222113000Y-153025000D03*
%TO.P,U2,88,PG8*%
%TO.N,unconnected-(U2B-PG8-Pad88)*%
X222113000Y-152525000D03*
%TO.P,U2,89,VSS*%
%TO.N,GND*%
X222113000Y-152025000D03*
%TO.P,U2,90,VDD50USB*%
%TO.N,Net-(U2C-VDD33USB)*%
X222113000Y-151525000D03*
%TO.P,U2,91,VDD33USB*%
X222113000Y-151025000D03*
%TO.P,U2,92,VDD*%
%TO.N,3.3V*%
X222113000Y-150525000D03*
%TO.P,U2,93,PC6*%
%TO.N,unconnected-(U2A-PC6-Pad93)*%
X222113000Y-150025000D03*
%TO.P,U2,94,PC7*%
%TO.N,unconnected-(U2A-PC7-Pad94)*%
X222113000Y-149525000D03*
%TO.P,U2,95,PC8*%
%TO.N,unconnected-(U2A-PC8-Pad95)*%
X222113000Y-149025000D03*
%TO.P,U2,96,PC9*%
%TO.N,I2C3_SDA*%
X222113000Y-148525000D03*
%TO.P,U2,97,PA8*%
%TO.N,I2C3_SCL*%
X222113000Y-148025000D03*
%TO.P,U2,98,PA9*%
%TO.N,unconnected-(U2A-PA9-Pad98)*%
X222113000Y-147525000D03*
%TO.P,U2,99,PA10*%
%TO.N,unconnected-(U2A-PA10-Pad99)*%
X222113000Y-147025000D03*
%TO.P,U2,100,PA11*%
%TO.N,unconnected-(U2A-PA11-Pad100)*%
X222113000Y-146525000D03*
%TO.P,U2,101,PA12*%
%TO.N,unconnected-(U2A-PA12-Pad101)*%
X222113000Y-146025000D03*
%TO.P,U2,102,PA13*%
%TO.N,SWDIO*%
X222113000Y-145525000D03*
%TO.P,U2,103,VCAP*%
%TO.N,Net-(C18-Pad1)*%
X222113000Y-145025000D03*
%TO.P,U2,104,VSS*%
%TO.N,GND*%
X222113000Y-144525000D03*
%TO.P,U2,105,VDDLDO*%
%TO.N,3.3V*%
X222113000Y-144025000D03*
%TO.P,U2,106,VDD*%
X222113000Y-143525000D03*
%TO.P,U2,107,PA14*%
%TO.N,SWCLK*%
X222113000Y-143025000D03*
%TO.P,U2,108,PA15*%
%TO.N,JTDI*%
X222113000Y-142525000D03*
D21*
%TO.P,U2,109,PC10*%
%TO.N,SPI3_SCK*%
X220125000Y-140537000D03*
%TO.P,U2,110,PC11*%
%TO.N,SPI3_MISO*%
X219625000Y-140537000D03*
%TO.P,U2,111,PC12*%
%TO.N,SPI3_MOSI*%
X219125000Y-140537000D03*
%TO.P,U2,112,PD0*%
%TO.N,unconnected-(U2A-PD0-Pad112)*%
X218625000Y-140537000D03*
%TO.P,U2,113,PD1*%
%TO.N,unconnected-(U2A-PD1-Pad113)*%
X218125000Y-140537000D03*
%TO.P,U2,114,PD2*%
%TO.N,unconnected-(U2A-PD2-Pad114)*%
X217625000Y-140537000D03*
%TO.P,U2,115,PD3*%
%TO.N,unconnected-(U2A-PD3-Pad115)*%
X217125000Y-140537000D03*
%TO.P,U2,116,PD4*%
%TO.N,unconnected-(U2A-PD4-Pad116)*%
X216625000Y-140537000D03*
%TO.P,U2,117,PD5*%
%TO.N,unconnected-(U2A-PD5-Pad117)*%
X216125000Y-140537000D03*
%TO.P,U2,118,VSS*%
%TO.N,GND*%
X215625000Y-140537000D03*
%TO.P,U2,119,VDD*%
%TO.N,3.3V*%
X215125000Y-140537000D03*
%TO.P,U2,120,PD6*%
%TO.N,unconnected-(U2A-PD6-Pad120)*%
X214625000Y-140537000D03*
%TO.P,U2,121,PD7*%
%TO.N,unconnected-(U2A-PD7-Pad121)*%
X214125000Y-140537000D03*
%TO.P,U2,122,PG9*%
%TO.N,unconnected-(U2B-PG9-Pad122)*%
X213625000Y-140537000D03*
%TO.P,U2,123,PG10*%
%TO.N,unconnected-(U2B-PG10-Pad123)*%
X213125000Y-140537000D03*
%TO.P,U2,124,PG11*%
%TO.N,unconnected-(U2B-PG11-Pad124)*%
X212625000Y-140537000D03*
%TO.P,U2,125,PG12*%
%TO.N,unconnected-(U2B-PG12-Pad125)*%
X212125000Y-140537000D03*
%TO.P,U2,126,PG13*%
%TO.N,unconnected-(U2B-PG13-Pad126)*%
X211625000Y-140537000D03*
%TO.P,U2,127,PG14*%
%TO.N,unconnected-(U2B-PG14-Pad127)*%
X211125000Y-140537000D03*
%TO.P,U2,128,VSS*%
%TO.N,GND*%
X210625000Y-140537000D03*
%TO.P,U2,129,VDD*%
%TO.N,3.3V*%
X210125000Y-140537000D03*
%TO.P,U2,130,PB3*%
%TO.N,JTDO_SWO*%
X209625000Y-140537000D03*
%TO.P,U2,131,PB4*%
%TO.N,JTRST*%
X209125000Y-140537000D03*
%TO.P,U2,132,PB5*%
%TO.N,unconnected-(U2A-PB5-Pad132)*%
X208625000Y-140537000D03*
%TO.P,U2,133,PB6*%
%TO.N,unconnected-(U2A-PB6-Pad133)*%
X208125000Y-140537000D03*
%TO.P,U2,134,PB7*%
%TO.N,unconnected-(U2A-PB7-Pad134)*%
X207625000Y-140537000D03*
%TO.P,U2,135,BOOT0*%
%TO.N,Net-(U2B-BOOT0)*%
X207125000Y-140537000D03*
%TO.P,U2,136,PB8*%
%TO.N,unconnected-(U2A-PB8-Pad136)*%
X206625000Y-140537000D03*
%TO.P,U2,137,PB9*%
%TO.N,unconnected-(U2A-PB9-Pad137)*%
X206125000Y-140537000D03*
%TO.P,U2,138,PE0*%
%TO.N,unconnected-(U2B-PE0-Pad138)*%
X205625000Y-140537000D03*
%TO.P,U2,139,PE1*%
%TO.N,unconnected-(U2B-PE1-Pad139)*%
X205125000Y-140537000D03*
%TO.P,U2,140,VCAP*%
%TO.N,Net-(C18-Pad1)*%
X204625000Y-140537000D03*
%TO.P,U2,141,VSS*%
%TO.N,GND*%
X204125000Y-140537000D03*
%TO.P,U2,142,PDR_ON*%
%TO.N,Net-(U2B-PDR_ON)*%
X203625000Y-140537000D03*
%TO.P,U2,143,VDDLDO*%
%TO.N,3.3V*%
X203125000Y-140537000D03*
%TO.P,U2,144,VDD*%
X202625000Y-140537000D03*
%TD*%
D15*
%TO.P,C26,1*%
%TO.N,Net-(U2B-PH0-OSC_IN)*%
X193262500Y-151325000D03*
%TO.P,C26,2*%
%TO.N,GND*%
X191537500Y-151325000D03*
%TD*%
D16*
%TO.P,C10,1*%
%TO.N,3.3V*%
X201375000Y-137612500D03*
%TO.P,C10,2*%
%TO.N,GND*%
X201375000Y-135887500D03*
%TD*%
D15*
%TO.P,C19,1*%
%TO.N,Net-(C18-Pad1)*%
X216387500Y-166525000D03*
%TO.P,C19,2*%
%TO.N,GND*%
X214662500Y-166525000D03*
%TD*%
D13*
%TO.P,C9,1*%
%TO.N,3.3V*%
X220825000Y-165587500D03*
%TO.P,C9,2*%
%TO.N,GND*%
X220825000Y-167312500D03*
%TD*%
D18*
%TO.P,R6,1*%
%TO.N,Net-(U2B-PDR_ON)*%
X204425000Y-136812500D03*
%TO.P,R6,2*%
%TO.N,3.3V*%
X204425000Y-134987500D03*
%TD*%
D15*
%TO.P,C13,1*%
%TO.N,3.3V*%
X191237500Y-147600000D03*
%TO.P,C13,2*%
%TO.N,GND*%
X189512500Y-147600000D03*
%TD*%
D13*
%TO.P,C4,1*%
%TO.N,3.3V*%
X218850000Y-165637500D03*
%TO.P,C4,2*%
%TO.N,GND*%
X218850000Y-167362500D03*
%TD*%
D16*
%TO.P,C3,1*%
%TO.N,3.3V*%
X225650000Y-156987500D03*
%TO.P,C3,2*%
%TO.N,GND*%
X225650000Y-155262500D03*
%TD*%
D15*
%TO.P,C25,1*%
%TO.N,Net-(U2B-PH1-OSC_OUT)*%
X190987500Y-156925000D03*
%TO.P,C25,2*%
%TO.N,GND*%
X189262500Y-156925000D03*
%TD*%
D13*
%TO.P,C21,1*%
%TO.N,Net-(U2C-VDD33USB)*%
X227000000Y-150937500D03*
%TO.P,C21,2*%
%TO.N,GND*%
X227000000Y-152662500D03*
%TD*%
D15*
%TO.P,C27,1*%
%TO.N,GND*%
X266862500Y-152472500D03*
%TO.P,C27,2*%
%TO.N,CHANNEL_1*%
X265137500Y-152472500D03*
%TD*%
D19*
%TO.P,R11,1*%
%TO.N,Net-(R10-Pad2)*%
X261825000Y-143387500D03*
%TO.P,R11,2*%
%TO.N,CHANNEL_2*%
X261825000Y-145212500D03*
%TD*%
D16*
%TO.P,C15,1*%
%TO.N,3.3V*%
X227200000Y-141787500D03*
%TO.P,C15,2*%
%TO.N,GND*%
X227200000Y-140062500D03*
%TD*%
D19*
%TO.P,R8,1*%
%TO.N,5V*%
X264500000Y-138987500D03*
%TO.P,R8,2*%
%TO.N,Net-(R8-Pad2)*%
X264500000Y-140812500D03*
%TD*%
D13*
%TO.P,C8,1*%
%TO.N,3.3V*%
X194100000Y-161012500D03*
%TO.P,C8,2*%
%TO.N,GND*%
X194100000Y-162737500D03*
%TD*%
D19*
%TO.P,R10,1*%
%TO.N,5V*%
X261800000Y-138937500D03*
%TO.P,R10,2*%
%TO.N,Net-(R10-Pad2)*%
X261800000Y-140762500D03*
%TD*%
D16*
%TO.P,C30,1*%
%TO.N,3.3V*%
X212575000Y-136150000D03*
%TO.P,C30,2*%
%TO.N,GND*%
X212575000Y-134425000D03*
%TD*%
%TO.P,C29,1*%
%TO.N,3.3V*%
X215100000Y-137825000D03*
%TO.P,C29,2*%
%TO.N,GND*%
X215100000Y-136100000D03*
%TD*%
D22*
%TO.P,X4,1,1*%
%TO.N,Net-(U2B-PH0-OSC_IN)*%
X193273000Y-153260749D03*
%TO.P,X4,2,2*%
%TO.N,GND*%
X191073000Y-153260749D03*
%TO.P,X4,3,3*%
%TO.N,Net-(U2B-PH1-OSC_OUT)*%
X191073000Y-154860751D03*
%TO.P,X4,4,4*%
%TO.N,GND*%
X193273000Y-154860751D03*
%TD*%
D18*
%TO.P,R13,1*%
%TO.N,GND*%
X163250000Y-129612500D03*
%TO.P,R13,2*%
%TO.N,Net-(J7-Pad11)*%
X163250000Y-127787500D03*
%TD*%
D13*
%TO.P,C20,1*%
%TO.N,Net-(U2C-VDD33USB)*%
X228700000Y-150937500D03*
%TO.P,C20,2*%
%TO.N,GND*%
X228700000Y-152662500D03*
%TD*%
D19*
%TO.P,R9,1*%
%TO.N,Net-(R8-Pad2)*%
X264450000Y-143412500D03*
%TO.P,R9,2*%
%TO.N,CHANNEL_1*%
X264450000Y-145237500D03*
%TD*%
D15*
%TO.P,C14,1*%
%TO.N,3.3V*%
X193075000Y-149450000D03*
%TO.P,C14,2*%
%TO.N,GND*%
X191350000Y-149450000D03*
%TD*%
D23*
%TO.P,J6,1*%
%TO.N,SPI3_MOSI*%
X249500000Y-119905000D03*
D24*
%TO.P,J6,2*%
%TO.N,SPI3_MISO*%
X249500000Y-122445000D03*
%TO.P,J6,3*%
%TO.N,SPI3_SCK*%
X249500000Y-124985000D03*
%TO.P,J6,4*%
%TO.N,unconnected-(J6-Pad4)*%
X249500000Y-127525000D03*
%TO.P,J6,5*%
%TO.N,CHANNEL_1*%
X249500000Y-130065000D03*
%TO.P,J6,6*%
%TO.N,GND*%
X249500000Y-132605000D03*
%TO.P,J6,7*%
%TO.N,CHANNEL_2*%
X249500000Y-135145000D03*
%TO.P,J6,8*%
%TO.N,unconnected-(J6-Pad8)*%
X249500000Y-137685000D03*
%TO.P,J6,9*%
%TO.N,I2C3_SDA*%
X249500000Y-140225000D03*
%TO.P,J6,10*%
%TO.N,I2C3_SCL*%
X249500000Y-142765000D03*
%TD*%
D15*
%TO.P,C12,1*%
%TO.N,3.3V*%
X191262500Y-145575000D03*
%TO.P,C12,2*%
%TO.N,GND*%
X189537500Y-145575000D03*
%TD*%
%TO.P,C22,1*%
%TO.N,Net-(U2B-NRST)*%
X191012500Y-158500000D03*
%TO.P,C22,2*%
%TO.N,GND*%
X189287500Y-158500000D03*
%TD*%
D17*
%TO.P,C24,1*%
%TO.N,Net-(U2A-PC14-OSC32_IN)*%
X197387500Y-122225000D03*
%TO.P,C24,2*%
%TO.N,GND*%
X199112500Y-122225000D03*
%TD*%
D13*
%TO.P,C17,1*%
%TO.N,3.3V*%
X233800000Y-150637500D03*
%TO.P,C17,2*%
%TO.N,GND*%
X233800000Y-152362500D03*
%TD*%
D15*
%TO.P,C23,1*%
%TO.N,Net-(U2A-PC15-OSC32_OUT)*%
X185062500Y-122200000D03*
%TO.P,C23,2*%
%TO.N,GND*%
X183337500Y-122200000D03*
%TD*%
D17*
%TO.P,C7,1*%
%TO.N,3.3V*%
X205237500Y-164200000D03*
%TO.P,C7,2*%
%TO.N,GND*%
X206962500Y-164200000D03*
%TD*%
D23*
%TO.P,J5,1*%
%TO.N,CHANNEL_1*%
X264375000Y-148997500D03*
D24*
%TO.P,J5,2*%
%TO.N,CHANNEL_2*%
X261835000Y-148997500D03*
%TD*%
D16*
%TO.P,C6,1*%
%TO.N,3.3V*%
X229275000Y-141762500D03*
%TO.P,C6,2*%
%TO.N,GND*%
X229275000Y-140037500D03*
%TD*%
D23*
%TO.P,J4,1*%
%TO.N,SAI1_MCLK_A*%
X181175000Y-141770000D03*
D24*
%TO.P,J4,2*%
%TO.N,SAI1_SD_B*%
X181175000Y-144310000D03*
%TO.P,J4,3*%
%TO.N,SAI1_FS_A*%
X181175000Y-146850000D03*
%TO.P,J4,4*%
%TO.N,SAI1_SCK_A*%
X181175000Y-149390000D03*
%TO.P,J4,5*%
%TO.N,unconnected-(J4-Pad5)*%
X181175000Y-151930000D03*
%TO.P,J4,6*%
%TO.N,unconnected-(J4-Pad6)*%
X181175000Y-154470000D03*
%TO.P,J4,7*%
%TO.N,SAI2_FS_B*%
X181175000Y-157010000D03*
%TO.P,J4,8*%
%TO.N,SAI2_SD_B*%
X181175000Y-159550000D03*
%TO.P,J4,9*%
%TO.N,SAI2_MCLK_B*%
X181175000Y-162090000D03*
%TO.P,J4,10*%
%TO.N,SAI2_SCK_B*%
X181175000Y-164630000D03*
%TD*%
D23*
%TO.P,J1,1*%
%TO.N,GND*%
X151175000Y-141770000D03*
D24*
%TO.P,J1,2*%
%TO.N,unconnected-(J1-Pad2)*%
X151175000Y-144310000D03*
%TO.P,J1,3*%
%TO.N,5V*%
X151175000Y-146850000D03*
%TO.P,J1,4*%
%TO.N,unconnected-(J1-Pad4)*%
X151175000Y-149390000D03*
%TO.P,J1,5*%
%TO.N,unconnected-(J1-Pad5)*%
X151175000Y-151930000D03*
%TO.P,J1,6*%
%TO.N,I2C4_SDA*%
X151175000Y-154470000D03*
%TO.P,J1,7*%
%TO.N,I2C4_SCL*%
X151175000Y-157010000D03*
%TO.P,J1,8*%
%TO.N,unconnected-(J1-Pad8)*%
X151175000Y-159550000D03*
%TO.P,J1,9*%
%TO.N,3.3V*%
X151175000Y-162090000D03*
%TO.P,J1,10*%
%TO.N,unconnected-(J1-Pad10)*%
X151175000Y-164630000D03*
%TD*%
D25*
%TO.N,GND*%
X179000000Y-125000000D03*
D26*
X179000000Y-120000000D03*
X177000000Y-120000000D03*
X175000000Y-120000000D03*
X175000000Y-118000000D03*
X177000000Y-118000000D03*
X179000000Y-118000000D03*
D25*
X165225000Y-129700000D03*
X178850000Y-123150000D03*
%TO.N,Net-(U2A-PC15-OSC32_OUT)*%
X196275000Y-147400000D03*
X185050000Y-124600000D03*
%TO.N,Net-(U2A-PC14-OSC32_IN)*%
X197450000Y-146850000D03*
X197375000Y-124100000D03*
%TO.N,3.3V*%
X154200000Y-162475000D03*
X194475000Y-147525000D03*
X206125000Y-166125000D03*
X186050000Y-160750000D03*
X211150000Y-166200000D03*
X231625000Y-140250000D03*
X221575000Y-134075000D03*
X205850000Y-131450000D03*
X227075000Y-158925000D03*
X197600000Y-167275000D03*
X224475000Y-149450000D03*
X184775000Y-139700000D03*
%TO.N,JTDI*%
X229100000Y-132850000D03*
X205950000Y-129700000D03*
%TO.N,SWDIO*%
X174325000Y-132450000D03*
X229825000Y-145300000D03*
%TO.N,SWCLK*%
X203650000Y-128525000D03*
X230025000Y-133625000D03*
%TO.N,JTRST*%
X194550000Y-135000000D03*
X196000000Y-126450000D03*
%TO.N,JTDO_SWO*%
X210400000Y-135850000D03*
X198175000Y-128675000D03*
%TO.N,SAI2_SCK_B*%
X183975000Y-164650000D03*
X201750000Y-165850000D03*
%TO.N,SAI2_SD_B*%
X184000000Y-160775000D03*
X200300000Y-163725000D03*
%TO.N,GND*%
X229325000Y-138575000D03*
X203725000Y-166175000D03*
X192675000Y-162750000D03*
X197683360Y-144709329D03*
X226450000Y-138475000D03*
X188050000Y-147650000D03*
X233800000Y-153800000D03*
X224250000Y-155825000D03*
X218800000Y-168700000D03*
X224475000Y-152075000D03*
X226975000Y-153975000D03*
X268650000Y-152522500D03*
X225575000Y-153750000D03*
X197300000Y-149925000D03*
X195075000Y-154725000D03*
X228725000Y-153975000D03*
X229775000Y-143200000D03*
X256625000Y-152522500D03*
X188100000Y-146275000D03*
X212575000Y-132900000D03*
X198400000Y-159650000D03*
X217850000Y-164200000D03*
X215125000Y-134600000D03*
X209500000Y-168250000D03*
X207150000Y-133050000D03*
X187075000Y-158850000D03*
X198950000Y-151175000D03*
X204625000Y-138400000D03*
X216475000Y-138775000D03*
X151200000Y-138775000D03*
X201200000Y-121750000D03*
X188600000Y-153150000D03*
X253025000Y-132600000D03*
X194475000Y-148550000D03*
X201425000Y-134475000D03*
X234025000Y-142200000D03*
X208250000Y-164250000D03*
X213950000Y-163600000D03*
X199350000Y-134575000D03*
X220850000Y-168725000D03*
X189200000Y-155175000D03*
X183325000Y-120668750D03*
X214650000Y-167900000D03*
X197950000Y-158875000D03*
X189675000Y-151325000D03*
X213050000Y-138650000D03*
X189725000Y-149375000D03*
X196625000Y-150875000D03*
X195950000Y-150300000D03*
X196425000Y-152400000D03*
%TO.N,CHANNEL_2*%
X254200000Y-135725000D03*
X254200000Y-156100000D03*
%TD*%
D27*
%TO.N,GND*%
X178450000Y-125550000D02*
X179000000Y-125000000D01*
X177162500Y-125550000D02*
X178450000Y-125550000D01*
X174590000Y-120410000D02*
X175000000Y-120000000D01*
X170810000Y-120410000D02*
X174590000Y-120410000D01*
X153030000Y-120410000D02*
X150490000Y-120410000D01*
X155570000Y-120410000D02*
X153030000Y-120410000D01*
X158110000Y-120410000D02*
X155570000Y-120410000D01*
X160650000Y-120410000D02*
X158110000Y-120410000D01*
X163190000Y-120410000D02*
X160650000Y-120410000D01*
X165730000Y-120410000D02*
X163190000Y-120410000D01*
X168270000Y-120410000D02*
X165730000Y-120410000D01*
X170810000Y-120410000D02*
X168270000Y-120410000D01*
%TO.N,3.3V*%
X161265000Y-136265000D02*
X181340000Y-136265000D01*
X147950000Y-122950000D02*
X161265000Y-136265000D01*
X147950000Y-122950000D02*
X147950000Y-120410000D01*
%TO.N,JTDO_SWO*%
X168885000Y-128645000D02*
X198145000Y-128645000D01*
X163190000Y-122950000D02*
X168885000Y-128645000D01*
%TO.N,Net-(J7-Pad11)*%
X160650000Y-125187500D02*
X163250000Y-127787500D01*
X160650000Y-122950000D02*
X160650000Y-125187500D01*
%TO.N,GND*%
X165137500Y-129612500D02*
X165225000Y-129700000D01*
X163250000Y-129612500D02*
X165137500Y-129612500D01*
%TO.N,Net-(J7-Pad17)*%
X170870000Y-125550000D02*
X175337500Y-125550000D01*
X168270000Y-122950000D02*
X170870000Y-125550000D01*
%TO.N,GND*%
X178725000Y-123275000D02*
X178850000Y-123150000D01*
X177137500Y-123275000D02*
X178725000Y-123275000D01*
%TO.N,Net-(J7-Pad19)*%
X174987500Y-122950000D02*
X175312500Y-123275000D01*
X170810000Y-122950000D02*
X174987500Y-122950000D01*
%TO.N,SWCLK*%
X158110000Y-127820000D02*
X161475000Y-131185000D01*
X158110000Y-122950000D02*
X158110000Y-127820000D01*
%TO.N,SWDIO*%
X155570000Y-126550000D02*
X161475000Y-132455000D01*
X155570000Y-122950000D02*
X155570000Y-126550000D01*
%TO.N,JTDI*%
X153030000Y-125280000D02*
X161475000Y-133725000D01*
X153030000Y-122950000D02*
X153030000Y-125280000D01*
%TO.N,JTRST*%
X150490000Y-124010000D02*
X161475000Y-134995000D01*
X150490000Y-122950000D02*
X150490000Y-124010000D01*
%TO.N,Net-(C18-Pad1)*%
X230625000Y-144012500D02*
X231375000Y-144012500D01*
X228925000Y-144037500D02*
X230600000Y-144037500D01*
D28*
X204625000Y-141474500D02*
X208175500Y-145025000D01*
X218125000Y-162013000D02*
X218125000Y-145025000D01*
X208175500Y-145025000D02*
X218125000Y-145025000D01*
D27*
X216387500Y-166525000D02*
X216387500Y-164638000D01*
X216387500Y-164638000D02*
X216412500Y-164613000D01*
D28*
X204625000Y-140537000D02*
X204625000Y-141474500D01*
X218125000Y-145025000D02*
X222113000Y-145025000D01*
X218125000Y-162013000D02*
X218125000Y-162900500D01*
D27*
X227937500Y-145025000D02*
X222113000Y-145025000D01*
X230600000Y-144037500D02*
X230625000Y-144012500D01*
D28*
X218125000Y-162900500D02*
X216412500Y-164613000D01*
D27*
X227937500Y-145025000D02*
X228925000Y-144037500D01*
%TO.N,Net-(U2C-VDD33USB)*%
X223300000Y-151525000D02*
X222113000Y-151525000D01*
X223800000Y-151025000D02*
X223300000Y-151525000D01*
X227000000Y-150937500D02*
X228700000Y-150937500D01*
X223800000Y-151025000D02*
X222113000Y-151025000D01*
X227000000Y-150937500D02*
X226912500Y-151025000D01*
X226912500Y-151025000D02*
X223800000Y-151025000D01*
%TO.N,Net-(U2B-NRST)*%
X191012500Y-158500000D02*
X194100000Y-158500000D01*
X194100000Y-158500000D02*
X197075000Y-155525000D01*
X197075000Y-155525000D02*
X200637000Y-155525000D01*
%TO.N,Net-(U2A-PC15-OSC32_OUT)*%
X185337500Y-122250000D02*
X185175000Y-122412500D01*
D28*
X196275000Y-147400000D02*
X196400000Y-147525000D01*
X185062500Y-122200000D02*
X185062500Y-124587500D01*
D27*
X188350000Y-122250000D02*
X185337500Y-122250000D01*
D28*
X185062500Y-124587500D02*
X185050000Y-124600000D01*
X196400000Y-147525000D02*
X200637000Y-147525000D01*
%TO.N,Net-(U2A-PC14-OSC32_IN)*%
X197375000Y-124100000D02*
X197387500Y-124087500D01*
D27*
X193850000Y-122250000D02*
X197162500Y-122250000D01*
D28*
X197387500Y-122225000D02*
X197375000Y-124100000D01*
X197625000Y-147025000D02*
X200637000Y-147025000D01*
D27*
X197162500Y-122250000D02*
X197300000Y-122112500D01*
D28*
X197450000Y-146850000D02*
X197625000Y-147025000D01*
%TO.N,Net-(U2B-PH1-OSC_OUT)*%
X194275000Y-156925000D02*
X196175000Y-155025000D01*
D27*
X190987500Y-156925000D02*
X194275000Y-156925000D01*
D28*
X196175000Y-155025000D02*
X200637000Y-155025000D01*
D27*
X191073000Y-154860751D02*
X191073000Y-156487350D01*
D28*
%TO.N,Net-(U2B-PH0-OSC_IN)*%
X193675000Y-151325000D02*
X196875000Y-154525000D01*
D27*
X193273000Y-153260749D02*
X193273000Y-151662350D01*
X193262500Y-151325000D02*
X193675000Y-151325000D01*
D28*
X196875000Y-154525000D02*
X200637000Y-154525000D01*
D27*
X193273000Y-151662350D02*
X193448200Y-151487150D01*
%TO.N,3.3V*%
X186312500Y-161012500D02*
X194100000Y-161012500D01*
D28*
X191587500Y-145525000D02*
X200637000Y-145525000D01*
X202300000Y-137112500D02*
X202300000Y-137612500D01*
X212187500Y-164875000D02*
X212187500Y-167612500D01*
X199612500Y-163037500D02*
X197600000Y-163037500D01*
D27*
X222150500Y-156987500D02*
X222113000Y-157025000D01*
D28*
X202249500Y-140537000D02*
X202625000Y-140537000D01*
X210125000Y-138600000D02*
X210125000Y-140537000D01*
X215100000Y-140512000D02*
X215125000Y-140537000D01*
X195975000Y-148525000D02*
X195000000Y-149500000D01*
X199325000Y-137612500D02*
X199300000Y-137587500D01*
X197312500Y-163312500D02*
X197575000Y-163312500D01*
D27*
X218850000Y-165637500D02*
X219125000Y-165362500D01*
D28*
X215100000Y-137825000D02*
X217825000Y-137825000D01*
X199249500Y-152025000D02*
X199749500Y-151525000D01*
X212575000Y-136150000D02*
X210125000Y-138600000D01*
D27*
X225650000Y-156987500D02*
X222150500Y-156987500D01*
D28*
X197575000Y-167250000D02*
X197600000Y-167275000D01*
X192600000Y-147600000D02*
X192662500Y-147537500D01*
X204425000Y-134875000D02*
X205850000Y-133450000D01*
X224475000Y-149675000D02*
X225325000Y-150525000D01*
D27*
X227250000Y-144025000D02*
X226300000Y-144025000D01*
D28*
X153815000Y-162090000D02*
X154200000Y-162475000D01*
X205237500Y-164200000D02*
X205237500Y-165237500D01*
X199749500Y-151525000D02*
X200637000Y-151525000D01*
X200637000Y-160025000D02*
X200637000Y-162013000D01*
X200637000Y-146025000D02*
X194175000Y-146025000D01*
X194112500Y-161012500D02*
X197100000Y-158025000D01*
D27*
X186050000Y-160750000D02*
X186312500Y-161012500D01*
D28*
X213625000Y-169050000D02*
X215650000Y-169050000D01*
D27*
X229250000Y-141787500D02*
X229275000Y-141762500D01*
D28*
X191237500Y-147600000D02*
X191237500Y-145600000D01*
X211150000Y-166200000D02*
X211150000Y-165912500D01*
X224475000Y-149450000D02*
X224475000Y-149675000D01*
D27*
X181340000Y-136265000D02*
X184775000Y-139700000D01*
X225650000Y-160762500D02*
X220825000Y-165587500D01*
X225137500Y-141787500D02*
X227200000Y-141787500D01*
X220825000Y-165587500D02*
X219625000Y-164387500D01*
X225325000Y-150525000D02*
X226612500Y-149237500D01*
X219125000Y-164350000D02*
X219125000Y-162013000D01*
D28*
X192600000Y-147600000D02*
X192600000Y-147750000D01*
X212187500Y-167612500D02*
X213625000Y-169050000D01*
X215650000Y-169050000D02*
X218850000Y-165850000D01*
D27*
X181340000Y-136265000D02*
X182662500Y-137587500D01*
X212125000Y-162013000D02*
X212125000Y-164812500D01*
D28*
X192662500Y-147537500D02*
X194462500Y-147537500D01*
D27*
X195312500Y-151687500D02*
X193075000Y-149450000D01*
X227200000Y-141787500D02*
X229250000Y-141787500D01*
D28*
X198050000Y-151637500D02*
X198437500Y-152025000D01*
X199300000Y-137587500D02*
X202249500Y-140537000D01*
D27*
X219625000Y-164387500D02*
X219162500Y-164387500D01*
X229275000Y-141762500D02*
X229275000Y-142000000D01*
X226612500Y-149237500D02*
X231025000Y-149237500D01*
D28*
X231625000Y-140250000D02*
X230112500Y-141762500D01*
X194462500Y-147537500D02*
X194475000Y-147525000D01*
X197575000Y-163312500D02*
X197575000Y-167250000D01*
D27*
X231025000Y-149237500D02*
X232425000Y-150637500D01*
X219625000Y-164387500D02*
X219625000Y-162013000D01*
D28*
X204425000Y-134987500D02*
X204425000Y-134875000D01*
D27*
X225650000Y-158900000D02*
X225650000Y-160762500D01*
D28*
X194100000Y-161012500D02*
X194112500Y-161012500D01*
X215100000Y-137825000D02*
X215100000Y-140512000D01*
X200637000Y-148525000D02*
X195975000Y-148525000D01*
X192600000Y-147750000D02*
X193075000Y-148225000D01*
X201375000Y-137612500D02*
X202300000Y-137612500D01*
X198437500Y-152025000D02*
X199249500Y-152025000D01*
X205237500Y-165237500D02*
X206125000Y-166125000D01*
X214250000Y-137825000D02*
X215100000Y-137825000D01*
X204425000Y-134987500D02*
X202300000Y-137112500D01*
X202300000Y-137612500D02*
X202412500Y-137612500D01*
X191212500Y-145900000D02*
X191587500Y-145525000D01*
D27*
X224412500Y-144025000D02*
X226300000Y-144025000D01*
X212125000Y-164812500D02*
X212187500Y-164875000D01*
X182662500Y-137587500D02*
X199300000Y-137587500D01*
X222113000Y-150525000D02*
X225325000Y-150525000D01*
D28*
X151175000Y-162090000D02*
X153815000Y-162090000D01*
D27*
X225650000Y-156987500D02*
X225650000Y-158900000D01*
D28*
X197100000Y-158025000D02*
X200637000Y-158025000D01*
X212575000Y-136150000D02*
X214250000Y-137825000D01*
X227075000Y-158925000D02*
X225675000Y-158925000D01*
X203125000Y-138325000D02*
X203125000Y-140537000D01*
D27*
X229275000Y-142000000D02*
X227250000Y-144025000D01*
X219125000Y-165362500D02*
X219125000Y-164350000D01*
D28*
X211150000Y-165912500D02*
X212187500Y-164875000D01*
X191237500Y-145600000D02*
X191262500Y-145575000D01*
D27*
X223400000Y-143525000D02*
X222113000Y-143525000D01*
X198050000Y-151687500D02*
X195312500Y-151687500D01*
D28*
X200637000Y-162013000D02*
X199612500Y-163037500D01*
X205125000Y-162013000D02*
X205125000Y-164087500D01*
X205125000Y-164087500D02*
X205237500Y-164200000D01*
X195012500Y-161012500D02*
X197312500Y-163312500D01*
X217825000Y-137825000D02*
X221575000Y-134075000D01*
D27*
X219162500Y-164387500D02*
X219125000Y-164350000D01*
D28*
X194175000Y-146025000D02*
X192600000Y-147600000D01*
D27*
X218850000Y-165850000D02*
X218850000Y-165637500D01*
D28*
X205850000Y-133450000D02*
X205850000Y-131450000D01*
X192600000Y-147600000D02*
X191237500Y-147600000D01*
X201375000Y-137612500D02*
X199325000Y-137612500D01*
D27*
X223400000Y-143525000D02*
X225137500Y-141787500D01*
D28*
X193075000Y-148225000D02*
X193075000Y-149450000D01*
D27*
X232425000Y-150637500D02*
X233800000Y-150637500D01*
D28*
X230112500Y-141762500D02*
X229275000Y-141762500D01*
X225675000Y-158925000D02*
X225650000Y-158900000D01*
X202412500Y-137612500D02*
X203125000Y-138325000D01*
X195000000Y-149500000D02*
X193125000Y-149500000D01*
D27*
X224412500Y-144025000D02*
X222113000Y-144025000D01*
D28*
X195012500Y-161012500D02*
X194100000Y-161012500D01*
D27*
%TO.N,JTDI*%
X205950000Y-129700000D02*
X205150000Y-129700000D01*
D28*
X222113000Y-142525000D02*
X222113000Y-139837000D01*
D27*
X201125000Y-133725000D02*
X161475000Y-133725000D01*
X205150000Y-129700000D02*
X201125000Y-133725000D01*
X222113000Y-139837000D02*
X229100000Y-132850000D01*
D28*
%TO.N,SWDIO*%
X222113000Y-145525000D02*
X229600000Y-145525000D01*
X174320000Y-132455000D02*
X161475000Y-132455000D01*
X229600000Y-145525000D02*
X229825000Y-145300000D01*
X174325000Y-132450000D02*
X174320000Y-132455000D01*
%TO.N,SWCLK*%
X161640000Y-131350000D02*
X161475000Y-131185000D01*
X225680698Y-137569302D02*
X225680698Y-140494802D01*
X225680698Y-140494802D02*
X223150500Y-143025000D01*
X200825000Y-131350000D02*
X161640000Y-131350000D01*
X203650000Y-128525000D02*
X200825000Y-131350000D01*
X230025000Y-133625000D02*
X229625000Y-133625000D01*
X229625000Y-133625000D02*
X225680698Y-137569302D01*
D27*
X222113000Y-143025000D02*
X223150500Y-143025000D01*
D28*
%TO.N,JTRST*%
X194450000Y-135000000D02*
X194550000Y-135000000D01*
X205100000Y-126450000D02*
X209125000Y-130475000D01*
X194550000Y-134900000D02*
X194525000Y-134925000D01*
X209125000Y-130475000D02*
X209125000Y-140537000D01*
X194455000Y-134995000D02*
X194450000Y-135000000D01*
X161475000Y-134995000D02*
X194455000Y-134995000D01*
X196000000Y-126450000D02*
X205100000Y-126450000D01*
X194550000Y-135000000D02*
X194550000Y-134900000D01*
%TO.N,JTDO_SWO*%
X210400000Y-135850000D02*
X209625000Y-136625000D01*
X198145000Y-128645000D02*
X198175000Y-128675000D01*
X209625000Y-136625000D02*
X209625000Y-140537000D01*
%TO.N,SAI1_SCK_A*%
X181175000Y-149390000D02*
X186540000Y-144025000D01*
X186540000Y-144025000D02*
X200637000Y-144025000D01*
D27*
%TO.N,SAI1_MCLK_A*%
X178750000Y-144195000D02*
X181175000Y-141770000D01*
X181175000Y-162090000D02*
X178750000Y-159665000D01*
D28*
X181175000Y-141770000D02*
X199882000Y-141770000D01*
X199882000Y-141770000D02*
X200637000Y-142525000D01*
D27*
X178750000Y-159665000D02*
X178750000Y-144195000D01*
D28*
%TO.N,SAI2_SCK_B*%
X201750000Y-165150000D02*
X203625000Y-163275000D01*
X201750000Y-165850000D02*
X201750000Y-165150000D01*
X203625000Y-163275000D02*
X203625000Y-162013000D01*
X183955000Y-164630000D02*
X183975000Y-164650000D01*
X181175000Y-164630000D02*
X183955000Y-164630000D01*
%TO.N,SAI2_FS_B*%
X183865000Y-159700000D02*
X181175000Y-157010000D01*
X197475000Y-156025000D02*
X193800000Y-159700000D01*
X193800000Y-159700000D02*
X183865000Y-159700000D01*
X200637000Y-156025000D02*
X197475000Y-156025000D01*
%TO.N,SAI1_FS_A*%
X181175000Y-146850000D02*
X184500000Y-143525000D01*
X184500000Y-143525000D02*
X200637000Y-143525000D01*
%TO.N,SAI2_SD_B*%
X202012000Y-162013000D02*
X202625000Y-162013000D01*
X200300000Y-163725000D02*
X202012000Y-162013000D01*
X182400000Y-160775000D02*
X184000000Y-160775000D01*
X181175000Y-159550000D02*
X182400000Y-160775000D01*
%TO.N,SAI1_SD_B*%
X182460000Y-143025000D02*
X200637000Y-143025000D01*
X181175000Y-144310000D02*
X182460000Y-143025000D01*
D27*
%TO.N,I2C3_SCL*%
X222113000Y-148025000D02*
X244240000Y-148025000D01*
X244240000Y-148025000D02*
X249500000Y-142765000D01*
D28*
%TO.N,SPI3_MISO*%
X220200000Y-139325000D02*
X219899500Y-139325000D01*
X237080000Y-122445000D02*
X220200000Y-139325000D01*
X219899500Y-139325000D02*
X219625000Y-139599500D01*
X219625000Y-139599500D02*
X219625000Y-140537000D01*
X249500000Y-122445000D02*
X237080000Y-122445000D01*
%TO.N,SPI3_SCK*%
X235677000Y-124985000D02*
X249500000Y-124985000D01*
X220125000Y-140537000D02*
X235677000Y-124985000D01*
D27*
%TO.N,I2C3_SDA*%
X252275000Y-144125000D02*
X252275000Y-141325000D01*
X247875000Y-148525000D02*
X252275000Y-144125000D01*
X252275000Y-141325000D02*
X251175000Y-140225000D01*
X251175000Y-140225000D02*
X249500000Y-140225000D01*
X222113000Y-148525000D02*
X247875000Y-148525000D01*
D28*
%TO.N,SPI3_MOSI*%
X219125000Y-139599500D02*
X238819500Y-119905000D01*
X219125000Y-140537000D02*
X219125000Y-139599500D01*
X238819500Y-119905000D02*
X249500000Y-119905000D01*
%TO.N,Net-(U2C-VREF+)*%
X197937500Y-161212500D02*
X199625000Y-159525000D01*
X197600000Y-161212500D02*
X197937500Y-161212500D01*
X199625000Y-159525000D02*
X200637000Y-159525000D01*
%TO.N,Net-(U2B-PDR_ON)*%
X204425000Y-136812500D02*
X203625000Y-137612500D01*
X203625000Y-137612500D02*
X203625000Y-140537000D01*
%TO.N,Net-(U2B-BOOT0)*%
X207237500Y-136650000D02*
X207125000Y-136762500D01*
X207125000Y-136762500D02*
X207125000Y-140537000D01*
%TO.N,I2C4_SCL*%
X205397918Y-168775000D02*
X151475000Y-168775000D01*
X147375000Y-160810000D02*
X151175000Y-157010000D01*
X210625000Y-163547918D02*
X205397918Y-168775000D01*
X210625000Y-162013000D02*
X210625000Y-163547918D01*
X151475000Y-168775000D02*
X147375000Y-164675000D01*
X147375000Y-164675000D02*
X147375000Y-160810000D01*
%TO.N,I2C4_SDA*%
X146550000Y-159095000D02*
X146550000Y-165850000D01*
X205192893Y-169475000D02*
X211125000Y-163542893D01*
X146550000Y-165850000D02*
X150175000Y-169475000D01*
X151175000Y-154470000D02*
X146550000Y-159095000D01*
X150175000Y-169475000D02*
X205192893Y-169475000D01*
X211125000Y-163542893D02*
X211125000Y-162013000D01*
D27*
%TO.N,Net-(R8-Pad2)*%
X264450000Y-140885000D02*
X264450000Y-143347500D01*
%TO.N,Net-(R10-Pad2)*%
X261850000Y-140885000D02*
X261850000Y-143447500D01*
X261850000Y-143447500D02*
X261825000Y-143472500D01*
D28*
%TO.N,unconnected-(J4-Pad5)*%
X181175000Y-151675000D02*
X181175000Y-151930000D01*
D27*
%TO.N,5V*%
X264450000Y-139060000D02*
X261850000Y-139060000D01*
X261850000Y-139060000D02*
X228560000Y-172350000D01*
X228560000Y-172350000D02*
X151450000Y-172350000D01*
X145700000Y-166600000D02*
X145700000Y-152200000D01*
X151050000Y-146850000D02*
X151175000Y-146850000D01*
X145700000Y-152200000D02*
X151050000Y-146850000D01*
X151450000Y-172350000D02*
X145700000Y-166600000D01*
D28*
%TO.N,GND*%
X195000000Y-148025000D02*
X200637000Y-148025000D01*
D27*
X268650000Y-152572500D02*
X268575000Y-152497500D01*
D28*
X206962500Y-164200000D02*
X208200000Y-164200000D01*
X233937500Y-142287500D02*
X231375000Y-142287500D01*
X196975000Y-149275000D02*
X199499500Y-149275000D01*
X196425000Y-152400000D02*
X196712500Y-152400000D01*
D27*
X225575000Y-153750000D02*
X225575000Y-155187500D01*
D28*
X204125000Y-138900000D02*
X204125000Y-140537000D01*
D27*
X218850000Y-167362500D02*
X218850000Y-168650000D01*
D28*
X198300000Y-158525000D02*
X200637000Y-158525000D01*
D27*
X253025000Y-132600000D02*
X253020000Y-132605000D01*
D28*
X199025000Y-159025000D02*
X198400000Y-159650000D01*
D27*
X214662500Y-167887500D02*
X214650000Y-167900000D01*
D28*
X199499500Y-149275000D02*
X199749500Y-149025000D01*
D27*
X190962251Y-153150000D02*
X191073000Y-153260749D01*
X194939249Y-154860751D02*
X195075000Y-154725000D01*
D28*
X199300000Y-134625000D02*
X199300000Y-135862500D01*
X211625000Y-163750000D02*
X211625000Y-162013000D01*
X215125000Y-134600000D02*
X215125000Y-136075000D01*
D27*
X253020000Y-132605000D02*
X249500000Y-132605000D01*
X211524500Y-138650000D02*
X210625000Y-139549500D01*
D28*
X216475000Y-138775000D02*
X215625000Y-139625000D01*
X194087500Y-162750000D02*
X194100000Y-162737500D01*
X201425000Y-134475000D02*
X201425000Y-135837500D01*
X151175000Y-138800000D02*
X151175000Y-141770000D01*
D27*
X226450000Y-138475000D02*
X227200000Y-139225000D01*
D28*
X199075000Y-151050000D02*
X200612000Y-151050000D01*
D27*
X229775000Y-143200000D02*
X229126104Y-143200000D01*
X220825000Y-167312500D02*
X220825000Y-168700000D01*
D28*
X234025000Y-142200000D02*
X233937500Y-142287500D01*
D27*
X225575000Y-155187500D02*
X225650000Y-155262500D01*
D28*
X200612000Y-151050000D02*
X200637000Y-151025000D01*
X204625000Y-162950500D02*
X204625000Y-162013000D01*
X203725000Y-163850500D02*
X204625000Y-162950500D01*
X209500000Y-168250000D02*
X209500000Y-165875000D01*
D27*
X268600000Y-152522500D02*
X268650000Y-152522500D01*
D28*
X207150000Y-133050000D02*
X207150000Y-134837500D01*
X195950000Y-150300000D02*
X196975000Y-149275000D01*
D27*
X220825000Y-168700000D02*
X220850000Y-168725000D01*
X256625000Y-152522500D02*
X258137500Y-152522500D01*
D28*
X189725000Y-149375000D02*
X191275000Y-149375000D01*
X188050000Y-147650000D02*
X189462500Y-147650000D01*
X188800000Y-145575000D02*
X188100000Y-146275000D01*
X192675000Y-162750000D02*
X194087500Y-162750000D01*
X191275000Y-149375000D02*
X191350000Y-149450000D01*
X215125000Y-136075000D02*
X215100000Y-136100000D01*
X218625000Y-162013000D02*
X218625000Y-163425000D01*
D27*
X227200000Y-139225000D02*
X227200000Y-140062500D01*
X229325000Y-138575000D02*
X229325000Y-139987500D01*
X213050000Y-138650000D02*
X211524500Y-138650000D01*
D28*
X200637000Y-159025000D02*
X199025000Y-159025000D01*
D27*
X189287500Y-158500000D02*
X187425000Y-158500000D01*
D28*
X151200000Y-138775000D02*
X151175000Y-138800000D01*
D27*
X233800000Y-152362500D02*
X233800000Y-153800000D01*
D28*
X215625000Y-139625000D02*
X215625000Y-140537000D01*
X189537500Y-145575000D02*
X188800000Y-145575000D01*
D27*
X222113000Y-152025000D02*
X224425000Y-152025000D01*
D28*
X196712500Y-152400000D02*
X197850000Y-153537500D01*
X212575000Y-132900000D02*
X212575000Y-134425000D01*
X194475000Y-148550000D02*
X195000000Y-148025000D01*
X197950000Y-158875000D02*
X198300000Y-158525000D01*
D27*
X189223200Y-155198200D02*
X189200000Y-155175000D01*
X213950000Y-164837500D02*
X213912500Y-164875000D01*
X227801104Y-144525000D02*
X222113000Y-144525000D01*
X213950000Y-163600000D02*
X213950000Y-164837500D01*
D28*
X196975000Y-150525000D02*
X200637000Y-150525000D01*
D27*
X214662500Y-166525000D02*
X214662500Y-167887500D01*
D28*
X197300000Y-149925000D02*
X197400000Y-150025000D01*
D27*
X227000000Y-152662500D02*
X227000000Y-153950000D01*
X229325000Y-139987500D02*
X229275000Y-140037500D01*
X223550000Y-156525000D02*
X224250000Y-155825000D01*
D28*
X201200000Y-121750000D02*
X200725000Y-122225000D01*
X208200000Y-164200000D02*
X208250000Y-164250000D01*
X198950000Y-151175000D02*
X199075000Y-151050000D01*
D27*
X228700000Y-152662500D02*
X228700000Y-153950000D01*
D28*
X209500000Y-165875000D02*
X211625000Y-163750000D01*
D27*
X268650000Y-152522500D02*
X268650000Y-152572500D01*
X229126104Y-143200000D02*
X227801104Y-144525000D01*
D28*
X196625000Y-150875000D02*
X196975000Y-150525000D01*
X200725000Y-122225000D02*
X199112500Y-122225000D01*
X189462500Y-147650000D02*
X189512500Y-147600000D01*
X203725000Y-166175000D02*
X203725000Y-163850500D01*
X199749500Y-149025000D02*
X200637000Y-149025000D01*
D27*
X183325000Y-122231250D02*
X183325000Y-120668750D01*
X187425000Y-158500000D02*
X187075000Y-158850000D01*
X189223200Y-156612150D02*
X189223200Y-155198200D01*
X189675000Y-151325000D02*
X191537500Y-151325000D01*
X268550000Y-152472500D02*
X268600000Y-152522500D01*
X224425000Y-152025000D02*
X224475000Y-152075000D01*
X210625000Y-139549500D02*
X210625000Y-140537000D01*
D28*
X198000000Y-145025000D02*
X200637000Y-145025000D01*
D27*
X222113000Y-156525000D02*
X223550000Y-156525000D01*
D28*
X204625000Y-138400000D02*
X204125000Y-138900000D01*
D27*
X218850000Y-168650000D02*
X218800000Y-168700000D01*
X228700000Y-153950000D02*
X228725000Y-153975000D01*
X193273000Y-154860751D02*
X194939249Y-154860751D01*
D28*
X201425000Y-135837500D02*
X201375000Y-135887500D01*
D27*
X258137500Y-152522500D02*
X258162500Y-152497500D01*
X266862500Y-152472500D02*
X268550000Y-152472500D01*
D28*
X218625000Y-163425000D02*
X217850000Y-164200000D01*
X197700000Y-144725000D02*
X198000000Y-145025000D01*
X199350000Y-134575000D02*
X199300000Y-134625000D01*
D27*
X188600000Y-153150000D02*
X190962251Y-153150000D01*
D28*
X197400000Y-150025000D02*
X200637000Y-150025000D01*
D27*
X227000000Y-153950000D02*
X226975000Y-153975000D01*
%TO.N,CHANNEL_1*%
X271625000Y-138775000D02*
X262915000Y-130065000D01*
X268575000Y-155700000D02*
X271625000Y-152650000D01*
X264375000Y-148997500D02*
X264375000Y-151710000D01*
X264450000Y-145237500D02*
X264450000Y-148922500D01*
X262915000Y-130065000D02*
X249500000Y-130065000D01*
X265137500Y-154537500D02*
X266300000Y-155700000D01*
X266300000Y-155700000D02*
X268575000Y-155700000D01*
X264450000Y-148922500D02*
X264375000Y-148997500D01*
X264375000Y-151710000D02*
X265137500Y-152472500D01*
X271625000Y-152650000D02*
X271625000Y-138775000D01*
X265137500Y-152472500D02*
X265137500Y-154537500D01*
%TO.N,CHANNEL_2*%
X254200000Y-135725000D02*
X253620000Y-135145000D01*
X261825000Y-145212500D02*
X261825000Y-148987500D01*
X256285000Y-156100000D02*
X254200000Y-156100000D01*
X261835000Y-150140000D02*
X259887500Y-152087500D01*
X259887500Y-152497500D02*
X256285000Y-156100000D01*
X261835000Y-148997500D02*
X261835000Y-150140000D01*
X261825000Y-148987500D02*
X261835000Y-148997500D01*
X253620000Y-135145000D02*
X249500000Y-135145000D01*
X259887500Y-152087500D02*
X259887500Y-152497500D01*
%TD*%
%TA.AperFunction,Conductor*%
%TO.N,GND*%
G36*
X179943039Y-117019685D02*
G01*
X179988794Y-117072489D01*
X180000000Y-117124000D01*
X180000000Y-120876000D01*
X179980315Y-120943039D01*
X179927511Y-120988794D01*
X179876000Y-121000000D01*
X174124000Y-121000000D01*
X174056961Y-120980315D01*
X174011206Y-120927511D01*
X174000000Y-120876000D01*
X174000000Y-117124000D01*
X174019685Y-117056961D01*
X174072489Y-117011206D01*
X174124000Y-117000000D01*
X179876000Y-117000000D01*
X179943039Y-117019685D01*
G37*
%TD.AperFunction*%
%TD*%
M02*
